<svg width="66" height="60" viewBox="0 0 66 60" fill="none" xmlns="http://www.w3.org/2000/svg">
<g style="mix-blend-mode:screen">
<path d="M46.334 39.59C46.9098 39.2875 47.4611 38.9533 47.968 38.5774C48.4906 38.1899 48.9154 37.8582 49.2818 37.5582C49.834 37.1064 50.2528 36.7281 50.6724 36.3464C50.7178 36.3047 50.7623 36.263 50.8076 36.2214C51.0074 36.0388 51.2081 35.8563 51.4253 35.6613C52.077 35.0804 52.8752 34.4087 54.2152 33.4153L65.5982 24.9746C65.7649 24.852 65.921 24.6637 65.9777 24.3778C66.0344 24.0928 65.9899 23.7111 65.7527 23.201C65.6872 23.0585 65.607 22.9094 65.5162 22.7577C65.3801 22.5302 65.2196 22.2943 65.0425 22.0643C64.9239 21.911 64.7991 21.7584 64.6691 21.6126C64.4737 21.3926 64.2687 21.1851 64.0628 21.0017C63.9381 20.8917 63.8142 20.7917 63.6912 20.7017C63.6083 20.6408 63.5263 20.5833 63.446 20.5333C63.3797 20.4917 63.3134 20.4541 63.248 20.4208C63.118 20.3541 62.9924 20.3041 62.8729 20.2758C62.7787 20.2533 62.6905 20.2433 62.6111 20.2433C62.6094 20.2433 62.6077 20.2441 62.6059 20.2441C62.5972 20.2441 62.5902 20.2458 62.5824 20.2458C62.5169 20.2483 62.4576 20.2566 62.4035 20.2683C62.3843 20.2733 62.3678 20.2783 62.3494 20.2833C62.3084 20.2958 62.2718 20.3083 62.2386 20.3241C62.2247 20.3308 62.2116 20.3366 62.1994 20.3416C62.1593 20.3633 62.1244 20.385 62.0982 20.4042L48.8535 30.2242C48.7584 30.295 48.6546 30.3842 48.5569 30.4959C48.3265 30.7551 48.1207 31.1317 48.0892 31.6618C48.0631 32.116 48.1643 32.6835 48.4897 33.3853C48.5255 33.4628 48.5621 33.5378 48.5987 33.6086C48.6729 33.7536 48.7479 33.887 48.8186 34.007C48.8543 34.0662 48.8884 34.1229 48.9215 34.1745C48.5054 34.4846 47.7263 35.0379 46.5608 35.7638C45.8612 36.1997 45.0219 36.6972 44.0387 37.2415C44.3615 35.6863 44.7864 33.8428 45.3203 31.9018C45.5209 31.1734 45.7364 30.4317 45.9676 29.6866C46.122 29.1899 46.2825 28.6915 46.4518 28.194C46.5364 27.9456 46.6219 27.6973 46.71 27.4498C46.8862 26.9547 47.0686 26.4622 47.2596 25.9755C48.0832 23.872 49.0873 21.7709 50.0949 19.8499C50.1865 19.6749 50.279 19.5024 50.3697 19.3307C50.5529 18.9874 50.7361 18.6515 50.9176 18.3223C51.099 17.9923 51.2796 17.6714 51.4567 17.3589C51.6347 17.0455 51.81 16.7413 51.981 16.4463C52.2392 16.0046 52.4887 15.5846 52.7269 15.1895C53.3629 14.1361 53.9168 13.2635 54.3234 12.6368C54.4761 12.4026 54.6078 12.2018 54.7142 12.0409C54.777 11.9467 54.8338 11.8509 54.8826 11.7559C54.9821 11.565 55.0562 11.3709 55.1042 11.1767C55.1531 10.9825 55.1749 10.7892 55.1705 10.5983C55.1644 10.3108 55.0998 10.0291 54.9751 9.75989C54.805 9.39402 54.5354 9.07901 54.2021 8.84232C54.0355 8.72314 53.8532 8.62479 53.6586 8.54895C53.4641 8.47227 53.2591 8.41977 53.0471 8.39144C52.9433 8.37727 52.8395 8.37144 52.7356 8.37144C52.733 8.37144 52.7304 8.37061 52.7278 8.37061C52.6371 8.37061 52.5472 8.37643 52.4582 8.38726C52.4346 8.38976 52.4102 8.3956 52.3867 8.39894C52.3195 8.40894 52.2532 8.41894 52.1878 8.43477C52.1555 8.44311 52.1241 8.45229 52.0918 8.46145C52.036 8.47812 51.9801 8.49395 51.9261 8.51395C51.8929 8.52645 51.8597 8.53979 51.8266 8.55396C51.7742 8.57562 51.7245 8.59895 51.6739 8.62479C51.6417 8.64146 51.6094 8.65729 51.578 8.67479C51.5283 8.70313 51.4803 8.73397 51.4323 8.76564C51.4026 8.78481 51.3738 8.80398 51.345 8.82398C51.2936 8.86149 51.2456 8.90231 51.1967 8.94398C51.1749 8.96315 51.1505 8.98232 51.1278 9.00232C51.0589 9.0665 50.9926 9.13401 50.9289 9.20818C50.8007 9.3582 50.6506 9.54487 50.4814 9.76739C50.3688 9.9149 50.2484 10.0791 50.1193 10.2574C49.8628 10.615 49.5758 11.0333 49.2644 11.5059C49.0315 11.8609 48.7846 12.2476 48.5263 12.6635C48.3553 12.9402 48.1782 13.231 47.9977 13.5336C47.6365 14.1394 47.2596 14.7953 46.8723 15.4962C46.6786 15.8471 46.4832 16.2088 46.2851 16.583C45.5933 17.8881 44.8814 19.3274 44.1818 20.8759C43.6828 21.981 43.1899 23.1436 42.717 24.352C41.2174 28.1832 40.1365 32.0535 39.4456 35.1496C39.4072 35.3221 39.3705 35.4913 39.3339 35.658C39.1908 36.3264 39.0652 36.9548 38.9596 37.5331C38.8802 37.9674 38.8122 38.3732 38.7538 38.7482C38.7154 38.9983 38.6813 39.2333 38.6517 39.4541C38.5932 39.8958 38.5522 40.2759 38.5295 40.5876C38.2059 40.8192 37.8944 41.0501 37.6109 41.2718C37.3666 41.4635 37.1416 41.6477 36.9348 41.826C36.7289 42.0044 36.5414 42.1752 36.3721 42.3402C36.2762 42.4336 36.188 42.5244 36.1034 42.6136C35.935 42.7936 35.792 42.9653 35.6716 43.1286C35.2677 43.6762 35.1237 44.1412 35.2336 44.5371C35.2485 44.5896 35.2668 44.6404 35.2895 44.6913C35.3244 44.7654 35.3689 44.8363 35.4212 44.9013C35.4386 44.923 35.4605 44.9496 35.4831 44.9763C35.4901 44.9855 35.4988 44.9938 35.5058 45.003C35.5224 45.0221 35.5398 45.043 35.559 45.063C35.5704 45.0755 35.5817 45.0863 35.5931 45.098C35.6114 45.1163 35.6297 45.1363 35.6498 45.1546C35.6637 45.1671 35.6786 45.1788 35.6925 45.1913C35.7135 45.2096 35.7335 45.2271 35.7553 45.2438C35.771 45.2563 35.7885 45.2671 35.8059 45.2788C35.8277 45.2938 35.8504 45.3097 35.874 45.3238C35.8932 45.3347 35.9124 45.343 35.9316 45.353C35.9551 45.3655 35.9804 45.3772 36.0066 45.3872C36.0266 45.3955 36.0484 45.4013 36.0703 45.4063C36.0964 45.4147 36.1235 45.4213 36.1514 45.4272C36.1741 45.4313 36.1985 45.4322 36.2221 45.4347C36.2421 45.4363 36.2604 45.4405 36.2805 45.4405C36.2988 45.4405 36.318 45.4397 36.3381 45.438C36.5562 45.4213 36.7167 45.323 36.8511 45.1813C36.9837 45.0405 37.0892 44.8546 37.1983 44.6654C37.2611 44.5546 37.3326 44.4312 37.4172 44.2971C37.5019 44.1629 37.5996 44.0187 37.7156 43.8687C37.9485 43.5687 38.2547 43.2453 38.6787 42.9319C38.8331 42.8178 39.0102 42.7086 39.1978 42.6011L39.1995 42.6019C39.2597 42.6578 39.3243 42.7103 39.3906 42.7603C39.4124 42.7769 39.436 42.7911 39.4586 42.8069C39.5049 42.8394 39.552 42.8711 39.6009 42.9003C39.6279 42.917 39.6567 42.9311 39.6846 42.947C39.7317 42.972 39.7788 42.9969 39.8277 43.0194C39.8573 43.0336 39.8879 43.0469 39.9184 43.0594C39.9681 43.0803 40.0187 43.0995 40.0702 43.117C40.1007 43.1278 40.1304 43.1378 40.1618 43.147C40.2176 43.1645 40.2761 43.1786 40.3345 43.192C40.3607 43.1986 40.3877 43.2061 40.4139 43.2103C40.4994 43.2278 40.5858 43.2403 40.6739 43.2486C40.6809 43.2495 40.687 43.2495 40.6931 43.2495C40.7664 43.2561 40.8405 43.2603 40.9147 43.2603C40.9216 43.2603 40.9286 43.2586 40.9347 43.2586C41.0386 43.2578 41.1432 43.252 41.2488 43.2395C41.384 43.222 41.5166 43.1936 41.6423 43.1561C42.2276 42.9828 42.6935 42.5978 42.9919 42.0694C43.1428 41.801 43.2553 41.4977 43.3085 41.161C43.3103 41.1493 43.3129 41.1351 43.3146 41.1235C43.3268 41.0476 43.3391 40.9668 43.3539 40.8801C44.3502 40.5092 45.3752 40.0925 46.334 39.59ZM35.8495 44.5913C35.8234 44.5588 35.8016 44.5246 35.785 44.4887C35.5887 44.0637 36.0406 43.3828 36.8894 42.5827C36.8406 42.6486 36.7943 42.7128 36.749 42.7744C36.66 42.8995 36.5771 43.0161 36.5056 43.1203C36.3259 43.3786 36.2133 43.5545 36.2133 43.5545C36.2133 43.5545 36.8388 42.9511 37.515 42.4152C37.6135 42.3344 37.7147 42.2561 37.8133 42.1802C37.9119 42.1035 38.0096 42.031 38.1021 41.9619C38.2888 41.8244 38.4597 41.7027 38.595 41.6085C38.6255 41.721 38.6621 41.831 38.7119 41.9369C38.7546 42.0302 38.8052 42.1185 38.8611 42.2027C38.7712 42.2552 38.6822 42.3094 38.5967 42.3636C38.5112 42.4186 38.431 42.4744 38.3533 42.5311C36.3582 44.0112 36.7167 45.658 35.8495 44.5913ZM49.1841 30.6326C49.4624 30.4259 50.0774 29.9691 50.8975 29.3624C51.0336 29.2607 51.1758 29.1549 51.3232 29.0457C51.6181 28.8274 51.933 28.594 52.2637 28.349C52.5943 28.1031 52.9398 27.8465 53.2975 27.5823C54.1882 26.9214 55.1469 26.2105 56.0952 25.5079C57.423 24.5228 58.7325 23.5519 59.816 22.7494C60.1248 22.5202 60.4153 22.3043 60.684 22.106C60.8175 22.0068 60.9458 21.9118 61.067 21.8218C61.7963 21.2809 62.2927 20.9117 62.4279 20.8117C62.9409 20.4317 64.67 22.1376 65.2597 23.4094C65.4962 23.9194 65.5494 24.3603 65.2676 24.5695C65.2676 24.5695 64.1535 25.3954 62.578 26.5638C61.6585 27.2456 60.5837 28.0432 59.4801 28.8616C59.1652 29.0949 58.8476 29.3308 58.5309 29.5658C56.7896 30.8567 55.0737 32.1293 53.8855 33.0103C53.6691 33.1703 53.4676 33.3228 53.2774 33.4678C51.5666 34.7712 50.8486 35.4846 49.9649 36.2789C49.8672 36.368 49.7669 36.4564 49.6631 36.5472C49.144 37.0031 48.535 37.5065 47.6382 38.1715C46.9455 38.6849 46.1621 39.1174 45.3456 39.5008C45.6771 39.285 46.0191 39.0558 46.3593 38.8207C46.6664 38.6116 46.9691 38.3974 47.2587 38.1882C47.3556 38.119 47.4515 38.0499 47.544 37.9815C47.7307 37.8448 47.9104 37.7115 48.0797 37.584C48.1652 37.5198 48.2463 37.4581 48.3257 37.3973C49.0402 36.8548 49.5235 36.4605 49.5235 36.4605C49.5235 36.4605 49.1257 36.7531 48.5167 37.174C47.9087 37.5948 47.0878 38.1449 46.245 38.6599C45.985 38.8216 45.7224 38.9816 45.4642 39.1333C45.2069 39.2858 44.9539 39.4308 44.714 39.5692C44.4732 39.7058 44.2437 39.8333 44.0335 39.95C43.8232 40.0659 43.6313 40.17 43.4656 40.2584C43.5484 39.7792 43.6531 39.1983 43.7805 38.5349C44.4644 38.1849 45.2845 37.7465 46.0854 37.2673C47.8476 36.2414 49.4895 35.0412 49.7529 34.8471C50.0609 34.9054 50.3558 34.8262 50.6035 34.7254C50.7344 34.6712 50.8609 34.6095 50.9839 34.542C51.1069 34.4745 51.2255 34.402 51.3433 34.3254C51.5788 34.172 51.8083 34.0045 52.0482 33.837C52.2846 33.6678 52.5237 33.492 52.7662 33.3111C53.0096 33.1303 53.2565 32.9452 53.5086 32.7552C54.5127 31.9968 55.584 31.1868 56.6536 30.3767C57.7196 29.56 58.7848 28.7432 59.7837 27.9773C60.5314 27.4023 61.2371 26.8489 61.8783 26.3488C62.0921 26.1813 62.2988 26.0196 62.4978 25.8655C63.2873 25.2412 63.945 24.7212 64.4048 24.357C64.8619 23.9895 65.1245 23.7794 65.1245 23.7794C65.1245 23.7794 65.0547 23.8278 64.9239 23.9161C64.8593 23.9611 64.7782 24.0153 64.6848 24.0803C64.5906 24.1445 64.4816 24.2187 64.3603 24.302C63.8761 24.6379 63.1852 25.1179 62.3564 25.6938C61.9446 25.9855 61.498 26.2988 61.0251 26.6305C60.7887 26.7972 60.5462 26.9681 60.2984 27.1431C60.0515 27.3181 59.7986 27.4981 59.5421 27.6814C58.5179 28.4165 57.4256 29.1991 56.3334 29.9833C55.5177 30.5759 54.7029 31.1684 53.916 31.7401C53.6534 31.931 53.3952 32.1185 53.1404 32.3043C52.8857 32.4894 52.6362 32.6727 52.3928 32.8527C52.1494 33.0336 51.9121 33.2111 51.6827 33.3828C51.3006 33.6653 50.9298 33.9287 50.5782 34.122C50.5721 34.1178 50.5703 34.1162 50.5634 34.1112C50.5101 34.0687 50.4334 34.0053 50.3444 33.9236C50.1664 33.7595 49.9457 33.517 49.7503 33.2511C49.554 32.9869 49.3883 32.6986 49.2783 32.4744C49.2487 32.4194 49.2242 32.3669 49.2033 32.321C49.1824 32.2744 49.1649 32.2343 49.1501 32.2002C49.1213 32.1335 49.1038 32.0952 49.1038 32.0952C49.1038 32.0952 49.1126 32.136 49.1274 32.2068C49.144 32.2777 49.1632 32.381 49.1989 32.501C49.2303 32.6227 49.2731 32.7627 49.3263 32.9127C49.3795 33.0628 49.4423 33.2203 49.5156 33.3761C49.6596 33.687 49.8384 33.9853 49.9954 34.2003C50.0295 34.2487 50.0618 34.2904 50.0923 34.3287C49.9955 34.3504 49.9065 34.357 49.8323 34.3429C49.7878 34.3354 49.7451 34.3204 49.7041 34.2979C49.6631 34.277 49.6229 34.2479 49.5854 34.2162C49.5322 34.1403 49.4371 34.0045 49.3272 33.8245C49.3001 33.7795 49.2722 33.7328 49.2426 33.6828C49.1562 33.5328 49.0655 33.3619 48.9791 33.1778C48.9311 33.0744 48.8858 32.9669 48.843 32.8561C48.7584 32.6352 48.6895 32.4044 48.6511 32.1735C48.5595 31.5976 48.6554 31.0234 49.1841 30.6326ZM45.8577 36.9481C45.5096 37.2015 45.1545 37.4465 44.8108 37.6765C44.4662 37.9073 44.1321 38.124 43.8224 38.319C43.8485 38.1865 43.8747 38.0507 43.9035 37.9115C45.1205 37.2489 46.1333 36.6497 46.9499 36.1397C46.6018 36.4072 46.2345 36.6814 45.8577 36.9481ZM54.2606 11.7692C54.1733 11.9009 54.0765 12.0484 53.9718 12.2084C53.8663 12.3693 53.7528 12.5443 53.6325 12.7318C53.3908 13.1077 53.1195 13.536 52.8264 14.0094C52.6798 14.2461 52.5271 14.4936 52.371 14.7528C52.0587 15.2687 51.7263 15.8262 51.3834 16.4188C51.0397 17.0105 50.6864 17.6364 50.3287 18.2881C49.0768 20.5708 47.7804 23.1802 46.7554 25.7988C46.0958 27.4823 45.5244 29.2324 45.0341 30.9342C44.9251 31.3126 44.8204 31.6885 44.7201 32.061C44.6189 32.4327 44.522 32.8019 44.4287 33.1644C43.545 36.6181 43.0145 39.6242 42.7816 41.0901C42.7537 41.2651 42.7101 41.4243 42.6542 41.5702C42.5984 41.716 42.5295 41.8468 42.451 41.9644C42.4388 41.9294 42.4283 41.8927 42.4143 41.8535C42.3524 41.6485 42.273 41.3935 42.2058 41.0993C42.2172 41.0768 42.2311 41.056 42.2407 41.0326C42.3664 40.7118 42.3559 40.3634 42.2111 40.0509C42.1718 39.9675 42.1247 39.8909 42.0706 39.8184C42.0723 39.55 42.0863 39.2649 42.1072 38.9674C42.1273 38.6699 42.1543 38.3607 42.1823 38.0474C42.2015 37.8398 42.2267 37.629 42.2564 37.4165C42.3157 36.9906 42.3977 36.5597 42.5007 36.1272C42.553 35.9105 42.6097 35.6946 42.6717 35.4796C42.9133 34.6179 43.223 33.7695 43.5092 32.9736C43.7971 32.1777 44.0614 31.4301 44.2533 30.7809C44.3022 30.6192 44.3467 30.4625 44.3859 30.3142C44.4671 30.0166 44.5316 29.7466 44.5813 29.5149C44.6066 29.3983 44.6285 29.2916 44.6468 29.1949C44.7148 28.8074 44.7462 28.5849 44.7462 28.5849C44.7462 28.5849 44.707 28.8066 44.6232 29.1916C44.5796 29.3833 44.5212 29.6149 44.447 29.8791C44.4095 30.0108 44.3676 30.1508 44.3222 30.2975C44.276 30.445 44.2272 30.5984 44.1722 30.7584C43.9558 31.3993 43.6653 32.1327 43.3478 32.9186C43.032 33.7045 42.69 34.5445 42.4117 35.4088C42.1273 36.2705 41.9249 37.1656 41.815 38.0082C41.7565 38.4299 41.7129 38.8366 41.6763 39.2233C41.6684 39.3033 41.6614 39.3816 41.6562 39.4608C41.5882 39.4225 41.5184 39.3875 41.4425 39.3608C41.0455 39.2191 40.6268 39.2716 40.2857 39.46C40.2988 39.3583 40.3101 39.2575 40.3232 39.1533C40.4035 38.5449 40.5177 37.9007 40.6591 37.2614C40.7245 36.9406 40.7969 36.6222 40.8745 36.3097C40.9531 35.9972 41.0359 35.6913 41.1232 35.3955C41.3064 34.8087 41.4634 34.2545 41.6405 33.7928C41.7234 33.5595 41.8019 33.347 41.8726 33.1578C41.9406 32.9678 42.0008 32.8019 42.0593 32.6694C42.1639 32.3985 42.2241 32.2435 42.2241 32.2435C42.2241 32.2435 42.2023 32.2793 42.1622 32.3468C42.143 32.3802 42.1177 32.4219 42.088 32.4702C42.0593 32.5194 42.0261 32.5752 41.9886 32.6377C41.9153 32.7644 41.8289 32.9202 41.7338 33.1003C41.637 33.2794 41.5314 33.4836 41.4294 33.7128C41.22 34.167 40.9897 34.7054 40.7891 35.2979C40.5945 35.8922 40.4157 36.5339 40.2639 37.1839C40.201 37.5106 40.1444 37.8382 40.0964 38.1624C40.0475 38.4866 40.0074 38.8049 39.9751 39.1149C39.955 39.3291 39.9419 39.5358 39.9323 39.7392C39.8826 39.7942 39.8373 39.8542 39.7963 39.9175C39.7561 39.9809 39.7204 40.0484 39.6924 40.1209C39.661 40.2009 39.6375 40.2825 39.6244 40.365C39.5956 40.5301 39.6008 40.6984 39.6392 40.8618C39.6584 40.9443 39.6872 41.0234 39.723 41.1018C39.7788 41.221 39.8547 41.3251 39.9402 41.4202C39.9428 41.4427 39.9437 41.4693 39.9454 41.491C39.9594 41.6927 39.9751 41.8677 39.9908 42.0119C40.0091 42.1552 40.0222 42.2686 40.0318 42.3452C40.0414 42.4219 40.0466 42.4636 40.0466 42.4636C40.0466 42.4636 40.0492 42.4219 40.0527 42.3444C40.0571 42.2669 40.0632 42.1536 40.0702 42.0094C40.0711 41.8852 40.0815 41.7327 40.0929 41.566C40.2107 41.6602 40.3424 41.7402 40.4916 41.7935C40.9566 41.9594 41.4547 41.8619 41.8176 41.5852C41.8542 41.7343 41.89 41.8694 41.9206 41.986C41.9703 42.1594 42.0104 42.2969 42.0392 42.3977C41.3064 42.9361 40.2316 42.8328 39.5904 42.2477C39.5337 41.9435 39.4787 41.496 39.4691 40.8751C39.4604 40.3784 39.4813 39.7708 39.552 39.0358C39.675 37.7507 39.9507 36.0764 40.4951 33.9295C40.523 33.862 40.5544 33.782 40.591 33.6803C40.6181 33.6095 40.6469 33.5311 40.6756 33.4461C40.7341 33.2753 40.7995 33.0761 40.8676 32.8536C40.9016 32.7427 40.9365 32.6269 40.9723 32.5052C41.1171 32.0202 41.275 31.4568 41.5018 30.8792C41.6169 30.5909 41.7513 30.3008 41.9144 30.0191C41.9938 29.8775 42.0837 29.74 42.1788 29.6016C42.273 29.4633 42.3733 29.3249 42.4702 29.1824C42.7764 28.7574 42.9901 28.2848 43.1707 27.8265C43.23 27.6731 43.2867 27.5223 43.3408 27.3756C43.5624 26.783 43.7657 26.228 43.9288 25.7488C44.1329 25.1496 44.2699 24.6687 44.3432 24.3928C44.3868 24.227 44.4077 24.1345 44.4077 24.1345C44.4077 24.1345 44.3362 24.3878 44.1914 24.8079C44.105 25.0596 43.9916 25.3712 43.852 25.7238C43.7604 25.9588 43.6557 26.213 43.5441 26.4797C43.4315 26.7472 43.312 27.0281 43.1873 27.3198C42.9395 27.9023 42.6734 28.5173 42.2564 29.0424C42.0767 29.2816 41.883 29.5191 41.7138 29.7741C42.2163 28.239 42.8243 26.5397 43.5615 24.6562C43.7238 24.2436 43.8834 23.8411 44.0422 23.4502C44.3598 22.6668 44.6721 21.9234 44.9765 21.2184C45.1301 20.8658 45.281 20.5233 45.4311 20.1908C45.7303 19.5241 46.0234 18.8948 46.3096 18.3015C46.4527 18.0056 46.594 17.7173 46.7336 17.4381C47.0127 16.8797 47.2858 16.3563 47.5501 15.8646C47.9471 15.127 48.3283 14.4628 48.6903 13.8644C49.1736 13.0668 49.6238 12.386 50.0382 11.8059C50.0207 11.8576 50.0024 11.9059 49.985 11.9584C49.7791 12.5435 49.5174 13.1494 49.2295 13.7477C49.0864 14.0461 48.9364 14.3428 48.7828 14.632C48.6301 14.922 48.4748 15.2054 48.3222 15.4771C48.2454 15.6129 48.1695 15.7462 48.0945 15.8762C48.0195 16.0071 47.9453 16.1346 47.872 16.2571C47.7324 16.508 47.5876 16.7372 47.4629 16.9555C47.2073 17.3881 46.9953 17.7472 46.8461 17.9998C46.7702 18.1248 46.7126 18.2248 46.6742 18.2931C46.635 18.3615 46.6149 18.399 46.6149 18.399C46.6149 18.399 46.642 18.3665 46.6917 18.3048C46.7414 18.2431 46.8138 18.1523 46.9037 18.0356C47.0878 17.8047 47.339 17.4664 47.6269 17.0513C47.9881 16.5338 48.3928 15.8871 48.7924 15.1837C49.0323 14.7603 49.2705 14.317 49.4964 13.8669C49.6465 13.5677 49.7904 13.2627 49.9239 12.961C50.0574 12.6585 50.1821 12.3568 50.2929 12.0643C50.3549 11.9234 50.4194 11.7867 50.4848 11.6542C50.682 11.255 50.8923 10.8966 51.0868 10.585C51.1636 10.4649 51.2386 10.3541 51.311 10.2499C51.3826 10.1466 51.4515 10.0499 51.5169 9.9599C51.6373 9.82905 51.7507 9.70988 51.8589 9.60154C52.1817 9.27651 52.4477 9.04898 52.651 8.89314C53.0706 8.8748 53.4894 9.0015 53.8331 9.22985C53.8314 9.27736 53.8296 9.33151 53.8244 9.39319C53.8096 9.57737 53.7677 9.82656 53.6726 10.1124C53.6342 10.0632 53.5923 10.0174 53.547 9.97406C53.4126 9.84488 53.2504 9.74322 53.0654 9.67738C52.3623 9.42569 51.5771 9.76739 51.3145 10.4391C51.2831 10.5191 51.2596 10.6008 51.2465 10.6833C51.2177 10.8483 51.2229 11.0167 51.2613 11.18C51.2805 11.2625 51.3093 11.3417 51.345 11.42C51.4951 11.7426 51.7673 11.9884 52.1127 12.1118C52.1677 12.1309 52.2227 12.1459 52.2776 12.1576C52.3326 12.1693 52.3893 12.1759 52.4443 12.1818C52.2314 12.461 52.0107 12.746 51.8013 13.0427C51.3651 13.6569 50.99 14.3036 50.6759 14.897C50.4866 15.2529 50.32 15.5896 50.1752 15.8888C50.0792 16.0896 49.9911 16.2738 49.9143 16.4363C49.6823 16.9264 49.5453 17.2297 49.5453 17.2297C49.5453 17.2297 49.6526 17.0239 49.8384 16.6797C49.8759 16.6105 49.9152 16.5363 49.9588 16.4571C50.0452 16.298 50.1429 16.1188 50.2502 15.9238C50.6288 15.2445 51.1348 14.372 51.7498 13.5427C51.8388 13.4244 51.9278 13.3077 52.0203 13.191C52.3003 12.8377 52.603 12.4976 52.8874 12.1584C53.1038 12.1118 53.3053 12.0159 53.4754 11.8776C53.6438 11.7401 53.7799 11.5609 53.8628 11.3484C53.9055 11.2384 53.9308 11.1267 53.9413 11.0142C53.9518 10.9008 53.9456 10.7875 53.9247 10.675C53.95 10.6258 53.9779 10.5758 54.0015 10.5274C54.1542 10.2091 54.2449 9.91075 54.2972 9.66489C54.3696 9.76073 54.4342 9.86155 54.4857 9.97073C54.716 10.4733 54.7029 11.1042 54.2606 11.7692ZM40.6791 41.3118C40.6242 41.2926 40.5744 41.2676 40.5273 41.2401C40.3869 41.1551 40.2804 41.0334 40.2159 40.8943C40.1949 40.8484 40.1784 40.8018 40.1662 40.7534C40.1304 40.6076 40.1382 40.4517 40.1967 40.3009C40.3563 39.8958 40.8292 39.6892 41.254 39.8408C41.4695 39.9183 41.6318 40.0717 41.7173 40.2584C41.7382 40.3042 41.7548 40.3509 41.767 40.3992C41.8028 40.5451 41.7949 40.7009 41.7365 40.8509C41.5777 41.2576 41.1049 41.4635 40.6791 41.3118ZM52.3003 11.63C52.2453 11.6109 52.1956 11.5859 52.1485 11.5584C52.1014 11.53 52.0587 11.4975 52.0203 11.4617C51.9418 11.3909 51.8798 11.305 51.8371 11.2117C51.7525 11.0308 51.7402 10.8192 51.8187 10.6191C51.9784 10.2141 52.4512 10.0074 52.8761 10.1591C53.0916 10.2366 53.2538 10.39 53.3393 10.5766C53.424 10.7575 53.4362 10.9692 53.3585 11.1692C53.198 11.5759 52.7252 11.7817 52.3003 11.63Z" fill="#EACCB6"/>
<path d="M53.3332 28.0056C52.9328 28.304 52.5498 28.5982 52.1878 28.8765C51.8249 29.1557 51.482 29.4207 51.1645 29.6624C50.689 30.0266 50.2781 30.3517 49.9466 30.6125C49.8367 30.6992 49.7355 30.7792 49.643 30.8509C49.2783 31.1409 49.0707 31.3067 49.0707 31.3067C49.0707 31.3067 49.1257 31.2692 49.2286 31.1976C49.3316 31.1267 49.4834 31.0225 49.6753 30.89C49.7704 30.8234 49.8768 30.7492 49.992 30.6684C50.2231 30.5075 50.4918 30.32 50.7902 30.11C50.9385 30.005 51.0955 29.8933 51.2569 29.7766C51.4201 29.6591 51.5893 29.5382 51.7647 29.4132C52.1154 29.1624 52.4905 28.8957 52.8805 28.614C53.0759 28.474 53.2739 28.329 53.4763 28.1806C54.2824 27.5897 55.1417 26.9597 56.0019 26.3296C56.8542 25.6896 57.7066 25.0512 58.5057 24.4511C59.3048 23.8519 60.0385 23.2785 60.6736 22.7935C61.3087 22.3085 61.8269 21.8917 62.195 21.6059C62.2858 21.5334 62.3669 21.4684 62.4376 21.4125C62.6496 21.2434 62.7673 21.1509 62.7673 21.1509C62.7673 21.1509 62.7115 21.1884 62.6085 21.2592C62.5571 21.295 62.4934 21.3392 62.4184 21.3901C62.3442 21.4409 62.2578 21.5009 62.1619 21.5676C62.0668 21.6342 61.9612 21.7084 61.8452 21.7892C61.73 21.8701 61.6053 21.9568 61.4718 22.0501C61.2049 22.2376 60.9048 22.4485 60.5802 22.681C59.9321 23.1485 59.1678 23.6861 58.3617 24.277C57.5556 24.8678 56.6963 25.4979 55.8353 26.128C54.9847 26.7664 54.1324 27.4056 53.3332 28.0056Z" fill="#EACCB6"/>
<path d="M45.5009 27.0589C45.8682 26.3496 46.136 25.5529 46.4291 24.7787C46.498 24.5845 46.5704 24.3903 46.6446 24.1986C46.8679 23.6219 47.1096 23.0594 47.3599 22.5318C47.4428 22.356 47.5257 22.1835 47.6077 22.0151C47.8537 21.5092 48.0954 21.0408 48.3257 20.6325C48.4792 20.3599 48.6206 20.1099 48.7479 19.8899C48.8753 19.6691 48.9905 19.4782 49.0882 19.3232C49.2818 19.0107 49.3918 18.8323 49.3918 18.8323C49.3918 18.8323 49.3595 18.874 49.2975 18.9523C49.2373 19.0298 49.1475 19.144 49.0341 19.2899C48.925 19.4382 48.7915 19.6174 48.6424 19.8274C48.4941 20.0374 48.3301 20.2766 48.1634 20.5441C47.8302 21.08 47.4463 21.7092 47.0982 22.416C47.011 22.5926 46.9238 22.7727 46.8383 22.956C46.6673 23.3227 46.5006 23.7036 46.3445 24.0894C46.2651 24.282 46.1883 24.4778 46.1142 24.6728C45.9746 25.067 45.8411 25.4604 45.6998 25.8413C45.5593 26.2238 45.4101 26.593 45.2391 26.938C45.0682 27.2822 44.8823 27.6048 44.6747 27.8906C44.4697 28.1773 44.2342 28.4223 44.0117 28.6473C43.5607 29.0924 43.2082 29.5049 43.0346 29.8333C42.9456 29.9966 42.8968 30.1325 42.8671 30.2258C42.854 30.2733 42.8444 30.3092 42.8375 30.3333C42.8305 30.3575 42.827 30.37 42.827 30.37C42.827 30.37 42.8462 30.3216 42.8828 30.2316C42.9221 30.1433 42.9866 30.0141 43.0905 29.8658C43.2361 29.6333 43.49 29.3749 43.8076 29.0807C43.9131 28.9824 44.0256 28.8807 44.1443 28.774C44.3772 28.5565 44.6363 28.319 44.8701 28.0298C45.1074 27.7414 45.3186 27.4122 45.5009 27.0589Z" fill="#EACCB6"/>
<path d="M45.0681 22.0442C44.9808 22.4009 44.9712 22.7476 44.9616 23.0677C44.9538 23.3885 44.9416 23.6885 44.9197 23.9669C44.8979 24.2444 44.8753 24.4995 44.8517 24.7253C44.8281 24.9503 44.8037 25.1479 44.7793 25.3087C44.7679 25.3904 44.7592 25.462 44.7496 25.5254C44.74 25.5879 44.7322 25.6412 44.7261 25.6846C44.7121 25.7704 44.7043 25.8171 44.7043 25.8171C44.7043 25.8171 44.7584 25.6371 44.8369 25.3179C44.911 24.9987 45.0183 24.5403 45.0899 23.9819C45.1248 23.7036 45.1579 23.3985 45.1832 23.0785C45.1972 22.9193 45.2111 22.756 45.2329 22.5926C45.253 22.4293 45.2827 22.2642 45.3245 22.1017C45.4859 21.4467 45.9858 20.8708 46.4604 20.2774C46.9245 19.674 47.3703 19.0582 47.7751 18.4723C47.9775 18.1797 48.1651 17.8922 48.3387 17.6164C48.5123 17.3405 48.6719 17.0772 48.8194 16.8346C49.1142 16.3496 49.3341 15.9312 49.492 15.6412C49.6438 15.347 49.7301 15.1795 49.7301 15.1795C49.7301 15.1795 49.6246 15.3362 49.4405 15.6129C49.2617 15.8912 48.9886 16.2788 48.6728 16.7488C48.5943 16.8671 48.5105 16.988 48.4233 17.1138C48.1616 17.4897 47.8641 17.8989 47.5561 18.3314C47.1426 18.9065 46.689 19.5115 46.217 20.1032C45.9343 20.4733 45.622 20.8525 45.3865 21.2642C45.2452 21.5117 45.1309 21.77 45.0681 22.0442Z" fill="#EACCB6"/>
<path d="M40.8938 40.55C40.9942 40.2934 41.3231 40.16 41.33 40.0558C41.3327 40.0208 41.2995 39.9892 41.2096 39.9575C40.852 39.83 40.4533 40.0033 40.3189 40.345C40.3024 40.3875 40.291 40.4317 40.284 40.4742C40.2552 40.6476 40.3015 40.8217 40.4044 40.9601C40.4812 41.0634 40.5911 41.1476 40.7246 41.1943C41.0823 41.3226 40.7595 40.8917 40.8938 40.55Z" fill="#EACCB6"/>
<path d="M52.5141 10.8683C52.5315 10.8258 52.5542 10.7858 52.5803 10.75C52.6336 10.6766 52.7033 10.6166 52.767 10.5641C52.8307 10.5108 52.89 10.4675 52.9223 10.4291C52.9555 10.39 52.9633 10.3558 52.9249 10.3233C52.9057 10.3066 52.8743 10.2916 52.8307 10.2749C52.473 10.1474 52.0744 10.3208 51.94 10.6625C51.9234 10.705 51.9121 10.7491 51.9051 10.7917C51.8545 11.095 52.0333 11.4 52.3457 11.5117C52.7033 11.6409 52.3806 11.21 52.5141 10.8683Z" fill="#EACCB6"/>
</g>
<path d="M12.5924 29.9131L11.4148 30.4303L10.9978 31.0706L12.5924 29.9131Z" fill="#EACCB6"/>
<path d="M13.7335 31.9381L13.0748 32.2269L12.8088 32.6095L13.7335 31.9381Z" fill="#EACCB6"/>
<path d="M17.3865 44.4904C17.3871 44.5018 17.3888 44.5126 17.3906 44.5245C17.393 44.5389 17.3953 44.5538 17.3983 44.5688C17.4007 44.5807 17.4042 44.5927 17.4072 44.6046C17.4113 44.6196 17.4155 44.6351 17.4208 44.6501C17.425 44.6626 17.4291 44.6746 17.4338 44.6877C17.4398 44.7027 17.4457 44.7182 17.4522 44.7332C17.4575 44.7458 17.4629 44.7577 17.4688 44.7697C17.4759 44.7846 17.4836 44.8001 17.4919 44.8145C17.4984 44.8271 17.5043 44.8384 17.5114 44.8504C17.5203 44.8647 17.5292 44.8797 17.5381 44.8934C17.5452 44.9054 17.5523 44.9162 17.56 44.9269C17.5701 44.9407 17.5802 44.9544 17.5902 44.9676C17.5979 44.9777 17.605 44.9879 17.6133 44.9975C17.6246 45.0106 17.6364 45.0232 17.6483 45.0351C17.656 45.0435 17.6631 45.0519 17.6714 45.059C17.685 45.0722 17.6986 45.0835 17.7122 45.0949C17.7188 45.1003 17.7247 45.1063 17.7312 45.1105C17.7513 45.126 17.7721 45.1392 17.7928 45.1499C17.7952 45.1511 17.7981 45.1517 17.8011 45.1529C17.8189 45.1619 17.8366 45.1691 17.8544 45.1738C17.8615 45.1756 17.868 45.1756 17.8751 45.1768C17.8864 45.1792 17.8982 45.1822 17.9101 45.1822C17.9113 45.1822 17.9125 45.181 17.9142 45.181C17.9367 45.1804 17.9587 45.1768 17.9794 45.1673L22.9379 42.7183V35.3856C22.6139 34.9354 22.2537 34.4343 21.8616 33.8891C21.7556 33.7444 21.6496 33.5955 21.5435 33.4424C21.4375 33.2894 21.3303 33.1321 21.2225 32.9725C21.0069 32.652 20.7871 32.3184 20.559 31.977C20.4459 31.806 20.3298 31.6332 20.2131 31.458C20.0964 31.2828 19.9786 31.1046 19.8625 30.9229C19.6338 30.5576 19.3998 30.1845 19.1617 29.8048C18.6831 29.0472 18.2015 28.2556 17.73 27.4419C17.2467 26.6341 16.7823 25.7988 16.3131 24.9654C15.8422 24.1331 15.4063 23.2823 14.9579 22.4548C14.7387 22.0386 14.5254 21.6231 14.3163 21.2118C14.1078 20.8004 13.9035 20.3932 13.7015 19.9932C13.3064 19.1885 12.9232 18.4118 12.5784 17.6656C12.4043 17.2937 12.2348 16.9314 12.0714 16.581C11.9126 16.2283 11.7598 15.888 11.6129 15.561C11.389 15.0725 11.1917 14.6079 11.0093 14.1804C10.9489 14.0381 10.8896 13.8994 10.8322 13.7661C10.6089 13.2286 10.414 12.7586 10.2535 12.3724C10.1735 12.1793 10.1048 12.0059 10.045 11.8546C9.98572 11.7033 9.93656 11.5742 9.89628 11.4696C9.81631 11.2597 9.77367 11.1485 9.77367 11.1485C9.77367 11.1485 9.97862 11.5802 10.3382 12.3341C10.5165 12.7126 10.7374 13.1682 10.9939 13.6914C11.0579 13.8217 11.1242 13.9562 11.1923 14.0949C11.3973 14.5105 11.6206 14.9619 11.8593 15.4426C12.0198 15.7619 12.1875 16.0955 12.3604 16.4399C12.4469 16.6121 12.5352 16.7873 12.6246 16.9655C12.7141 17.143 12.8047 17.3242 12.8971 17.5066C13.0795 17.8737 13.2732 18.2474 13.4717 18.6294C13.5706 18.8202 13.6713 19.0133 13.772 19.2082C13.8727 19.4031 13.974 19.6004 14.0753 19.7995C14.2844 20.1941 14.497 20.5959 14.712 21.0025C14.9271 21.4091 15.145 21.8204 15.3648 22.2348C15.5905 22.6461 15.8132 23.0634 16.0389 23.4808C16.2646 23.8981 16.4932 24.3161 16.7301 24.7298C16.9618 25.146 17.1922 25.5633 17.4238 25.977C17.656 26.3908 17.8894 26.8021 18.1281 27.2057C18.3621 27.6123 18.5942 28.0147 18.8235 28.4135C18.9384 28.612 19.0557 28.8081 19.1724 29.0024C19.2891 29.1967 19.4058 29.3886 19.5195 29.5812C19.7487 29.965 19.9738 30.3411 20.1948 30.7106C20.4151 31.0789 20.6426 31.4329 20.8582 31.7809C21.0768 32.127 21.2853 32.4667 21.4878 32.7937C21.691 33.1214 21.8895 33.4358 22.0885 33.7324C22.3929 34.2035 22.6773 34.6424 22.9379 35.0466V29.7522C22.9302 29.7378 22.9231 29.7241 22.9154 29.7103C22.7792 29.4538 22.64 29.1949 22.4996 28.9307C22.2141 28.4069 21.9185 27.8694 21.6158 27.3205C21.3125 26.7722 21.0021 26.212 20.6858 25.6434C20.3689 25.0748 20.0419 24.499 19.709 23.9173C19.3767 23.3355 19.0379 22.749 18.6967 22.1564C18.0132 20.9738 17.3065 19.7786 16.588 18.5906C16.2308 17.995 15.8718 17.4013 15.5111 16.8118C15.1504 16.2223 14.7879 15.6363 14.4259 15.0576C14.0616 14.4794 13.7009 13.9054 13.3437 13.3392C12.9859 12.7736 12.6305 12.2151 12.2769 11.6692C11.9286 11.1192 11.5696 10.5894 11.2302 10.0627C11.1449 9.93175 11.0602 9.80081 10.9761 9.67107C10.9364 9.61187 10.8861 9.52876 10.8559 9.4899C10.8109 9.4313 10.7635 9.35657 10.7214 9.31292C10.5561 9.11143 10.3417 8.92727 10.1149 8.81188C9.65638 8.56434 9.11142 8.59843 8.63696 8.78916C8.5173 8.834 8.40121 8.8944 8.28925 8.95239C8.17019 9.02115 8.05231 9.0893 7.93562 9.15746C7.70165 9.29319 7.47241 9.42533 7.24791 9.55568C5.90211 10.3389 4.71565 11.0092 3.76316 11.5491C3.44566 11.7296 3.15423 11.8953 2.89182 12.0459C2.75973 12.1201 2.63474 12.19 2.51687 12.2564C2.16383 12.4543 1.87773 12.6151 1.66508 12.7341C1.52292 12.813 1.41452 12.8728 1.34107 12.9141C1.26761 12.9547 1.2297 12.9757 1.2297 12.9757C1.2297 12.9757 1.26643 12.9518 1.33633 12.9057C1.40622 12.8597 1.51048 12.7915 1.64612 12.7018C1.91801 12.5243 2.31665 12.2636 2.82429 11.9317C3.84549 11.2788 5.29377 10.327 7.05066 9.21905C7.26983 9.07974 7.49374 8.93743 7.72238 8.79334C7.83611 8.72099 7.95162 8.64804 8.06772 8.5739C8.19685 8.49917 8.3242 8.42744 8.46399 8.36765C8.67131 8.27677 8.89581 8.20739 9.13216 8.17451C9.21094 8.16374 9.2909 8.15599 9.37146 8.1536C9.69488 8.13984 10.0319 8.20859 10.3346 8.35568C10.6409 8.50396 10.9015 8.71203 11.1319 8.9769C11.1947 9.04386 11.2308 9.09947 11.2812 9.16224C11.3138 9.2035 11.3369 9.23699 11.3582 9.26868C11.3795 9.29977 11.3991 9.32966 11.4233 9.36314C11.511 9.49109 11.5999 9.61965 11.6893 9.7488C11.8664 10.0083 12.0465 10.2696 12.2271 10.5344C12.4078 10.7993 12.5885 11.0678 12.7686 11.3398C13.4942 12.425 14.2393 13.5484 14.9709 14.7078C15.3375 15.2871 15.7042 15.8725 16.0697 16.462C16.4352 17.0516 16.7983 17.6453 17.1584 18.242C17.8728 19.4378 18.5747 20.6408 19.2541 21.8318C19.9347 23.0222 20.578 24.2096 21.1982 25.3582C21.819 26.5074 22.3929 27.6314 22.9373 28.6975V27.2954C22.7697 26.9761 22.6038 26.6568 22.4344 26.3382C21.4642 24.5176 20.4625 22.7143 19.43 20.9301C17.7087 17.9556 15.9003 15.033 14.0071 12.1643C13.2501 11.0169 12.4795 9.87852 11.6952 8.74909C11.6407 8.67256 11.5803 8.60141 11.5181 8.53265C11.4998 8.51232 11.4808 8.49379 11.4618 8.47346C11.4139 8.42443 11.3647 8.3778 11.3138 8.33296C11.2936 8.31562 11.2735 8.29768 11.2527 8.28034C11.1823 8.22294 11.1094 8.16793 11.0336 8.11831C10.9572 8.06808 10.8778 8.02444 10.7966 7.98259C10.7729 7.97063 10.7493 7.95987 10.7256 7.94851C10.6645 7.91981 10.6029 7.89351 10.5402 7.86959C10.5153 7.86002 10.491 7.85046 10.4661 7.84149C10.3826 7.81219 10.2979 7.78648 10.2126 7.76615C10.2114 7.76555 10.2096 7.76495 10.2084 7.76495C10.122 7.74402 10.0337 7.72967 9.94544 7.71831C9.91938 7.71472 9.89391 7.71294 9.86785 7.70995C9.80269 7.70337 9.73694 7.69978 9.67119 7.69798C9.6546 7.69798 9.63802 7.69501 9.62202 7.69501C9.61195 7.69501 9.60248 7.6968 9.59241 7.6968C9.50533 7.69799 9.41885 7.70278 9.33237 7.71234C9.33059 7.71294 9.32941 7.71294 9.32763 7.71294C9.24055 7.72311 9.15407 7.74104 9.06878 7.76137C9.0433 7.76735 9.01843 7.77452 8.99355 7.7817C8.93076 7.79904 8.86856 7.81936 8.80755 7.84268C8.78267 7.85224 8.75839 7.86061 8.7341 7.87078C8.65236 7.90486 8.5718 7.94193 8.4942 7.98677C8.35441 8.06689 8.21462 8.14641 8.07482 8.22713L6.71658 9.0068L0.0793745 13.3852C0.0627888 13.3978 0.0491651 13.4121 0.0379106 13.4283C0.0343566 13.4343 0.0319864 13.4408 0.0290247 13.4468C0.0225089 13.4588 0.0165856 13.4701 0.0124392 13.4839C0.0100698 13.4922 0.00888576 13.5012 0.00710873 13.5096C0.00473936 13.5221 0.00177783 13.5353 0.000593148 13.5484C8.04393e-07 13.5586 0.000592343 13.5688 0 13.5795C0 13.5927 4.78981e-07 13.607 0.00118517 13.6214C0.00236985 13.6322 0.00414654 13.6435 0.00592357 13.6555C0.0077006 13.6698 0.0100703 13.6848 0.0136243 13.6997C0.0159937 13.7117 0.018955 13.723 0.0225091 13.7356C0.0266555 13.7505 0.0308023 13.7661 0.0361334 13.781C0.0402798 13.7936 0.0444259 13.8056 0.0491646 13.8181C0.055088 13.8331 0.0610115 13.8492 0.0675273 13.8641C0.0728584 13.8767 0.0781894 13.8887 0.0841129 13.9012C0.0918133 13.9162 0.0989212 13.9311 0.107214 13.9461C0.11373 13.958 0.120246 13.97 0.126762 13.9813C0.135055 13.9957 0.144532 14.01 0.153417 14.0244C0.160525 14.0357 0.167634 14.0465 0.175334 14.0579C0.185404 14.0716 0.195473 14.086 0.206135 14.0991C0.213836 14.1087 0.220944 14.1188 0.228644 14.1278C0.239899 14.1416 0.251746 14.1541 0.263593 14.1661C0.271293 14.1745 0.278401 14.1822 0.286102 14.19C0.299726 14.2031 0.31335 14.2145 0.327567 14.2265C0.334082 14.2319 0.340006 14.2372 0.346521 14.242C0.366661 14.257 0.387393 14.2707 0.408125 14.2815C0.410495 14.2827 0.412863 14.2827 0.415233 14.2839C0.433595 14.2934 0.451366 14.3006 0.469729 14.3054C0.476837 14.3072 0.483353 14.3072 0.490461 14.3084C0.501715 14.3102 0.513562 14.3138 0.525409 14.3138C0.526594 14.3138 0.528371 14.3126 0.529555 14.3126C0.552065 14.312 0.573981 14.3084 0.595306 14.2994L6.55902 11.6794C6.5993 11.6621 6.63721 11.6555 6.67216 11.6543C6.69407 11.6537 6.7148 11.6561 6.73376 11.6609C6.73909 11.6621 6.7462 11.6621 6.75094 11.6633C6.77582 11.6716 6.79773 11.683 6.81728 11.6985C6.82202 11.7027 6.82557 11.7081 6.83031 11.7117C6.84334 11.7243 6.85519 11.7374 6.86467 11.7518C6.86881 11.7595 6.87237 11.7667 6.87592 11.7751C6.88244 11.7888 6.88718 11.8038 6.89073 11.8187C6.89251 11.8277 6.8931 11.8367 6.89428 11.8462C6.89547 11.8618 6.89428 11.8779 6.89132 11.8941C6.89014 11.9036 6.88836 11.9126 6.8854 11.9228C6.88007 11.9395 6.87178 11.9568 6.86171 11.9736C6.85697 11.9819 6.85341 11.9903 6.84749 11.9987C6.82972 12.0232 6.80721 12.0471 6.77818 12.0686L1.49744 15.9012V15.9018C1.46546 15.9251 1.44176 15.9508 1.42222 15.9777C1.4157 15.9867 1.41215 15.9951 1.40741 16.0046C1.39675 16.0226 1.38727 16.0411 1.38194 16.0602C1.37898 16.071 1.3772 16.0806 1.37542 16.0913C1.37305 16.1087 1.37187 16.126 1.37246 16.1428C1.37305 16.1529 1.37424 16.1631 1.37601 16.1732C1.37957 16.1894 1.3849 16.2055 1.39201 16.2205C1.39615 16.2294 1.39911 16.2372 1.40445 16.2456C1.41452 16.2617 1.42696 16.2761 1.44117 16.2892C1.4465 16.294 1.45006 16.3 1.45539 16.3036C1.47612 16.3197 1.50041 16.3329 1.52706 16.3413C1.53239 16.3431 1.5395 16.3424 1.54542 16.3442C1.56438 16.3484 1.58274 16.3532 1.60347 16.3532C1.60821 16.3532 1.61354 16.352 1.61769 16.3514C1.62361 16.3514 1.62954 16.3502 1.63546 16.3496C1.66745 16.346 1.70003 16.3394 1.73557 16.3239L7.69928 13.7039C7.73956 13.6866 7.77747 13.68 7.81242 13.6788C7.83493 13.6782 7.85506 13.6806 7.87461 13.6854C7.87994 13.6866 7.88646 13.686 7.89179 13.6878C7.91667 13.6961 7.93918 13.7075 7.95813 13.723C7.96287 13.7272 7.96642 13.7326 7.97116 13.7362C7.98419 13.7487 7.99604 13.7619 8.00552 13.7763C8.01026 13.784 8.01322 13.7918 8.01678 13.7996C8.02329 13.8133 8.02803 13.8283 8.03158 13.8432C8.03336 13.8522 8.03454 13.8612 8.03514 13.8707C8.03632 13.8863 8.03514 13.9024 8.03277 13.9186C8.03158 13.9281 8.02981 13.9371 8.02684 13.9472C8.02151 13.964 8.01322 13.9813 8.00315 13.9981C7.99841 14.0064 7.99486 14.0148 7.98953 14.0232C7.97176 14.0477 7.94925 14.0716 7.91963 14.0931L2.63889 17.9257C2.6069 17.9496 2.58262 17.9753 2.56307 18.0022C2.55655 18.0112 2.553 18.0196 2.54767 18.0291C2.53701 18.0471 2.52753 18.0656 2.5222 18.0847C2.51924 18.0955 2.51746 18.1051 2.51568 18.1158C2.51272 18.1332 2.51154 18.1505 2.51272 18.1672C2.51331 18.178 2.5145 18.1876 2.51627 18.1977C2.51983 18.2139 2.52516 18.23 2.53227 18.245C2.53582 18.2533 2.53938 18.2617 2.54411 18.2701C2.55418 18.2862 2.56722 18.3006 2.58084 18.3131C2.58617 18.3185 2.58973 18.3245 2.59506 18.3281C2.61638 18.3442 2.64007 18.3574 2.66673 18.3663C2.67265 18.3681 2.67917 18.3675 2.68568 18.3693C2.70405 18.3735 2.723 18.3783 2.74314 18.3783C2.74788 18.3783 2.75321 18.3771 2.75795 18.3765C2.76387 18.3765 2.7698 18.3753 2.77572 18.3747C2.80771 18.3711 2.84029 18.364 2.87583 18.349L8.83954 15.729C8.87982 15.7117 8.91773 15.7051 8.95268 15.7039C8.97459 15.7033 8.99533 15.7057 9.01487 15.7105C9.0202 15.7117 9.02672 15.7117 9.03205 15.7128C9.05693 15.7212 9.07884 15.7326 9.09839 15.7481C9.10313 15.7523 9.10669 15.7577 9.11143 15.7613C9.12386 15.7738 9.1363 15.787 9.14578 15.8013C9.14993 15.8091 9.15348 15.8169 9.15644 15.8247C9.16296 15.8384 9.16829 15.8534 9.17125 15.8683C9.17303 15.8773 9.17362 15.8862 9.1748 15.8958C9.17599 15.9114 9.1748 15.9275 9.17184 15.9436C9.17066 15.9532 9.16888 15.9622 9.16592 15.9723C9.16059 15.9891 9.1523 16.0064 9.14223 16.0232C9.13749 16.0315 9.13393 16.0399 9.12801 16.0483C9.11024 16.0728 9.08773 16.0967 9.05871 16.1182L3.77797 19.9508L3.77737 19.9514C3.74539 19.9747 3.72169 20.0004 3.70215 20.0273C3.69563 20.0363 3.69208 20.0447 3.68734 20.0542C3.67667 20.0728 3.6672 20.0913 3.66187 20.1098C3.65891 20.1206 3.65713 20.1301 3.65594 20.1409C3.65298 20.1582 3.6518 20.1756 3.65298 20.1923C3.65357 20.2031 3.65417 20.2127 3.65654 20.2228C3.66009 20.239 3.66542 20.2551 3.67253 20.2701C3.67668 20.279 3.67964 20.2868 3.68497 20.2952C3.69504 20.3113 3.70807 20.3257 3.72229 20.3388C3.72702 20.3436 3.73117 20.3496 3.7365 20.3532C3.75723 20.3693 3.78152 20.3825 3.80818 20.3914C3.8141 20.3932 3.82061 20.3926 3.82654 20.3944C3.84549 20.3986 3.86386 20.4034 3.88459 20.4034C3.88933 20.4034 3.89466 20.4022 3.8988 20.4016C3.90473 20.4016 3.91065 20.4004 3.91657 20.3998C3.94856 20.3962 3.98114 20.389 4.01668 20.3741L9.98039 17.7541C10.0207 17.7367 10.0586 17.7302 10.0935 17.729C10.116 17.7284 10.1362 17.7308 10.1557 17.7356C10.1611 17.7368 10.1676 17.7368 10.1723 17.738C10.1972 17.7463 10.2197 17.7577 10.2387 17.7732C10.2434 17.7774 10.2469 17.7828 10.2517 17.7864C10.2641 17.7989 10.2766 17.8121 10.2854 17.8264C10.2902 17.8342 10.2931 17.842 10.2967 17.8497C10.3032 17.8635 10.3085 17.8784 10.3115 17.8934C10.3133 17.9024 10.3145 17.9113 10.3151 17.9209C10.3162 17.9365 10.3151 17.9526 10.3127 17.9687C10.3109 17.9783 10.3097 17.9873 10.3068 17.9974C10.3014 18.0142 10.2931 18.0315 10.2831 18.0483C10.2783 18.0566 10.2748 18.065 10.2695 18.0734C10.2517 18.0979 10.2292 18.1212 10.2002 18.1427L10.1996 18.1433L4.91882 21.9759C4.88683 21.9998 4.86314 22.0255 4.84359 22.0524C4.83708 22.0614 4.83352 22.0697 4.82878 22.0793C4.81812 22.0972 4.80864 22.1158 4.80331 22.1349C4.80035 22.1457 4.79857 22.1552 4.7968 22.166C4.79384 22.1833 4.79265 22.2007 4.79383 22.2174C4.79443 22.2282 4.79561 22.2378 4.79739 22.2479C4.80094 22.2641 4.80627 22.2802 4.81338 22.2951C4.81694 22.3041 4.82049 22.3119 4.82523 22.3203C4.8353 22.3364 4.84833 22.3508 4.86195 22.3633C4.86729 22.3687 4.87084 22.3741 4.87617 22.3783C4.89749 22.3944 4.92119 22.4075 4.94784 22.4159C4.95377 22.4177 4.96028 22.4171 4.9668 22.4189C4.98516 22.4231 5.00412 22.4279 5.02426 22.4279C5.02899 22.4279 5.03433 22.4267 5.03907 22.4261C5.04499 22.4261 5.05091 22.4249 5.05683 22.4243C5.08882 22.4207 5.1214 22.4135 5.15694 22.3986L11.1207 19.7786C11.1609 19.7612 11.1988 19.7547 11.2338 19.7535C11.2557 19.7529 11.2764 19.7553 11.2954 19.76C11.3007 19.7612 11.3078 19.7612 11.3126 19.7624C11.3375 19.7708 11.3594 19.7822 11.3789 19.7977C11.3837 19.8019 11.3872 19.8073 11.3919 19.8109C11.405 19.8234 11.4168 19.8366 11.4263 19.8509C11.4304 19.8587 11.434 19.8659 11.4376 19.8743C11.4441 19.888 11.4494 19.903 11.4524 19.9179C11.4541 19.9269 11.4547 19.9358 11.4553 19.9454C11.4565 19.9609 11.4553 19.9771 11.453 19.9932C11.4518 20.0028 11.45 20.0118 11.447 20.0219C11.4417 20.0387 11.4334 20.056 11.4239 20.0728C11.4192 20.0811 11.4156 20.0895 11.4097 20.0979C11.3914 20.1224 11.3694 20.1463 11.3398 20.1678L6.05908 24.0004C6.02709 24.0237 6.0034 24.05 5.98385 24.0769C5.97734 24.0859 5.97378 24.0942 5.96904 24.1038C5.95838 24.1217 5.9489 24.1409 5.94298 24.1594C5.94002 24.1702 5.93824 24.1797 5.93646 24.1905C5.9341 24.2078 5.93232 24.2252 5.93409 24.2419C5.93469 24.2527 5.93528 24.2622 5.93765 24.2724C5.9412 24.2886 5.94653 24.3047 5.95364 24.3196C5.95779 24.3286 5.96075 24.3364 5.96608 24.3448C5.97615 24.3609 5.98918 24.3752 6.00281 24.3878C6.00814 24.3932 6.01169 24.3986 6.01702 24.4028C6.03775 24.4189 6.06204 24.4321 6.0887 24.4404C6.09462 24.4422 6.10114 24.4416 6.10706 24.4434C6.12542 24.4476 6.14438 24.4524 6.16511 24.4524C6.16985 24.4524 6.17518 24.4512 6.17992 24.4506C6.18584 24.4506 6.19176 24.4494 6.19828 24.4488C6.22967 24.4452 6.26285 24.438 6.29779 24.4231L12.2615 21.8031C12.3018 21.7857 12.3397 21.7792 12.3746 21.778C12.3972 21.7774 12.4173 21.7798 12.4368 21.7845C12.4422 21.7857 12.4487 21.7851 12.4534 21.7869C12.4783 21.7953 12.5002 21.8067 12.5198 21.8222C12.5245 21.8264 12.5287 21.8318 12.5328 21.8354C12.5458 21.8473 12.5577 21.8611 12.5672 21.8754C12.5719 21.8832 12.5749 21.8904 12.5784 21.8987C12.5849 21.9125 12.5903 21.9274 12.5932 21.9424C12.595 21.9514 12.5962 21.9603 12.5968 21.9699C12.5974 21.9854 12.5968 22.0016 12.5944 22.0171C12.5926 22.0273 12.5914 22.0363 12.5885 22.0464C12.5831 22.0632 12.5749 22.0805 12.5648 22.0972C12.56 22.1056 12.5565 22.114 12.5506 22.1223C12.5328 22.1469 12.5103 22.1708 12.4807 22.1923L7.19993 26.0249C7.16795 26.0488 7.14366 26.0745 7.12411 26.1014C7.1176 26.1104 7.11404 26.1187 7.1093 26.1283C7.09864 26.1462 7.08917 26.1648 7.08383 26.1839C7.08087 26.1941 7.07909 26.2042 7.07732 26.215C7.07436 26.2323 7.07317 26.2497 7.07436 26.2664C7.07495 26.2766 7.07613 26.2867 7.07791 26.2969C7.08146 26.3131 7.08679 26.3292 7.0939 26.3441C7.09746 26.3531 7.10101 26.3609 7.10575 26.3692C7.11582 26.3854 7.12885 26.3997 7.14248 26.4123C7.14781 26.4177 7.15136 26.4237 7.15729 26.4272C7.17802 26.4434 7.20171 26.4565 7.22896 26.4655C7.23488 26.4673 7.2414 26.4667 7.24732 26.4685C7.26627 26.4727 7.28464 26.4775 7.30537 26.4775C7.31011 26.4775 7.31544 26.4763 7.32018 26.4757C7.3261 26.4757 7.33203 26.4745 7.33795 26.4739C7.36994 26.4703 7.40251 26.4637 7.43806 26.4482L13.4018 23.8282C13.442 23.8108 13.48 23.8042 13.5149 23.8031C13.5368 23.8025 13.5576 23.8049 13.5765 23.8096C13.5818 23.8108 13.5889 23.8102 13.5937 23.812C13.6186 23.8204 13.6405 23.8318 13.6594 23.8473C13.6648 23.8515 13.6683 23.8569 13.6731 23.8611C13.6855 23.873 13.6979 23.8862 13.7068 23.9005C13.711 23.9083 13.7145 23.9161 13.7181 23.9238C13.7246 23.9376 13.7293 23.9525 13.7329 23.9675C13.7347 23.9764 13.7353 23.9854 13.7358 23.995C13.737 24.0105 13.7358 24.0267 13.7335 24.0422C13.7323 24.0524 13.7305 24.0613 13.7276 24.0715C13.7222 24.0883 13.7139 24.1056 13.7039 24.1223C13.6991 24.1307 13.6956 24.1391 13.6902 24.1475C13.6719 24.172 13.65 24.1959 13.6203 24.2174L8.3396 28.0499C8.30761 28.0739 8.28333 28.0996 8.26437 28.1265C8.25786 28.1355 8.2543 28.1438 8.24897 28.1534C8.23831 28.1713 8.22943 28.1899 8.2235 28.209C8.22054 28.2198 8.21876 28.2293 8.21699 28.2401C8.21462 28.2574 8.21343 28.2748 8.21402 28.2915C8.21462 28.3023 8.2158 28.3112 8.21758 28.322C8.22113 28.3381 8.22646 28.3543 8.23357 28.3692C8.23772 28.3776 8.24068 28.386 8.24601 28.3943C8.25608 28.4105 8.26911 28.4248 8.28274 28.4374C8.28807 28.4428 8.29162 28.4487 8.29695 28.4523C8.31769 28.4685 8.34197 28.4816 8.36863 28.4906C8.37455 28.4924 8.38107 28.4918 8.38699 28.4936C8.40535 28.4978 8.42431 28.5026 8.44504 28.5026C8.44978 28.5026 8.45511 28.5014 8.45925 28.5008C8.46518 28.5008 8.47169 28.4996 8.47702 28.499C8.50901 28.4954 8.54159 28.4882 8.57713 28.4733L14.5408 25.8533C14.5811 25.8359 14.619 25.8293 14.654 25.8281C14.6765 25.8275 14.6966 25.8299 14.7168 25.8347C14.7221 25.8359 14.728 25.8353 14.7334 25.8371C14.7582 25.8455 14.7807 25.8568 14.7997 25.8724C14.805 25.8766 14.808 25.882 14.8127 25.8861C14.8258 25.8981 14.8376 25.9118 14.8465 25.9262C14.8512 25.934 14.8542 25.9411 14.8577 25.9495C14.8643 25.9633 14.8696 25.9782 14.8726 25.9932C14.8743 26.0021 14.8755 26.0111 14.8761 26.0207C14.8773 26.0362 14.8761 26.0524 14.8737 26.0685C14.8726 26.0781 14.8708 26.087 14.8678 26.0966C14.8625 26.1139 14.8542 26.1313 14.8441 26.148C14.8394 26.1564 14.8358 26.1648 14.8305 26.1731C14.8127 26.1977 14.7902 26.2216 14.7606 26.2431L9.47986 30.0756C9.44788 30.0996 9.42359 30.1253 9.40463 30.1522C9.39812 30.1611 9.39456 30.1695 9.38923 30.1791C9.37857 30.197 9.36909 30.2162 9.36376 30.2347C9.3608 30.2455 9.35902 30.255 9.35725 30.2658C9.35428 30.2831 9.3531 30.3005 9.35429 30.3172C9.35488 30.328 9.35606 30.3375 9.35784 30.3477C9.36139 30.3638 9.36672 30.38 9.37383 30.3949C9.37739 30.4033 9.38094 30.4117 9.38568 30.42C9.39575 30.4362 9.40878 30.4505 9.423 30.4631C9.42774 30.4685 9.43188 30.4744 9.43721 30.478C9.45795 30.4942 9.48223 30.5073 9.50889 30.5157C9.51481 30.5175 9.52133 30.5169 9.52784 30.5187C9.5462 30.5229 9.56516 30.5277 9.5853 30.5277C9.59004 30.5277 9.59537 30.5265 9.60011 30.5259C9.60603 30.5259 9.61195 30.5247 9.61788 30.5241C9.64987 30.5205 9.68244 30.5133 9.71798 30.4984L15.6817 27.8784C15.722 27.861 15.7599 27.8544 15.7948 27.8532C15.8167 27.8526 15.8375 27.855 15.8564 27.8598C15.8618 27.861 15.8683 27.8604 15.8736 27.8622C15.8985 27.8706 15.9204 27.8819 15.9394 27.8975C15.9447 27.9017 15.9483 27.907 15.9524 27.9106C15.9654 27.9232 15.9773 27.9358 15.9868 27.9507C15.9909 27.9585 15.9945 27.9657 15.998 27.974C16.0045 27.9878 16.0093 28.0027 16.0128 28.0177C16.0146 28.0266 16.0152 28.0356 16.0164 28.0452C16.017 28.0607 16.0164 28.0769 16.0134 28.0924C16.0122 28.1026 16.0104 28.1115 16.0075 28.1217C16.0022 28.1384 15.9939 28.1558 15.9838 28.1725C15.9791 28.1809 15.9761 28.1893 15.9702 28.197C15.9518 28.2221 15.9299 28.2461 15.9003 28.2676L10.6195 32.1001C10.5875 32.1241 10.5633 32.1498 10.5437 32.1767C10.5372 32.1856 10.5336 32.194 10.5283 32.2036C10.5176 32.2215 10.5088 32.24 10.5028 32.2592C10.4999 32.2699 10.4981 32.2795 10.4963 32.2903C10.494 32.3076 10.4928 32.3249 10.4934 32.3417C10.494 32.3524 10.4951 32.362 10.4969 32.3722C10.5005 32.3883 10.5058 32.4039 10.5129 32.4188C10.5171 32.4278 10.52 32.4362 10.5253 32.4445C10.5354 32.4607 10.5479 32.4744 10.5621 32.4876C10.5668 32.4923 10.571 32.4977 10.5763 32.5025C10.597 32.5187 10.6213 32.5318 10.648 32.5408C10.6539 32.5426 10.6604 32.542 10.6663 32.5438C10.6847 32.548 10.7036 32.5527 10.7244 32.5527C10.7291 32.5527 10.7344 32.5516 10.7386 32.551C10.7445 32.551 10.7504 32.5498 10.757 32.5492C10.7883 32.5456 10.8215 32.5384 10.8565 32.5234L16.8202 29.9034C16.8605 29.8861 16.8978 29.8795 16.9333 29.8783C16.9558 29.8777 16.976 29.8801 16.9961 29.8849C17.0014 29.8861 17.0074 29.8855 17.0133 29.8873C17.0382 29.8957 17.0601 29.907 17.079 29.9226C17.0844 29.9268 17.0873 29.9321 17.0921 29.9357C17.1051 29.9483 17.1169 29.9608 17.1264 29.9758C17.1306 29.9836 17.1335 29.9907 17.1371 29.9991C17.1436 30.0129 17.1489 30.0278 17.1519 30.0428C17.1537 30.0517 17.1543 30.0607 17.1549 30.0703C17.156 30.0858 17.1549 30.1019 17.1525 30.1175C17.1513 30.1277 17.1495 30.1366 17.1466 30.1468C17.1412 30.1635 17.1323 30.1809 17.1229 30.1976C17.1181 30.206 17.1146 30.2143 17.1092 30.2227C17.0915 30.2472 17.069 30.2712 17.0393 30.2927L11.7592 34.1252C11.7272 34.1491 11.7029 34.1748 11.6834 34.2018C11.6769 34.2107 11.6733 34.2191 11.668 34.2287C11.6573 34.2466 11.6478 34.2645 11.6425 34.2843C11.6395 34.295 11.6378 34.3046 11.636 34.3154C11.633 34.3327 11.6318 34.35 11.633 34.3668C11.6336 34.3775 11.6348 34.3871 11.6366 34.3973C11.6401 34.4134 11.6455 34.429 11.6526 34.4439C11.6561 34.4529 11.6597 34.4612 11.6644 34.4696C11.6745 34.4858 11.6875 34.5001 11.7011 34.5127C11.7065 34.5175 11.71 34.524 11.716 34.5276C11.7367 34.5438 11.7604 34.5569 11.7876 34.5653C11.7936 34.5671 11.8001 34.5665 11.806 34.5683C11.8249 34.5725 11.8433 34.5772 11.864 34.5772C11.8688 34.5772 11.8741 34.576 11.8789 34.5754C11.8848 34.5754 11.8907 34.5742 11.8966 34.5737C11.9286 34.5701 11.9612 34.5629 11.9967 34.5479L17.9604 31.9279V31.9273C18.0007 31.9106 18.0386 31.904 18.0736 31.9028C18.0955 31.9022 18.1162 31.9046 18.1352 31.9094C18.1411 31.9106 18.1476 31.91 18.1524 31.9118C18.1772 31.9202 18.1992 31.9315 18.2181 31.9471C18.2234 31.9513 18.227 31.9566 18.2317 31.9608C18.2442 31.9728 18.2566 31.9859 18.2655 32.0003C18.2696 32.008 18.2732 32.0152 18.2768 32.0236C18.2833 32.0373 18.2886 32.0523 18.2916 32.0672C18.2933 32.0762 18.2939 32.0852 18.2945 32.0948C18.2957 32.1103 18.2945 32.1264 18.2922 32.1426C18.291 32.1521 18.2892 32.1611 18.2868 32.1707C18.2815 32.188 18.2726 32.2054 18.2631 32.2221C18.2584 32.2305 18.2554 32.2388 18.2495 32.2466C18.2311 32.2717 18.2092 32.2957 18.1796 32.3172L12.8989 36.1497C12.8669 36.1736 12.8432 36.1994 12.8236 36.2263C12.8171 36.2352 12.8136 36.2436 12.8082 36.2532C12.7976 36.2711 12.7881 36.289 12.7828 36.3082C12.7798 36.3189 12.778 36.3291 12.7763 36.3399C12.7739 36.3572 12.7721 36.3745 12.7739 36.3913C12.7745 36.4014 12.7751 36.411 12.7774 36.4218C12.781 36.4379 12.7863 36.4535 12.7934 36.469C12.7976 36.4774 12.8005 36.4857 12.8059 36.4941C12.8159 36.5103 12.829 36.5246 12.8426 36.5372C12.8479 36.5425 12.8515 36.5479 12.8568 36.5521C12.8775 36.5682 12.9018 36.5814 12.9285 36.5904C12.9344 36.5922 12.9409 36.5916 12.9468 36.5934C12.9658 36.5975 12.9842 36.6023 13.0049 36.6023C13.0096 36.6023 13.015 36.6011 13.0191 36.6005C13.025 36.6005 13.031 36.5993 13.0369 36.5987C13.0689 36.5952 13.102 36.5886 13.137 36.573L19.1007 33.953C19.141 33.9357 19.1783 33.9291 19.2138 33.9279C19.2358 33.9273 19.2559 33.9297 19.2754 33.9345C19.2808 33.9357 19.2873 33.9351 19.2926 33.9369C19.3175 33.9453 19.3394 33.9566 19.3584 33.9722C19.3637 33.9763 19.3673 33.9817 19.3714 33.9853C19.3844 33.9979 19.3963 34.0104 19.4058 34.0254C19.4099 34.0332 19.4129 34.0403 19.417 34.0487C19.4235 34.0625 19.4289 34.0774 19.4312 34.0923C19.4336 34.1013 19.4342 34.1103 19.4348 34.1198C19.436 34.1354 19.4348 34.1515 19.4324 34.1671C19.4312 34.1772 19.4295 34.1862 19.4265 34.1958C19.4212 34.2131 19.4129 34.2305 19.4028 34.2472C19.3981 34.2556 19.3945 34.2639 19.3892 34.2717C19.3714 34.2962 19.3489 34.3201 19.3199 34.3417V34.3423L14.0391 38.1748C14.0071 38.1987 13.9829 38.2244 13.9633 38.2513C13.9568 38.2603 13.9532 38.2687 13.9485 38.2777C13.9378 38.2962 13.9284 38.3141 13.923 38.3339C13.9201 38.3446 13.9183 38.3542 13.9165 38.3649C13.9136 38.3823 13.9124 38.3996 13.9136 38.4164C13.9141 38.4271 13.9153 38.4361 13.9171 38.4469C13.9207 38.463 13.926 38.4785 13.9331 38.4941C13.9367 38.5025 13.9402 38.5108 13.9449 38.5192C13.955 38.5353 13.968 38.5497 13.9823 38.5622C13.987 38.5676 13.9911 38.573 13.9965 38.5772C14.0178 38.5933 14.0415 38.6065 14.0682 38.6155C14.0735 38.6173 14.0806 38.6166 14.0865 38.6184C14.1049 38.6226 14.1238 38.6274 14.1446 38.6274C14.1493 38.6274 14.1546 38.6262 14.1594 38.6256C14.1653 38.6256 14.1712 38.6244 14.1771 38.6238C14.2091 38.6202 14.2417 38.6131 14.2767 38.5981L17.2585 37.2881L20.2404 35.9787C20.2806 35.9614 20.3186 35.9548 20.3535 35.9536C20.3754 35.953 20.3962 35.9554 20.4151 35.9602C20.421 35.9614 20.427 35.9608 20.4323 35.9626C20.4572 35.9709 20.4791 35.9823 20.498 35.9978C20.5034 36.002 20.5069 36.0074 20.5111 36.011C20.5241 36.0236 20.5359 36.0367 20.5454 36.0511C20.5496 36.0588 20.5525 36.066 20.5567 36.0738C20.5632 36.0881 20.5679 36.1031 20.5715 36.118C20.5733 36.127 20.5739 36.136 20.575 36.1455C20.5756 36.1611 20.575 36.1772 20.5721 36.1928C20.5709 36.2029 20.5691 36.2119 20.5662 36.2215C20.5608 36.2388 20.5525 36.2562 20.5425 36.2729C20.5377 36.2813 20.5348 36.2896 20.5288 36.2974C20.5105 36.3225 20.4886 36.3464 20.4589 36.368L15.1782 40.2005C15.1462 40.2244 15.1225 40.2501 15.103 40.277C15.0965 40.286 15.0929 40.2944 15.0882 40.3039C15.0775 40.3219 15.068 40.3404 15.0627 40.3589C15.0597 40.3703 15.058 40.3799 15.0562 40.3906C15.0538 40.408 15.0526 40.4253 15.0532 40.4421C15.0538 40.4528 15.055 40.4618 15.0568 40.4725C15.0603 40.4887 15.0657 40.5042 15.0728 40.5198C15.0769 40.5282 15.0799 40.5365 15.0852 40.5449C15.0953 40.561 15.1083 40.5754 15.1225 40.5879C15.1273 40.5933 15.1314 40.5987 15.1367 40.6029C15.1575 40.619 15.1818 40.6322 15.2084 40.6412C15.2143 40.643 15.2209 40.6423 15.2268 40.6441C15.2451 40.6483 15.2641 40.6531 15.2848 40.6531C15.2896 40.6531 15.2949 40.6519 15.2996 40.6513C15.3056 40.6513 15.3115 40.6501 15.3174 40.6495C15.3494 40.6459 15.382 40.6388 15.4175 40.6238L21.3812 38.0032C21.4215 37.9865 21.4594 37.9793 21.4944 37.9787C21.5163 37.9775 21.537 37.9805 21.556 37.9847C21.5619 37.9865 21.5684 37.9859 21.5731 37.9877C21.598 37.996 21.6205 38.0074 21.6395 38.023C21.6448 38.0265 21.6484 38.0325 21.6525 38.0361C21.665 38.0486 21.6774 38.0612 21.6863 38.0762C21.691 38.0833 21.694 38.0911 21.6975 38.0995C21.7035 38.1132 21.7088 38.1276 21.7118 38.1431C21.7135 38.1521 21.7147 38.1611 21.7153 38.1706C21.7165 38.1862 21.7153 38.2023 21.7129 38.2185C21.7118 38.228 21.71 38.237 21.707 38.2466C21.7017 38.2639 21.6934 38.2812 21.6833 38.298C21.6786 38.3064 21.675 38.3147 21.6691 38.3225C21.6513 38.3476 21.6288 38.3715 21.5992 38.393L16.3185 42.2256C16.2865 42.2495 16.2622 42.2752 16.2432 42.3021C16.2367 42.3111 16.2332 42.3195 16.2278 42.329C16.2172 42.347 16.2077 42.3655 16.2024 42.384C16.1994 42.3954 16.1976 42.405 16.1959 42.4157C16.1929 42.4331 16.1917 42.4504 16.1929 42.4671C16.1935 42.4779 16.1947 42.4869 16.1964 42.4976C16.2 42.5138 16.2053 42.5293 16.2124 42.5443C16.216 42.5532 16.2195 42.5616 16.2243 42.57C16.2344 42.5861 16.2474 42.6005 16.261 42.613C16.2663 42.6184 16.2699 42.6238 16.2752 42.628C16.2965 42.6441 16.3202 42.6573 16.3469 42.6662C16.3528 42.668 16.3593 42.6674 16.3653 42.6692C16.3842 42.6734 16.4026 42.6782 16.4233 42.6782C16.428 42.6782 16.4334 42.677 16.4381 42.6764C16.444 42.6764 16.45 42.6752 16.4559 42.6746C16.4873 42.671 16.5205 42.6639 16.556 42.6489L22.5197 40.0283C22.56 40.0116 22.5973 40.0044 22.6328 40.0038C22.6548 40.0026 22.6755 40.0056 22.695 40.0104C22.7004 40.0116 22.7069 40.011 22.7122 40.0127C22.7371 40.0205 22.759 40.0325 22.778 40.048C22.7833 40.0516 22.7869 40.0576 22.791 40.0618C22.804 40.0737 22.8159 40.0869 22.8254 40.1018C22.8301 40.1096 22.8331 40.1168 22.8366 40.1252C22.8431 40.1389 22.8485 40.1533 22.8514 40.1688C22.8532 40.1778 22.8538 40.1867 22.8544 40.1963C22.8556 40.2119 22.8544 40.228 22.852 40.2435C22.8508 40.2537 22.849 40.2627 22.8461 40.2723C22.8413 40.2896 22.8325 40.3069 22.823 40.3237C22.8182 40.332 22.8147 40.3404 22.8088 40.3482C22.7904 40.3727 22.7685 40.3966 22.7389 40.4187L17.4587 44.2513C17.4421 44.2638 17.4291 44.2782 17.4179 44.2943C17.4143 44.3003 17.4119 44.3075 17.4084 44.3129C17.4025 44.3248 17.3959 44.3362 17.3918 44.3493C17.3894 44.3577 17.3882 44.3661 17.3865 44.375C17.3841 44.3882 17.3811 44.4007 17.3799 44.4145C17.3794 44.4241 17.3794 44.4342 17.3794 44.445C17.3853 44.4623 17.3853 44.4761 17.3865 44.4904ZM18.0274 26.0547C17.8876 25.8156 17.7436 25.5752 17.6003 25.3337C17.4569 25.0921 17.3148 24.8488 17.178 24.6018C16.6294 23.6159 16.0963 22.621 15.6201 21.6769C15.3737 21.2088 15.1616 20.7424 14.9507 20.3065C14.7476 19.8665 14.5521 19.4509 14.3803 19.0647C14.2932 18.8722 14.2109 18.6862 14.1345 18.5092C14.0202 18.2438 13.9177 17.9968 13.8265 17.7738C13.7358 17.5508 13.6553 17.3511 13.586 17.1795C13.4053 16.7197 13.3123 16.4537 13.3123 16.4537C13.3123 16.4537 13.3141 16.4578 13.3177 16.4656C13.3283 16.4895 13.355 16.5481 13.3964 16.6378C13.4107 16.6677 13.4255 16.7012 13.4426 16.7383C13.493 16.8489 13.5581 16.99 13.6351 17.158C13.6867 17.2704 13.7447 17.3935 13.8081 17.5275C13.9994 17.9299 14.2417 18.4285 14.5213 18.9965C14.6137 19.1867 14.7114 19.3834 14.8139 19.5867C15.1207 20.1971 15.4679 20.8632 15.8345 21.5639C16.0774 22.0321 16.3345 22.5128 16.6004 22.9983C16.8664 23.4832 17.1412 23.9741 17.4202 24.462C17.5547 24.7095 17.6939 24.9534 17.8343 25.1956C17.9741 25.4377 18.115 25.6793 18.2519 25.9196C18.5273 26.3997 18.8146 26.8619 19.0841 27.3151C19.2215 27.5399 19.3572 27.7612 19.4899 27.977C19.6226 28.1929 19.7523 28.4051 19.8784 28.6108C20.1272 29.0251 20.3772 29.4078 20.6053 29.7629C20.8327 30.1181 21.0412 30.4439 21.226 30.7327C21.415 31.0191 21.5803 31.2685 21.7159 31.4735C21.9848 31.8861 22.1382 32.1223 22.1382 32.1223C22.1382 32.1223 22.0719 32.0344 21.9493 31.8729C21.8758 31.7761 21.7828 31.6529 21.6709 31.5052C21.5974 31.4066 21.5163 31.2971 21.4274 31.1782C21.3386 31.0592 21.2432 30.93 21.1401 30.7925C20.934 30.5175 20.7148 30.1982 20.4738 29.8514C20.2333 29.504 19.9697 29.1298 19.7061 28.7232C19.4413 28.3172 19.1499 27.8975 18.8768 27.4443C18.6025 26.9941 18.3087 26.5337 18.0274 26.0547Z" fill="#EACCB6"/>
<path d="M44.1863 33.8998C44.0649 34.2854 44.4855 34.0337 44.8675 34.1563C45.2502 34.2789 45.4492 34.7291 45.5706 34.344C45.6009 34.2472 45.6103 34.1491 45.6015 34.0546C45.5754 33.7706 45.3847 33.5159 45.098 33.4239C44.7159 33.3007 44.3078 33.5147 44.1863 33.8998Z" fill="#EACCB6"/>
<path d="M44.3937 34.5353C44.4062 34.558 44.421 34.5969 44.4524 34.6303C44.4826 34.6638 44.5187 34.7075 44.5679 34.7374C44.617 34.7667 44.6721 34.7942 44.7296 34.8169C44.79 34.8301 44.851 34.8378 44.9079 34.8414C44.9653 34.8432 45.0192 34.8277 45.0631 34.8169C45.1069 34.8061 45.1413 34.7822 45.1644 34.7708C45.1756 34.7625 45.1839 34.7565 45.1904 34.7517C45.1963 34.7475 45.1993 34.7451 45.1993 34.7451C45.1993 34.7451 45.1845 34.7404 45.159 34.7326C45.1466 34.7308 45.1312 34.7254 45.1146 34.72C45.098 34.7146 45.0791 34.7093 45.0595 34.7051C45.0198 34.6991 44.9754 34.6782 44.9292 34.6692C44.8824 34.659 44.8344 34.6441 44.7876 34.6262C44.7385 34.6148 44.6899 34.6004 44.6461 34.5831C44.6028 34.564 44.5548 34.5568 44.5181 34.5401C44.4808 34.5245 44.4429 34.5173 44.4198 34.5066C44.3943 34.4988 44.3789 34.4946 44.3789 34.4946C44.3789 34.4946 44.3801 34.4982 44.3825 34.5048C44.3848 34.512 44.389 34.5215 44.3937 34.5353Z" fill="#EACCB6"/>
<path d="M25.3374 17.0425V23.0341C25.6614 22.5444 26.0233 22.0434 26.4119 21.5358C26.4208 21.2356 26.4303 20.9426 26.4398 20.6562C26.4498 20.3704 26.4599 20.0924 26.4694 19.8216C26.5019 18.8871 26.5393 18.05 26.5748 17.3409C26.5961 16.9152 26.6163 16.5349 26.6346 16.2079C26.6388 16.1253 26.6429 16.0464 26.6477 15.9705C26.6518 15.8952 26.6566 15.8228 26.6613 15.754C26.6702 15.6165 26.6785 15.494 26.6856 15.3857C26.2081 15.9382 25.7586 16.4913 25.3374 17.0425Z" fill="#EACCB6"/>
<path d="M25.3374 34.3554C25.4831 34.1354 25.6359 33.9135 25.7953 33.6899C25.9546 33.4663 26.1205 33.2403 26.2923 33.0131C26.2887 32.2753 26.2851 31.5327 26.281 30.7883C26.2857 29.7916 26.2911 28.7943 26.2964 27.8131C26.2964 27.5937 26.2988 27.3761 26.3011 27.1578C25.9647 27.5602 25.6442 27.9626 25.3374 28.3638V34.3554Z" fill="#EACCB6"/>
<path d="M27.1496 27.8132C27.152 28.3035 27.1549 28.7985 27.1573 29.2948C27.1597 29.7917 27.1626 30.2897 27.165 30.7884C27.1632 31.1639 27.1615 31.5387 27.1597 31.9136C27.2675 31.7821 27.3782 31.6505 27.4896 31.5196C27.4932 31.3641 27.4979 31.2081 27.5003 31.0562C27.5038 30.8308 27.5103 30.6096 27.518 30.3932C27.5257 30.1761 27.534 29.9639 27.5417 29.757C27.5548 29.3438 27.5755 28.9534 27.5945 28.5929C27.6176 28.1421 27.643 27.7385 27.6673 27.3965C27.6821 27.1908 27.6963 27.0084 27.7094 26.8506C27.7183 26.7454 27.7265 26.6515 27.7337 26.5696C27.7556 26.3244 27.7698 26.1893 27.7698 26.1893C27.7698 26.1893 27.8723 27.1507 27.9451 28.5929C27.9641 28.954 27.9848 29.3438 27.9978 29.757C28.0109 30.1169 28.0257 30.496 28.0346 30.8858C28.5949 30.2467 29.1896 29.6045 29.8092 28.9642C30.119 28.6443 30.4347 28.3256 30.7558 28.0075C31.0774 27.69 31.4032 27.3731 31.7332 27.0598C32.4777 26.3519 33.188 25.641 33.8691 24.9319L33.6897 19.3123C33.3443 19.7194 32.9871 20.1302 32.6181 20.5439C31.5116 21.7852 30.2997 23.0521 28.9841 24.3017C28.6536 24.6156 28.3349 24.9319 28.0263 25.2494C27.7177 25.5669 27.4203 25.8856 27.1318 26.2055C27.1407 26.7352 27.149 27.2715 27.1496 27.8132Z" fill="#EACCB6"/>
<path d="M25.9149 44.7721C26.0168 44.631 26.1217 44.4893 26.2295 44.3476C26.3367 44.2053 26.4469 44.0624 26.5594 43.9195C26.5517 43.7599 26.544 43.5948 26.5363 43.4244C26.5209 43.0836 26.5055 42.7213 26.4907 42.3404C26.483 42.1497 26.4765 41.9542 26.4694 41.7539C26.4415 41.0065 26.4119 40.1964 26.393 39.3396C26.3853 39.0328 26.377 38.7177 26.3687 38.3997C26.188 38.6137 26.0121 38.8284 25.8403 39.0424C25.6685 39.2565 25.5009 39.4711 25.3374 39.6852V45.608C25.5181 45.3323 25.7106 45.0531 25.9149 44.7721Z" fill="#EACCB6"/>
<path d="M34.3347 29.8622L34.1806 34.683L34.0379 30.2209C32.5742 31.9716 30.886 33.8149 28.9834 35.6223C28.6588 35.9315 28.3472 36.2418 28.0434 36.5539C28.0422 36.6035 28.041 36.6543 28.0398 36.7039C28.0321 37.1548 28.0143 37.59 27.9989 38.0032C27.9859 38.4163 27.9652 38.8073 27.9462 39.1673C27.919 39.7078 27.887 40.1813 27.8586 40.5616C27.8443 40.7517 27.8307 40.9185 27.8183 41.059C27.7899 41.3867 27.7703 41.5703 27.7703 41.5703C27.7703 41.5703 27.7668 41.5368 27.7602 41.4722C27.7561 41.4298 27.7502 41.373 27.7442 41.3036C27.7377 41.2348 27.7306 41.1523 27.7223 41.059C27.6862 40.6375 27.6353 39.978 27.5944 39.1673C27.5748 38.8068 27.5547 38.4163 27.5417 38.0032C27.5363 37.8609 27.531 37.7144 27.5257 37.5655C27.5203 37.4172 27.5156 37.266 27.5115 37.1135C27.3717 37.2636 27.2336 37.4142 27.0986 37.5649C27.0921 37.8692 27.085 38.17 27.0773 38.466C27.0696 38.7625 27.0619 39.0537 27.0542 39.3395C27.0494 39.5535 27.0441 39.7652 27.0382 39.9733C27.0322 40.1819 27.0257 40.3864 27.0192 40.5879C27.0062 40.9909 26.992 41.3801 26.9777 41.7538C26.9558 42.378 26.9321 42.955 26.9084 43.4829C27.252 43.0608 27.6157 42.6351 27.9954 42.2082C28.5646 41.5679 29.17 40.9239 29.7979 40.2836C30.4252 39.6432 31.0756 39.0059 31.7343 38.3799C32.3308 37.813 32.9065 37.2444 33.4615 36.6758C34.0166 36.1078 34.5515 35.5398 35.0656 34.9772L35.2036 28.7883C34.9234 29.1417 34.6338 29.4998 34.3347 29.8622Z" fill="#EACCB6"/>
<path d="M39.2237 46.7643V14.7425C39.7793 14.6283 40.1857 14.141 40.1857 13.5395V13.2447C40.2437 13.2226 40.3 13.1963 40.3533 13.1664C40.5138 13.0761 40.6513 12.9499 40.7555 12.7981C40.8254 12.697 40.8799 12.584 40.9178 12.4633C40.9551 12.3419 40.9759 12.2121 40.9759 12.0764V11.692C41.0659 11.6394 41.1494 11.5754 41.2247 11.4994C41.3994 11.3237 41.5149 11.1006 41.5623 10.8549C41.5777 10.773 41.586 10.6887 41.586 10.6026V9.61067C41.586 9.52457 41.5753 9.44028 41.5599 9.35717C41.522 9.15329 41.4397 8.96194 41.3236 8.79333C41.2756 8.72458 41.2217 8.66 41.1631 8.59961C41.092 8.52727 41.0162 8.45911 40.932 8.40171C40.8764 8.36344 40.8177 8.32997 40.7567 8.29947C40.6892 7.5509 40.5109 6.80413 40.2313 6.08127C40.1383 5.84091 40.0335 5.60233 39.9185 5.36796C39.7456 5.01639 39.5483 4.67201 39.3274 4.33898C39.1799 4.11656 39.0223 3.89953 38.8553 3.68727C38.6035 3.36919 38.3299 3.06365 38.0343 2.77427C37.9206 2.66187 37.8045 2.55365 37.6866 2.44782C37.4508 2.23676 37.2062 2.03885 36.955 1.8535C36.8295 1.76142 36.7021 1.67174 36.5724 1.58624C36.0559 1.24245 35.5115 0.951858 34.9476 0.716285C34.5241 0.539904 34.0893 0.395226 33.6462 0.282821C32.9076 0.0956776 32.144 0 31.3704 0H31.3485H31.329C30.71 0 30.0981 0.0615935 29.4998 0.181772C28.901 0.30195 28.3163 0.481309 27.7518 0.716285C27.6108 0.775477 27.471 0.837072 27.3324 0.903439C27.1056 1.01106 26.8828 1.13064 26.6637 1.2568C26.5642 1.3142 26.4658 1.37279 26.3681 1.43377C26.156 1.56651 25.9475 1.70462 25.7444 1.8541C25.6188 1.94677 25.495 2.04243 25.373 2.14168C25.1289 2.33959 24.8932 2.55125 24.6651 2.77427C24.347 3.08757 24.0544 3.41821 23.7873 3.76319C23.6901 3.88875 23.5971 4.01611 23.5065 4.14526C23.3081 4.42926 23.125 4.72044 22.9615 5.01939C22.3941 6.05795 22.0434 7.17662 21.9427 8.30008C21.8207 8.35987 21.7081 8.4364 21.608 8.52728C21.3065 8.79813 21.114 9.19155 21.114 9.61187V10.6038C21.114 10.9566 21.2503 11.271 21.4736 11.4976C21.5482 11.573 21.6323 11.6381 21.7241 11.6926V12.0776C21.7241 12.1625 21.7324 12.2456 21.7478 12.3269C21.7709 12.4459 21.8153 12.5571 21.8698 12.6636C21.906 12.7335 21.9486 12.7993 21.9978 12.8615C22.0256 12.8967 22.0505 12.9332 22.0819 12.9655C22.1441 13.0283 22.2116 13.0827 22.2845 13.1299C22.3573 13.1766 22.4343 13.2148 22.5155 13.2453V13.5401C22.5155 13.7655 22.573 13.9754 22.6737 14.1547C22.8413 14.4543 23.1304 14.6713 23.4775 14.7425V46.7643C23.3389 46.793 23.2091 46.845 23.093 46.9155C22.9183 47.0226 22.7744 47.1726 22.6737 47.352C22.631 47.4279 22.5996 47.5104 22.5741 47.5953C22.5404 47.7065 22.5196 47.8243 22.5173 47.9475C22.5173 47.9541 22.5161 47.9607 22.5161 47.9666V48.2614C22.4622 48.2811 22.4124 48.311 22.3621 48.3385C22.2993 48.3732 22.2401 48.4139 22.1838 48.4593C22.15 48.4868 22.1139 48.5101 22.0825 48.5418C22.025 48.5998 21.9735 48.6632 21.9297 48.7308C21.7964 48.9334 21.7253 49.1744 21.7253 49.4291V49.813C21.6803 49.8399 21.6371 49.8692 21.595 49.9009C21.5535 49.9331 21.5138 49.9678 21.4759 50.0061C21.2431 50.2405 21.1152 50.5591 21.1152 50.9029V51.8949C21.1152 52.4383 21.4386 52.9382 21.9036 53.1845C21.9344 53.5821 21.993 53.966 22.0789 54.3349C22.108 54.458 22.1394 54.5794 22.1749 54.699C22.2797 55.0589 22.4118 55.4033 22.5712 55.7322C22.6778 55.951 22.7957 56.1633 22.926 56.3683C23.0279 56.5286 23.1392 56.6822 23.2553 56.8329C23.3223 56.9202 23.3916 57.0051 23.4632 57.0888C23.5462 57.1857 23.6327 57.2801 23.7221 57.3734C24.0212 57.6831 24.3535 57.9713 24.7232 58.2314C25.1337 58.5208 25.5844 58.7761 26.0707 58.9961C27.0434 59.4362 28.1593 59.7357 29.3885 59.8864C30.0027 59.9623 30.6454 60 31.3118 60H31.3533H31.3918C34.0585 60 36.3372 59.3883 37.9804 58.2308C38.0864 58.1567 38.1895 58.0801 38.289 58.0012C39.0893 57.3716 39.7065 56.6087 40.1312 55.7322C40.5032 54.9657 40.7271 54.1119 40.7988 53.1845C40.8568 53.1534 40.9125 53.1194 40.9658 53.0805C41.2324 52.8892 41.4349 52.6087 41.5285 52.2913C41.5658 52.1639 41.5866 52.0306 41.5866 51.8949V50.9029C41.5872 50.5591 41.4586 50.2405 41.2258 50.0061C41.1506 49.9301 41.0671 49.8662 40.9771 49.813V49.4291C40.9771 49.2258 40.9314 49.0357 40.8503 48.8677C40.8177 48.8013 40.778 48.7397 40.7354 48.6805C40.6868 48.6148 40.6317 48.5544 40.5713 48.4994C40.4599 48.3983 40.3314 48.3146 40.1869 48.2608V47.966C40.1869 47.5152 39.9582 47.1284 39.6099 46.9143C39.4926 46.845 39.3629 46.793 39.2237 46.7643ZM39.8587 54.0013C39.7503 54.024 39.6105 54.0515 39.4435 54.085C39.3878 54.0957 39.3292 54.1065 39.2676 54.1184C39.206 54.1292 39.1414 54.1418 39.0739 54.1543C38.9394 54.1788 38.7931 54.2051 38.6373 54.232C38.5591 54.2458 38.4786 54.2589 38.3956 54.2721C38.1463 54.3134 37.875 54.3564 37.5847 54.3977C37.3916 54.4276 37.1902 54.4557 36.9811 54.4832C36.772 54.5107 36.5558 54.5376 36.3337 54.5663C35.8888 54.6207 35.4185 54.6673 34.9316 54.7163C34.6876 54.7343 34.44 54.7576 34.1888 54.7785C33.9377 54.8001 33.6835 54.8192 33.4265 54.8312C32.9135 54.8628 32.3916 54.8933 31.8692 54.9041C31.608 54.9119 31.3467 54.919 31.0867 54.9268C30.8261 54.9274 30.5672 54.928 30.3095 54.928C29.7942 54.9358 29.2878 54.9166 28.7979 54.9011C28.3068 54.8927 27.8341 54.8592 27.3852 54.8287C27.1607 54.8138 26.9421 54.7994 26.7306 54.7857C26.5197 54.7672 26.3166 54.7432 26.1211 54.7235C25.7301 54.6817 25.3712 54.647 25.0537 54.6087C24.9749 54.5968 24.8979 54.5854 24.8244 54.574C24.7504 54.5627 24.6793 54.5525 24.6112 54.5424C24.4744 54.522 24.3488 54.5029 24.2357 54.4861C23.8945 54.4347 23.6635 54.4007 23.5693 54.3863C23.5379 54.3815 23.5219 54.3791 23.5219 54.3791C23.5219 54.3791 23.5379 54.3827 23.5693 54.3893C23.6001 54.3953 23.6463 54.4048 23.7073 54.4174C23.7375 54.4234 23.7707 54.4305 23.808 54.4377C23.9194 54.4604 24.0609 54.4891 24.2297 54.5232C24.4548 54.5693 24.7285 54.6255 25.0424 54.6888C25.3582 54.7444 25.7153 54.7983 26.1045 54.861C26.2994 54.8915 26.502 54.9262 26.7128 54.9561C26.9237 54.9812 27.1423 55.0075 27.3668 55.0344C27.8158 55.0894 28.2897 55.148 28.7819 55.1827C29.2741 55.2246 29.7824 55.2706 30.3007 55.2909C30.5601 55.3041 30.8207 55.3178 31.0831 55.331C31.3456 55.3376 31.6092 55.3441 31.8727 55.3501C32.3999 55.3669 32.9271 55.3639 33.4466 55.3603C33.9667 55.3639 34.4767 55.3352 34.9719 55.3244C34.9808 55.3238 34.9885 55.3238 34.9974 55.3232C33.7807 55.621 31.8585 55.9612 29.5247 55.9163C26.4007 55.8553 24.8215 56.4521 25.4352 57.5982C25.4814 57.6257 25.5264 57.6526 25.5732 57.6807C25.6318 57.716 25.691 57.7513 25.7509 57.7872C25.8137 57.8177 25.8765 57.8488 25.9404 57.8792C26.0672 57.9408 26.1957 58.003 26.3254 58.0664C26.4599 58.1196 26.5956 58.1734 26.7324 58.2278C26.8011 58.2553 26.8698 58.2822 26.9385 58.3103C27.009 58.3349 27.0807 58.3552 27.1524 58.3785C27.2951 58.4233 27.4396 58.4688 27.5848 58.5148C27.7323 58.5537 27.8821 58.5877 28.032 58.6254C28.3305 58.7067 28.6421 58.7468 28.9513 58.809C29.0289 58.8221 29.1077 58.8329 29.1865 58.8431C29.2652 58.8526 29.344 58.8616 29.4228 58.8723C29.581 58.8903 29.7391 58.9166 29.8979 58.9244C30.216 58.9459 30.5317 58.9758 30.8592 58.9764L31.342 58.9889L31.8236 58.9812C32.1446 58.9818 32.4621 58.9495 32.7778 58.9327C33.4063 58.867 34.0259 58.7952 34.6111 58.6523C35.0495 58.5477 35.4742 58.4299 35.8722 58.2846C36.0049 58.2362 36.1347 58.1848 36.2608 58.1298C36.5197 58.0323 36.7531 57.9008 36.9864 57.7872C37.102 57.7286 37.208 57.6568 37.3164 57.5946C37.423 57.5295 37.532 57.4709 37.6268 57.3967C37.7245 57.3262 37.8211 57.2586 37.9129 57.1887C38.0053 57.1199 38.0935 57.0494 38.1741 56.9746C38.2576 56.9029 38.3388 56.8329 38.4181 56.7642C38.491 56.6894 38.5609 56.6159 38.629 56.5453C38.6954 56.473 38.7676 56.409 38.8239 56.3361C38.8813 56.2637 38.9358 56.1944 38.9892 56.1268C39.0419 56.0592 39.0922 55.9947 39.1408 55.9331C39.1828 55.8673 39.2225 55.8039 39.2604 55.7447C39.2978 55.6837 39.3345 55.6281 39.3694 55.5743C39.4038 55.5211 39.4358 55.4709 39.4613 55.4213C39.4867 55.3717 39.5104 55.3262 39.5317 55.2844C39.5531 55.2425 39.5726 55.2036 39.5904 55.1702C39.6603 55.0332 39.6976 54.9597 39.6976 54.9597C39.6976 54.9597 39.6662 55.0356 39.6076 55.1773C39.5785 55.2485 39.5424 55.3364 39.4992 55.4398C39.4571 55.5426 39.3878 55.6515 39.3197 55.7788C39.2847 55.8428 39.2474 55.9092 39.2089 55.9791C39.1633 56.0443 39.1165 56.1136 39.0667 56.1854C39.017 56.2565 38.9655 56.3307 38.9116 56.4084C38.8849 56.4467 38.8547 56.4837 38.8227 56.5214C38.7907 56.5573 38.7581 56.5949 38.7262 56.6338C38.6604 56.7109 38.5929 56.7899 38.523 56.8712C38.4466 56.9459 38.3672 57.0225 38.2866 57.1014C38.1297 57.2658 37.9383 57.4075 37.7435 57.5624C37.6487 57.6431 37.5397 57.7076 37.4331 57.78C37.3786 57.8147 37.3247 57.8517 37.2702 57.8882C37.2157 57.9247 37.1594 57.9612 37.1014 57.9935C36.8668 58.1214 36.6275 58.2625 36.3657 58.3719C36.2371 58.4335 36.105 58.4903 35.97 58.5447C35.6999 58.6535 35.4173 58.7492 35.1259 58.8347C34.9802 58.8771 34.8321 58.9178 34.6822 58.9555C34.5318 58.9907 34.3801 59.026 34.2279 59.0619C34.0739 59.09 33.9181 59.1181 33.7623 59.1462L33.5272 59.1874L33.289 59.2174C33.1297 59.2359 32.9698 59.255 32.8086 59.2736C32.4858 59.2933 32.1612 59.328 31.8336 59.3291L31.3432 59.3399L30.8515 59.3304C30.6904 59.3298 30.5263 59.3208 30.3623 59.31C30.1982 59.2981 30.0329 59.2837 29.8694 59.2723C29.7871 59.2676 29.706 59.2586 29.6248 59.2478C29.5437 59.2371 29.4631 59.2257 29.3819 59.2155C29.2208 59.1928 29.0585 59.1767 28.8992 59.148C28.8198 59.1325 28.7398 59.1169 28.6611 59.1025C28.5817 59.0882 28.5023 59.0733 28.4235 59.0577C28.266 59.0266 28.1096 58.9931 27.9562 58.9471C27.8028 58.9058 27.6487 58.8682 27.4983 58.8245C27.349 58.7743 27.2009 58.7247 27.054 58.6757C26.9806 58.6499 26.9071 58.6272 26.8355 58.6003C26.7644 58.5704 26.6939 58.5405 26.624 58.5118C26.4836 58.4514 26.345 58.3928 26.2076 58.3342C26.0749 58.2649 25.944 58.1961 25.8149 58.128C25.7503 58.0939 25.6857 58.0604 25.6223 58.0263C25.5613 57.9881 25.5009 57.9486 25.4405 57.9103C25.3208 57.8338 25.2024 57.7579 25.0857 57.6831C24.9743 57.6 24.8677 57.5145 24.7623 57.4314C24.5443 57.2742 24.3683 57.0798 24.1877 56.9094C24.0941 56.8269 24.0236 56.7259 23.9448 56.6362C23.869 56.5447 23.795 56.455 23.7221 56.3677C23.5947 56.1794 23.4804 55.9976 23.3697 55.829C23.3246 55.7388 23.2814 55.6515 23.2393 55.5666C23.1973 55.4823 23.1564 55.4015 23.1173 55.3232C23.08 55.2443 23.0504 55.166 23.0237 55.0906C22.9971 55.0153 22.9728 54.943 22.9467 54.8766C22.9224 54.8084 22.8987 54.7445 22.8774 54.6841C22.8662 54.6542 22.8585 54.6237 22.8519 54.5944C22.8454 54.5645 22.8401 54.5358 22.833 54.5095C22.8241 54.4706 22.8164 54.4371 22.8081 54.4024C22.7193 54.076 22.6517 53.734 22.6126 53.3729C24.4169 53.6335 26.2413 53.8147 28.0675 53.914C29.1634 53.9737 30.2598 54.0031 31.3527 54.0031C31.717 54.0031 32.0818 53.9995 32.4467 53.9929C33.9063 53.966 35.3699 53.8865 36.8271 53.7549C37.1914 53.7214 37.5557 53.6862 37.9194 53.6461C38.6462 53.5672 39.3712 53.4757 40.0927 53.3717C40.0702 53.5785 40.0364 53.7782 39.9979 53.9737C39.9849 53.9767 39.9736 53.9791 39.9582 53.9821C39.9268 53.9869 39.8948 53.9941 39.8587 54.0013ZM23.7286 14.0543C23.6569 14.0543 23.59 14.0411 23.5296 14.016C23.3471 13.9413 23.2233 13.7637 23.2233 13.5401C23.2233 13.2196 23.2233 12.8991 23.2233 12.5787C23.1617 12.587 23.1001 12.5954 23.0379 12.6044C23.0095 12.608 22.9817 12.6103 22.9538 12.6103C22.8431 12.6103 22.7424 12.5787 22.6594 12.523C22.6316 12.5051 22.6061 12.4836 22.5824 12.4603C22.4888 12.3664 22.4326 12.2331 22.4326 12.0776C22.4326 11.7661 22.4326 11.454 22.4326 11.1431C22.4065 11.1461 22.3804 11.1479 22.355 11.1479C22.3171 11.1479 22.2803 11.1443 22.2454 11.1377C21.999 11.0905 21.8225 10.883 21.8225 10.6044C21.8225 10.2738 21.8225 9.9425 21.8225 9.61246C21.8225 9.26209 22.102 8.93265 22.448 8.88123C25.3996 8.44117 28.375 8.22114 31.3509 8.22114C33.8298 8.22114 36.3082 8.37601 38.773 8.68154C36.9497 8.52608 34.5638 8.44238 34.5638 8.44238C34.5638 8.44238 34.7533 9.17958 34.3067 10.028C34.0336 10.0125 33.757 9.9993 33.478 9.99452C33.199 9.98555 32.9182 9.97778 32.6363 9.96941C32.3543 9.96941 32.0706 9.97002 31.7874 9.97062C31.2212 9.96344 30.6549 9.98914 30.0981 10.0101C29.5413 10.0208 28.9945 10.0758 28.4656 10.1123C28.2008 10.1273 27.9414 10.1524 27.6878 10.1811C27.4343 10.2098 27.1861 10.2409 26.945 10.2678C26.704 10.2965 26.4694 10.324 26.2425 10.3509C26.0168 10.3873 25.7983 10.4226 25.5892 10.4561C25.4849 10.4734 25.3818 10.4908 25.2817 10.5063C24.9814 10.5542 24.7018 10.5966 24.4483 10.6456C24.1113 10.7168 23.8181 10.779 23.5758 10.8304C23.455 10.8555 23.3471 10.8782 23.2536 10.898C23.2068 10.9081 23.1635 10.9171 23.1232 10.9255C23.0439 10.9422 22.9787 10.9559 22.9295 10.9661C22.8555 10.9817 22.817 10.99 22.817 10.99C22.817 10.99 22.8863 10.9781 23.0166 10.9559C23.1469 10.9338 23.3383 10.901 23.5817 10.8597C23.6427 10.8495 23.7061 10.8388 23.7736 10.8268C23.8406 10.8154 23.9111 10.8035 23.9839 10.7909C24.1308 10.7658 24.289 10.7389 24.4584 10.7102C24.7131 10.6708 24.9939 10.6397 25.2954 10.6038C25.3955 10.5918 25.4985 10.5793 25.6034 10.5661C25.8131 10.5404 26.0316 10.5141 26.2573 10.4866C26.4842 10.4693 26.7188 10.4501 26.9604 10.4316C27.4432 10.3975 27.9502 10.3461 28.4786 10.3377C29.0058 10.3228 29.5502 10.2893 30.104 10.3001C30.3806 10.3007 30.6596 10.3001 30.9398 10.3031C31.22 10.3066 31.5008 10.3132 31.7815 10.3276C32.0623 10.3383 32.3425 10.3485 32.6221 10.3598C32.9011 10.379 33.1789 10.3987 33.4549 10.4178C34.007 10.4489 34.5478 10.5129 35.0714 10.5625C35.3326 10.5912 35.5897 10.6223 35.8408 10.654C36.092 10.6863 36.3372 10.7186 36.5765 10.7515C36.807 10.7873 37.0315 10.8202 37.2488 10.8543C37.0593 10.8388 36.8686 10.8226 36.6796 10.8083C36.3977 10.7855 36.1198 10.7646 35.8586 10.7455C34.9002 10.6749 34.1568 10.6283 34.1568 10.6283C34.1568 10.6283 34.2101 11.0271 34.0887 11.5216C34.0715 11.5921 34.0508 11.6645 34.0253 11.738C33.7896 11.7261 33.5514 11.7105 33.311 11.7039C32.7986 11.6908 32.2791 11.6722 31.759 11.6788C31.2389 11.6734 30.7195 11.6926 30.2083 11.7087C29.6971 11.7254 29.1954 11.7655 28.7096 11.7936C28.4674 11.8169 28.2286 11.8379 27.9953 11.8588C27.7619 11.8803 27.5344 11.9024 27.3129 11.9281C26.8704 11.9861 26.4516 12.034 26.0672 12.0902C25.6833 12.1529 25.3315 12.2109 25.0199 12.2618C24.7084 12.312 24.44 12.376 24.2173 12.4184C23.773 12.5087 23.5195 12.5601 23.5195 12.5601C23.5195 12.5601 23.5556 12.5541 23.6244 12.5434C23.7387 12.526 23.9436 12.4932 24.2232 12.4489C24.4471 12.416 24.7172 12.3634 25.0306 12.3275C25.3433 12.2899 25.6964 12.2474 26.0814 12.2014C26.2745 12.1816 26.4759 12.1637 26.6838 12.147C26.8923 12.1296 27.1073 12.1123 27.3283 12.0932C27.7708 12.0609 28.2393 12.0453 28.7221 12.019C29.206 12.0124 29.706 11.9939 30.2136 11.9999C30.4677 12.0029 30.723 12.0053 30.9801 12.0106C31.2372 12.0154 31.4942 12.0232 31.7519 12.037C32.2672 12.0519 32.7814 12.0932 33.2873 12.1272C33.5402 12.1452 33.7902 12.1739 34.0378 12.196C34.2854 12.2181 34.5294 12.242 34.7687 12.2737C35.008 12.303 35.2438 12.3317 35.4742 12.3598C35.704 12.3933 35.9285 12.4256 36.1471 12.4579C36.5457 12.5177 36.9219 12.5822 37.2725 12.6456C36.7708 12.6008 36.2365 12.5577 35.739 12.5195C35.4404 12.4973 35.1549 12.4764 34.8978 12.4585C34.7261 12.4459 34.5673 12.4352 34.4257 12.4256C33.9998 12.3963 33.7274 12.3796 33.7274 12.3796C33.7274 12.3796 33.7742 12.7198 33.68 13.1568C33.6492 13.3021 33.6024 13.4588 33.5331 13.616C32.8057 13.5897 32.0783 13.5754 31.3503 13.5754C30.0898 13.5754 28.8293 13.6148 27.5706 13.6937C26.3112 13.7727 25.0543 13.8911 23.8015 14.0495C23.7766 14.0525 23.7523 14.0543 23.7286 14.0543ZM31.3302 0.661892C31.3373 0.661892 31.3438 0.661892 31.3509 0.661892C31.358 0.661892 31.3645 0.661892 31.3716 0.661892C32.9763 0.661892 34.4761 1.1115 35.7656 1.86366C36.5712 2.33421 37.2951 2.92315 37.9111 3.5946C38.2807 3.99758 38.6112 4.43046 38.8973 4.88546C37.8359 3.52105 36.5096 2.64213 35.2657 2.07711C34.9547 1.936 34.6491 1.81403 34.3541 1.7088C34.0591 1.60417 33.7742 1.51629 33.5058 1.44275C33.3269 1.39312 33.1552 1.35067 32.9917 1.313C32.5024 1.20059 32.0919 1.13841 31.804 1.10373C31.5162 1.06905 31.3503 1.06308 31.3503 1.06308C31.6364 1.16054 31.9077 1.2556 32.1624 1.34887C32.3324 1.41105 32.4941 1.47263 32.6469 1.53362C32.8768 1.6239 33.087 1.7136 33.2748 1.80029C33.7753 2.03228 34.1148 2.25169 34.2344 2.46096C34.264 2.51358 34.28 2.5656 34.2812 2.61642C34.283 2.69355 34.2516 2.76889 34.1841 2.84363C33.9809 3.06605 33.4519 3.27949 32.5107 3.48517C32.3016 3.53061 32.0724 3.57605 31.8212 3.62149C31.1916 3.73509 30.8664 3.98561 30.7272 4.29114C30.707 4.33419 30.691 4.37903 30.6786 4.42507C30.5779 4.79039 30.6981 5.21192 30.864 5.56887C31.0512 5.58202 31.2389 5.59577 31.4267 5.61251C31.8603 5.65377 32.2939 5.68545 32.7192 5.73447C33.1445 5.7829 33.5633 5.82356 33.9673 5.87557C34.1693 5.90248 34.3677 5.9282 34.562 5.95391C34.7563 5.97962 34.9464 6.00413 35.1318 6.02864C35.5003 6.08425 35.8491 6.13686 36.1714 6.18529C36.8153 6.27796 37.3484 6.38141 37.7227 6.44359C38.0959 6.50816 38.3097 6.54582 38.3097 6.54582C38.3097 6.54582 38.2558 6.54044 38.1545 6.53088C38.0538 6.52131 37.9052 6.50756 37.7162 6.48962C37.3383 6.45614 36.801 6.39515 36.1524 6.3527C35.829 6.32938 35.4783 6.30368 35.1069 6.27678C34.7361 6.25705 34.3446 6.23672 33.9394 6.2152C33.5349 6.19427 33.1161 6.18589 32.6914 6.17035C32.2666 6.1548 31.8348 6.15659 31.4036 6.14881C31.1779 6.14583 30.9522 6.14702 30.7277 6.14881C30.585 6.15599 30.4416 6.16258 30.2995 6.16856C29.7818 6.1859 29.2735 6.22954 28.7813 6.2684C28.2891 6.30069 27.8152 6.35689 27.3662 6.4095C27.1417 6.43521 26.9231 6.45973 26.7123 6.48424C26.5014 6.51234 26.2988 6.54643 26.1039 6.57573C25.7142 6.63731 25.357 6.68872 25.0413 6.74194C24.9631 6.75688 24.8866 6.77244 24.8138 6.78679C24.6669 6.81608 24.5306 6.84298 24.4063 6.86809C24.3441 6.88065 24.2848 6.89202 24.2286 6.90338C23.8903 6.97035 23.6611 7.01579 23.5675 7.03492C23.5361 7.0415 23.5201 7.04448 23.5201 7.04448C23.5201 7.04448 23.5243 7.04389 23.5325 7.04269C23.5882 7.03372 23.837 6.99545 24.2339 6.93387C24.4039 6.90756 24.6017 6.87707 24.8227 6.84298C24.8967 6.83103 24.9731 6.81967 25.0519 6.80711C25.3688 6.76705 25.7278 6.73118 26.1187 6.68634C26.3142 6.66601 26.5174 6.64029 26.7282 6.62116C26.9397 6.60621 27.1583 6.59067 27.3828 6.57452C27.8318 6.54104 28.3051 6.50518 28.7961 6.49382C29.2866 6.47588 29.793 6.45435 30.309 6.45913C30.5666 6.45794 30.8261 6.45674 31.0867 6.45614C31.3473 6.46212 31.6086 6.4687 31.8704 6.47408C32.3934 6.48245 32.9159 6.50995 33.4294 6.53865C33.9436 6.55958 34.4477 6.61219 34.9363 6.64627C35.4238 6.69231 35.8953 6.73656 36.3408 6.78918C36.5635 6.81608 36.7803 6.84178 36.9894 6.86809C37.1991 6.8944 37.4011 6.92131 37.5942 6.9506C38.0787 7.01697 38.5111 7.08693 38.8766 7.14971C39.0958 7.18797 39.2907 7.22266 39.4583 7.25375C39.6123 7.28305 39.742 7.30814 39.8463 7.32907C39.8812 7.33625 39.9126 7.34283 39.9416 7.34881C39.9724 7.47916 39.9997 7.6101 40.0234 7.74104C40.0471 7.87258 40.0666 8.00411 40.0832 8.13624C37.1991 7.7201 34.2634 7.50666 31.3521 7.50666C30.6241 7.50666 29.8943 7.51981 29.1651 7.54611C28.4354 7.57242 27.7056 7.61188 26.9758 7.6645C26.6116 7.6914 26.2473 7.72071 25.883 7.75299C24.7907 7.85165 23.702 7.97961 22.6203 8.13566C22.724 7.28664 22.9823 6.45137 23.3697 5.66393C23.4253 5.55153 23.4828 5.4403 23.5438 5.32969C23.7861 4.88844 24.0692 4.46453 24.3891 4.06454C24.469 3.96469 24.5508 3.86604 24.6355 3.76918C24.8043 3.57546 24.982 3.38772 25.1674 3.20775C25.3534 3.02719 25.5477 2.85439 25.7491 2.68937C25.9511 2.52435 26.1602 2.36709 26.377 2.21881C26.4854 2.14467 26.595 2.07293 26.7069 2.00297C28.045 1.16711 29.6289 0.661892 31.3302 0.661892ZM37.9869 46.8462L37.3638 27.4162V25.9166C37.0557 26.3489 36.7276 26.7985 36.3799 27.2619C36.0322 27.7253 35.6649 28.2036 35.2793 28.6927L35.4108 34.5952C36.0334 33.904 36.6257 33.2194 37.1849 32.5492L37.0196 37.7162C36.5605 38.3494 36.0624 39.0131 35.5251 39.7024L35.6572 45.6432C35.8557 45.4208 36.0511 45.199 36.2425 44.9783C36.4344 44.7571 36.6227 44.5377 36.8081 44.3188L36.7572 45.9182C36.7223 45.926 36.6838 45.9338 36.6423 45.9433C36.6008 45.9529 36.5558 45.9619 36.5072 45.9732C36.3479 46.0067 36.1542 46.0456 35.9309 46.088C35.7076 46.1311 35.4546 46.1765 35.1774 46.2237C35.0613 46.2441 34.9381 46.2644 34.8131 46.2847L34.9434 40.4367C33.3204 42.4606 31.3775 44.6525 29.1337 46.7995C29.0443 46.8007 28.9537 46.8013 28.8654 46.8019C28.6883 46.8031 28.5147 46.8043 28.3442 46.8055C28.1742 46.8007 28.0077 46.7966 27.8454 46.793C27.5208 46.7822 27.2128 46.7798 26.9308 46.7547C26.6471 46.7355 26.3876 46.7182 26.1572 46.7021C25.928 46.677 25.7278 46.6548 25.5631 46.6363C25.4808 46.6267 25.4067 46.619 25.3428 46.6118C25.2788 46.604 25.2237 46.5986 25.1799 46.5933C25.0916 46.5831 25.0442 46.5783 25.0442 46.5783C25.0442 46.5783 25.0561 46.5813 25.0786 46.5867C25.1342 46.5992 25.258 46.6285 25.4381 46.6716C25.4743 46.6806 25.5128 46.6889 25.5524 46.6985C25.6336 46.7176 25.7236 46.7386 25.8214 46.7613C25.9191 46.784 26.0251 46.8085 26.1383 46.8354C26.2526 46.8563 26.3734 46.8797 26.502 46.9036C26.6299 46.9281 26.7644 46.9538 26.9048 46.9801C27.1352 47.0279 27.3863 47.0638 27.6464 47.1021C26.6382 47.0393 25.6324 46.9502 24.6319 46.8372V14.6719C25.1194 14.6163 25.6075 14.5673 26.0974 14.5236C26.5873 14.4806 27.0777 14.4429 27.5688 14.4112C27.5362 14.4465 27.5042 14.4806 27.4716 14.5159C27.3751 14.5308 27.2797 14.5451 27.1867 14.5607C27.0937 14.5756 27.0031 14.5924 26.9154 14.6103C26.775 14.6366 26.6412 14.6617 26.5132 14.6863C26.3853 14.7102 26.2644 14.7329 26.1501 14.7538C26.037 14.7795 25.9315 14.8035 25.8338 14.8256C25.7361 14.8477 25.646 14.868 25.5649 14.8866C25.5246 14.8961 25.4861 14.9045 25.4506 14.9129C25.4144 14.9212 25.3807 14.9284 25.3493 14.9362C25.1609 14.9786 25.0566 15.0025 25.0566 15.0025C25.0566 15.0025 25.2012 14.9876 25.4583 14.9601C25.495 14.9565 25.5341 14.9523 25.5749 14.9475C25.6573 14.9392 25.7485 14.9296 25.8474 14.9194C25.9469 14.9093 26.0542 14.8979 26.1691 14.886C26.3989 14.871 26.6589 14.8531 26.9415 14.8345C27.0209 14.828 27.1068 14.825 27.1903 14.8214C27.0428 14.984 26.8977 15.1472 26.7555 15.3099C26.759 15.3667 26.7638 15.4276 26.7679 15.494C26.7816 15.6919 26.7975 15.9311 26.8118 16.2091C26.855 16.972 26.9095 18.022 26.9569 19.274C26.9634 19.4533 26.9705 19.6357 26.977 19.8228C26.983 19.9765 26.9883 20.1337 26.9942 20.2928C27.0001 20.4524 27.0061 20.6139 27.0114 20.7783C27.349 20.3621 27.7038 19.9424 28.074 19.5209C28.9993 18.468 30.0181 17.4055 31.0873 16.3628C31.3011 16.1535 31.5173 15.946 31.7347 15.7392C32.0143 15.4737 32.2886 15.207 32.5593 14.9404C32.8057 14.9619 33.0503 14.984 33.2879 15.0061C33.6379 15.0456 33.9767 15.0767 34.2966 15.1191C34.6165 15.1574 34.9186 15.1963 35.197 15.2357C35.3362 15.2549 35.4695 15.274 35.5956 15.2931C35.7218 15.3117 35.842 15.3308 35.954 15.3481C36.1791 15.384 36.374 15.4163 36.5345 15.4438C36.6056 15.457 36.6689 15.4683 36.7252 15.4785C36.1187 16.3024 35.4463 17.1765 34.7124 18.0823L34.5152 24.2521C34.9985 23.7349 35.4653 23.2201 35.9143 22.7113C36.3633 22.2013 36.7951 21.6978 37.2092 21.2004L37.3578 23.8844L37.8684 14.648C37.9366 14.6558 38.0041 14.6641 38.0722 14.6719V46.8372C38.0432 46.8396 38.0147 46.8432 37.9869 46.8462ZM22.355 50.3594C22.3804 50.3594 22.4059 50.3606 22.4326 50.3642C22.4326 50.0527 22.4326 49.7412 22.4326 49.4297C22.4326 49.2742 22.4894 49.1409 22.583 49.047C22.6061 49.0231 22.6322 49.0022 22.6594 48.9843C22.7424 48.9287 22.8437 48.897 22.9538 48.897C22.9811 48.897 23.0095 48.8988 23.0379 48.903C23.0995 48.9119 23.1612 48.9197 23.2233 48.9287C23.2233 48.6082 23.2233 48.2877 23.2233 47.9672C23.2233 47.8184 23.2784 47.6892 23.3691 47.5983C23.4597 47.5074 23.5859 47.453 23.7286 47.453C23.7523 47.453 23.7772 47.4548 23.8021 47.4578C25.6822 47.6946 27.57 47.8435 29.4607 47.9021C30.0904 47.9218 30.7206 47.932 31.3515 47.932C32.8424 47.932 34.3339 47.8752 35.8219 47.7646L33.4738 48.0533C33.6664 48.4264 33.7232 48.8025 33.7363 49.065C33.6101 49.0769 33.4857 49.0883 33.3583 49.1003C32.8525 49.1379 32.3383 49.181 31.823 49.2031C31.5653 49.2186 31.3076 49.23 31.0512 49.2396C30.7941 49.2485 30.5382 49.2551 30.2841 49.2623C30.03 49.2701 29.7782 49.2719 29.5288 49.273C29.2801 49.2736 29.0336 49.273 28.7914 49.2754C28.3074 49.2629 27.8389 49.2587 27.3952 49.2408C27.1737 49.2288 26.9581 49.2187 26.749 49.2079C26.5399 49.1971 26.3385 49.187 26.1448 49.1744C25.9517 49.1589 25.7663 49.1439 25.5898 49.1296C25.4138 49.1158 25.2462 49.102 25.0892 49.0895C24.8535 49.0715 24.6414 49.0452 24.4548 49.0231C24.3926 49.0159 24.3334 49.0094 24.2771 49.004C23.8264 48.9526 23.5693 48.9233 23.5693 48.9233C23.5693 48.9233 23.6054 48.9293 23.6735 48.9406C23.7878 48.9591 23.9922 48.9932 24.2724 49.0393C24.3843 49.056 24.5081 49.0781 24.6432 49.1009C24.7782 49.123 24.924 49.1463 25.0809 49.1666C25.3943 49.2079 25.7473 49.2545 26.1335 49.3053C26.5197 49.3496 26.9397 49.389 27.3834 49.4351C27.8276 49.4751 28.2968 49.5038 28.7831 49.5415C29.2694 49.5618 29.7717 49.5941 30.2835 49.6049C30.7947 49.6168 31.3148 49.6306 31.8348 49.6246C32.3549 49.6282 32.875 49.6115 33.3874 49.5995C33.6433 49.5893 33.8974 49.5798 34.1479 49.569C34.3991 49.5576 34.6467 49.5451 34.8901 49.529C35.1336 49.5128 35.3735 49.4973 35.6075 49.4817C35.8414 49.4626 36.0713 49.4435 36.294 49.4243C36.7406 49.3861 37.1618 49.3412 37.5509 49.2988C37.7849 49.2724 38.0047 49.2455 38.2126 49.2186C35.925 49.563 33.8938 49.6216 33.8938 49.6216C33.94 49.7119 33.9785 49.8028 34.0111 49.8919C34.0763 50.0701 34.1154 50.2428 34.139 50.3989C34.1509 50.4766 34.1586 50.5502 34.1633 50.6177C33.927 50.6351 33.6889 50.6524 33.4472 50.6644C33.1723 50.6799 32.8945 50.6967 32.6161 50.7128C32.3371 50.723 32.0576 50.7325 31.778 50.7427C31.2182 50.7684 30.6578 50.772 30.1058 50.778C29.5537 50.7911 29.0111 50.7732 28.4857 50.7678C28.2227 50.7672 27.9645 50.7588 27.7115 50.7493C27.4586 50.7385 27.2116 50.7265 26.9705 50.7164C26.7294 50.7056 26.4955 50.6955 26.2686 50.6853C26.0423 50.6685 25.8237 50.6512 25.614 50.6363C25.1941 50.6028 24.8091 50.5789 24.4679 50.5466C24.1273 50.5101 23.8311 50.4772 23.5865 50.4503C23.4034 50.4306 23.2494 50.4138 23.1286 50.4001C22.9272 50.3786 22.8182 50.366 22.8182 50.366C22.8182 50.366 22.8223 50.3666 22.8306 50.3684C22.8478 50.3708 22.8816 50.3762 22.9313 50.3839C23.0557 50.4031 23.2778 50.4384 23.5817 50.4862C23.8246 50.5245 24.1202 50.5711 24.4584 50.6237C24.7978 50.6721 25.1822 50.714 25.601 50.7672C25.8107 50.7923 26.0293 50.8192 26.255 50.8473C26.4818 50.8676 26.7158 50.8892 26.9563 50.9113C27.4385 50.9532 27.9461 51.0076 28.4739 51.0339C29.0011 51.0644 29.546 51.1074 30.1005 51.1206C30.6549 51.1403 31.2182 51.1636 31.7821 51.1642C32.0641 51.1678 32.346 51.1708 32.6274 51.1738C32.9082 51.1708 33.1877 51.1672 33.4656 51.1642C34.0212 51.163 34.5673 51.1391 35.0963 51.1236C35.3611 51.1134 35.6211 51.1014 35.8752 51.0877C36.1299 51.0751 36.3787 51.0608 36.621 51.0476C37.1049 51.0124 37.564 50.9854 37.9863 50.946C38.0918 50.937 38.1954 50.9286 38.2961 50.9197C38.3974 50.9107 38.4957 50.9017 38.5923 50.8928C38.7848 50.8742 38.9672 50.8551 39.139 50.8372C39.2249 50.8276 39.3078 50.8186 39.3878 50.8097C39.6283 50.7828 39.8427 50.757 40.0275 50.7349C40.0542 50.7313 40.0773 50.7277 40.1028 50.7242C39.5904 50.8138 39.0662 50.8922 38.5526 50.9603C38.4667 50.9723 38.382 50.9831 38.2967 50.9938C36.1743 51.2641 34.3019 51.3633 34.3019 51.3633C34.594 51.8135 34.6656 52.2901 34.6615 52.6638C34.6609 52.7385 34.6568 52.809 34.6508 52.8748C34.6396 53.0058 34.6206 53.1164 34.6029 53.1977C34.0609 53.2276 33.5195 53.2491 32.9769 53.264C32.4349 53.2784 31.8923 53.2862 31.3503 53.2862C30.2343 53.2862 29.1183 53.2551 28.0042 53.1935C26.1466 53.0901 24.2919 52.9011 22.4474 52.6261C22.102 52.5747 21.8225 52.2452 21.8219 51.8949C21.8219 51.5642 21.8219 51.233 21.8219 50.9029C21.8225 50.5843 22.0535 50.3594 22.355 50.3594Z" fill="#EACCB6"/>
<path d="M23.2845 50.9819C23.169 50.9693 23.105 50.9622 23.105 50.9622C23.105 50.9622 23.214 50.9974 23.4077 51.0482C23.602 51.0955 23.8786 51.1684 24.2156 51.2342C24.5521 51.3012 24.946 51.3711 25.3707 51.4273C25.5828 51.4584 25.8025 51.4847 26.0264 51.508C26.2503 51.532 26.4778 51.5523 26.7052 51.5726C26.9333 51.5864 27.1614 51.6013 27.3858 51.6151C27.6103 51.6282 27.8319 51.63 28.0457 51.6378C28.474 51.645 28.8738 51.6444 29.2162 51.6288C29.3021 51.627 29.3838 51.6234 29.462 51.6199C29.696 51.6073 29.8938 51.5894 30.0431 51.5804C30.2421 51.5654 30.3559 51.5523 30.3559 51.5523C30.3559 51.5523 30.2421 51.5415 30.0425 51.5284C29.8932 51.5182 29.696 51.5057 29.4632 51.4907C29.3856 51.4853 29.3039 51.4799 29.2186 51.4752C29.0486 51.4644 28.8643 51.453 28.6695 51.4405C28.4746 51.4279 28.269 51.4154 28.0564 51.4016C27.8443 51.3861 27.6246 51.3699 27.4018 51.3538C27.1791 51.3376 26.9522 51.3209 26.726 51.3048C26.5003 51.2862 26.2734 51.2719 26.0507 51.2497C25.8286 51.2306 25.6088 51.2115 25.3968 51.1924C25.1847 51.172 24.9798 51.1523 24.7855 51.1331C24.5912 51.1146 24.4075 51.0967 24.2375 51.0805C23.9834 51.0536 23.7601 51.0327 23.5806 51.0142C23.5208 51.0076 23.4663 51.0016 23.4166 50.9956C23.3668 50.9915 23.323 50.9867 23.2845 50.9819Z" fill="#EACCB6"/>
<path d="M24.4933 49.3556C24.3594 49.3431 24.2694 49.3335 24.2321 49.3299C24.2196 49.3287 24.2131 49.3281 24.2131 49.3281C24.2131 49.3281 24.3109 49.3586 24.485 49.4023C24.5289 49.4124 24.5768 49.4238 24.6296 49.4363C24.7871 49.474 24.9838 49.5194 25.21 49.5619C25.3605 49.59 25.5246 49.6193 25.6981 49.6468C25.7852 49.6606 25.8741 49.6743 25.9659 49.6869C26.0571 49.7 26.1507 49.7126 26.2461 49.7251C26.6263 49.7766 27.0339 49.8118 27.442 49.8447C27.6464 49.8567 27.8501 49.868 28.0515 49.8794C28.2523 49.889 28.4508 49.8907 28.6421 49.8961C29.0253 49.9003 29.3837 49.8979 29.6899 49.8842C29.9962 49.8758 30.2515 49.8495 30.4298 49.8387C30.4742 49.8351 30.5145 49.8316 30.5488 49.8286C30.6525 49.8196 30.71 49.8136 30.71 49.8136C30.71 49.8136 30.6081 49.8029 30.4292 49.7915C30.2509 49.7807 29.9968 49.764 29.6911 49.7449C29.6147 49.7401 29.5353 49.7353 29.4536 49.7305C29.3713 49.7257 29.2866 49.7203 29.1989 49.7162C29.0247 49.7054 28.8405 49.6946 28.6498 49.6833C28.2695 49.6576 27.8637 49.6307 27.458 49.6032C27.0528 49.5751 26.6471 49.544 26.2674 49.5135C25.9825 49.4902 25.7118 49.4674 25.4659 49.4459C25.3842 49.4387 25.3048 49.4316 25.229 49.425C24.9245 49.3957 24.671 49.3718 24.4933 49.3556Z" fill="#EACCB6"/>
<path d="M29.2729 9.70095C29.2729 9.70095 29.2244 9.69736 29.1373 9.69079C29.1083 9.68899 29.0751 9.68661 29.0372 9.68362C28.8873 9.67704 28.6729 9.66208 28.4152 9.66208C28.1576 9.66149 27.8572 9.6591 27.5356 9.67584C27.214 9.69258 26.871 9.7171 26.5292 9.74759C26.188 9.78705 25.8474 9.83309 25.5287 9.88152C25.2107 9.93114 24.9163 9.99392 24.6645 10.0465C24.4122 10.0986 24.2049 10.1572 24.0597 10.1936C24.023 10.2038 23.991 10.2128 23.9632 10.2205C23.8791 10.2445 23.8323 10.2576 23.8323 10.2576C23.8323 10.2576 23.9176 10.2468 24.0662 10.2277C24.2149 10.208 24.427 10.1793 24.6817 10.1452C24.8718 10.1159 25.0874 10.0926 25.3167 10.0639C25.3931 10.0543 25.4713 10.0447 25.5507 10.034C25.7094 10.0137 25.8735 9.99453 26.0405 9.9754C26.2076 9.95746 26.3776 9.93952 26.547 9.92398C26.717 9.90544 26.8864 9.8881 27.0534 9.87196C27.2205 9.85641 27.3857 9.84206 27.5451 9.8301C27.8644 9.80798 28.1623 9.77628 28.4182 9.76253C28.6741 9.74459 28.8885 9.72905 29.0372 9.71889C29.0745 9.7159 29.1083 9.7135 29.1367 9.71111C29.1953 9.70633 29.2362 9.70335 29.2564 9.70155C29.267 9.70155 29.2729 9.70095 29.2729 9.70095Z" fill="#EACCB6"/>
<path d="M29.4834 11.4696C29.4478 11.4666 29.3957 11.4618 29.3294 11.4558C29.1961 11.4487 29.0059 11.4319 28.7779 11.4301C28.5493 11.4271 28.2827 11.4224 27.9972 11.4355C27.7117 11.4493 27.4078 11.4702 27.1039 11.4953C26.8012 11.5306 26.4992 11.5712 26.216 11.6143C25.9341 11.6591 25.6728 11.7165 25.4495 11.7644C25.2262 11.8122 25.0426 11.866 24.914 11.9001C24.8821 11.9096 24.8536 11.9174 24.8287 11.9252C24.7541 11.9467 24.7126 11.9593 24.7126 11.9593C24.7126 11.9593 24.7885 11.9497 24.9211 11.9342C24.9537 11.93 24.9905 11.9252 25.0301 11.9204C25.1492 11.9049 25.2979 11.8857 25.4673 11.8636C25.6918 11.8301 25.9566 11.8056 26.2379 11.7685C26.5193 11.7321 26.8202 11.7004 27.1217 11.6735C27.422 11.6394 27.7235 11.6113 28.0067 11.5904C28.2898 11.5718 28.554 11.5425 28.7809 11.5306C28.9509 11.518 29.1007 11.5073 29.2204 11.4983C29.2601 11.4953 29.2968 11.4929 29.3306 11.4905C29.4301 11.4821 29.4976 11.4774 29.5254 11.475C29.5349 11.4738 29.5391 11.4738 29.5391 11.4738C29.5391 11.4738 29.5189 11.472 29.4834 11.4696Z" fill="#EACCB6"/>
<path d="M28.5172 13.3032C28.6327 13.2949 28.7417 13.2877 28.8424 13.2835C29.0438 13.2709 29.2126 13.2608 29.3299 13.253C29.3595 13.2512 29.3855 13.2488 29.4086 13.2476C29.4774 13.2422 29.5153 13.2393 29.5153 13.2393C29.5153 13.2393 29.4987 13.2375 29.4673 13.2339C29.4359 13.2297 29.3897 13.2249 29.3311 13.2183C29.3014 13.2159 29.2689 13.213 29.2333 13.2094C29.1978 13.2058 29.1593 13.2022 29.1184 13.1992C29.0361 13.192 28.9437 13.186 28.8418 13.1831C28.6392 13.1759 28.4023 13.1657 28.1487 13.1723C27.8952 13.1795 27.6251 13.192 27.355 13.21C27.0855 13.2375 26.8166 13.2691 26.5654 13.3032C26.3142 13.3391 26.082 13.3881 25.883 13.4276C25.7835 13.4473 25.6929 13.4688 25.6129 13.4892C25.5732 13.4999 25.5359 13.5089 25.501 13.5185C25.4666 13.528 25.4346 13.5358 25.4062 13.543C25.2925 13.5759 25.2273 13.5944 25.2273 13.5944C25.2273 13.5944 25.2652 13.5908 25.3339 13.5842C25.357 13.5818 25.3831 13.5795 25.4127 13.5765C25.4713 13.5705 25.5424 13.5633 25.6242 13.555C25.7059 13.546 25.7983 13.537 25.8984 13.5263C25.9985 13.5137 26.1075 13.5029 26.2224 13.4922C26.3373 13.4814 26.4588 13.47 26.5838 13.4557C26.8343 13.4288 27.1015 13.4055 27.3692 13.3869C27.6364 13.3612 27.9035 13.3409 28.1552 13.326C28.2808 13.3206 28.4023 13.3116 28.5172 13.3032Z" fill="#EACCB6"/>
<path d="M27.1019 5.51911C26.7732 5.55558 26.4456 5.59981 26.14 5.64884C25.8343 5.70026 25.553 5.76545 25.3119 5.82344C25.1312 5.8653 24.9754 5.91133 24.8504 5.9496C24.8084 5.96216 24.7705 5.9735 24.7361 5.98367C24.5987 6.02851 24.5205 6.05423 24.5205 6.05423C24.5205 6.05423 24.5406 6.05064 24.5791 6.04406C24.6171 6.03808 24.6733 6.02912 24.7444 6.01717C24.8504 5.99744 24.9914 5.97591 25.1579 5.9496C25.2136 5.94063 25.2716 5.93166 25.3326 5.9215C25.5749 5.87845 25.8604 5.84616 26.1637 5.80191C26.4675 5.76066 26.7933 5.72479 27.1191 5.69669C27.4443 5.6632 27.7707 5.63809 28.0775 5.62255C28.3838 5.60999 28.6699 5.58847 28.9163 5.58607C29.0395 5.58309 29.152 5.57948 29.2521 5.5765C29.3523 5.57291 29.4393 5.57053 29.5116 5.57053C29.6561 5.56694 29.7385 5.56454 29.7385 5.56454C29.7385 5.56454 29.6567 5.55378 29.5134 5.53584C29.4417 5.52807 29.3546 5.51851 29.2545 5.50895C29.2048 5.50416 29.1509 5.49938 29.0946 5.49579C29.0383 5.49161 28.9791 5.48742 28.9175 5.48503C28.6705 5.47307 28.3814 5.46111 28.0716 5.46769C27.917 5.47188 27.7571 5.47844 27.5948 5.48681C27.4313 5.49578 27.266 5.50655 27.1019 5.51911Z" fill="#EACCB6"/>
<path d="M26.1414 48.1353C26.2592 48.1484 26.4275 48.1747 26.6306 48.1933C26.7319 48.2028 26.8415 48.2142 26.9576 48.2256C27.0737 48.2375 27.1963 48.2483 27.3231 48.2567C27.4498 48.265 27.5813 48.2734 27.7146 48.2824C27.8479 48.2913 27.983 48.2997 28.1186 48.3093C28.3893 48.3194 28.6606 48.3284 28.9147 48.338C29.1688 48.3481 29.4064 48.3434 29.6095 48.3464C29.8133 48.3493 29.9833 48.3398 30.1024 48.3386C30.132 48.3374 30.1586 48.3362 30.1817 48.335C30.251 48.3326 30.2895 48.3308 30.2895 48.3308C30.2895 48.3308 30.2226 48.3206 30.1047 48.3039C30.0165 48.2937 29.8992 48.2764 29.7606 48.2608C29.7144 48.2555 29.6658 48.2501 29.6154 48.2465C29.4129 48.2286 29.1765 48.1999 28.923 48.1837C28.6689 48.1676 28.3988 48.149 28.1281 48.1317C27.9924 48.1263 27.8568 48.1215 27.7235 48.1174C27.5902 48.112 27.4587 48.1072 27.332 48.103C27.2052 48.0982 27.082 48.097 26.9653 48.0964C26.8486 48.0958 26.7384 48.0964 26.6366 48.0946C26.4328 48.0923 26.2628 48.1012 26.1437 48.1024C26.0247 48.1078 25.9565 48.1108 25.9565 48.1108C25.9565 48.1108 26.0235 48.118 26.1414 48.1353Z" fill="#EACCB6"/>
</svg>
