<svg xmlns="http://www.w3.org/2000/svg" width="66" height="60" fill="none"><g fill="#EACCB6" style="mix-blend-mode:screen"><path d="M46.334 39.59a12.5 12.5 0 0 0 1.634-1.013c.523-.387.947-.719 1.314-1.019.552-.452.97-.83 1.39-1.212l.136-.125c.2-.182.4-.365.617-.56.652-.58 1.45-1.252 2.79-2.246l11.383-8.44a.952.952 0 0 0 .38-.597c.056-.285.012-.667-.225-1.177a4.676 4.676 0 0 0-.237-.443 7.248 7.248 0 0 0-.474-.694 8.442 8.442 0 0 0-.373-.451c-.195-.22-.4-.428-.606-.611a5.246 5.246 0 0 0-.617-.469 2.553 2.553 0 0 0-.198-.112 1.686 1.686 0 0 0-.375-.145 1.132 1.132 0 0 0-.262-.033l-.005.001-.024.002c-.065.002-.124.01-.178.022l-.055.015a.802.802 0 0 0-.25.121l-13.245 9.82a1.877 1.877 0 0 0-.764 1.438c-.027.454.074 1.022.4 1.723a7.646 7.646 0 0 0 .329.622c.035.06.07.116.103.167-.417.31-1.196.864-2.361 1.59-.7.436-1.54.933-2.522 1.477a86.96 86.96 0 0 1 1.281-5.34c.2-.728.416-1.47.648-2.214a58.94 58.94 0 0 1 .742-2.237c.176-.495.359-.988.55-1.474.823-2.104 1.827-4.205 2.835-6.126l.275-.52a83.812 83.812 0 0 1 1.087-1.971c.178-.314.353-.618.524-.913a93.755 93.755 0 0 1 2.733-4.405c.063-.094.12-.19.169-.285.1-.191.173-.385.221-.58.05-.194.07-.387.066-.578a2.087 2.087 0 0 0-.195-.838c-.17-.366-.44-.681-.773-.918a2.606 2.606 0 0 0-1.467-.47l-.007-.001c-.09 0-.18.005-.27.016l-.071.012c-.068.01-.134.02-.2.036l-.095.026c-.056.017-.112.033-.166.053a2.416 2.416 0 0 0-.252.11l-.096.05a2.639 2.639 0 0 0-.381.27c-.022.02-.047.038-.07.058a2.559 2.559 0 0 0-.198.206c-.128.15-.278.337-.448.56-.112.147-.233.311-.362.49-.256.357-.543.775-.855 1.248a55.412 55.412 0 0 0-1.266 2.028 69.106 69.106 0 0 0-1.713 3.049 76.037 76.037 0 0 0-3.568 7.769c-1.5 3.831-2.58 7.701-3.271 10.798-.039.172-.075.341-.112.508a63.597 63.597 0 0 0-.374 1.875 46.801 46.801 0 0 0-.308 1.921c-.059.442-.1.822-.123 1.134-.323.231-.635.462-.918.684-.244.192-.47.376-.676.554-.206.178-.394.35-.563.514a9.572 9.572 0 0 0-.269.274 5.77 5.77 0 0 0-.431.515c-.404.547-.548 1.012-.438 1.408.014.053.033.103.055.154.035.074.08.145.132.21l.062.075c.007.01.016.018.023.027.016.02.034.04.053.06l.034.035.057.057.043.036c.02.019.04.036.062.053l.05.035.069.045.058.029a.668.668 0 0 0 .22.074c.022.004.047.005.07.008.02.001.038.005.059.005.018 0 .037 0 .057-.002a.763.763 0 0 0 .513-.257c.133-.14.238-.326.347-.516.063-.11.135-.234.22-.368a4.858 4.858 0 0 1 1.78-1.696h.002c.06.057.124.11.19.16.022.016.046.03.069.046.046.032.093.064.142.093.027.017.056.031.084.047a2.818 2.818 0 0 0 .233.112 2.303 2.303 0 0 0 .416.133 2.43 2.43 0 0 0 .58.068l.02-.001a2.508 2.508 0 0 0 .708-.102 2.278 2.278 0 0 0 1.35-1.088c.15-.268.263-.571.317-.908l.006-.038c.012-.075.024-.156.039-.243.996-.37 2.021-.788 2.98-1.29Zm-10.485 5.001a.499.499 0 0 1-.064-.102c-.196-.425.256-1.106 1.104-1.906l-.14.191c-.089.126-.172.242-.243.346-.18.259-.293.434-.293.434s.626-.603 1.302-1.139c.099-.08.2-.159.298-.235.099-.077.197-.149.29-.218.186-.138.357-.26.492-.354a1.99 1.99 0 0 0 .266.595 4.998 4.998 0 0 0-.508.328c-1.995 1.48-1.636 3.127-2.504 2.06Zm13.335-13.958c.278-.207.893-.664 1.714-1.27l.425-.317.94-.697a4990.283 4990.283 0 0 1 3.831-2.841l3.722-2.759.868-.643.383-.284 1.36-1.01c.514-.38 2.243 1.326 2.833 2.597.236.51.29.951.008 1.16l-2.69 1.995-3.098 2.298-.95.704-4.645 3.444c-.216.16-.417.313-.608.458-1.71 1.303-2.428 2.017-3.312 2.81-.098.09-.198.178-.302.27-.519.455-1.128.959-2.025 1.623-.692.514-1.476.946-2.292 1.33.331-.216.673-.445 1.013-.68a39.707 39.707 0 0 0 1.185-.84 49.746 49.746 0 0 0 .782-.584 48.252 48.252 0 0 0 1.197-.936s-.397.292-1.006.713a49.203 49.203 0 0 1-3.053 1.96c-.257.152-.51.297-.75.435-.24.137-.47.264-.68.381-.21.116-.403.22-.568.308.082-.479.187-1.06.315-1.723.683-.35 1.504-.788 2.304-1.268a44.889 44.889 0 0 0 3.668-2.42c.308.058.603-.02.85-.122a3.86 3.86 0 0 0 .38-.183c.124-.068.242-.14.36-.217.236-.153.465-.32.705-.488.237-.17.476-.345.718-.526.244-.18.49-.366.743-.556l3.145-2.378 3.13-2.4c.747-.575 1.453-1.128 2.094-1.628.214-.168.42-.33.62-.483l1.907-1.509.72-.578s-.07.049-.201.137l-.24.164c-.093.065-.202.139-.324.222l-2.004 1.392c-.411.291-.858.605-1.33.937l-.728.512-.756.538-3.209 2.302-2.417 1.757-.776.564a111.426 111.426 0 0 0-1.457 1.079c-.382.282-.753.546-1.105.739l-.015-.01a4.157 4.157 0 0 1-.219-.188 4.921 4.921 0 0 1-.594-.673 5.185 5.185 0 0 1-.6-1.05l-.046-.106.023.112c.017.07.036.174.072.294a5.078 5.078 0 0 0 .317.875 5.09 5.09 0 0 0 .576.953.658.658 0 0 1-.26.014.405.405 0 0 1-.128-.045.638.638 0 0 1-.119-.082 7.11 7.11 0 0 1-.342-.533 6.848 6.848 0 0 1-.264-.505 5.302 5.302 0 0 1-.136-.322 3.56 3.56 0 0 1-.192-.683c-.092-.575.004-1.15.533-1.54Zm-3.326 6.315c-.348.254-.703.498-1.047.728-.345.231-.679.448-.989.643l.081-.408a59.19 59.19 0 0 0 3.047-1.771c-.348.267-.716.541-1.092.808ZM54.26 11.77a90.974 90.974 0 0 0-3.932 6.52c-1.252 2.282-2.549 4.891-3.574 7.51a58.816 58.816 0 0 0-1.72 5.135 82.08 82.08 0 0 0-.605 2.23 90.423 90.423 0 0 0-1.648 7.926 2.386 2.386 0 0 1-.128.48 1.986 1.986 0 0 1-.203.394l-.037-.11c-.062-.206-.141-.46-.208-.755.011-.022.025-.043.035-.066a1.239 1.239 0 0 0-.17-1.215c.001-.268.015-.553.036-.85.02-.298.047-.607.075-.92a13.647 13.647 0 0 1 .319-1.92c.052-.218.109-.433.17-.648.242-.862.552-1.71.838-2.506a40.72 40.72 0 0 0 .744-2.193c.05-.162.094-.319.133-.467a15.035 15.035 0 0 0 .26-1.12c.069-.387.1-.61.1-.61s-.039.223-.123.608a14.326 14.326 0 0 1-.3 1.105c-.047.148-.096.301-.15.461-.217.641-.508 1.375-.825 2.16-.316.787-.658 1.627-.936 2.49a14.327 14.327 0 0 0-.597 2.6 28.015 28.015 0 0 0-.159 1.453 1.342 1.342 0 0 0-.213-.1 1.409 1.409 0 0 0-1.157.099l.037-.307c.08-.608.195-1.252.336-1.892a23.116 23.116 0 0 1 .464-1.866c.183-.586.34-1.14.518-1.602.082-.233.16-.446.232-.635.068-.19.128-.356.186-.489l.165-.425-.062.103-.074.123-.1.168c-.073.126-.16.282-.254.462a16.21 16.21 0 0 0-.945 2.198 22.749 22.749 0 0 0-.525 1.886 23.032 23.032 0 0 0-.289 1.93c-.02.215-.033.422-.043.625-.05.055-.095.115-.136.178a1.162 1.162 0 0 0-.172.448 1.238 1.238 0 0 0 .099.737c.056.119.132.223.217.318.003.023.004.05.005.071.014.202.03.377.046.52l.04.334.016.119.006-.12.017-.335c.001-.124.011-.276.023-.443.118.094.25.174.399.227a1.41 1.41 0 0 0 1.326-.208c.036.15.072.284.103.401.05.173.09.31.118.412-.733.538-1.807.435-2.449-.15a8.234 8.234 0 0 1-.12-1.373c-.01-.497.011-1.104.082-1.84.123-1.284.399-2.959.943-5.105.028-.068.06-.148.096-.25.027-.07.056-.149.085-.234a18.928 18.928 0 0 0 .296-.94c.145-.486.303-1.05.53-1.627.115-.288.25-.578.412-.86.08-.141.17-.279.265-.417.094-.139.194-.277.291-.42.306-.425.52-.897.7-1.355a60.383 60.383 0 0 0 .758-2.078c.205-.6.342-1.08.415-1.356.044-.166.065-.259.065-.259s-.072.254-.217.674c-.086.252-.2.563-.339.916-.092.235-.196.489-.308.756-.112.267-.232.548-.357.84-.247.582-.514 1.197-.93 1.722-.18.24-.374.477-.543.732a96.049 96.049 0 0 1 1.848-5.118 107.755 107.755 0 0 1 1.415-3.438 85.338 85.338 0 0 1 1.333-2.916 59.527 59.527 0 0 1 1.24-2.437c.397-.738.778-1.402 1.14-2 .484-.798.934-1.479 1.348-2.06-.017.053-.036.1-.053.153a17.868 17.868 0 0 1-.755 1.79c-.144.298-.294.595-.447.884a35.612 35.612 0 0 1-.911 1.625c-.14.251-.284.48-.41.698L46.847 18c-.076.125-.133.225-.172.293l-.06.106.078-.094c.05-.062.122-.153.212-.27.184-.23.435-.569.723-.984.361-.517.766-1.164 1.165-1.867.24-.424.478-.867.704-1.317.15-.3.294-.604.428-.906.133-.303.258-.604.369-.897.062-.14.126-.277.192-.41a10.443 10.443 0 0 1 .826-1.404c.072-.103.14-.2.206-.29.12-.131.234-.25.342-.358.323-.325.589-.553.792-.709a2 2 0 0 1 1.182.337c-.002.047-.003.102-.009.163a3.095 3.095 0 0 1-.151.72 1.34 1.34 0 0 0-.607-.435c-.704-.252-1.489.09-1.751.761a1.237 1.237 0 0 0 .03.98 1.33 1.33 0 0 0 1.1.763c-.214.279-.434.564-.644.86-.436.615-.811 1.262-1.125 1.855-.19.356-.356.693-.5.992-.097.2-.185.385-.262.547-.232.49-.369.794-.369.794s.108-.206.293-.55l.12-.223.292-.533c.379-.68.885-1.552 1.5-2.381a17.5 17.5 0 0 1 .27-.352c.28-.353.583-.693.867-1.033.217-.046.418-.142.588-.28.169-.138.305-.317.388-.53a1.237 1.237 0 0 0 .062-.673l.077-.148c.152-.318.243-.616.295-.862.073.096.137.197.189.306.23.502.217 1.133-.225 1.798ZM40.679 41.312a.797.797 0 0 1-.513-.558.749.749 0 0 1 .03-.453c.16-.405.633-.612 1.058-.46a.802.802 0 0 1 .513.558.746.746 0 0 1-.03.452c-.16.407-.632.613-1.058.46ZM52.3 11.63a.858.858 0 0 1-.28-.168.767.767 0 0 1-.201-.843c.16-.405.632-.612 1.057-.46.216.078.378.231.463.418a.75.75 0 0 1 .02.592c-.161.407-.634.613-1.059.461Z"/><path d="M53.333 28.006c-.4.298-.783.592-1.145.87-.363.28-.706.545-1.024.786-.475.365-.886.69-1.217.95l-.304.239-.572.456.158-.11.446-.307c.095-.067.202-.14.317-.222.231-.16.5-.348.798-.558l.467-.333.508-.364c.35-.25.725-.517 1.115-.799.196-.14.394-.285.596-.433l2.526-1.851 2.504-1.879c.799-.6 1.532-1.172 2.168-1.657.635-.486 1.153-.902 1.521-1.188l.243-.194c.212-.169.33-.261.33-.261l-.16.108c-.05.036-.115.08-.19.131-.074.05-.16.11-.256.178l-.317.221-.373.261c-.267.188-.567.398-.892.631-.648.467-1.412 1.005-2.218 1.596l-2.527 1.851-2.502 1.878ZM45.5 27.059c.368-.71.636-1.506.93-2.28a24.828 24.828 0 0 1 .93-2.247c.083-.176.166-.349.248-.517.246-.506.487-.974.718-1.383.153-.272.295-.522.422-.742.127-.22.242-.412.34-.567l.304-.49-.095.12-.263.337c-.109.148-.242.327-.392.537a21.553 21.553 0 0 0-1.544 2.589 23.935 23.935 0 0 0-.754 1.673c-.079.193-.156.389-.23.584-.14.394-.273.787-.414 1.168-.14.383-.29.752-.46 1.097a6.67 6.67 0 0 1-.565.953c-.205.286-.44.531-.663.756-.451.445-.804.858-.977 1.186-.09.164-.138.3-.168.393l-.03.107a5 5 0 0 0-.01.037l.056-.138c.04-.089.104-.218.207-.366.146-.233.4-.491.718-.785.105-.099.218-.2.336-.307.233-.218.492-.455.726-.744.237-.289.449-.618.63-.971ZM45.068 22.044c-.087.357-.097.704-.106 1.024-.008.32-.02.62-.042.899-.022.277-.045.533-.068.758-.024.225-.048.423-.073.584-.011.081-.02.153-.03.216l-.023.16-.022.132s.054-.18.133-.5c.074-.318.181-.777.253-1.335.035-.278.068-.584.093-.904.014-.159.028-.322.05-.485.02-.164.05-.329.092-.491.16-.655.66-1.231 1.135-1.825.465-.603.91-1.219 1.315-1.805.203-.292.39-.58.564-.856.173-.276.333-.539.48-.781.295-.485.515-.904.673-1.194l.238-.461-.29.433c-.178.278-.451.666-.767 1.136-.079.118-.163.239-.25.365-.261.376-.559.785-.867 1.217-.413.576-.867 1.18-1.339 1.772-.283.37-.595.75-.83 1.161a2.874 2.874 0 0 0-.319.78ZM40.894 40.55c.1-.257.43-.39.436-.494.003-.035-.03-.067-.12-.098a.703.703 0 0 0-.891.387.639.639 0 0 0 .086.615.677.677 0 0 0 .32.234c.357.129.035-.302.169-.644ZM52.514 10.868a.566.566 0 0 1 .066-.118c.054-.073.123-.133.187-.186.064-.053.123-.097.155-.135.034-.039.041-.073.003-.106a.33.33 0 0 0-.094-.048.703.703 0 0 0-.891.387.656.656 0 0 0 .406.85c.357.129.035-.302.168-.644Z"/></g><path fill="#EACCB6" d="m12.592 29.913-1.177.517-.417.64 1.594-1.157ZM13.733 31.938l-.658.289-.266.383.925-.672Z"/><path fill="#EACCB6" d="M17.387 44.49c0 .012.002.023.004.035l.007.044.01.036c.003.015.008.03.013.045l.013.038.018.045a.675.675 0 0 0 .04.082.684.684 0 0 0 .02.035l.026.043a3.088 3.088 0 0 0 .052.074l.023.03a.7.7 0 0 0 .035.038l.023.024.041.036.02.016c.02.015.04.028.06.039l.01.003a.274.274 0 0 0 .052.02c.008.003.014.003.021.004.011.002.023.005.035.005l.004-.001a.165.165 0 0 0 .065-.014l4.959-2.449v-7.332l-1.076-1.497a20.922 20.922 0 0 1-.318-.447c-.107-.153-.214-.31-.322-.47-.215-.32-.435-.654-.663-.995l-.346-.519a33.566 33.566 0 0 1-.35-.535l-.701-1.118c-.479-.758-.96-1.55-1.432-2.363-.483-.808-.948-1.643-1.417-2.477-.47-.832-.907-1.683-1.355-2.51a96.95 96.95 0 0 1-.642-1.243l-.615-1.219c-.395-.804-.778-1.581-1.123-2.327l-.507-1.085-.458-1.02c-.224-.489-.421-.953-.604-1.38l-.177-.415-.579-1.394a33.11 33.11 0 0 1-.208-.517c-.06-.152-.108-.28-.149-.385l-.122-.322.564 1.186c.179.379.4.834.656 1.357l.198.404.667 1.348.501.997.265.525.272.542c.182.367.376.74.575 1.122.099.191.2.384.3.58.1.194.202.391.303.59a1548.697 1548.697 0 0 1 1.29 2.436c.226.411.448.828.674 1.246.226.417.454.835.691 1.249.232.416.462.833.694 1.247.232.414.465.825.704 1.229l.695 1.207c.115.199.233.395.35.59.116.194.233.386.347.578l.675 1.13c.22.368.448.722.663 1.07.219.346.427.686.63 1.013.203.327.402.642.6.938.305.471.59.91.85 1.315v-5.295l-.023-.042-.415-.78a374.703 374.703 0 0 0-1.814-3.287c-.317-.568-.644-1.144-.977-1.726-.332-.582-.671-1.168-1.012-1.76a208.95 208.95 0 0 0-2.109-3.566 234.233 234.233 0 0 0-2.162-3.533l-1.082-1.719c-.358-.565-.713-1.124-1.067-1.67-.348-.55-.707-1.08-1.047-1.606l-.254-.392c-.04-.06-.09-.142-.12-.181-.045-.059-.092-.133-.135-.177a1.974 1.974 0 0 0-.606-.501c-.459-.248-1.004-.214-1.478-.023-.12.045-.236.105-.348.163l-.353.205-.688.399c-1.346.783-2.532 1.453-3.485 1.993-.317.18-.609.346-.871.497l-.375.21-.852.478-.324.18-.111.062.106-.07.31-.204 1.178-.77c1.021-.653 2.47-1.605 4.227-2.713l.671-.426c.114-.072.23-.145.346-.22.129-.074.256-.146.396-.205a2.54 2.54 0 0 1 .907-.214c.324-.014.66.055.964.202.306.148.566.356.797.62.063.068.099.123.15.186.032.041.055.075.076.107l.065.094.266.386.538.785c.18.265.361.534.542.806a151.668 151.668 0 0 1 3.3 5.122c.366.59.73 1.183 1.09 1.78a165.203 165.203 0 0 1 4.04 7.116c.62 1.15 1.194 2.273 1.738 3.34v-1.403c-.167-.319-.333-.638-.503-.957a175.494 175.494 0 0 0-10.74-17.59 2.398 2.398 0 0 0-.176-.215l-.056-.06a2.72 2.72 0 0 0-.148-.14l-.061-.053a2.617 2.617 0 0 0-.22-.162 2.576 2.576 0 0 0-.236-.135l-.071-.034a2.694 2.694 0 0 0-.186-.08l-.074-.028a2.56 2.56 0 0 0-.52-.123l-.078-.008a2.693 2.693 0 0 0-.197-.012l-.049-.003-.03.002a2.697 2.697 0 0 0-.26.015h-.004a2.243 2.243 0 0 0-.52.13l-.074.029a2.062 2.062 0 0 0-.24.116l-.42.24-1.357.78-6.638 4.378a.19.19 0 0 0-.041.043c-.004.006-.006.013-.009.019a.19.19 0 0 0-.017.037l-.005.026c-.002.012-.005.025-.006.038L0 13.58l.001.042.005.034a.407.407 0 0 0 .017.08l.013.046a.87.87 0 0 0 .013.037l.019.046.016.037.023.045.02.035.026.043.022.034.031.041.023.029a.543.543 0 0 0 .057.062l.042.037.019.015c.02.015.04.029.061.04.002 0 .005 0 .007.002.019.01.036.017.055.021l.02.003c.012.002.024.006.035.006l.005-.001a.179.179 0 0 0 .065-.014l5.964-2.62a.31.31 0 0 1 .113-.025c.022 0 .043.002.062.007l.017.002c.025.009.047.02.066.035l.013.014a.241.241 0 0 1 .035.04.267.267 0 0 1 .026.067l.003.027a.188.188 0 0 1-.003.048.179.179 0 0 1-.03.08l-.014.025a.32.32 0 0 1-.069.07L1.498 15.9a.336.336 0 0 0-.076.077l-.015.027a.236.236 0 0 0-.031.168.222.222 0 0 0 .016.048l.012.025c.01.016.023.03.037.043l.014.015a.23.23 0 0 0 .072.037c.005.002.013.001.018.003.02.004.038.01.058.01l.015-.003.017-.001a.336.336 0 0 0 .1-.026l5.964-2.62a.31.31 0 0 1 .113-.025.23.23 0 0 1 .063.006c.005.002.011.001.017.003.025.008.047.02.066.035.005.004.008.01.013.013a.237.237 0 0 1 .035.04l.01.024a.222.222 0 0 1 .02.07.219.219 0 0 1-.033.128l-.013.025a.311.311 0 0 1-.07.07l-5.281 3.833a.355.355 0 0 0-.076.076l-.015.027a.236.236 0 0 0-.032.087c-.003.017-.004.035-.003.051 0 .011.002.02.003.03a.222.222 0 0 0 .016.048c.004.008.007.017.012.025.01.016.023.03.037.043.005.006.009.012.014.015a.25.25 0 0 0 .072.038c.006.002.012.002.019.003.018.005.037.01.057.01l.015-.003.018-.001a.352.352 0 0 0 .1-.026l5.964-2.62a.31.31 0 0 1 .113-.025c.022 0 .042.002.062.006.005.002.012.002.017.003.025.008.047.02.066.035l.013.013a.272.272 0 0 1 .035.04.204.204 0 0 1 .01.024.189.189 0 0 1 .015.043l.004.028a.187.187 0 0 1-.003.048.175.175 0 0 1-.03.08c-.005.008-.008.016-.014.024a.321.321 0 0 1-.07.07l-5.28 3.833a.336.336 0 0 0-.076.076l-.015.027a.192.192 0 0 0-.031.087c-.003.017-.004.035-.003.051a.222.222 0 0 0 .02.078c.004.009.007.017.012.025.01.016.023.03.037.044l.014.014c.021.016.046.03.072.038.006.002.013.002.019.003.018.005.037.01.058.01l.014-.002.018-.002a.355.355 0 0 0 .1-.026l5.963-2.62a.307.307 0 0 1 .114-.025.23.23 0 0 1 .062.007c.005 0 .012 0 .016.002.025.008.048.02.067.035.004.004.008.01.013.013a.234.234 0 0 1 .033.04l.012.024a.192.192 0 0 1 .016.119l-.006.028a.253.253 0 0 1-.024.051l-.013.025a.32.32 0 0 1-.07.07l-5.281 3.833a.351.351 0 0 0-.075.076c-.007.01-.01.018-.015.027a.234.234 0 0 0-.032.169.22.22 0 0 0 .016.047.196.196 0 0 0 .012.025c.01.016.023.03.037.043l.014.015c.021.016.045.03.072.038.006.002.012.001.019.003.018.004.037.009.057.009l.015-.002.018-.002a.355.355 0 0 0 .1-.025l5.964-2.62a.306.306 0 0 1 .113-.026.23.23 0 0 1 .061.007l.018.002c.024.009.046.02.066.036.005.004.008.01.013.013a.238.238 0 0 1 .034.04.317.317 0 0 1 .026.067.22.22 0 0 1 .001.075.173.173 0 0 1-.006.029.273.273 0 0 1-.023.05c-.005.01-.008.018-.014.026a.323.323 0 0 1-.07.07L6.06 24a.338.338 0 0 0-.076.077c-.007.009-.01.017-.015.027a.277.277 0 0 0-.026.055.292.292 0 0 0-.009.083.22.22 0 0 0 .02.078l.012.025c.01.016.023.03.037.043l.014.015c.02.016.045.03.072.037l.018.003c.018.005.037.01.058.01l.015-.002.018-.002a.351.351 0 0 0 .1-.026l5.963-2.62a.307.307 0 0 1 .114-.025c.022 0 .042.002.062.007.005 0 .012 0 .016.002.025.008.047.02.067.035l.013.013a.22.22 0 0 1 .034.04c.005.008.008.015.011.024a.188.188 0 0 1 .019.07.25.25 0 0 1-.003.048l-.005.03a.244.244 0 0 1-.024.05c-.005.009-.008.017-.014.025a.31.31 0 0 1-.07.07L7.2 26.025a.355.355 0 0 0-.076.076l-.015.027a.235.235 0 0 0-.032.087c-.003.017-.004.035-.003.051l.004.03a.22.22 0 0 0 .016.048.188.188 0 0 0 .012.025c.01.016.023.03.036.043.006.006.01.012.015.015.021.016.045.03.072.038l.018.003c.02.005.038.01.058.01l.015-.002.018-.002a.336.336 0 0 0 .1-.026l5.964-2.62a.305.305 0 0 1 .113-.025.23.23 0 0 1 .061.007c.006 0 .013 0 .018.002.025.008.046.02.065.035l.014.014a.213.213 0 0 1 .034.04l.011.023a.227.227 0 0 1 .015.044.214.214 0 0 1-.029.155c-.005.008-.008.016-.014.024a.321.321 0 0 1-.07.07L8.34 28.05a.34.34 0 0 0-.076.076l-.015.027a.26.26 0 0 0-.026.056.29.29 0 0 0-.005.113.221.221 0 0 0 .016.047c.004.009.007.017.012.025.01.017.023.03.037.043.005.006.009.012.014.015.02.016.045.03.072.039.006.001.012 0 .018.003.018.004.037.009.058.009l.014-.002.018-.002a.355.355 0 0 0 .1-.026l5.964-2.62a.308.308 0 0 1 .113-.025c.023 0 .043.002.063.007.005 0 .011 0 .016.002.025.009.048.02.067.035l.013.014a.194.194 0 0 1 .034.04.166.166 0 0 1 .01.024.188.188 0 0 1 .017.119.148.148 0 0 1-.006.028.232.232 0 0 1-.024.051l-.013.025a.31.31 0 0 1-.07.07L9.48 30.076a.34.34 0 0 0-.075.076l-.016.027a.246.246 0 0 0-.032.087.215.215 0 0 0 .017.129c.003.008.007.017.012.025.01.016.023.03.037.043l.014.015c.021.016.045.03.072.038.006.002.012 0 .019.003.018.004.037.009.057.009l.015-.002.018-.002a.355.355 0 0 0 .1-.026l5.964-2.62a.308.308 0 0 1 .113-.025c.022 0 .043.002.061.007.006.001.012 0 .018.002.024.009.046.02.065.036.006.004.01.009.013.013a.225.225 0 0 1 .035.04.294.294 0 0 1 .026.067l.003.027c.001.016 0 .032-.003.047a.179.179 0 0 1-.03.08c-.004.009-.007.017-.013.025a.315.315 0 0 1-.07.07L10.62 32.1a.358.358 0 0 0-.076.077c-.007.009-.01.017-.016.027a.26.26 0 0 0-.025.055.307.307 0 0 0-.01.083l.004.03a.22.22 0 0 0 .016.047l.012.026c.01.016.023.03.037.043l.014.014c.021.017.045.03.072.039l.018.003c.019.004.038.009.058.009l.015-.002.018-.002a.35.35 0 0 0 .1-.026l5.963-2.62a.307.307 0 0 1 .113-.025c.023 0 .043.002.063.007.005.001.011 0 .017.002.025.009.047.02.066.036.005.004.008.01.013.013a.22.22 0 0 1 .034.04c.005.008.008.015.011.023a.192.192 0 0 1 .015.119.179.179 0 0 1-.03.08c-.004.008-.007.016-.013.025a.309.309 0 0 1-.07.07l-5.28 3.832a.351.351 0 0 0-.076.077l-.015.027a.22.22 0 0 0-.032.086c-.003.018-.004.035-.003.052a.214.214 0 0 0 .02.077.2.2 0 0 0 .011.026c.01.016.024.03.037.043.005.005.009.011.015.015.02.016.044.029.072.037l.018.003c.019.005.037.01.058.01l.015-.003.018-.001a.352.352 0 0 0 .1-.026l5.963-2.62a.32.32 0 0 1 .114-.025c.021 0 .042.002.061.006.006.002.013.001.017.003.025.008.047.02.066.035l.014.014a.21.21 0 0 1 .034.04.296.296 0 0 1 .026.066.222.222 0 0 1 0 .076.236.236 0 0 1-.005.028.263.263 0 0 1-.024.051c-.005.008-.008.017-.014.025a.315.315 0 0 1-.07.07L12.9 36.15a.353.353 0 0 0-.075.076l-.016.027a.23.23 0 0 0-.032.087c-.002.017-.004.034-.002.051a.195.195 0 0 0 .02.078c.004.008.006.017.012.025.01.016.023.03.037.043l.014.015c.02.016.045.03.072.038.005.002.012.002.018.003.019.004.037.01.058.01.005 0 .01-.002.014-.003l.018-.001a.326.326 0 0 0 .1-.026l5.964-2.62a.307.307 0 0 1 .113-.025c.022 0 .042.002.061.007.006 0 .012 0 .018.002.024.008.046.02.065.035.006.004.01.01.013.013a.221.221 0 0 1 .035.04l.011.024a.163.163 0 0 1 .014.043.209.209 0 0 1-.005.103.232.232 0 0 1-.023.052c-.005.009-.008.017-.014.025a.325.325 0 0 1-.07.07l-5.28 3.833a.355.355 0 0 0-.076.076l-.014.027a.238.238 0 0 0-.032.169.239.239 0 0 0 .016.047c.004.008.007.017.012.025.01.016.023.03.037.043l.014.015c.022.016.045.03.072.038.005.002.013.002.018.003.019.005.038.01.059.01l.014-.002.018-.002a.344.344 0 0 0 .1-.026l2.982-1.31 2.981-1.31a.309.309 0 0 1 .114-.024c.021-.001.042.001.061.006.006.001.012 0 .017.003.025.008.047.02.066.035l.013.013a.243.243 0 0 1 .034.04l.012.023c.006.014.01.03.015.044l.003.027c0 .016 0 .032-.003.048a.162.162 0 0 1-.006.029.242.242 0 0 1-.023.05c-.005.01-.008.018-.014.025a.313.313 0 0 1-.07.071l-5.28 3.832a.35.35 0 0 0-.076.077l-.015.027a.24.24 0 0 0-.025.055.337.337 0 0 0-.01.083.231.231 0 0 0 .02.078l.012.025c.01.016.023.03.037.043l.015.015c.02.016.045.03.071.038.006.002.013.001.019.003.018.004.037.01.058.01l.015-.003c.006 0 .011 0 .017-.002a.351.351 0 0 0 .1-.025l5.964-2.62a.308.308 0 0 1 .175-.02l.017.004c.025.008.047.02.067.035.005.003.008.01.012.013a.21.21 0 0 1 .034.04c.005.007.008.015.012.023a.206.206 0 0 1-.015.199c-.004.008-.008.017-.014.024a.303.303 0 0 1-.07.071l-5.28 3.833a.34.34 0 0 0-.076.076l-.015.027a.244.244 0 0 0-.026.055.308.308 0 0 0-.006.032c-.003.017-.004.034-.003.051l.003.03a.22.22 0 0 0 .016.047.206.206 0 0 0 .012.026c.01.016.023.03.037.043l.014.015c.022.016.045.03.072.038l.018.003c.02.004.038.01.058.01l.015-.003.018-.001a.356.356 0 0 0 .1-.026l5.964-2.62a.305.305 0 0 1 .113-.025.21.21 0 0 1 .062.006c.005.002.012.001.017.003.025.008.047.02.066.035l.013.014a.202.202 0 0 1 .034.04.167.167 0 0 1 .012.023.178.178 0 0 1 .017.071.207.207 0 0 1-.008.076.236.236 0 0 1-.023.052c-.005.008-.008.016-.014.024a.342.342 0 0 1-.07.07l-5.28 3.833a.184.184 0 0 0-.041.043c-.004.006-.006.014-.01.019-.006.012-.012.023-.016.036-.003.009-.004.017-.005.026-.003.013-.006.026-.007.04v.03c.005.017.005.031.007.045Zm.64-18.435c-.14-.24-.283-.48-.427-.721a28.284 28.284 0 0 1-.422-.732 82.714 82.714 0 0 1-1.558-2.925c-.246-.468-.458-.935-.67-1.37-.202-.44-.398-.856-.57-1.242a34.995 34.995 0 0 1-.554-1.291l-.24-.595a22.64 22.64 0 0 1-.268-.713l.078.172.047.1.192.42.173.37a124.13 124.13 0 0 0 1.006 2.059 140.636 140.636 0 0 0 1.786 3.411c.266.485.541.976.82 1.464.135.247.274.491.414.734.14.242.281.483.418.724.275.48.563.942.832 1.395l.406.662.388.634c.25.414.5.797.727 1.152l.621.97.49.74.422.65s-.066-.089-.189-.25l-.278-.368-.244-.327-.287-.386c-.206-.275-.425-.594-.666-.94-.24-.348-.504-.722-.768-1.129-.265-.406-.556-.825-.83-1.279-.274-.45-.567-.91-.849-1.39ZM44.186 33.9c-.121.385.3.134.681.256.383.123.582.573.704.188a.738.738 0 0 0-.473-.92.724.724 0 0 0-.912.476ZM44.394 34.535c.012.023.027.062.058.095.03.034.067.078.116.107.049.03.104.057.162.08.06.013.121.02.178.024.057.002.111-.013.155-.024.044-.01.078-.035.101-.046.012-.008.02-.014.026-.02l.01-.006-.041-.012c-.012-.002-.028-.008-.044-.013a.56.56 0 0 0-.056-.015c-.04-.006-.084-.027-.13-.036a.992.992 0 0 1-.141-.043 1.016 1.016 0 0 1-.142-.043c-.043-.019-.091-.026-.128-.043-.037-.015-.075-.023-.098-.033a1.546 1.546 0 0 0-.041-.012l.004.01.01.03ZM25.337 17.043v5.991c.324-.49.686-.99 1.075-1.498l.028-.88.03-.834a162.79 162.79 0 0 1 .191-4.068l.025-.368a35.497 35.497 0 0 0-1.349 1.657ZM25.337 34.355a29.582 29.582 0 0 1 .955-1.342l-.011-2.225.015-2.975c0-.22.003-.437.005-.655-.336.402-.657.805-.964 1.206v5.991ZM27.15 27.813l.007 1.482.008 1.493-.005 1.126c.107-.132.218-.264.33-.394.003-.156.008-.312.01-.464.004-.225.01-.446.018-.663l.024-.636c.013-.413.034-.804.052-1.164a61.068 61.068 0 0 1 .14-2.023c.022-.246.036-.38.036-.38s.102.96.175 2.403c.02.361.04.75.053 1.164.013.36.028.739.037 1.129.56-.64 1.155-1.281 1.774-1.922a64.933 64.933 0 0 1 1.924-1.904 66.453 66.453 0 0 0 2.136-2.128l-.18-5.62a65.94 65.94 0 0 1-1.07 1.232 63.017 63.017 0 0 1-3.635 3.758 33.693 33.693 0 0 0-1.852 1.904c.009.53.017 1.066.018 1.607ZM25.915 44.772a25.41 25.41 0 0 1 .645-.853 162.638 162.638 0 0 1-.07-1.579l-.02-.586c-.028-.747-.058-1.558-.077-2.414l-.024-.94a33.566 33.566 0 0 0-1.032 1.285v5.923c.181-.276.374-.555.578-.836ZM34.335 29.862l-.154 4.821-.143-4.462a64.722 64.722 0 0 1-5.055 5.401c-.324.31-.636.62-.94.932l-.003.15c-.008.45-.026.886-.041 1.3-.013.412-.034.803-.053 1.163a57.443 57.443 0 0 1-.128 1.892c-.028.328-.048.511-.048.511l-.01-.098-.016-.168-.022-.245a54.51 54.51 0 0 1-.128-1.892c-.02-.36-.04-.75-.052-1.164a187.482 187.482 0 0 1-.03-.89c-.14.15-.278.301-.413.452a194.01 194.01 0 0 1-.045 1.775 107.309 107.309 0 0 1-.035 1.248c-.013.403-.027.792-.041 1.166a176.21 176.21 0 0 1-.07 1.729 38.41 38.41 0 0 1 1.087-1.275c.57-.64 1.175-1.284 1.803-1.924a76.144 76.144 0 0 1 1.936-1.904 64.645 64.645 0 0 0 1.727-1.704 69.706 69.706 0 0 0 1.605-1.699l.138-6.189c-.28.354-.57.712-.87 1.074Z"/><path fill="#EACCB6" d="M39.224 46.764V14.742a1.21 1.21 0 0 0 .962-1.203v-.294a1.205 1.205 0 0 0 .732-.781c.037-.122.058-.252.058-.388v-.384a1.242 1.242 0 0 0 .586-.837c.016-.082.024-.166.024-.252V9.61a1.469 1.469 0 0 0-.423-1.011 1.457 1.457 0 0 0-.406-.3 8.198 8.198 0 0 0-.526-2.219 8.97 8.97 0 0 0-.904-1.742 9.719 9.719 0 0 0-1.64-1.891 9.989 9.989 0 0 0-1.115-.862A9.389 9.389 0 0 0 33.646.283 9.26 9.26 0 0 0 31.37 0h-.041a9.283 9.283 0 0 0-4.96 1.434 9.974 9.974 0 0 0-.996.708 9.86 9.86 0 0 0-2.412 2.878 8.44 8.44 0 0 0-1.018 3.28c-.122.06-.235.136-.335.227a1.47 1.47 0 0 0-.494 1.085v.992c0 .353.136.667.36.894.074.075.158.14.25.195v.385c0 .085.008.168.024.249a1.272 1.272 0 0 0 .25.534c.028.036.052.072.084.104a1.207 1.207 0 0 0 .433.28v.295c0 .226.058.435.159.615.167.3.456.516.803.588v32.021a1.2 1.2 0 0 0-.804.588 1.196 1.196 0 0 0-.099.243 1.295 1.295 0 0 0-.057.352v.314c-.055.02-.105.05-.155.078a1.239 1.239 0 0 0-.178.12c-.034.028-.07.051-.102.083a1.264 1.264 0 0 0-.357.887v.384a1.211 1.211 0 0 0-.25.193 1.26 1.26 0 0 0-.36.897v.992c0 .543.324 1.043.789 1.29a7.687 7.687 0 0 0 .27 1.514 6.586 6.586 0 0 0 .752 1.67 6.311 6.311 0 0 0 .537.72 6.896 6.896 0 0 0 1.26 1.142 8.2 8.2 0 0 0 1.348.765c.972.44 2.088.74 3.317.89.615.076 1.257.114 1.924.114h.08c2.667 0 4.945-.612 6.588-1.77.106-.073.21-.15.309-.229a6.45 6.45 0 0 0 1.842-2.269c.372-.766.596-1.62.668-2.547a1.503 1.503 0 0 0 .73-.893c.037-.128.058-.261.058-.397v-.992c0-.344-.128-.663-.361-.897a1.225 1.225 0 0 0-.249-.193v-.384c0-.203-.046-.393-.127-.561a1.31 1.31 0 0 0-.279-.369 1.194 1.194 0 0 0-.384-.238v-.295c0-.45-.229-.838-.577-1.052a1.258 1.258 0 0 0-.386-.15Zm.635 7.237-.416.084-.175.033-.194.036a47.815 47.815 0 0 1-.678.118c-.25.041-.521.084-.811.126-.193.03-.395.058-.604.085-.209.028-.425.055-.647.083-.445.055-.916.101-1.402.15-.244.018-.492.042-.743.063-.251.021-.505.04-.763.052-.513.032-1.034.062-1.557.073l-.782.023-.777.001c-.516.008-1.022-.011-1.512-.027-.491-.008-.964-.042-1.413-.072l-.654-.043c-.211-.019-.414-.043-.61-.063-.39-.041-.75-.076-1.067-.114l-.23-.035-.213-.032-.375-.056-.667-.1-.047-.007a3.849 3.849 0 0 0 .185.038c.03.006.064.014.101.02l.422.086.812.166c.316.055.673.11 1.063.172.194.03.397.065.608.095l.654.078c.449.055.923.114 1.415.149.492.042 1 .088 1.519.108l.782.04.79.02c.527.016 1.054.013 1.574.01.52.003 1.03-.026 1.525-.037h.025a21.529 21.529 0 0 1-5.472.592c-3.124-.06-4.703.536-4.09 1.682l.138.083.178.106c.063.03.125.062.19.092l.384.187.407.162.207.082c.07.025.142.045.213.069l.433.136c.147.039.297.073.447.11.299.082.61.122.92.184.077.013.156.024.234.034l.237.03c.158.017.316.044.475.051.318.022.634.052.961.052l.483.013.482-.008c.32 0 .638-.032.954-.048.628-.066 1.248-.138 1.833-.28.439-.105.863-.223 1.261-.368.133-.049.263-.1.389-.155.259-.098.492-.23.725-.343.116-.058.222-.13.33-.192.107-.066.216-.124.31-.198.099-.07.195-.138.287-.208.092-.07.18-.14.261-.214l.244-.21.211-.22c.066-.072.139-.136.195-.209l.165-.21.152-.193c.042-.066.081-.13.12-.188.037-.061.073-.117.108-.17.035-.054.067-.104.092-.154.026-.05.05-.095.07-.137l.06-.114.107-.21-.09.217-.109.263c-.042.103-.111.212-.18.339-.034.064-.072.13-.11.2l-.142.206-.155.223a1.52 1.52 0 0 1-.09.113 84.816 84.816 0 0 1-.3.35c-.075.075-.155.151-.235.23-.157.165-.349.306-.544.461-.094.081-.203.146-.31.218l-.163.108c-.054.037-.11.073-.169.105-.234.128-.474.27-.735.379-.129.062-.261.118-.396.173-.27.108-.553.204-.844.29-.146.042-.294.083-.444.12l-.454.107-.466.084-.235.041-.238.03-.48.057c-.323.02-.648.054-.975.055l-.49.01-.492-.009c-.162 0-.326-.01-.49-.02l-.493-.038a3.26 3.26 0 0 1-.244-.024l-.243-.032c-.161-.023-.324-.04-.483-.068a20.639 20.639 0 0 0-.476-.09 4.98 4.98 0 0 1-.467-.11c-.153-.042-.307-.08-.458-.123l-.444-.15c-.073-.025-.147-.048-.218-.075l-.212-.088-.416-.178-.393-.206-.193-.102-.181-.116-.355-.227c-.112-.083-.218-.169-.324-.252-.218-.157-.394-.351-.574-.522-.094-.082-.164-.183-.243-.273l-.223-.268c-.127-.189-.242-.37-.352-.539l-.13-.262-.123-.244a2.458 2.458 0 0 1-.093-.232c-.027-.076-.051-.148-.077-.214l-.07-.193a.681.681 0 0 1-.025-.09c-.007-.03-.012-.058-.019-.084a10.982 10.982 0 0 0-.025-.108 6.627 6.627 0 0 1-.195-1.03 61.603 61.603 0 0 0 8.74.631 60.507 60.507 0 0 0 6.566-.357c.727-.079 1.452-.17 2.174-.274a7.051 7.051 0 0 1-.095.602 1.103 1.103 0 0 1-.04.008c-.031.005-.063.012-.1.02Zm-16.13-39.947a.5.5 0 0 1-.505-.514v-.961l-.186.025a.524.524 0 0 1-.456-.144.533.533 0 0 1-.15-.382v-.935a.683.683 0 0 1-.187-.005.521.521 0 0 1-.422-.534v-.992c0-.35.279-.68.625-.73a60.37 60.37 0 0 1 16.325-.2c-1.823-.156-4.21-.24-4.21-.24s.19.738-.256 1.586c-.273-.016-.55-.029-.829-.033-.279-.01-.56-.017-.842-.026l-.849.002c-.566-.008-1.132.018-1.689.04-.557.01-1.104.065-1.632.101-.265.015-.525.04-.778.07-.254.028-.502.059-.743.086l-.703.083-.653.105c-.104.017-.207.035-.307.05-.3.048-.58.09-.834.14-.337.07-.63.133-.872.184l-.322.068c-.047.01-.09.02-.13.027l-.194.041-.113.024.2-.034.565-.096.192-.033.21-.036.474-.08c.255-.04.536-.071.837-.107l.308-.038.654-.08.703-.054c.483-.034.99-.086 1.519-.094.527-.015 1.071-.049 1.625-.038.277 0 .556 0 .836.003.28.004.56.01.841.025.281.01.562.02.841.032l.833.058c.552.03 1.093.095 1.616.145a47.966 47.966 0 0 1 1.506.188l.672.103-.57-.046-.82-.063c-.959-.07-1.702-.117-1.702-.117s.053.4-.068.894a2.38 2.38 0 0 1-.064.216c-.235-.012-.474-.027-.714-.034-.512-.013-1.032-.032-1.552-.025-.52-.006-1.04.014-1.55.03-.512.016-1.014.056-1.5.085l-.714.065c-.233.021-.46.043-.682.07-.443.057-.861.105-1.246.161l-1.047.172c-.312.05-.58.114-.803.156l-.697.142.104-.017c.115-.017.32-.05.6-.094.223-.033.493-.086.807-.121l1.05-.127c.194-.02.395-.037.603-.054l.644-.054c.443-.032.911-.048 1.394-.074.484-.007.984-.025 1.492-.02.254.004.509.006.766.012.257.004.514.012.772.026.515.015 1.03.056 1.535.09.253.018.503.047.75.069.248.022.492.046.732.078l.705.086.673.098c.399.06.775.124 1.126.188a126.6 126.6 0 0 0-2.375-.188l-.472-.032c-.426-.03-.699-.046-.699-.046s.047.34-.047.777c-.03.145-.078.302-.147.459a60.399 60.399 0 0 0-5.962.078c-1.26.079-2.517.197-3.77.355a.61.61 0 0 1-.072.005ZM31.33.662H31.372c1.604 0 3.104.45 4.394 1.202.805.47 1.53 1.06 2.145 1.73a9 9 0 0 1 .986 1.291c-1.061-1.364-2.387-2.243-3.631-2.808a11.814 11.814 0 0 0-2.274-.764c-.49-.112-.9-.175-1.188-.21-.288-.034-.454-.04-.454-.04.286.098.558.193.812.286.17.062.332.124.485.185.23.09.44.18.628.266.5.232.84.452.96.661.029.053.045.105.046.155a.325.325 0 0 1-.097.228c-.203.222-.732.435-1.673.641-.21.046-.439.091-.69.136-.63.114-.955.365-1.094.67a.812.812 0 0 0-.048.134c-.101.365.02.787.185 1.144.187.013.375.027.563.044.433.04.867.072 1.292.121.425.049.844.09 1.248.142l.595.078.57.075 1.04.156c.643.093 1.176.196 1.55.259l.588.102-.156-.015-.438-.041c-.378-.034-.915-.095-1.564-.137l-1.045-.076-1.168-.062c-.404-.02-.823-.03-1.248-.045-.424-.015-.856-.013-1.287-.021a31.925 31.925 0 0 0-.676 0 52.3 52.3 0 0 1-.429.02c-.517.017-1.026.06-1.518.1-.492.032-.966.088-1.415.14l-.654.075c-.21.028-.413.062-.608.092-.39.061-.747.113-1.063.166l-.227.045-.408.081-.177.035-.662.132-.047.01.012-.002c.056-.01.305-.048.702-.11l.589-.09.229-.036c.317-.04.676-.076 1.067-.12.195-.021.398-.047.61-.066l.654-.046c.449-.034.922-.07 1.413-.081.49-.018.997-.04 1.513-.035l.778-.003.783.018c.523.008 1.046.036 1.56.065.514.02 1.018.073 1.506.107.488.046.96.09 1.405.143.222.027.44.053.648.08.21.025.412.052.605.082a37.989 37.989 0 0 1 2.252.378l.096.02a7.57 7.57 0 0 1 .141.787 61.33 61.33 0 0 0-10.918-.59 61.01 61.01 0 0 0-6.545.59 7.739 7.739 0 0 1 .924-2.806 8.841 8.841 0 0 1 1.091-1.56 9.274 9.274 0 0 1 2.072-1.767A8.712 8.712 0 0 1 31.33.662Zm6.657 46.184-.623-19.43v-1.5a68.033 68.033 0 0 1-2.085 2.777l.132 5.902a71.585 71.585 0 0 0 1.774-2.046l-.165 5.167c-.46.633-.958 1.297-1.495 1.986l.132 5.941a62.185 62.185 0 0 0 1.151-1.324l-.05 1.6-.116.024-.135.03a35.311 35.311 0 0 1-1.694.312l.13-5.848a65.853 65.853 0 0 1-5.81 6.363l-.268.002-.52.004c-.17-.005-.337-.01-.5-.013-.324-.01-.632-.013-.914-.038l-.774-.053-.594-.066c-.082-.01-.156-.017-.22-.024l-.163-.019-.136-.015.035.009c.055.012.179.041.36.085l.113.027.27.062.316.074.364.069.403.076c.23.048.481.084.741.122a60.238 60.238 0 0 1-3.014-.265V14.672a59.866 59.866 0 0 1 2.937-.26l-.097.104-.285.045a88.329 88.329 0 0 0-.673.126l-.364.067-.316.072-.27.06-.113.027-.102.023-.292.066s.144-.014.401-.042l.117-.013.272-.028.322-.033.773-.051c.079-.007.165-.01.248-.014-.147.163-.292.326-.434.489l.012.184a163.383 163.383 0 0 1 .189 3.78l.02.549.017.47.017.485c.338-.416.693-.836 1.063-1.257a57.146 57.146 0 0 1 3.013-3.158c.214-.21.43-.417.648-.624.28-.265.554-.532.824-.799l.729.066c.35.04.689.07 1.009.113a42.748 42.748 0 0 1 1.299.174l.358.055c.225.036.42.068.58.096l.191.034a71.137 71.137 0 0 1-2.013 2.604l-.197 6.17A73.115 73.115 0 0 0 37.21 21.2l.149 2.684.51-9.236.204.024v32.165l-.085.01ZM22.355 50.36c.025 0 .05.002.078.005v-.934a.534.534 0 0 1 .226-.446.526.526 0 0 1 .379-.081l.185.026v-.962c0-.149.055-.278.146-.369a.502.502 0 0 1 .433-.14 60.202 60.202 0 0 0 12.02.307l-2.348.288c.192.373.25.75.262 1.012l-.378.035c-.505.038-1.02.081-1.535.103-.258.016-.515.027-.772.037l-.767.022c-.254.008-.506.01-.755.011-.249 0-.495 0-.738.002-.484-.012-.952-.016-1.396-.034l-.646-.033c-.21-.01-.41-.021-.604-.034l-.555-.044-.5-.04c-.236-.019-.449-.045-.635-.067a9.18 9.18 0 0 0-.178-.019l-.708-.08.105.017.598.098c.112.017.236.04.371.062s.281.045.438.066c.313.04.666.087 1.053.138.386.045.806.084 1.25.13.444.04.913.069 1.4.106.485.02.988.053 1.5.064.51.012 1.03.026 1.55.02.52.003 1.041-.014 1.553-.026l.76-.03c.252-.011.5-.024.743-.04l.718-.047c.233-.02.463-.038.686-.058a53.706 53.706 0 0 0 1.919-.205c-2.288.344-4.32.403-4.32.403a2.61 2.61 0 0 1 .27.996c-.236.017-.474.034-.716.046l-.83.049-.839.03c-.56.025-1.12.029-1.672.035-.552.013-1.095-.005-1.62-.01-.263 0-.521-.01-.774-.019-.253-.01-.5-.023-.741-.033l-.702-.03c-.227-.017-.445-.035-.655-.05-.42-.033-.805-.057-1.146-.09-.34-.036-.637-.069-.881-.096l-.458-.05c-.202-.021-.31-.034-.31-.034l.012.002.1.016.65.102.877.138c.34.048.724.09 1.143.143l.654.08.701.064c.483.042.99.097 1.518.123.527.03 1.072.073 1.627.087.554.02 1.117.043 1.681.043l.845.01.839-.01c.555-.001 1.101-.025 1.63-.04a50.8 50.8 0 0 0 .78-.036l.745-.04c.484-.036.943-.063 1.365-.102l.31-.026.296-.027.547-.056.249-.027c.24-.027.455-.053.64-.075l.075-.01a38.24 38.24 0 0 1-1.806.269c-2.123.27-3.995.37-3.995.37.292.45.364.926.36 1.3a2.56 2.56 0 0 1-.059.534 58.806 58.806 0 0 1-3.253.088 60.616 60.616 0 0 1-8.903-.66.762.762 0 0 1-.625-.731v-.992c0-.319.232-.544.533-.544Z"/><path fill="#EACCB6" d="m23.285 50.982-.18-.02s.109.035.303.086c.194.047.47.12.808.186.336.067.73.137 1.155.193.212.031.431.058.655.081.224.024.452.044.68.065.227.013.455.028.68.042.224.013.446.015.66.023a19.414 19.414 0 0 0 1.416-.018c.234-.013.432-.03.581-.04.2-.015.313-.028.313-.028s-.114-.01-.314-.024l-.579-.037a16.88 16.88 0 0 0-.244-.016l-.55-.035-.613-.038-.654-.048-.676-.05c-.226-.018-.453-.032-.675-.054-.222-.02-.442-.038-.654-.058l-.611-.059-.549-.053-.656-.066-.164-.018a3.145 3.145 0 0 1-.133-.014ZM24.493 49.356l-.26-.026a5.843 5.843 0 0 0-.02-.002s.098.03.272.074l.145.034a11.86 11.86 0 0 0 1.068.21 12.98 12.98 0 0 0 .548.08c.38.05.788.086 1.196.119l.61.034c.2.01.399.012.59.017.383.004.742.002 1.048-.012.306-.008.561-.035.74-.045l.119-.01.161-.015s-.102-.011-.28-.023c-.18-.01-.433-.027-.739-.046l-.237-.014-.255-.015-.55-.033-1.191-.08a110.253 110.253 0 0 1-1.992-.157l-.237-.021-.736-.07ZM29.273 9.701l-.136-.01a6.065 6.065 0 0 1-.1-.007c-.15-.007-.364-.022-.622-.022-.257 0-.558-.003-.88.014-.321.017-.664.041-1.006.072-.341.04-.682.085-1 .134-.318.05-.613.112-.864.165-.253.052-.46.11-.605.147l-.097.026-.13.038.233-.03.616-.083c.19-.03.405-.052.635-.081l.234-.03a37.762 37.762 0 0 1 .996-.11 27.759 27.759 0 0 1 .998-.094c.32-.022.617-.054.873-.067l.62-.044.099-.008.12-.01h.016ZM29.483 11.47l-.154-.014c-.133-.007-.323-.024-.551-.026-.229-.003-.495-.008-.78.005-.286.014-.59.035-.894.06-.303.036-.605.076-.888.12-.282.044-.543.101-.767.15-.223.047-.406.101-.535.135l-.085.025-.116.034.208-.025.11-.014.436-.056c.225-.034.49-.058.77-.096.282-.036.583-.068.885-.095.3-.034.602-.062.885-.083.283-.018.547-.047.774-.06l.44-.032.11-.007.194-.016.014-.001-.056-.004ZM28.517 13.303c.116-.008.225-.015.325-.02l.488-.03.079-.005.106-.009-.048-.005-.136-.016a4.7 4.7 0 0 0-.49-.035c-.202-.007-.439-.017-.692-.01-.254.007-.524.019-.794.037-.27.027-.538.06-.79.093-.25.036-.483.085-.682.125-.1.02-.19.04-.27.061l-.112.03-.095.024-.179.051.107-.01.079-.008.211-.021.274-.029c.1-.012.21-.023.324-.034.115-.01.237-.022.362-.036.25-.027.518-.05.785-.07.267-.025.535-.045.786-.06.126-.005.247-.014.362-.023ZM27.102 5.52c-.329.036-.656.08-.962.129a12.052 12.052 0 0 0-1.29.3l-.114.035-.216.07.06-.01.164-.027c.106-.02.247-.041.414-.067l.175-.029c.242-.043.527-.075.83-.12.305-.04.63-.076.956-.104.325-.034.652-.059.959-.074.306-.013.592-.035.838-.037l.336-.01c.1-.003.187-.005.26-.005l.226-.006-.225-.03-.259-.026a4.935 4.935 0 0 0-.337-.024 12.004 12.004 0 0 0-.845-.017 19.62 19.62 0 0 0-.97.051ZM26.141 48.135c.118.013.287.04.49.058l.327.033c.116.011.238.022.365.03l.392.026c.133.01.268.018.404.027l.796.029c.254.01.491.005.695.008.203.003.373-.006.492-.007l.08-.004.108-.004-.185-.027c-.088-.01-.206-.028-.344-.043a3.372 3.372 0 0 0-.146-.015c-.202-.017-.438-.046-.692-.062l-.795-.052-.404-.015-.392-.014c-.127-.005-.25-.006-.367-.007l-.328-.001c-.204-.003-.374.006-.493.007l-.188.009s.067.007.185.024Z"/></svg>