<svg xmlns="http://www.w3.org/2000/svg" width="60" height="60" fill="none"><path fill="#EACCB6" d="M57.421 46.658c-1.64-.07-3.984-.162-6.797-.236a392.619 392.619 0 0 0-4.737-.113c.053.304.093.618.12.945l.076-.001c1.612-.028 3.135-.07 4.542-.109a406.96 406.96 0 0 0 6.797-.236c.82-.032 1.465-.07 1.904-.091l.674-.035-.674-.034c-.44-.02-1.085-.059-1.905-.09ZM9.375 47.142c1.209.034 2.508.07 3.871.095.026-.315.065-.62.114-.912-1.405.026-2.743.063-3.985.098-2.813.074-5.157.165-6.797.235-.82.031-1.465.07-1.904.09L0 46.782l.674.034c.44.02 1.084.06 1.904.09 1.64.071 3.984.162 6.797.236ZM5.053 25.649c.233-.128.554-.044.408-.25-.145-.207-.45-.27-.683-.142-.233.128-.305.4-.16.606.145.206.202-.085.435-.214ZM5.349 25.82c-.022.015-.053.026-.078.044a.652.652 0 0 1-.086.046.693.693 0 0 1-.087.047c-.03.012-.055.03-.08.04-.025.01-.046.025-.061.031l-.025.014.027.01c.017.003.044.012.075.012.03 0 .07.001.107-.01a.813.813 0 0 0 .114-.04.795.795 0 0 0 .094-.07c.028-.026.044-.056.059-.08s.018-.049.023-.064l.004-.026-.026.013c-.014.009-.039.018-.06.033ZM54.865 25.863c.145-.206.073-.478-.16-.606-.232-.128-.538-.065-.683.141-.145.207.176.123.408.25.234.13.29.421.435.215ZM54.551 26.041l-.024-.014c-.016-.006-.037-.02-.062-.03-.025-.01-.05-.03-.08-.04a.754.754 0 0 1-.087-.047.665.665 0 0 1-.087-.047c-.025-.017-.055-.028-.077-.044-.022-.014-.046-.024-.06-.034a.293.293 0 0 0-.025-.013l.004.026c.004.015.007.04.022.064.015.025.032.055.059.08.028.024.06.048.094.07.038.017.077.03.114.04.038.01.076.01.107.01.03 0 .057-.009.075-.012l.027-.009ZM.8 33.071l2.534 1.689 3.274 2.188 3.258 2.207c1.088.733 2.169 1.476 3.247 2.22l.392.271.936-.046a8.167 8.167 0 0 0 0-1.525c-.191-2.056-.528-3.257-.773-4.133-.06-.21-.11-.396-.155-.572a6.934 6.934 0 0 1-2.192-3.345c-.484-1.605-.417-3.216-.316-4.6.025-.357.064-.871.27-1.398-.47.32-.936.644-1.407.962L6.61 29.196l-3.275 2.188L.8 33.07ZM49.38 26.989c-.462-.312-.92-.63-1.38-.944.2.52.238 1.027.264 1.38.101 1.383.168 2.995-.316 4.6a6.945 6.945 0 0 1-2.158 3.316c-.076.349-.17.702-.28 1.113-.264.98-.562 2.092-.705 3.62a8.02 8.02 0 0 0 0 1.532l.934.043.396-.274c1.079-.745 2.16-1.488 3.247-2.22l3.258-2.208 3.274-2.188 2.534-1.688-2.535-1.689-3.274-2.187-3.258-2.206Z"/><path fill="#EACCB6" d="M46.328 16.397a14.071 14.071 0 0 0-.162-2.07c-.196-1.24-.587-2.379-1.262-3.323a4.07 4.07 0 0 0-.045-.52 4.935 4.935 0 0 0-.296-1.076c-.362-.916-1.008-1.88-1.938-2.885a6.514 6.514 0 0 0-.611-.573 13.41 13.41 0 0 0-1.71-1.18 22.357 22.357 0 0 0-1.06-.59C36.586 2.474 33.6 1.214 30.426.36a21.53 21.53 0 0 1 2.137 1.06c.133.074.265.148.395.225a43.16 43.16 0 0 0-3.011-.816 37.68 37.68 0 0 0-2.41-.476c-.398-.065-.793-.121-1.182-.169A23.367 23.367 0 0 0 23.546 0c-.952 0-1.81.074-2.572.223-.76.149-1.426.371-1.992.667-.377.196-.71.426-1 .688L16.132 3.26l1.416-.192.217-.03c-.1.06-.2.12-.296.181a5.413 5.413 0 0 0-.794.628l-.782.766c-1.405.026-2.89.142-4.236.664l-2.411.935 2.56.549c.014.003.88.19 1.88.504.23.073.468.152.704.237a26.489 26.489 0 0 1-.796.098c-.78.086-1.659.156-2.46.195l-1.534.075.42.57.418.569s.043.062.09.157c.057.114.121.276.127.439a.555.555 0 0 1-.044.238.466.466 0 0 1-.151.18c-.063.045-.16.103-.249.156-.24.144-.478.301-.707.489a4.07 4.07 0 0 0-.645.668 4.101 4.101 0 0 0-.605 1.173 4.723 4.723 0 0 0-.075.245c-.358 1.267-.398 3.143.162 6.054l.259 1.346.215 1.117 1.204-2.26a5.402 5.402 0 0 1 .36-.536 6.013 6.013 0 0 1 .811-.876c.138-.121.287-.24.447-.351a4.427 4.427 0 0 1 .798-.44 28.03 28.03 0 0 0 .478 3.163c.213 1.054.464 2.092.701 3.074.057.233.111.463.165.69.054.225.107.448.157.667a.59.59 0 0 1-.018.002l-.208.018v.385c-.015.002-.033.002-.048.005a2.261 2.261 0 0 0-1.64 1.223c-.252.507-.29 1.04-.319 1.43-.037.501-.068 1.032-.07 1.58-.001.365.011.738.045 1.115s.088.757.172 1.138c.041.19.09.38.147.569a6.433 6.433 0 0 0 1.45 2.536c.22.235.454.45.705.645.026.117.056.237.089.36.033.124.068.253.106.386.094.336.201.72.309 1.178l.054.235a20.167 20.167 0 0 1 .258 1.395c.063.425.121.897.17 1.423a8.301 8.301 0 0 1 .026 1.284 8.464 8.464 0 0 1-.03.396l-.085.486-1.772.086 1.515 1.205.004.003c-.075.288-.157.574-.24.864-.369 1.29-.743 2.608-.622 4.306a11.9 11.9 0 0 0-.043 1.047c0 .223.007.445.016.662a10.667 10.667 0 0 0 .235 1.827c.041.184.086.362.134.531a7.255 7.255 0 0 0 .533 1.362l.077.144.04.072c.073.137.146.247.203.333l.052.078.07.106.025.036-.056-.157c-.017-.052-.042-.114-.068-.188a3.787 3.787 0 0 1-.083-.255 9.618 9.618 0 0 1-.358-1.603c-.01-.072-.017-.15-.026-.224a14.974 14.974 0 0 1-.065-.7c.162.45.353.923.582 1.424.954 2.081 2.603 3.53 4.456 4.54.185.1.373.197.562.29a16.52 16.52 0 0 0 1.727.722c.387.137.775.26 1.158.37 3.07.881 5.902.929 6.477.929h.09a21.496 21.496 0 0 0 1.993-.104c2.566-.24 6.94-1.026 9.955-3.587l-.108.16-.242.318c-.15.203-.28.383-.403.52-.233.283-.364.453-.364.453s.185-.118.501-.338c.164-.107.342-.253.545-.425l.323-.277.33-.33c.35-.342.7-.761 1.035-1.233.111-.157.221-.32.329-.489l.311-.52c.105-.177.19-.363.28-.55.093-.187.178-.377.252-.572.039-.096.08-.193.118-.29.04-.097.078-.195.112-.293.062-.2.123-.398.18-.598.057-.199.109-.398.15-.598.108-.395.133-.797.194-1.178l.026-.376c.295-1.643.125-2.934-.162-4.118a25.811 25.811 0 0 0-.23-.863 52.091 52.091 0 0 0-.102-.362c-.083-.29-.164-.578-.24-.867l.051-.045 1.21-1.17-1.536-.072a8.607 8.607 0 0 1-.068-2.17 17.978 17.978 0 0 1 .413-2.514c.101-.43.207-.824.308-1.2.121-.45.233-.873.315-1.285.247-.195.48-.41.696-.643a6.325 6.325 0 0 0 .85-1.16 6.545 6.545 0 0 0 .583-1.357c.457-1.516.392-3.067.294-4.402a12.646 12.646 0 0 0-.026-.317 4.59 4.59 0 0 0-.021-.173 3.175 3.175 0 0 0-.188-.75 2.272 2.272 0 0 0-.559-.832 2.237 2.237 0 0 0-1.165-.582 2.835 2.835 0 0 0-.383-.036l.112-.575c.333-1.7.714-3.649.891-5.587.067-.745.105-1.49.097-2.216Zm-30.932 32.82a14.082 14.082 0 0 1-.118-.5 10.324 10.324 0 0 1-.183-1.818 5.754 5.754 0 0 1 .02-.728c.006-.108.014-.209.022-.302.01-.093.02-.179.031-.256l.043-.288c.004-.025.008-.047.01-.068l.02-.127-.007.487c-.01.154-.004.341.008.556.003.107.007.222.014.342.006.12.016.245.03.377.013.263.052.546.103.844.025.149.054.302.084.458l.095.475c.077.322.168.65.275.982.106.33.227.663.365.99.204.493.434.976.69 1.429.084.151.171.299.26.442.368.569.723 1.098 1.087 1.514l.253.304.243.265c.151.168.283.315.407.424l.366.363-.413-.321a4.666 4.666 0 0 1-.213-.175 11.537 11.537 0 0 1-.241-.215l-.273-.247-.28-.293a10.96 10.96 0 0 1-1.192-1.49c-.38-.58-.721-1.229-1.014-1.896a12.752 12.752 0 0 1-.492-1.528Zm-1.37-28.254c-.09-.395-.175-.793-.256-1.193a30.788 30.788 0 0 0 .971 3.153 33.63 33.63 0 0 0 .441 1.149l-.023-.085a33.176 33.176 0 0 1-.341-1.375l-.066-.297a25.91 25.91 0 0 1-.372-2.044 26.113 26.113 0 0 1-.198-1.665c.075.295.156.6.242.905a47.541 47.541 0 0 0 .982 3.094s-.062-.301-.149-.775a46.951 46.951 0 0 1-.253-1.51l-.042-.29a48.58 48.58 0 0 1-.2-1.62c.031.12.064.242.098.363a13.811 13.811 0 0 0 .269.89l.07.206c.046.135.092.263.136.383.044.12.086.231.125.332.136.353.233.575.233.575s-.054-.234-.122-.6a18.65 18.65 0 0 1-.287-2.354c-.01-.165-.015-.328-.02-.483a21.048 21.048 0 0 0 .294 1.144c.017.052.031.102.046.152l.088.281c.057.176.108.328.147.442l.05.142.03.084-.02-.236a25.125 25.125 0 0 1-.03-.457 16.824 16.824 0 0 1 .04-2.393c.967.185 1.928.347 2.883.486 2.866.417 5.676.629 8.393.629 3.524 0 6.85-.363 9.889-1.078a28.704 28.704 0 0 0 2.072-.57 48.2 48.2 0 0 1-.9.373l-.692.244a8.68 8.68 0 0 1-.706.23l-.717.21-.358.102-.362.084-.715.166c-.236.058-.47.11-.705.146l-1.348.235-.632.075a238.169 238.169 0 0 1-1.134.137l-.494.035-.435.029-.37.025-.418.029-.283.019.545.009.159.002c.056.001.115.003.176.003a317.354 317.354 0 0 1 1.13.017c.176-.006.36-.012.552-.02l.602-.02.643-.024.679-.06.709-.062c.241-.017.485-.048.73-.087l.748-.108.38-.055.377-.074.76-.152c.255-.046.505-.111.754-.177l.745-.193c.243-.074.485-.148.723-.223.239-.076.473-.154.702-.236.453-.172.897-.332 1.3-.522.411-.172.783-.37 1.13-.546l.381-.213c.153.65.292 1.318.364 1.951.024.212.04.419.048.619.028.793.032 1.556.008 2.303a26.34 26.34 0 0 1-.374 3.695c-.301-.014-.645-.028-1.032-.042a130.968 130.968 0 0 0-4.639-.074c-.725 0-1.364.036-1.935.097-.285.03-.553.068-.806.11a12.569 12.569 0 0 0-2.188.565c-.258.09-.5.182-.73.268-.312.118-.6.227-.883.316-.472.15-.932.247-1.474.247a4.714 4.714 0 0 1-1.474-.247c-.283-.09-.571-.198-.883-.316l-.234-.088a15.142 15.142 0 0 0-1.642-.527 13.538 13.538 0 0 0-1.434-.277 17.319 17.319 0 0 0-2.35-.148c-.581 0-1.128.003-1.64.008-1.366.015-2.483.045-3.349.079-.542.02-.986.042-1.332.061-.08-.349-.166-.709-.254-1.079-.176-.74-.365-1.514-.543-2.304Zm-1.66-5.319c-.188.096-.362.19-.523.28-.24.138-.448.27-.622.389-.06.037-.117.073-.168.108-.156.106-.274.2-.366.266l-.186.137.012-.01.088-.074.076-.063c.087-.07.2-.172.347-.288a10.367 10.367 0 0 1 2.203-1.31 14.76 14.76 0 0 1 3.272-1.007c.31-.059.629-.108.952-.15.324-.04.653-.075.985-.104a22.813 22.813 0 0 1 2.02-.057c.677.023 1.352.072 2.013.142.66.075 1.307.167 1.928.273 1.243.214 2.38.494 3.352.738.243.062.475.123.694.182.66.18 1.214.342 1.634.461.07.021.136.04.198.06l.175.051.504.149-.361-.084-.533-.125a30.224 30.224 0 0 0-.225-.052l-1.774-.412-.358-.083a56.94 56.94 0 0 0-3.355-.654c-.618-.1-1.26-.185-1.913-.254a30.465 30.465 0 0 0-.989-.079c-.332-.02-.665-.035-.998-.043a22.316 22.316 0 0 0-1.989.038c-.327.025-.65.056-.97.094a17.684 17.684 0 0 0-2.266.424 14.486 14.486 0 0 0-2.253.772c-.214.095-.416.19-.604.286Zm-.146-7.263c.476.023 1.157 0 1.967-.053.204-.012.415-.03.632-.052.436-.044.9-.102 1.386-.167l.743-.099c.757-.1 1.553-.219 2.364-.327.271-.036.543-.07.816-.104a23.823 23.823 0 0 1 3.248-.113c1.043.039 2.005.222 2.801.44.8.22 1.408.532 1.81.766.206.112.35.223.453.291l.155.107-.043-.022-.129-.063-.206-.102a3.267 3.267 0 0 0-.285-.124c-.422-.195-1.06-.406-1.843-.574a12.74 12.74 0 0 0-1.99-.246c-.242-.013-.49-.023-.741-.027a23.153 23.153 0 0 0-3.161.176 62.592 62.592 0 0 0-1.613.18c-.533.062-1.058.126-1.569.183a28.14 28.14 0 0 1-2.815.165 13.873 13.873 0 0 1-1.992-.135c-.178-.023-.326-.052-.443-.075a9.958 9.958 0 0 0-.189-.035l-.06-.011a3.252 3.252 0 0 0-.05-.01l.113.007.085.004c.13.004.316.02.556.02Zm3.71-2.69c-.422.02-.81.042-1.153.065-.343.024-.642.048-.888.074l-.774.078.114-.02.195-.033.456-.076a40.71 40.71 0 0 1 .885-.123 30.223 30.223 0 0 1 6.545-.075c.282.026.564.056.846.09.281.037.562.076.841.12.559.085 1.111.187 1.643.31a14.319 14.319 0 0 1 1.16.32 9.568 9.568 0 0 1 1.67.733c.196.11.379.225.549.341.683.465 1.13.973 1.399 1.342a5.228 5.228 0 0 1 .365.61l-.1-.157a6.028 6.028 0 0 0-.315-.424 4.653 4.653 0 0 0-.406-.436 6.02 6.02 0 0 0-.362-.32 7.125 7.125 0 0 0-.948-.655 7.501 7.501 0 0 0-.902-.443 12.106 12.106 0 0 0-1.407-.484c-1.001-.28-2.112-.457-3.229-.59a33.788 33.788 0 0 0-3.294-.26 36.28 36.28 0 0 0-2.89.012ZM23.166.881c1.104-.11 2.418-.145 3.798.065a12.875 12.875 0 0 1 3.106.87c.336.142.665.299.985.472a10.35 10.35 0 0 1 1.345.886c.14.109.275.22.407.335.394.343.75.711 1.06 1.098a7.35 7.35 0 0 1 .767 1.171l.01.003c.145.036.316.09.51.159l.312.106c.108.042.218.092.334.142.467.194.988.468 1.513.804a11.377 11.377 0 0 1 1.502 1.205 11.79 11.79 0 0 1 .64.716c.2.244.385.492.552.737.32.499.572.987.739 1.42.043.107.087.21.122.308l.086.286c.027.09.052.173.073.252.02.078.037.149.05.215l.034.174.042.209.006.027-.14-.397a2.409 2.409 0 0 0-.072-.208 8.778 8.778 0 0 0-.102-.24c-.035-.087-.074-.178-.114-.274l-.144-.297a6.08 6.08 0 0 0-.352-.654c-.139-.226-.293-.46-.454-.7a10.822 10.822 0 0 0-1.191-1.395 11.506 11.506 0 0 0-1.437-1.2 42.72 42.72 0 0 0-.373-.244c-.246-.16-.485-.308-.717-.436a5.795 5.795 0 0 0-.342-.175l-.317-.159-.294-.13c-.083-.038-.161-.073-.233-.104a4.245 4.245 0 0 0-.207-.081 6.93 6.93 0 0 1 .697 2.341 5.727 5.727 0 0 1-.099 1.903c-.037.17-.078.325-.12.463l-.067.195-.062.17c-.04.106-.078.194-.113.264l-.093.204-.007.014.022-.057.063-.166c.06-.143.125-.361.2-.637a6.128 6.128 0 0 0 .107-2.338 6.846 6.846 0 0 0-.88-2.494l-.123-.046.112.029a7.275 7.275 0 0 0-1.322-1.667 9.2 9.2 0 0 0-.771-.66 9.988 9.988 0 0 0-1.316-.85 11.94 11.94 0 0 0-1.946-.847 12.618 12.618 0 0 0-2.03-.494 15.912 15.912 0 0 0-3.735-.145 19.95 19.95 0 0 0-3.354.538l-.256.063.25-.075c.041-.014.087-.027.137-.042l.166-.048.412-.113a18.328 18.328 0 0 1 2.624-.47Zm19.92 8.223c.132.175.242.329.326.459l.197.301.07.107s-.116-.138-.315-.38a6.826 6.826 0 0 0-.37-.429c-.144-.164-.31-.347-.498-.54a13.806 13.806 0 0 0-.972-.939l-.373-.332a19.216 19.216 0 0 0-1.712-1.294 20.095 20.095 0 0 0-1.867-1.11c-.627-.312-1.214-.603-1.744-.805-.262-.109-.505-.201-.722-.28a8.175 8.175 0 0 0-.566-.2l-.21-.07-.254-.085-.033-.01a31.689 31.689 0 0 0 .4.09l.116.026c.164.037.361.09.586.154.227.06.48.136.749.234a16.605 16.605 0 0 1 1.808.74c.637.318 1.292.692 1.92 1.1a20.193 20.193 0 0 1 1.315 1c.137.114.27.228.4.343.254.232.49.464.707.69.217.225.413.445.586.652.18.206.328.402.456.578Zm-33.6 5.177c-.5 1.122-.596 2.148-.553 2.85.024.352.059.63.105.815l.06.286-.075-.283a2.88 2.88 0 0 1-.08-.343 8.146 8.146 0 0 1-.07-.471 6.044 6.044 0 0 1 .454-2.91 6.94 6.94 0 0 1 1.076-1.736 6.66 6.66 0 0 1 1.83-1.511c.924-.527 2-.87 3.122-1.083.45-.085.906-.149 1.364-.196.23-.023.459-.042.687-.057 1.84-.104 3.678-.034 5.392.097a59.834 59.834 0 0 1 3.037.332c.567.077 1.108.156 1.615.232 1.354.204 2.474.413 3.26.55l.522.097.211.038a685.622 685.622 0 0 0 .498.092l-.02-.003-1.222-.172a181.339 181.339 0 0 0-2.778-.386l-.498-.067a78.034 78.034 0 0 0-2.785-.321c-.2-.02-.403-.038-.608-.057-.41-.037-.829-.072-1.255-.103-1.703-.12-3.533-.176-5.346-.062a17.324 17.324 0 0 0-2.015.235 11.514 11.514 0 0 0-1.287.304 9.176 9.176 0 0 0-1.198.445 7.624 7.624 0 0 0-1.071.596 6.82 6.82 0 0 0-1.28 1.118 6.797 6.797 0 0 0-.883 1.252 6.41 6.41 0 0 0-.209.422Zm14.75-3.639c.77.082 1.585.216 2.388.395.797.202 1.577.448 2.29.72a17.772 17.772 0 0 1 1.456.656c.145.074.283.148.414.22.267.139.501.281.704.412.103.064.199.124.286.181.088.058.167.111.237.162l.187.132.138.099.116.082-.124-.071-.351-.2a8.205 8.205 0 0 0-.55-.301 19.218 19.218 0 0 0-.728-.366c-.532-.27-1.187-.525-1.888-.794a21.655 21.655 0 0 0-4.607-1.098c-.379-.04-.745-.077-1.094-.105-.35-.027-.68-.046-.987-.048-.307-.01-.588-.01-.837-.007-.25 0-.468.002-.646.015l-.417.018-.11.004c-.024 0-.037.002-.037.002l.146-.02.175-.023.238-.032c.177-.025.395-.045.646-.063.25-.024.532-.043.842-.044.617-.018 1.342.004 2.113.074Zm14.155-.604.037.102.043.12c.031.087.064.185.094.294.059.216.136.468.19.742.053.275.105.569.15.863.03.296.055.593.072.87.017.279.008.54.004.762a4.024 4.024 0 0 1-.015.304c-.008.091-.017.17-.022.234l-.025.204-.019-.117c-.004-.025-.01-.054-.014-.086l-.015-.106-.018-.125-.042-.3-.045-.356-.051-.395c-.03-.275-.068-.567-.112-.858a21.627 21.627 0 0 0-.11-.858c-.043-.273-.062-.53-.096-.75l-.021-.157-.016-.143c-.01-.09-.017-.169-.026-.234l-.018-.19v-.014s.006.018.02.05l.023.062.032.082Zm-3.68 6.266c.042-.045.084-.097.128-.156.044-.058.09-.121.14-.19.1-.134.21-.287.323-.46.24-.334.46-.754.694-1.2a9.83 9.83 0 0 0 .576-1.455 9.542 9.542 0 0 0 .342-1.51c.041-.368.081-.72.093-1.039.004-.107.005-.21.002-.308a7.304 7.304 0 0 0-.014-.542 7.228 7.228 0 0 0-.01-.226 2.162 2.162 0 0 0-.02-.192 145.097 145.097 0 0 1-.035-.365l.054.206.04.152c.03.114.057.253.084.415a4.567 4.567 0 0 1 .071.545c.039.4.043.873-.003 1.376a9.723 9.723 0 0 1-.312 1.558 10.127 10.127 0 0 1-.63 1.48c-.25.454-.525.859-.79 1.187a4.633 4.633 0 0 1-.375.436c-.116.127-.22.235-.312.32l-.121.112-.09.084-.075.07.016-.02.225-.278ZM20.439 3.11a15.27 15.27 0 0 1 1.545-.17c1.139-.06 2.49-.038 3.901.23a15.78 15.78 0 0 1 2.124.576 14.492 14.492 0 0 1 2.044.937c.319.195.627.404.922.623.295.22.576.452.84.694.518.494.989 1.011 1.372 1.555a8.769 8.769 0 0 1 .52.822 8.489 8.489 0 0 1 .697 1.64c.08.266.147.525.2.775a6.41 6.41 0 0 1 .027 2.442c-.039.293-.122.514-.159.667l-.064.233.01-.06.026-.178c.018-.156.073-.38.075-.673.008-.072.013-.148.017-.228.027-.56-.032-1.306-.25-2.147a6.683 6.683 0 0 0-.236-.738 9.4 9.4 0 0 0-1.01-1.93c-.087-.13-.178-.258-.273-.385a8.757 8.757 0 0 0-.622-.75c-.224-.244-.464-.481-.715-.713a10.911 10.911 0 0 0-1.696-1.222 13.728 13.728 0 0 0-1.931-.923 15.193 15.193 0 0 0-2.03-.583 17.943 17.943 0 0 0-4.58-.35c-.766.037-1.415.104-1.9.184a8.227 8.227 0 0 0-.434.063c-.125.022-.232.042-.319.056l-.115.02-.083.015a2.757 2.757 0 0 0-.068.012l.259-.072c.17-.045.416-.123.737-.193.32-.073.714-.156 1.17-.23Zm25.046 23.35a.276.276 0 0 1 .09.066c.081.088.137.23.177.373.082.295.12.643.136 1.018.005.125.008.253.01.383.003.26-.003.53-.014.803a7.865 7.865 0 0 1-.205 1.436c-.048.207-.102.41-.162.61a12.91 12.91 0 0 1-.39 1.114c-.087-.302-.159-.606-.219-.912a2.267 2.267 0 0 0 .176-.294 2.161 2.161 0 0 0 .117-.277c.103-.305.16-.684.092-1.07a1.866 1.866 0 0 0-.102-.383 1.63 1.63 0 0 0-.195-.363 1.514 1.514 0 0 0-.266-.286 11.099 11.099 0 0 1 .284-1.938l.023-.083c.022-.022.041-.042.068-.065.09-.078.248-.19.38-.132Zm-3.774 21.98a5.34 5.34 0 0 1-.05.825c-.016.11-.037.226-.063.346a8.035 8.035 0 0 1-.53 1.596 16.699 16.699 0 0 1-.926 1.716l-1.072 1.634c-.168.26-.333.511-.485.75a15.663 15.663 0 0 0-.732 1.274 7.15 7.15 0 0 0-.225.465 8.125 8.125 0 0 0-.17.383l-.011.028.007-.029c.01-.038.028-.113.059-.22.015-.052.032-.113.053-.181a8.848 8.848 0 0 1 .437-1.106c.11-.223.23-.463.366-.713.135-.25.285-.512.45-.777l.507-.812.525-.839c.355-.556.687-1.123.952-1.672.133-.274.253-.54.358-.798.052-.129.1-.255.142-.377.043-.123.08-.243.114-.359a6.36 6.36 0 0 0 .23-1.136c.021-.14.023-.25.029-.325l.008-.116.001.03.008.085c.004.076.019.187.018.328Zm-20.147 9.183c.013.05.018.076.018.076s-.064-.181-.2-.49a10.133 10.133 0 0 0-.436-.883 13.34 13.34 0 0 0-.707-1.161c-.188-.28-.392-.571-.603-.872l-.323-.459c-.33-.465-.675-.947-.998-1.444-.418-.667-.795-1.36-1.057-2.043a6.996 6.996 0 0 1-.445-1.922 5.327 5.327 0 0 1 .066-1.383c.018-.083.033-.156.05-.22.007-.031.013-.06.021-.087l.021-.072.038-.132-.002.009-.01.068-.01.058a2.05 2.05 0 0 0-.025.162l-.025.22c-.034.33-.032.803.044 1.362.018.14.043.285.075.434.063.299.152.613.264.936.056.162.118.326.185.491.2.496.464 1 .763 1.496.1.166.204.33.31.493.413.66.87 1.3 1.283 1.913.416.61.763 1.205 1.033 1.725a8.861 8.861 0 0 1 .581 1.409l.055.187.034.13Zm-5.67-22.112a9.021 9.021 0 0 1-.106-.205 5.355 5.355 0 0 1-.234-.518l-.052-.131-.09-.252.144.231c.064.111.159.255.269.424l.115.178c.154.25.365.526.577.827.217.298.464.607.724.906.254.304.522.599.787.866.268.262.51.518.739.718.225.203.41.378.548.492l.09.08.066.058.055.049-.249-.146c-.076-.049-.171-.107-.278-.177a9.731 9.731 0 0 1-1.166-.917c-.28-.264-.564-.557-.834-.86a13.379 13.379 0 0 1-.706-.947 8.315 8.315 0 0 1-.399-.676Zm-.713-10.79.295-.023a78.69 78.69 0 0 1 3.466-.17c.718-.02 1.497-.033 2.318-.044.828 0 1.707.033 2.6.184.894.144 1.797.41 2.66.757.325.127.646.26.97.376.109.039.218.076.326.11.218.07.443.123.663.162.112.013.217.034.334.043l.35.015c.457 0 .908-.081 1.344-.22a10.586 10.586 0 0 0 .65-.23c.216-.084.43-.17.647-.255a13.041 13.041 0 0 1 1.988-.627c.224-.05.448-.094.671-.13.893-.151 1.778-.185 2.6-.183a168.903 168.903 0 0 1 2.319.044c1.435.038 2.63.113 3.465.169a41.488 41.488 0 0 1 1.222.106l.088.01s-.478-.029-1.314-.056a108.83 108.83 0 0 0-2.939-.052l-.526-.005c-.717-.003-1.494 0-2.315.007-.82.017-1.673.073-2.544.221-.652.11-1.302.285-1.944.513-.215.076-.428.157-.64.245-.213.085-.427.174-.646.26-.218.086-.44.17-.67.244a4.83 4.83 0 0 1-1.457.247l-.367-.018a2.813 2.813 0 0 1-.187-.022c-.063-.01-.127-.02-.189-.028a5.257 5.257 0 0 1-.715-.179c-.23-.074-.452-.157-.67-.243-.219-.086-.433-.176-.647-.26-.212-.087-.425-.17-.639-.246a11.59 11.59 0 0 0-1.944-.512 17.195 17.195 0 0 0-2.543-.221 150.12 150.12 0 0 0-4.272.013 68.865 68.865 0 0 0-2.066.057c-.325.013-.552.025-.667.03l-.088.005.022-.002.172-.019c.168-.018.447-.045.819-.074Zm28.032 18.11a10.536 10.536 0 0 0 .668.1s-.247 0-.678-.052a11.794 11.794 0 0 1-.555-.09 9.53 9.53 0 0 1-.44-.102 5.356 5.356 0 0 1-.735-.25c-.253-.11-.519-.24-.77-.415a2.884 2.884 0 0 1-.242-.19 2.571 2.571 0 0 1-.425-.468c-.127-.16-.23-.348-.366-.505a4.878 4.878 0 0 0-.428-.474 12.368 12.368 0 0 0-.494-.452c-.174-.146-.36-.283-.543-.424-.097-.064-.193-.13-.29-.195a7.494 7.494 0 0 0-.294-.19c-.204-.117-.4-.247-.61-.354-.08-.039-.157-.079-.236-.12.203.119.4.243.578.371a5.09 5.09 0 0 1 .712.665c.098.102.173.205.239.297.067.09.12.172.163.24l.126.216-.176-.187a2.186 2.186 0 0 0-.204-.208c-.08-.078-.17-.168-.276-.258a2.366 2.366 0 0 0-.16-.144c-.174-.144-.38-.287-.59-.44a6.358 6.358 0 0 0-.96-.535 6.72 6.72 0 0 0-1.047-.388c-.347-.088-.678-.17-.969-.2a6.905 6.905 0 0 0-.708-.064 47.227 47.227 0 0 1-.274-.012l.271-.04c.087-.013.192-.022.315-.028a5.203 5.203 0 0 1 1.161.066c.09.014.18.032.272.053-.058-.018-.115-.037-.173-.053l-.65-.146c-.214-.04-.428-.06-.634-.09a1.567 1.567 0 0 0-.154-.021c-.154-.014-.306-.011-.453-.019-.197-.004-.388-.022-.57.001-.273.022-.53.034-.765.068a2.648 2.648 0 0 0-.226.04c-.22.04-.42.071-.59.115-.058.014-.112.03-.162.048l-.549.16-.096.027.042-.015a120.795 120.795 0 0 1 .585-.219c.148-.063.329-.11.534-.158l.212-.05c.147-.029.3-.086.47-.098l.533-.06c.185-.03.382-.02.584-.023.202.003.412-.014.625.018.213.023.435.037.658.07l.675.14c.225.06.449.133.678.201.227.073.446.171.673.257.225.09.436.207.657.31.109.053.214.113.32.174.104.06.208.123.313.182.205.129.398.27.596.405.185.147.375.29.551.443.085.08.173.156.258.233.086.077.168.156.244.24l.233.245.212.26c.07.086.13.173.187.26.058.087.112.174.17.258.101.167.237.31.373.444.209.201.451.357.693.487.081.043.162.083.241.12.65.302 1.252.44 1.67.522ZM28.237 56.57a3.742 3.742 0 0 1-.2.466c-.02.041-.04.08-.055.114-.02.033-.036.063-.05.09l-.06.107a.36.36 0 0 0-.007.014l.055-.23c.01-.036.02-.075.03-.12.032-.13.064-.295.105-.48.045-.186.073-.397.106-.622.01-.075.022-.152.034-.229.043-.31.067-.644.072-.978.015-.333.009-.667-.015-.98-.015-.156-.027-.308-.04-.451a6.114 6.114 0 0 0-.051-.405c-.03-.187-.053-.352-.077-.485a2.338 2.338 0 0 0-.024-.121l-.041-.232.104.216.05.116a3.698 3.698 0 0 1 .171.474c.019.061.037.127.056.195.054.203.106.428.14.67a7.854 7.854 0 0 1 .06 1.01c-.02.346-.062.689-.12 1.008a5.754 5.754 0 0 1-.243.854ZM18.98 46.018c.137-.457.316-.902.524-1.305a6.58 6.58 0 0 1 .522-.808c.06-.079.12-.154.179-.224a3.248 3.248 0 0 1 .34-.374c.053-.054.102-.104.15-.148.047-.045.092-.086.134-.12l.245-.206.017-.015-.014.017-.199.24c-.073.079-.15.181-.235.3-.089.116-.185.249-.282.398-.053.072-.104.149-.154.23a6.65 6.65 0 0 0-.148.255c-.097.176-.193.365-.292.56a7.438 7.438 0 0 0-.464 1.27c-.06.22-.11.443-.15.664-.04.22-.068.44-.085.653-.011.213-.022.42-.026.615-.004.197 0 .383.02.554a5.264 5.264 0 0 0 .048.468c.016.14.03.262.056.36a22.85 22.85 0 0 0 .058.316l-.121-.302a3.466 3.466 0 0 1-.116-.354 3.355 3.355 0 0 1-.112-.47 5.722 5.722 0 0 1-.096-1.201 7.6 7.6 0 0 1 .2-1.373Zm23.153-16.459a8.033 8.033 0 0 1-.396 1.28 4.009 4.009 0 0 1-.153.334c-.057.111-.12.222-.19.333-.036.055-.078.107-.118.16a.849.849 0 0 1-.136.155c-.056.048-.09.102-.166.145l-.175.111a4.13 4.13 0 0 1-.847.296c-.29.074-.587.127-.888.172-.601.091-1.218.144-1.835.168-.617.02-1.236.014-1.844-.024a19.214 19.214 0 0 1-.454-.037 8.58 8.58 0 0 1-.888-.127 5.596 5.596 0 0 1-.438-.106l-.197-.076-.098-.038c-.032-.015-.064-.035-.096-.053a5.069 5.069 0 0 1-.188-.11 1.112 1.112 0 0 1-.166-.127l-.156-.13-.134-.143c-.044-.049-.09-.094-.13-.143l-.111-.15c-.073-.101-.14-.203-.2-.304a4.966 4.966 0 0 1-.31-.61c-.042-.1-.082-.2-.119-.296a7.5 7.5 0 0 1-.3-1.088 9.12 9.12 0 0 1-.122-.854 4.937 4.937 0 0 1-.026-.446l-.002-.107v-.195l.013.195a7.048 7.048 0 0 0 .088.735 8.392 8.392 0 0 0 .474 1.723c.155.38.353.784.645 1.163l.11.142c.04.046.085.088.127.133l.13.132.15.117c.148.12.31.213.499.29.063.027.129.052.198.075.13.036.265.067.404.094.277.053.57.09.867.117.148.013.296.024.445.033.598.032 1.21.034 1.82.01a16.38 16.38 0 0 0 1.81-.151c.294-.043.586-.093.867-.162a4.042 4.042 0 0 0 .784-.262c.177-.097.32-.223.44-.365.199-.238.334-.52.459-.782a7.92 7.92 0 0 0 .426-1.25 10.14 10.14 0 0 0 .293-1.756 8.988 8.988 0 0 0 .01-.504 3.382 3.382 0 0 0-.035-.43l.035.194a3.523 3.523 0 0 1 .042.552 7.972 7.972 0 0 1-.107 1.387c-.03.185-.066.379-.111.58Zm-14.111 7.236-.088-.065a3.526 3.526 0 0 0-.64-.36 4 4 0 0 0-.988-.283s.104.068.241.178c.103.082.226.19.34.31.037.04.074.082.108.124l.014.017c-.228-.056-.43-.113-.603-.165l-.07-.02a2.142 2.142 0 0 1-.17-.125 1.314 1.314 0 0 1-.15-.144.651.651 0 0 1-.166-.387.785.785 0 0 1 .087-.387 1.618 1.618 0 0 1 .163-.263l.054-.07.02-.026-.026.02a7.567 7.567 0 0 1-.073.058 1.693 1.693 0 0 0-.238.23.975.975 0 0 0-.22.422.772.772 0 0 0-.012.28.961.961 0 0 0 .086.281c.045.09.099.174.156.252.057.078.12.15.183.217-.639.01-1.26.09-1.855.225a9.875 9.875 0 0 0-1.698.553 10.662 10.662 0 0 0-1.758.956 8.803 8.803 0 0 1-1.029-.862 7.525 7.525 0 0 1-.577-.627c-.273-.33-.448-.588-.448-.588a7.566 7.566 0 0 0 .32.79 7.316 7.316 0 0 0 .335.64c-.17-.177-.332-.35-.485-.52-1.069-1.187-1.71-2.19-2.09-2.926a8.082 8.082 0 0 1-.357-.792 5.272 5.272 0 0 1-.118-.343 2.118 2.118 0 0 1-.054-.207l-.291-1.884c.068.127.146.253.236.375.5.67 1.394 1.23 3.264 1.44.51.057 1.092.088 1.758.088.148 0 .292 0 .432-.002a23.547 23.547 0 0 0 1.836-.088c1.162-.113 1.944-.335 2.508-.689a2.836 2.836 0 0 0 .758-.699c.103-.137.196-.284.283-.444a5.902 5.902 0 0 0 .247-.51 11.283 11.283 0 0 0 .23-.58c.642-1.73 1.193-2.572 1.684-2.572.14 0 .286.068.436.207.15.138.308.347.47.626.108.186.22.404.334.653l.005.015c.041.108.09.213.142.318.096.23.196.479.297.753.077.207.153.402.232.585.024.118.044.237.056.357.013.12.018.242.013.364-.003.19-.032.395-.056.621a4.06 4.06 0 0 0-.019.75c.03.274.133.573.27.82.138.253.303.475.461.681l.117.15c.23.297.426.573.52.83.016.043.028.086.038.127a.953.953 0 0 1 .031.119.623.623 0 0 1-.016.313.574.574 0 0 1-.09.175c-.017.02-.025.031-.035.04a.218.218 0 0 1-.05.03.557.557 0 0 1-.055.02c-.045.015-.106.032-.176.053l-.111.034c-.122.04-.209.074-.3.108-.031.01-.062.022-.095.034-.027.01-.052.02-.079.028.224-.216.468-.398.62-.504.091-.063.15-.1.15-.1s-.605.135-1.17.42c-.228.109-.443.24-.618.359-.132.089-.241.17-.317.23-.026.02-.048.037-.065.052a3.694 3.694 0 0 1-.544.093 5.298 5.298 0 0 1-1.239-.038c-.046-.004-.09-.01-.135-.016a1.627 1.627 0 0 0-.161-.135Zm6.904-6.895c-.07.095-.139.185-.203.268-.125.166-.24.3-.316.395-.077.095-.124.147-.124.147l.022-.044.027-.053.038-.07.047-.087c.052-.095.115-.215.193-.348a26.286 26.286 0 0 1 1.034-1.621 25.003 25.003 0 0 1 .655-.898c.126-.166.24-.3.315-.395a4.224 4.224 0 0 1 .125-.147l-.022.044c-.014.029-.037.07-.065.123l-.047.087-.055.103a21.132 21.132 0 0 1-.94 1.527c-.23.342-.47.681-.684.968Zm1.92-4.26.103-.13s-.052.09-.14.248c-.048.078-.102.173-.166.283l-.103.174-.117.19c-.04.067-.084.136-.128.208a22.89 22.89 0 0 1-.282.455 43.241 43.241 0 0 1-.482.748l-.343.52c-.235.345-.469.692-.695 1.012-.224.322-.444.617-.627.872a14.05 14.05 0 0 1-.257.346l-.109.142-.092.122-.076.097-.056.072-.047.06s.052-.09.14-.25c.095-.155.22-.382.386-.647.165-.265.352-.577.564-.905.21-.33.44-.678.671-1.026l.35-.515c.117-.17.232-.337.345-.497.224-.322.444-.617.627-.873.184-.255.349-.461.458-.609l.076-.096Zm-12.142 6.778c-.148.043-.28.071-.424.105-.147.025-.295.053-.444.075l-.447.054-.452.036c-.607.038-1.224.044-1.84.024a16.331 16.331 0 0 1-1.833-.168c-.597-.097-1.192-.208-1.721-.47-.276-.144-.444-.354-.598-.577a4.3 4.3 0 0 1-.339-.666 8.076 8.076 0 0 1-.392-1.278 9.965 9.965 0 0 1-.11-.579A8.707 8.707 0 0 1 16 27.589c.002-.238.025-.425.043-.551l.026-.144.01-.05-.023.195a4.469 4.469 0 0 0-.01.55c.011.474.104 1.148.298 1.94.05.197.109.402.178.61.07.21.15.423.244.638.124.262.26.544.454.78.04.049.081.094.126.137.088.087.188.163.302.227.481.233 1.07.344 1.654.432.59.085 1.197.133 1.806.153a19.06 19.06 0 0 0 1.815-.01l.445-.033.438-.049.423-.068c.137-.03.288-.062.412-.099.387-.12.708-.35.964-.615.085-.088.164-.18.236-.275.072-.095.139-.19.2-.288.123-.195.226-.392.315-.587.044-.097.086-.194.125-.288a8.32 8.32 0 0 0 .335-1.063 8.258 8.258 0 0 0 .213-1.284l.009-.106.011-.194.002.195c-.002.095-.002.225-.014.383a6.573 6.573 0 0 1-.033.356 8.723 8.723 0 0 1-.303 1.462c-.029.095-.061.191-.097.288a5.08 5.08 0 0 1-.623 1.209c-.036.05-.074.099-.113.148-.278.345-.656.67-1.162.829Zm-5.892-1.72.043-.085.037-.07c.044-.079.099-.184.168-.307l.073-.128c.051-.09.108-.185.168-.286a25.552 25.552 0 0 1 1.317-1.965c.07-.095.14-.185.203-.268.126-.166.24-.3.316-.395l.092-.11.033-.037s-.016.034-.049.096l-.037.071c-.059.105-.137.258-.241.435a21.132 21.132 0 0 1-.802 1.282c-.154.228-.311.456-.462.666-.151.21-.296.406-.424.57-.126.167-.24.3-.316.396l-.052.063a4.844 4.844 0 0 1-.072.084s0-.003.005-.011Zm2.481-4.96a58.9 58.9 0 0 0 .18-.229l-.141.249c-.024.04-.05.082-.076.13a25.751 25.751 0 0 1-.309.518l-.128.207-.136.222c-.094.152-.194.312-.3.476-.209.33-.44.678-.67 1.025-.235.346-.469.692-.695 1.013-.224.322-.444.617-.627.872s-.349.462-.458.61l-.18.228.142-.248.076-.13c.082-.142.184-.32.308-.518l.266-.43a38.793 38.793 0 0 1 .627-.983l.343-.518.35-.516c.117-.17.232-.336.345-.497.224-.322.444-.616.627-.872.046-.064.09-.125.134-.182l.232-.306.09-.121Zm2.021 20.265a4.312 4.312 0 0 1-.207-1.21c-.01-.147.004-.263.006-.341l.006-.12.011.12c.01.078.012.192.041.337.037.29.14.696.322 1.165.045.118.098.238.155.362a9.9 9.9 0 0 0 .408.77c.078.133.16.268.244.404.253.409.545.826.849 1.247.1.14.203.28.306.42.299.428.592.862.852 1.293.086.144.17.287.248.43.317.569.527 1.139.656 1.634a3.898 3.898 0 0 1 .122 1.22c-.002.073-.008.139-.015.196-.008.056-.016.105-.02.144l-.017.12v-.12c-.003-.079.005-.194-.013-.34a3.004 3.004 0 0 0-.02-.24 4.787 4.787 0 0 0-.118-.594 6.155 6.155 0 0 0-.101-.344 7.127 7.127 0 0 0-.505-1.151 12.358 12.358 0 0 0-.48-.826 22.954 22.954 0 0 0-.87-1.263 36.87 36.87 0 0 1-.868-1.281c-.09-.142-.177-.283-.26-.423a8.006 8.006 0 0 1-.732-1.61Zm6.529-3.739a44.757 44.757 0 0 0 2.439-.103c.655-.047 1.153-.1 1.496-.144a19.053 19.053 0 0 0 .67.02c.077.001.154.006.233.013.08.008.16.018.241.03a15.295 15.295 0 0 1-1.317.742c-.14.069-.28.134-.418.194a2.81 2.81 0 0 1-1.185.236c-.175 0-.352-.012-.532-.028l-.273-.029c-.093-.01-.186-.023-.28-.034-.207-.025-.417-.051-.633-.071a7.282 7.282 0 0 0-.662-.032c-.12 0-.238.004-.354.013a9.83 9.83 0 0 0-.994.14c-.366.065-.712.126-1.035.126-.252 0-.467-.036-.678-.115-.7-.262-1.44-.639-2.236-1.142.16-.024.317-.041.47-.044.322-.004.617-.017.9-.034.608.111 1.978.299 4.148.262Zm-.369 6.579c.037.267.068.535.09.786.01.126.012.248.012.364 0 .116-.003.225-.004.326 0 .05-.003.098-.005.144-.01.138-.027.254-.035.342l-.028.184-.036-.183-.017-.096-.066-.383c-.025-.198-.078-.427-.109-.673a15.59 15.59 0 0 0-.13-.768 14.467 14.467 0 0 0-.132-.767l-.12-.672a96.136 96.136 0 0 0-.082-.48l-.01-.078-.016-.106.088.169c.05.109.131.262.2.455.07.191.158.414.222.66.063.246.124.51.178.776Zm2.58 4.723c.022-.172.048-.401.095-.67a14.053 14.053 0 0 1 .4-1.607 18.216 18.216 0 0 1 .56-1.481c.23-.491.482-.975.737-1.419a12.352 12.352 0 0 1 .59-.911c.064-.091.127-.179.188-.262.24-.337.47-.6.625-.786a36.768 36.768 0 0 1 .255-.285l-.014.02a124.994 124.994 0 0 0-.554.886l-.151.25c-.164.258-.327.558-.502.878a19.878 19.878 0 0 0-.866 1.739c-.222.485-.424.978-.594 1.447-.162.47-.328.906-.435 1.289l-.157.52c-.024.078-.045.15-.064.218-.02.068-.037.13-.05.187l-.1.353.036-.366Zm8.04-18.796a5.164 5.164 0 0 1-1.169 1.207 4.76 4.76 0 0 1-.389.258l-.103.06-.2.107.06-.016.07-.018.096-.025a5.228 5.228 0 0 0 .581-.205c.112-.045.23-.099.354-.16a6.361 6.361 0 0 0 1.145-.749c-.032.575-.04 1.15-.011 1.725-.27.428-.585.855-.946 1.277.112-.222.206-.439.272-.6.066-.16.103-.264.103-.264l-.067.069a8.891 8.891 0 0 1-.303.292 8.98 8.98 0 0 1-1.098.87 10.627 10.627 0 0 0-1.657-.903c-.325-.23-.636-.468-.936-.712l-2.059-2.547c-.47-.582-.945-1.17-1.274-1.818-.018-.034-.032-.068-.048-.102.33.181.73.324 1.225.43.826.18 1.917.26 3.4.26 1.74 0 2.905-.211 3.706-.546-.06.341-.114.684-.16 1.026-.07.17-.153.35-.251.534-.099.182-.211.37-.34.55Zm1.37 2.547c-.018.069-.036.171-.083.285-.047.113-.098.25-.18.383a5.606 5.606 0 0 1-.276.41 5.892 5.892 0 0 1-.347.364c-.117.111-.245.2-.352.275-.105.078-.209.126-.276.164a7.123 7.123 0 0 1-.111.052l.072-.092.195-.231c.085-.09.169-.207.272-.32a5.026 5.026 0 0 0 .3-.369c.107-.122.207-.25.296-.37.043-.063.09-.12.134-.175.043-.055.086-.108.12-.158l.183-.238.055-.067.02-.024s-.009.04-.021.111Zm-1.167 10.056c.028.452.012.906-.047 1.326-.069.42-.182.803-.312 1.12a2.87 2.87 0 0 1-.196.425 4.45 4.45 0 0 1-.179.316l-.174.265.115-.288c.043-.09.08-.202.122-.332a6.282 6.282 0 0 0 .133-.432c.05-.158.088-.333.12-.518.016-.093.03-.188.044-.286l.04-.298c.022-.203.034-.413.034-.627 0-.213-.01-.43-.03-.647a6.57 6.57 0 0 0-.233-1.256c-.063-.196-.124-.386-.19-.564a3.952 3.952 0 0 0-.212-.495 5.38 5.38 0 0 0-.209-.409 2.806 2.806 0 0 0-.18-.31l-.07-.113-.095-.154.057.061.162.175c.035.038.073.081.112.129.039.048.08.1.122.157.09.112.184.242.27.392.185.294.366.657.511 1.061.133.407.23.851.285 1.302ZM13.74 26.459c.023-.01.046-.01.07-.01l.049.015c.492.158.848 1.059 1.137 1.999a1.731 1.731 0 0 0-.316.209c-.101.084-.194.181-.27.29a1.76 1.76 0 0 0-.297.746 2.172 2.172 0 0 0 .093 1.07 2.48 2.48 0 0 0 .464.79s-.03-.053-.073-.149a2.137 2.137 0 0 1-.135-.404 1.959 1.959 0 0 1 .174-1.354c.077-.14.173-.263.28-.355a1.007 1.007 0 0 1 .276-.172l.045.158c.091.324.177.629.266.907l.024.076c.052.163.106.33.166.495-.098.451-.275.885-.466 1.297l-.614.78c-.06.076-.114.15-.163.224a17.869 17.869 0 0 1-.259-.578c-.174-.413-.35-.89-.498-1.398a9.585 9.585 0 0 1-.269-1.185 7.896 7.896 0 0 1-.083-.808 15.297 15.297 0 0 1-.003-1.186c.016-.375.053-.723.135-1.018.041-.143.096-.285.177-.373a.284.284 0 0 1 .09-.066Zm2.281 16.366c.105-.02.22-.044.347-.073a6.71 6.71 0 0 0 1.323-.444c.32-.15.658-.338.938-.604.137-.134.274-.277.373-.444.119-.167.218-.345.358-.517.067-.088.139-.175.213-.26.148-.168.308-.328.477-.485.084-.079.17-.157.257-.235.176-.153.366-.295.552-.444l.295-.204c.098-.068.198-.136.3-.2.21-.12.415-.25.632-.358.221-.104.433-.22.658-.31.114-.043.225-.09.337-.134.111-.044.223-.088.337-.124.23-.068.454-.141.678-.203l.676-.139c.111-.016.223-.028.333-.038.11-.011.218-.02.325-.032.213-.031.424-.015.626-.018.203.003.398-.008.584.022l.534.06c.17.013.323.07.47.099.294.07.55.124.747.209l.463.173.122.045.042.016-.169-.05c-.11-.03-.27-.078-.476-.138-.2-.072-.46-.11-.752-.162-.29-.067-.628-.08-.992-.109-.182-.023-.373-.005-.57-.001-.197.01-.401.001-.607.04-.207.03-.42.05-.635.09l-.65.146c-.11.032-.217.065-.326.1-.109.034-.218.07-.329.104-.083.028-.165.062-.247.095a5.8 5.8 0 0 1 .435-.085 5.466 5.466 0 0 1 1.553-.04s-.114.004-.313.023c-.049.002-.104.007-.164.013a7.67 7.67 0 0 0-1.748.386c-.391.133-.79.314-1.16.535a5.883 5.883 0 0 0-1.014.73 6.424 6.424 0 0 0-.74.78 6.26 6.26 0 0 0-.432.618c-.098.154-.148.246-.148.246l.006-.018a5.58 5.58 0 0 1 .09-.249l.06-.138a3.513 3.513 0 0 1 .287-.537c.1-.15.218-.316.355-.483a6.247 6.247 0 0 0-.76.783c-.135.158-.238.345-.367.506a2.529 2.529 0 0 1-.427.467c-.314.275-.677.457-1.015.602a5.35 5.35 0 0 1-.963.302 8.12 8.12 0 0 1-.77.135c-.43.051-.678.05-.678.05s.247-.021.669-.1Zm28.923-11.809a2.107 2.107 0 0 1-.06.21c-.09-.488-.148-.979-.17-1.47-.002-.062.001-.124 0-.186.047.074.09.153.126.238a1.943 1.943 0 0 1 .104 1.208Zm-31.237-4.744v.072l-.014.001a.38.38 0 0 0-.084.034.526.526 0 0 0-.133.105 1.182 1.182 0 0 0-.145.2 2.197 2.197 0 0 0-.077.148c-.094.204-.168.43-.231.67-.031.121-.06.245-.087.372-.026.127-.051.258-.075.39a16.88 16.88 0 0 0-.12.817 8.479 8.479 0 0 0-.055.868c-.004.498.037.991.1 1.462a7.619 7.619 0 0 1-.184-.962c-.126-.97-.088-1.958-.017-2.935.007-.098.015-.198.026-.297.02-.199.051-.396.11-.588.029-.095.066-.189.11-.28a1.496 1.496 0 0 1 .35-.454c.148-.13.326-.23.525-.285v.662Zm32.71 5.39c-.008.024-.018.048-.025.072a11.908 11.908 0 0 0 .11-.873 8.653 8.653 0 0 0-.017-1.78 16.635 16.635 0 0 0-.121-.817 14.805 14.805 0 0 0-.076-.39 8.317 8.317 0 0 0-.086-.371 4.193 4.193 0 0 0-.231-.671 1.542 1.542 0 0 0-.167-.286.536.536 0 0 0-.272-.201.375.375 0 0 0-.306.055.774.774 0 0 0-.157.14c.092-.324.206-.644.296-.967.027.003.055.005.08.01.342.057.627.254.824.503.066.083.122.172.168.263.045.091.081.185.11.28.088.286.114.588.136.885.1 1.389.14 2.802-.267 4.148Z"/><path fill="#EACCB6" d="m19.167 21.188.236-.027.129-.016.538-.062.226-.028c.316-.04.69-.085 1.115-.129.318-.032.663-.063 1.032-.09.978-.082 2.127-.128 3.334-.003.3.026.609.065.923.107.315.04.637.083.967.116.663.066 1.349.068 2.02.025 1.343-.11 2.636-.369 3.85-.497a15.989 15.989 0 0 1 3.328-.077 15.531 15.531 0 0 1 1.615.192c.275.048.518.1.727.15a10.866 10.866 0 0 1 .872.222l-.216-.09-.262-.103c-.104-.039-.224-.082-.36-.128a14.446 14.446 0 0 0-2.337-.536 16.505 16.505 0 0 0-4.37.02c-.954.116-1.927.263-2.895.326-.646.052-1.287.062-1.917.01-.634-.05-1.268-.145-1.9-.189-1.264-.07-2.435.035-3.42.165a34.254 34.254 0 0 0-1.622.287c-.275.055-.52.107-.732.15l-.374.087-.277.064-.23.054ZM37.09 22.553a3.844 3.844 0 0 0-.174-.078c-.07-.029-.15-.06-.242-.095a7.373 7.373 0 0 0-1.605-.341c-.684-.06-1.487-.048-2.333.015-.843.08-1.73.2-2.608.258-.438.04-.875.064-1.304.061a14.337 14.337 0 0 1-1.265-.076c-.827-.067-1.608-.168-2.285-.217a12.065 12.065 0 0 0-1.643.011l-.14.015c-.13.016-.236.032-.314.046a8.98 8.98 0 0 1-.118.02l-.04.006h.161c.105-.001.26 0 .454.013.39.013.944.064 1.6.18.659.094 1.42.248 2.261.375.421.053.862.098 1.317.114.454.015.914.003 1.37-.027.908-.085 1.792-.229 2.618-.328.82-.12 1.59-.184 2.252-.173a7.23 7.23 0 0 1 1.59.145c.19.036.34.07.44.1l.066.017.088.025-.145-.066Z"/></svg>