<svg width="60" height="60" viewBox="0 0 60 60" fill="none" xmlns="http://www.w3.org/2000/svg">
<path d="M57.4213 46.6577C55.7806 46.5873 53.437 46.4956 50.6239 46.4217C49.2177 46.3819 47.6942 46.3404 46.0828 46.3132C46.0183 46.3121 45.9512 46.3109 45.8867 46.3092C45.9395 46.6127 45.9805 46.9272 46.0066 47.2543C46.032 47.2537 46.058 47.2532 46.0834 47.2526C47.6948 47.2255 49.2183 47.1839 50.6246 47.1441C53.437 47.0703 55.7812 46.9785 57.4219 46.9081C58.242 46.8764 58.8868 46.8372 59.3258 46.817C59.7654 46.7945 59.9999 46.7823 59.9999 46.7823C59.9999 46.7823 59.7654 46.7702 59.3258 46.7483C58.8861 46.7281 58.2413 46.6894 57.4213 46.6577Z" fill="#EACCB6"/>
<path d="M9.37471 47.1423C10.5836 47.1758 11.883 47.2115 13.2463 47.2375C13.2717 46.9219 13.3108 46.6178 13.3603 46.3247C11.9553 46.3512 10.6168 46.3876 9.37471 46.4228C6.56223 46.4967 4.21807 46.5878 2.578 46.6576C1.75796 46.6894 1.11314 46.728 0.674135 46.7482C0.234482 46.7701 0 46.7823 0 46.7823C0 46.7823 0.234482 46.7944 0.674135 46.8163C1.11314 46.8365 1.75796 46.8757 2.578 46.9069C4.21807 46.9773 6.56223 47.0684 9.37471 47.1423Z" fill="#EACCB6"/>
<path d="M5.05304 25.6489C5.28557 25.5208 5.60667 25.6045 5.46143 25.3985C5.31618 25.1919 5.0107 25.129 4.77752 25.2571C4.54499 25.3852 4.47335 25.6564 4.61794 25.863C4.76319 26.069 4.81986 25.7776 5.05304 25.6489Z" fill="#EACCB6"/>
<path d="M5.34874 25.8198C5.32725 25.8353 5.29598 25.8463 5.27123 25.8642C5.24453 25.8809 5.21522 25.8971 5.1846 25.9103C5.1566 25.9282 5.12729 25.9438 5.09798 25.9571C5.06867 25.9692 5.04261 25.9877 5.01786 25.9969C4.99311 26.0079 4.97227 26.0217 4.95664 26.028C4.941 26.0367 4.93188 26.0419 4.93188 26.0419C4.93188 26.0419 4.94165 26.0454 4.95924 26.0517C4.97618 26.0552 5.00288 26.0644 5.03415 26.0638C5.06476 26.0638 5.10319 26.065 5.14096 26.0546C5.17874 26.0442 5.21717 26.0304 5.25495 26.0136C5.28947 25.9917 5.32139 25.9675 5.34939 25.9432C5.37675 25.9184 5.39303 25.8878 5.40801 25.8642C5.42299 25.8399 5.42625 25.8151 5.43146 25.8001C5.43342 25.7834 5.43472 25.7742 5.43472 25.7742C5.43472 25.7742 5.4256 25.7788 5.40932 25.7869C5.39499 25.7955 5.37024 25.8047 5.34874 25.8198Z" fill="#EACCB6"/>
<path d="M54.8655 25.863C55.0101 25.657 54.9384 25.3852 54.7059 25.2571C54.4734 25.129 54.1666 25.1919 54.022 25.3985C53.8774 25.6045 54.1979 25.5208 54.4304 25.6489C54.6636 25.7776 54.7202 26.069 54.8655 25.863Z" fill="#EACCB6"/>
<path d="M54.5515 26.0412C54.5515 26.0412 54.5424 26.036 54.5267 26.0274C54.5111 26.021 54.4896 26.0072 54.4655 25.9962C54.4401 25.987 54.4141 25.9679 54.3848 25.9564C54.3561 25.9431 54.3261 25.9275 54.2981 25.9097C54.2675 25.8964 54.2382 25.8802 54.2115 25.8635C54.1861 25.8456 54.1555 25.8347 54.134 25.8191C54.1118 25.8046 54.0884 25.7948 54.0747 25.785C54.0591 25.7764 54.0493 25.7723 54.0493 25.7723C54.0493 25.7723 54.0506 25.7816 54.0526 25.7983C54.0571 25.8133 54.0604 25.8387 54.0754 25.8623C54.0897 25.8866 54.1066 25.9166 54.134 25.9414C54.162 25.9656 54.1939 25.9904 54.2278 26.0118C54.2656 26.0285 54.3046 26.0424 54.3418 26.0528C54.3795 26.0626 54.418 26.0614 54.4486 26.062C54.4792 26.0626 54.5059 26.0533 54.5235 26.0499C54.5417 26.0441 54.5515 26.0412 54.5515 26.0412Z" fill="#EACCB6"/>
<path d="M0.799805 33.0713L3.33351 34.7596L6.60779 36.9481L9.86578 39.1551C10.9542 39.8879 12.0347 40.631 13.1134 41.3754L13.5048 41.646L14.4414 41.6004C14.489 41.088 14.489 40.5889 14.4414 40.0748C14.2499 38.019 13.9132 36.8183 13.6676 35.9418C13.6084 35.7312 13.5576 35.546 13.5133 35.3695C12.477 34.504 11.7208 33.3523 11.3209 32.0247C10.8369 30.4195 10.904 28.8085 11.005 27.4243C11.0304 27.0677 11.0688 26.5536 11.2753 26.0269C10.8057 26.3471 10.3393 26.6714 9.86774 26.9887L6.60974 29.1963L3.33481 31.3836L0.799805 33.0713Z" fill="#EACCB6"/>
<path d="M49.3806 26.9887C48.9182 26.6771 48.4603 26.3592 48.0004 26.0453C48.2004 26.5652 48.2382 27.0718 48.2642 27.4243C48.3652 28.8085 48.4316 30.42 47.9483 32.0246C47.5529 33.3361 46.8085 34.478 45.7898 35.3406C45.7136 35.6897 45.6204 36.0434 45.5097 36.4542C45.2459 37.4345 44.9476 38.5458 44.8049 40.0748C44.7561 40.5958 44.7561 41.0926 44.8049 41.6055L45.739 41.6488L46.135 41.3747C47.2136 40.6304 48.2942 39.8873 49.3819 39.1545L52.6399 36.9475L55.9142 34.759L58.4479 33.0707L55.9135 31.3824L52.6386 29.1951L49.3806 26.9887Z" fill="#EACCB6"/>
<path d="M46.3285 16.3969C46.322 15.686 46.2718 14.9919 46.1663 14.3267C45.9696 13.0861 45.5788 11.9483 44.904 11.0038C44.9007 10.8324 44.8851 10.6587 44.8591 10.4839C44.8063 10.1331 44.7073 9.77421 44.5627 9.40782C44.2012 8.49213 43.5551 7.52856 42.625 6.52287C42.4511 6.33477 42.2465 6.14379 42.014 5.94992C41.5483 5.56276 40.9706 5.16579 40.3049 4.77055C39.9721 4.57264 39.6171 4.37531 39.2432 4.17971C36.5871 2.47355 33.6007 1.21399 30.4267 0.360619C30.6462 0.454668 30.8637 0.551602 31.0793 0.652576C31.2949 0.752972 31.5086 0.85683 31.7196 0.96415C32.0055 1.10955 32.2869 1.26245 32.5644 1.41997C32.6966 1.4944 32.8288 1.56826 32.9591 1.645C32.3657 1.46094 31.7645 1.28842 31.1594 1.12917C30.7563 1.023 30.3518 0.922607 29.948 0.829134C29.5435 0.735085 29.1397 0.648536 28.7378 0.568912C28.3352 0.489287 27.9347 0.417164 27.5374 0.352541C27.14 0.288495 26.7453 0.23195 26.3558 0.18406C25.3814 0.0652 24.437 0 23.5453 0C22.5943 0 21.7365 0.0744317 20.9745 0.223295C20.2131 0.371581 19.548 0.594299 18.982 0.889718C18.6049 1.08647 18.2714 1.31611 17.9829 1.57807L16.1305 3.25941L17.5471 3.06728L17.764 3.03785C17.6637 3.09613 17.5647 3.15613 17.4683 3.21845C17.2755 3.34366 17.0918 3.47809 16.9212 3.62234C16.8359 3.69446 16.7531 3.7689 16.6743 3.84621L15.8921 4.61188C14.4865 4.63842 13.0021 4.7544 11.6564 5.27599L9.24452 6.21129L11.8043 6.76001C11.8186 6.7629 12.6849 6.95042 13.6847 7.2643C13.9153 7.337 14.153 7.41605 14.3888 7.50087C14.2722 7.51702 14.1517 7.53318 14.0266 7.54876C13.8866 7.56607 13.7414 7.5828 13.5929 7.59895C12.8132 7.68493 11.9345 7.75474 11.1321 7.79398L9.59949 7.86899L10.0183 8.43847L10.4371 9.00796C10.4371 9.00796 10.4801 9.0697 10.5277 9.1649C10.5843 9.27915 10.6481 9.44128 10.654 9.60399C10.656 9.65823 10.6514 9.71247 10.6377 9.76497C10.6312 9.79094 10.6221 9.8169 10.6104 9.84229C10.5869 9.89249 10.5537 9.94038 10.5081 9.98365C10.497 9.99461 10.4801 10.0079 10.4586 10.0223C10.3961 10.0667 10.2984 10.125 10.2104 10.1781C9.97076 10.3218 9.73172 10.4793 9.5031 10.6668C9.4575 10.7043 9.41191 10.743 9.36697 10.7834C9.27708 10.8636 9.1898 10.949 9.10448 11.0407C9.01915 11.1324 8.93708 11.2305 8.85762 11.3355C8.62053 11.6512 8.41275 12.0331 8.25318 12.508C8.22647 12.587 8.20107 12.669 8.17762 12.7532C7.82004 14.0197 7.78031 15.8955 8.34046 18.807L8.59904 20.1531L8.81398 21.2701L10.0177 19.0107C10.019 19.0083 10.0333 18.9824 10.0606 18.9374C10.1154 18.8468 10.2222 18.68 10.3785 18.4746C10.456 18.3719 10.5465 18.2594 10.6488 18.1423C10.8025 17.9663 10.9829 17.7799 11.1894 17.5982C11.3268 17.477 11.476 17.3582 11.6362 17.2468C11.7971 17.1349 11.9684 17.0304 12.1514 16.937C12.2426 16.8902 12.3371 16.8469 12.4335 16.8071C12.5221 17.8486 12.6979 18.9166 12.9115 19.9702C13.1252 21.0238 13.376 22.0618 13.613 23.0438C13.6697 23.2775 13.7244 23.5071 13.7785 23.7333C13.8325 23.9595 13.8847 24.1822 13.9355 24.4015C13.9289 24.402 13.9185 24.4026 13.9172 24.4026L13.7088 24.4205V24.6063V24.8059C13.6938 24.8082 13.6756 24.8082 13.6606 24.8106C13.5727 24.825 13.4854 24.8452 13.4007 24.8706C12.8067 25.046 12.3026 25.4666 12.0212 26.0332C11.7691 26.5409 11.7307 27.0747 11.702 27.4641C11.6655 27.965 11.6336 28.4958 11.6317 29.0439C11.631 29.4092 11.6434 29.7825 11.6766 30.1592C11.7105 30.536 11.7645 30.9163 11.8486 31.2965C11.8903 31.4863 11.9391 31.6762 11.9958 31.866C12.2876 32.8342 12.7904 33.7002 13.4463 34.4024C13.6652 34.6367 13.9003 34.8525 14.151 35.0475C14.1771 35.1641 14.2071 35.2841 14.2396 35.4075C14.2728 35.531 14.308 35.6597 14.3458 35.793C14.4402 36.1294 14.5471 36.5125 14.6545 36.9706C14.6728 37.0468 14.6904 37.1258 14.7086 37.206C14.7802 37.5291 14.8512 37.8874 14.9177 38.2902C14.934 38.3912 14.9502 38.4944 14.9665 38.6006C15.0304 39.0258 15.0883 39.4978 15.1378 40.024C15.1522 40.1769 15.1626 40.3258 15.1684 40.4712C15.1808 40.7626 15.1782 41.0407 15.1632 41.3084C15.1561 41.4423 15.1456 41.5738 15.1326 41.7037C15.1072 41.8554 15.0786 42.017 15.0479 42.1895L13.2756 42.2755L14.7907 43.4808C14.792 43.4819 14.7939 43.4831 14.7952 43.4842C14.7197 43.7722 14.6382 44.0584 14.5555 44.348C14.1862 45.6381 13.8124 46.956 13.9328 48.6535C13.9237 48.7764 13.9133 48.8999 13.9061 49.0222C13.8938 49.2501 13.8892 49.4769 13.8899 49.7002C13.8905 49.924 13.897 50.1456 13.9061 50.3631C13.9153 50.5806 13.9309 50.7947 13.9524 51.0036C13.9947 51.4219 14.0599 51.82 14.1413 52.1899C14.1823 52.3745 14.2273 52.5522 14.2755 52.7213C14.3699 53.0605 14.4806 53.3652 14.594 53.63C14.6656 53.7979 14.7379 53.9485 14.8082 54.083C14.8343 54.1332 14.8604 54.1811 14.8851 54.2266C14.8988 54.2514 14.9125 54.2768 14.9255 54.2993C14.9984 54.4361 15.0707 54.5463 15.1281 54.6323C15.1469 54.6611 15.1645 54.6871 15.1795 54.7102C15.2108 54.7563 15.2342 54.7915 15.2505 54.8157C15.2668 54.84 15.2753 54.8521 15.2753 54.8521C15.2753 54.8521 15.2557 54.7973 15.2192 54.6946C15.2017 54.6432 15.1769 54.5809 15.1509 54.5071C15.1241 54.4332 15.0955 54.3478 15.0681 54.2515C15.0375 54.1557 15.0056 54.0495 14.9737 53.9335C14.9092 53.7016 14.8447 53.4304 14.7881 53.1275C14.76 52.9757 14.7333 52.8159 14.7099 52.6486C14.7001 52.5765 14.693 52.4991 14.6845 52.4247C14.6584 52.2008 14.6363 51.9689 14.6194 51.7254C14.7809 52.1754 14.9717 52.648 15.201 53.1488C16.1552 55.23 17.8044 56.6794 19.6575 57.6886C19.8424 57.7896 20.03 57.8859 20.2189 57.9782C20.7856 58.2552 21.3659 58.4946 21.9463 58.7006C22.3332 58.8379 22.7207 58.9614 23.1043 59.0716C26.1741 59.9521 29.0055 60 29.5806 60H29.6255H29.6705C29.903 60 30.5036 59.9919 31.3399 59.9244C31.4447 59.9158 31.5529 59.9065 31.6642 59.8961C34.2305 59.6561 38.6036 58.8703 41.6193 56.309C41.5835 56.3621 41.5457 56.4175 41.5112 56.4682C41.4258 56.5802 41.3451 56.6869 41.2689 56.7873C41.1184 56.9898 40.9881 57.1699 40.8663 57.3072C40.6325 57.5899 40.5016 57.7601 40.5016 57.7601C40.5016 57.7601 40.6866 57.6424 41.0031 57.422C41.1666 57.3153 41.3451 57.1687 41.5483 56.9968C41.6499 56.9102 41.7574 56.8173 41.8714 56.7204C41.9762 56.616 42.0863 56.5058 42.2009 56.3909C42.5507 56.0482 42.9011 55.6287 43.2359 55.1567C43.3473 54.9998 43.4574 54.8365 43.5648 54.668C43.6671 54.4972 43.7707 54.3236 43.8762 54.1476C43.981 53.971 44.0657 53.7847 44.1556 53.5971C44.2487 53.4114 44.3341 53.2215 44.4083 53.0265C44.4468 52.9296 44.4871 52.8326 44.5262 52.7357C44.566 52.6388 44.6044 52.5413 44.6382 52.4426C44.6995 52.2435 44.7614 52.0445 44.818 51.8454C44.8747 51.6463 44.9268 51.4473 44.9678 51.2471C45.076 50.8518 45.1007 50.4502 45.1619 50.0694C45.1704 49.9419 45.1795 49.8167 45.188 49.6932C45.483 48.05 45.313 46.7592 45.0264 45.5747C45.018 45.5389 45.0095 45.5031 45.0004 45.4674C44.9366 45.2118 44.8675 44.9608 44.7972 44.7115C44.7633 44.5903 44.7288 44.4697 44.6943 44.3497C44.6109 44.0595 44.5301 43.7722 44.4533 43.4831C44.4709 43.4675 44.4891 43.4537 44.5054 43.4375L45.7143 42.268L44.1791 42.1964C44.1537 42.0314 44.1322 41.8641 44.1146 41.6927C44.0638 41.1792 44.0546 40.6316 44.1113 40.0258C44.1478 39.6317 44.1947 39.2653 44.2481 38.9214C44.2748 38.7495 44.3035 38.5833 44.3328 38.4223C44.3927 38.0998 44.4572 37.798 44.5243 37.5118C44.6252 37.0825 44.7314 36.6879 44.8324 36.3123C44.9535 35.8611 45.0655 35.4387 45.1469 35.0273C45.3938 34.8323 45.627 34.6171 45.8426 34.384C46.0582 34.1509 46.2575 33.9005 46.4379 33.6339C46.5278 33.5012 46.6138 33.3638 46.6939 33.2231C46.8548 32.9415 46.9954 32.6455 47.1146 32.3374C47.1739 32.1833 47.228 32.0264 47.2762 31.8666C47.7328 30.3514 47.6676 28.8004 47.5699 27.4653C47.5628 27.3678 47.5549 27.261 47.5439 27.1485C47.538 27.092 47.5315 27.0343 47.523 26.9748C47.4911 26.7383 47.437 26.4815 47.3354 26.2253C47.31 26.1613 47.282 26.0972 47.2508 26.0338C47.1303 25.7909 46.9687 25.5751 46.7766 25.3933C46.4568 25.091 46.0523 24.885 45.6114 24.8111C45.4909 24.7909 45.3625 24.7788 45.2277 24.7748C45.2642 24.5867 45.302 24.3951 45.3397 24.2001C45.6726 22.5003 46.0543 20.5512 46.2314 18.6131C46.2979 17.8676 46.3356 17.1233 46.3285 16.3969ZM15.3964 49.2166C15.3534 49.0487 15.3143 48.882 15.2785 48.7175C15.1567 48.0563 15.0955 47.4332 15.0948 46.8989C15.0831 46.6323 15.0968 46.3877 15.1144 46.1713C15.1209 46.0628 15.1287 45.9624 15.1372 45.8689C15.1463 45.7755 15.1561 45.6901 15.1684 45.6133C15.186 45.4979 15.2004 45.4016 15.2114 45.3254C15.2153 45.3 15.2186 45.2775 15.2218 45.2568C15.2342 45.1742 15.2407 45.1304 15.2407 45.1304C15.2407 45.1304 15.2388 45.3075 15.2342 45.6168C15.2238 45.7709 15.2303 45.9584 15.242 46.173C15.2446 46.2803 15.2492 46.3946 15.2557 46.5146C15.2622 46.6346 15.272 46.7604 15.2857 46.8919C15.2994 47.1551 15.3378 47.4384 15.3886 47.7361C15.414 47.8849 15.4427 48.0378 15.4726 48.1936C15.5032 48.3494 15.5358 48.5081 15.5684 48.6691C15.6452 48.9905 15.7364 49.3193 15.8426 49.6505C15.9487 49.9817 16.0705 50.3141 16.208 50.6418C16.4118 51.134 16.6424 51.6169 16.8971 52.0699C16.9818 52.221 17.069 52.3687 17.1589 52.5124C17.5263 53.0807 17.8806 53.6098 18.2447 54.0264C18.3333 54.1326 18.418 54.2341 18.4981 54.3305C18.5834 54.424 18.6648 54.5122 18.741 54.5953C18.8921 54.7632 19.0244 54.9098 19.1475 55.0194C19.3806 55.2502 19.5142 55.3818 19.5142 55.3818C19.5142 55.3818 19.3637 55.2652 19.1006 55.061C19.0341 55.0102 18.9631 54.9513 18.8876 54.8861C18.812 54.8209 18.7319 54.7488 18.6466 54.6709C18.5613 54.5936 18.4701 54.5111 18.3737 54.424C18.2851 54.3311 18.192 54.2336 18.0943 54.1314C17.7034 53.7247 17.2872 53.2175 16.9023 52.6411C16.5226 52.0612 16.1806 51.4121 15.8882 50.7451C15.8217 50.576 15.7586 50.4064 15.6999 50.2362C15.5833 49.8946 15.4824 49.553 15.3964 49.2166ZM14.026 20.9632C13.9368 20.5685 13.8508 20.1698 13.77 19.77C13.8182 19.9615 13.8684 20.1542 13.9224 20.3464C14.1738 21.2978 14.4891 22.2291 14.7412 22.9226C14.8356 23.1829 14.9209 23.4096 14.9913 23.5914C15.0382 23.7125 15.0779 23.8135 15.1092 23.8914C15.1554 24.008 15.1821 24.072 15.1821 24.072C15.1821 24.072 15.1736 24.0426 15.1587 23.9872C15.1059 23.7939 14.9698 23.2833 14.818 22.6122C14.7959 22.5164 14.7744 22.4172 14.7522 22.3151C14.7079 22.1108 14.663 21.8956 14.6187 21.6729C14.5308 21.2269 14.4474 20.7497 14.3803 20.2708C14.3582 20.1277 14.338 19.9852 14.3184 19.8427C14.28 19.5582 14.2474 19.2778 14.2201 19.006C14.2058 18.8699 14.1934 18.7366 14.1817 18.6062C14.2566 18.901 14.338 19.2068 14.424 19.5115C14.5581 20.0008 14.7047 20.4866 14.8421 20.9228C15.145 21.8835 15.4062 22.6059 15.4062 22.6059C15.4062 22.6059 15.3436 22.3035 15.257 21.8304C15.2075 21.5604 15.1495 21.2338 15.0916 20.8766C15.0629 20.6978 15.033 20.5114 15.0043 20.3204C14.99 20.2246 14.9756 20.1283 14.962 20.0308C14.9346 19.8358 14.9079 19.6373 14.8825 19.4388C14.8597 19.2645 14.8382 19.0903 14.818 18.9183C14.7978 18.7464 14.7796 18.5762 14.7627 18.41C14.7933 18.5306 14.8258 18.6518 14.8597 18.7729C14.9007 18.9258 14.9444 19.0776 14.99 19.227C15.0349 19.3759 15.0818 19.5219 15.1287 19.6621C15.1522 19.7325 15.1756 19.8011 15.1984 19.8686C15.2446 20.0037 15.2909 20.1317 15.3345 20.2518C15.3788 20.3718 15.4212 20.4831 15.4596 20.5841C15.5964 20.9366 15.6928 21.1588 15.6928 21.1588C15.6928 21.1588 15.6387 20.9251 15.571 20.5593C15.5514 20.4549 15.5306 20.3395 15.5097 20.2154C15.4993 20.1537 15.4889 20.0896 15.4785 20.0238C15.4681 19.9581 15.4576 19.8906 15.4472 19.8213C15.4062 19.5449 15.3671 19.2443 15.3391 18.9385C15.3319 18.8618 15.3254 18.7851 15.3195 18.7083C15.3039 18.5393 15.2928 18.3702 15.2837 18.2052C15.2746 18.0396 15.2694 17.8774 15.2648 17.7222C15.3007 17.8838 15.3397 18.0505 15.3827 18.2161C15.4107 18.3275 15.4394 18.4389 15.4687 18.5479C15.498 18.6564 15.5286 18.7637 15.5592 18.8664C15.5749 18.9178 15.5892 18.9685 15.6042 19.0182C15.6341 19.1168 15.6641 19.2109 15.6921 19.2991C15.7488 19.4751 15.8002 19.6269 15.8393 19.7411C15.8589 19.7982 15.8758 19.8456 15.8888 19.8825C15.9084 19.9373 15.9194 19.9673 15.9194 19.9673C15.9194 19.9673 15.911 19.8796 15.8992 19.7313C15.8947 19.6719 15.8895 19.6032 15.8843 19.5265C15.879 19.4497 15.8738 19.3649 15.8693 19.2743C15.8523 18.9564 15.8393 18.5646 15.8458 18.1734C15.8484 17.6934 15.8804 17.2191 15.909 16.8816C16.8756 17.0656 17.837 17.2278 18.7925 17.3668C21.6584 17.784 24.4676 17.9957 27.185 17.9957C30.7087 17.9957 34.0358 17.6334 37.0736 16.9179C37.4468 16.8302 37.8057 16.7385 38.1503 16.6433C38.3229 16.5954 38.4916 16.5475 38.6577 16.4984C38.8231 16.4494 38.9859 16.3992 39.1455 16.3484C38.8524 16.4736 38.5528 16.5971 38.2467 16.7206C38.0174 16.8014 37.7862 16.8827 37.5543 16.9646C37.3231 17.0477 37.0892 17.1314 36.8482 17.1954C36.6092 17.2653 36.3695 17.3351 36.1311 17.4043L35.7729 17.507L35.4114 17.5913C35.1704 17.6472 34.9314 17.7026 34.6956 17.7574C34.4598 17.8151 34.2253 17.8665 33.9908 17.9028C33.5238 17.9842 33.0718 18.0627 32.6432 18.1377C32.4263 18.1636 32.2153 18.189 32.0114 18.2133C31.8075 18.2381 31.6102 18.2617 31.4213 18.2842C31.2317 18.3073 31.05 18.3292 30.8768 18.35C30.7029 18.3621 30.5381 18.3737 30.3831 18.3846C30.228 18.395 30.0828 18.4048 29.948 18.414C29.8138 18.4233 29.69 18.4314 29.5787 18.4394C29.4113 18.4504 29.2706 18.4602 29.1605 18.4677C28.9768 18.4798 28.8772 18.4867 28.8772 18.4867C28.8772 18.4867 29.0732 18.4902 29.4217 18.496C29.4712 18.4966 29.5246 18.4977 29.5806 18.4983C29.6366 18.4994 29.6959 18.5006 29.7571 18.5012C29.9434 18.5041 30.1551 18.5075 30.3889 18.5116C30.5452 18.5139 30.712 18.5162 30.8872 18.5185C31.0631 18.5121 31.2467 18.5058 31.4389 18.4989C31.6317 18.4919 31.8323 18.485 32.0407 18.4775C32.2485 18.47 32.4634 18.4625 32.6842 18.4544C32.9044 18.4348 33.1311 18.4152 33.3629 18.3944C33.5942 18.3742 33.8306 18.3535 34.0716 18.3321C34.3132 18.3154 34.5568 18.2836 34.8024 18.245C35.0486 18.2092 35.2987 18.1734 35.5501 18.1371L35.9292 18.0823L36.307 18.0084C36.5597 17.9582 36.8131 17.9069 37.0664 17.8561C37.3218 17.8105 37.5719 17.7447 37.8207 17.679C38.0702 17.6143 38.3196 17.5497 38.5658 17.4862C38.8094 17.4124 39.0511 17.3385 39.2895 17.263C39.5278 17.1874 39.7623 17.1095 39.991 17.0275C40.4443 16.855 40.8878 16.6946 41.2904 16.5054C41.702 16.3328 42.0739 16.1349 42.4217 15.959C42.5533 15.8851 42.6797 15.8147 42.8021 15.7455C42.9545 16.3952 43.0939 17.0645 43.1662 17.6974C43.1903 17.9086 43.2066 18.1157 43.2138 18.316C43.2418 19.1093 43.2457 19.8715 43.2216 20.6193C43.1812 21.8656 43.0633 23.0715 42.8477 24.3138C42.5468 24.2999 42.2029 24.2861 41.816 24.2722C40.8494 24.2388 39.6138 24.2099 38.1112 24.2007C37.8109 24.1989 37.4996 24.1978 37.1772 24.1978C36.4522 24.1978 35.8126 24.2341 35.242 24.2953C34.9568 24.3259 34.6891 24.3628 34.4363 24.4049C33.9302 24.4892 33.4854 24.5925 33.0842 24.7055C32.8835 24.7621 32.694 24.8204 32.5136 24.8804C32.423 24.9104 32.3351 24.9404 32.2485 24.9704C31.9899 25.0604 31.7489 25.1516 31.5183 25.2381C31.2063 25.3558 30.9185 25.4649 30.6351 25.5543C30.1629 25.7037 29.7031 25.8007 29.1611 25.8007C28.6192 25.8007 28.1594 25.7037 27.6872 25.5543C27.4038 25.4649 27.1159 25.3558 26.8039 25.2381C26.7271 25.2093 26.6489 25.1798 26.5695 25.1504C26.0933 24.9721 25.5651 24.784 24.9281 24.6225C24.7158 24.5688 24.4923 24.5174 24.2533 24.4713C24.0149 24.4246 23.7628 24.3824 23.4945 24.3455C22.8236 24.2538 22.0505 24.1978 21.1445 24.1978C20.5628 24.1978 20.0164 24.2007 19.5037 24.2064C18.1385 24.2209 17.0215 24.2514 16.1552 24.2849C15.6133 24.3057 15.1691 24.327 14.8232 24.3461C14.7431 23.997 14.6571 23.637 14.5686 23.2671C14.3933 22.5263 14.2045 21.7525 14.026 20.9632ZM12.3664 15.6445C12.1781 15.7397 12.0036 15.8337 11.8434 15.9249C11.603 16.0617 11.3946 16.1932 11.2207 16.3127C11.1601 16.3496 11.1041 16.3859 11.0526 16.4211C10.897 16.5273 10.7791 16.6219 10.6866 16.6871C10.5654 16.7766 10.5009 16.8239 10.5009 16.8239C10.5009 16.8239 10.5049 16.821 10.5127 16.8146C10.5277 16.8019 10.557 16.7771 10.6013 16.7402C10.6227 16.7217 10.6481 16.701 10.6768 16.6767C10.7641 16.6063 10.8761 16.5048 11.024 16.3894C11.0735 16.3513 11.1269 16.3109 11.1849 16.2705C11.5222 16.0178 11.9906 15.7016 12.5872 15.3889C12.7865 15.2845 12.9995 15.1806 13.2268 15.0796C13.5674 14.9296 13.9374 14.7825 14.3328 14.6457C14.9913 14.4172 15.7195 14.2153 16.4985 14.0722C16.8092 14.0133 17.1277 13.9643 17.4514 13.9228C17.7751 13.8812 18.104 13.8472 18.4362 13.8177C19.1012 13.7687 19.7793 13.7502 20.4567 13.7606C21.1334 13.7837 21.8082 13.8333 22.4693 13.9026C23.1291 13.9782 23.7759 14.0699 24.3973 14.1761C25.64 14.3901 26.7779 14.67 27.749 14.914C27.992 14.9758 28.2239 15.0369 28.4434 15.0964C29.1032 15.2752 29.6568 15.4385 30.0769 15.5574C30.1466 15.5781 30.2131 15.5978 30.2749 15.6162C30.3375 15.6347 30.3954 15.652 30.4495 15.6682C30.7745 15.7645 30.9543 15.817 30.9543 15.817C30.9543 15.817 30.8273 15.7876 30.5928 15.7328C30.4521 15.6999 30.273 15.6583 30.06 15.6081C29.989 15.5914 29.9141 15.5741 29.8353 15.5562C29.3637 15.4466 28.7612 15.3064 28.061 15.1442C27.9444 15.1171 27.8252 15.0894 27.7034 15.0612C26.7277 14.839 25.582 14.61 24.3477 14.4069C23.7303 14.3065 23.0887 14.2216 22.4354 14.153C22.1084 14.1218 21.7782 14.0953 21.446 14.0745C21.1145 14.0537 20.781 14.0387 20.4475 14.0307C19.7812 14.0145 19.1136 14.026 18.459 14.0687C18.132 14.0941 17.8083 14.1253 17.4892 14.1634C17.1707 14.2014 16.8567 14.247 16.5506 14.3018C16.0907 14.3826 15.6465 14.479 15.2231 14.5875C14.5171 14.7681 13.8684 14.9827 13.301 15.2169C13.1877 15.2643 13.077 15.3116 12.9702 15.3589C12.7559 15.4535 12.554 15.5493 12.3664 15.6445ZM12.2198 8.38077C12.696 8.40385 13.3773 8.38078 14.1875 8.32769C14.3907 8.31558 14.6018 8.29711 14.8193 8.27576C15.2551 8.23249 15.7195 8.17364 16.2047 8.10901C16.4477 8.0767 16.6952 8.04324 16.9479 8.01035C17.7054 7.90995 18.5013 7.79109 19.3123 7.68319C19.5832 7.64684 19.8548 7.61222 20.1277 7.57934C21.2259 7.47317 22.3345 7.4224 23.376 7.46625C24.4187 7.5049 25.3814 7.68839 26.1774 7.90649C26.9772 8.12632 27.5849 8.43847 27.9874 8.67158C28.1926 8.78409 28.3365 8.89545 28.4395 8.96296C28.5411 9.03277 28.5951 9.0697 28.5951 9.0697C28.5951 9.0697 28.5801 9.0622 28.5515 9.04835C28.5222 9.03393 28.4792 9.01258 28.4232 8.98488C28.3665 8.95834 28.2988 8.92257 28.2174 8.88333C28.1366 8.84352 28.0415 8.80025 27.9321 8.7587C27.51 8.56426 26.8723 8.35308 26.0888 8.1846C25.5006 8.05651 24.8252 7.97804 24.0989 7.9388C23.8566 7.92553 23.6091 7.9163 23.3577 7.91168C22.3494 7.88976 21.2702 7.96188 20.1968 8.08824C19.9271 8.11478 19.6568 8.14363 19.3878 8.17364C19.1188 8.20364 18.8505 8.2348 18.5841 8.26711C18.0513 8.33 17.5256 8.39404 17.015 8.45117C16.7597 8.48002 16.5076 8.50425 16.2607 8.52445C15.7664 8.56483 15.2909 8.58907 14.8454 8.60292C14.6226 8.60984 14.407 8.61388 14.1999 8.61619C13.3714 8.62253 12.6829 8.54464 12.2081 8.48059C12.0296 8.45751 11.8818 8.42867 11.7652 8.40616C11.7261 8.39866 11.6916 8.39231 11.6597 8.38654C11.6284 8.38077 11.6004 8.37558 11.5763 8.37097C11.5522 8.36635 11.532 8.36289 11.5157 8.36C11.4832 8.35366 11.4669 8.35077 11.4669 8.35077C11.4669 8.35077 11.5053 8.3525 11.5789 8.35654C11.603 8.35827 11.6317 8.35943 11.6636 8.36116C11.7932 8.3652 11.9801 8.38135 12.2198 8.38077ZM15.9305 5.69027C15.5078 5.71104 15.1202 5.73297 14.777 5.75605C14.4337 5.77971 14.1348 5.80394 13.8886 5.8299C13.3961 5.87952 13.1148 5.9078 13.1148 5.9078C13.1148 5.9078 13.1538 5.90087 13.2288 5.88876C13.2783 5.8801 13.344 5.86914 13.4242 5.85529C13.5447 5.8351 13.6977 5.80913 13.8801 5.77855C14.0025 5.76009 14.138 5.74047 14.2859 5.7197C14.4331 5.69893 14.5933 5.67758 14.7646 5.65623C15.1072 5.61411 15.4948 5.57257 15.9188 5.53968C16.7668 5.47679 17.7608 5.42024 18.827 5.44332C19.0934 5.44851 19.3644 5.45659 19.6386 5.46813C19.9121 5.47967 20.1896 5.49467 20.4684 5.51371C20.7472 5.53275 21.0285 5.55468 21.3099 5.58122C21.5919 5.60719 21.874 5.63719 22.156 5.67123C22.4374 5.70758 22.7181 5.74682 22.9975 5.79009C23.5557 5.87606 24.1081 5.97761 24.6402 6.10167C24.9066 6.1634 25.1684 6.23149 25.4231 6.30592C25.5508 6.34227 25.6765 6.38093 25.8002 6.4219C26.2946 6.58461 26.7544 6.77847 27.1687 6.99081C27.2723 7.04389 27.3732 7.0987 27.4703 7.15352C27.6657 7.26372 27.8487 7.37854 28.0187 7.4951C28.7019 7.96015 29.1481 8.4679 29.4178 8.8366C29.5155 8.97738 29.5917 9.09855 29.6477 9.19548C29.6666 9.2278 29.6829 9.25665 29.6972 9.28319C29.7532 9.38993 29.7832 9.44705 29.7832 9.44705C29.7832 9.44705 29.7487 9.39224 29.6835 9.29011C29.6503 9.23934 29.608 9.1776 29.5559 9.10663C29.5031 9.03508 29.4412 8.95488 29.3689 8.8666C29.2966 8.77774 29.2126 8.68312 29.1162 8.58272C29.068 8.5331 29.0165 8.48175 28.9625 8.42982C28.8544 8.32596 28.7326 8.21806 28.5997 8.10959C28.4662 8.00112 28.3209 7.89033 28.1626 7.78071C28.0838 7.72589 28.0011 7.67108 27.9164 7.61684C27.8318 7.56203 27.7432 7.50837 27.652 7.45528C27.469 7.34969 27.2736 7.24872 27.0677 7.15294C26.9648 7.10505 26.8587 7.05774 26.7505 7.01216C26.6424 6.96657 26.5317 6.92214 26.4184 6.87945C26.079 6.7502 25.7182 6.6325 25.343 6.52864C24.3419 6.2488 23.2307 6.07051 22.1143 5.93838C21.8355 5.90145 21.5568 5.86914 21.278 5.84029C20.4423 5.75374 19.6119 5.70123 18.8198 5.67758C17.764 5.64296 16.7759 5.64931 15.9305 5.69027ZM23.1662 0.882217C24.2696 0.772589 25.584 0.736816 26.9642 0.94684C27.1368 0.972227 27.3094 1.00223 27.4833 1.03512C27.6572 1.06858 27.8311 1.10551 28.005 1.1459C28.3535 1.22726 28.7013 1.32419 29.0465 1.43555C29.3917 1.54749 29.7337 1.67442 30.0698 1.81636C30.4059 1.95888 30.7348 2.11582 31.0546 2.28892C31.2135 2.37662 31.3692 2.46778 31.5222 2.56299C31.8284 2.75339 32.1215 2.95823 32.4002 3.17517C32.5396 3.28365 32.6751 3.39501 32.8067 3.50983C33.2007 3.85314 33.5577 4.22126 33.8671 4.60784C33.9706 4.73651 34.0683 4.86749 34.1608 4.99962C34.3412 5.25522 34.4976 5.5166 34.6337 5.77913C34.6376 5.78028 34.6402 5.78086 34.6441 5.78201C34.7887 5.81836 34.96 5.8726 35.1548 5.94069C35.2525 5.97415 35.3567 6.00992 35.4661 6.04743C35.5736 6.08897 35.6836 6.13859 35.7996 6.18879C36.2672 6.38324 36.7883 6.65673 37.3126 6.99311C37.4416 7.07966 37.5706 7.17083 37.6989 7.26488C37.9549 7.45355 38.2082 7.65665 38.4538 7.87014C38.5769 7.97746 38.6974 8.08651 38.8153 8.19845C38.928 8.31442 39.038 8.4327 39.1449 8.55214C39.2517 8.67215 39.3552 8.79275 39.4549 8.91449C39.6549 9.15798 39.8398 9.40551 40.0066 9.65131C40.327 10.1498 40.5785 10.638 40.7458 11.0701C40.7895 11.178 40.8331 11.2801 40.8676 11.3794C40.8983 11.4798 40.9269 11.5756 40.9536 11.665C40.981 11.7544 41.0057 11.8381 41.0266 11.9166C41.0474 11.9945 41.0644 12.066 41.0767 12.1318C41.0898 12.197 41.1015 12.2553 41.1113 12.306C41.1314 12.4076 41.1458 12.4786 41.1529 12.5149C41.1568 12.5328 41.1588 12.542 41.1588 12.542C41.1588 12.542 41.108 12.3978 41.0194 12.1451C41.0012 12.0816 40.9764 12.0118 40.9471 11.9368C40.9172 11.8618 40.8826 11.7816 40.8455 11.6962C40.8097 11.6102 40.7713 11.519 40.7309 11.4227C40.6853 11.3286 40.6371 11.2294 40.5869 11.1261C40.4931 10.9172 40.372 10.6985 40.2346 10.4724C40.0965 10.2462 39.9421 10.0125 39.7812 9.77247C39.6978 9.65361 39.6093 9.53533 39.5168 9.41705C39.3318 9.18048 39.1312 8.94565 38.9182 8.71658C38.8114 8.60176 38.702 8.48867 38.5899 8.37789C38.2525 8.04554 37.8917 7.73166 37.5237 7.44951C37.4012 7.35546 37.2775 7.26488 37.1531 7.17775C37.0274 7.09409 36.9023 7.01216 36.7799 6.93253C36.5336 6.77328 36.2953 6.62499 36.0634 6.49748C35.9474 6.43343 35.8335 6.37458 35.7214 6.32208C35.6114 6.26669 35.5045 6.2136 35.4042 6.1634C35.3007 6.11724 35.2023 6.07397 35.1098 6.033C35.0271 5.99492 34.9489 5.9603 34.8766 5.92915C34.8037 5.89857 34.7346 5.87087 34.6702 5.84779C34.721 5.94819 34.7685 6.04858 34.8135 6.14898C34.9476 6.45017 35.0558 6.75193 35.1411 7.04793C35.2544 7.44259 35.328 7.82687 35.3671 8.18921C35.3958 8.43674 35.4068 8.67331 35.4049 8.89833C35.401 9.23587 35.3677 9.54687 35.3202 9.82498C35.3046 9.91788 35.2863 10.0067 35.2681 10.0921C35.231 10.2623 35.1899 10.4175 35.1489 10.5554C35.1248 10.6241 35.1027 10.6893 35.0812 10.7499C35.0597 10.8105 35.0388 10.8676 35.0186 10.9201C34.9782 11.0257 34.9411 11.114 34.9059 11.1844C34.8577 11.2911 34.8258 11.3603 34.8128 11.388C34.8089 11.3973 34.8063 11.4019 34.8063 11.4019C34.8063 11.4019 34.8135 11.3823 34.8278 11.3448C34.8421 11.3073 34.8636 11.2513 34.891 11.1792C34.9515 11.0355 35.016 10.818 35.0916 10.5416C35.2297 9.98769 35.3371 9.16837 35.1978 8.20422C35.0935 7.42528 34.8082 6.55518 34.3171 5.71047C34.2383 5.68046 34.1953 5.66373 34.1953 5.66373C34.1953 5.66373 34.2351 5.67354 34.3067 5.69258C34.194 5.50044 34.0748 5.30946 33.94 5.12194C33.6671 4.73882 33.3453 4.37127 32.9852 4.02566C32.7448 3.79544 32.4862 3.57445 32.214 3.36616C31.8049 3.05343 31.3633 2.76724 30.8976 2.51568C30.7432 2.43028 30.5863 2.34893 30.4273 2.27103C29.9506 2.03735 29.4549 1.83656 28.9514 1.66865C28.2805 1.44478 27.5953 1.28034 26.9225 1.17475C25.5749 0.958957 24.282 0.943378 23.1871 1.0305C22.9129 1.05185 22.6504 1.07724 22.4016 1.10551C21.9039 1.16263 21.4591 1.23187 21.0787 1.30169C20.8885 1.33631 20.7146 1.37093 20.5576 1.40439C20.2443 1.4719 19.9988 1.52614 19.8327 1.56883C19.6659 1.6098 19.5767 1.63115 19.5767 1.63115C19.5767 1.63115 19.664 1.60519 19.8275 1.55556C19.8685 1.54229 19.9141 1.52902 19.9642 1.51402C20.015 1.49902 20.0704 1.48344 20.1297 1.46613C20.2495 1.43267 20.3876 1.39516 20.542 1.35304C21.1608 1.20187 22.0589 0.991845 23.1662 0.882217ZM43.0861 9.10547C43.2177 9.27973 43.3278 9.43378 43.4124 9.5636C43.4971 9.694 43.5635 9.79555 43.6091 9.86537C43.6541 9.93518 43.6782 9.97153 43.6782 9.97153C43.6782 9.97153 43.5635 9.83364 43.3636 9.59188C43.2691 9.46782 43.1421 9.32531 42.9943 9.16317C42.8503 8.99873 42.6849 8.81583 42.496 8.62253C42.2244 8.32423 41.889 8.0115 41.5242 7.68435C41.4024 7.5753 41.278 7.46452 41.151 7.352C40.8924 7.13044 40.6175 6.90945 40.3303 6.6925C40.0437 6.47556 39.7447 6.26265 39.4393 6.05781C39.1344 5.85298 38.8225 5.65565 38.5092 5.46929C38.3528 5.37581 38.1959 5.2858 38.0395 5.19868C37.8826 5.11155 37.7269 5.02789 37.5719 4.94711C36.9453 4.63611 36.3578 4.34473 35.8276 4.14279C35.5664 4.03431 35.3235 3.94199 35.1059 3.86352C34.8897 3.78101 34.7008 3.7112 34.5405 3.66388C34.4617 3.63734 34.3907 3.61369 34.3295 3.59291C34.2064 3.55195 34.1204 3.52252 34.0761 3.5081C34.054 3.5006 34.0429 3.49713 34.0429 3.49713C34.0429 3.49713 34.1159 3.51387 34.2514 3.54387C34.3054 3.55599 34.3692 3.57041 34.4422 3.58715C34.4787 3.5958 34.5178 3.60445 34.5588 3.61369C34.7229 3.65061 34.9203 3.70312 35.145 3.76774C35.3717 3.8289 35.625 3.90391 35.894 4.002C36.0302 4.04816 36.1708 4.09778 36.3161 4.15144C36.7512 4.31357 37.2208 4.51148 37.7021 4.74285C38.3392 5.05962 38.9938 5.43409 39.6229 5.8426C39.776 5.94934 39.9278 6.05781 40.0769 6.16802C40.3746 6.38785 40.6631 6.61403 40.9373 6.84194C41.0741 6.95619 41.2076 7.07043 41.3366 7.18467C41.5906 7.4172 41.8271 7.64915 42.044 7.87476C42.2609 8.10036 42.4569 8.31961 42.6295 8.52733C42.8093 8.73331 42.9585 8.92892 43.0861 9.10547ZM9.48616 14.2816C8.98658 15.4039 8.88954 16.4304 8.93252 17.1326C8.95662 17.4845 8.9918 17.7621 9.03804 17.9473C9.07777 18.1342 9.09861 18.2334 9.09861 18.2334C9.09861 18.2334 9.07191 18.1348 9.02306 17.9501C9.00938 17.904 8.9957 17.8526 8.98203 17.7949C8.96835 17.7378 8.95597 17.6749 8.9436 17.6068C8.91885 17.4707 8.8954 17.3132 8.8739 17.136C8.80616 16.4315 8.84199 15.3849 9.32723 14.2268C9.45034 13.9401 9.59949 13.6475 9.77731 13.3556C9.95512 13.0636 10.1623 12.7728 10.4026 12.4901C10.641 12.2074 10.9139 11.9333 11.2194 11.6777C11.5249 11.4227 11.8629 11.1861 12.2335 10.979C13.1571 10.4522 14.2325 10.1089 15.3554 9.89595C15.8041 9.81113 16.2614 9.74709 16.7193 9.70035C16.9485 9.67727 17.1778 9.65823 17.4064 9.64323C19.2465 9.53937 21.0839 9.60919 22.7976 9.73959C23.0119 9.75632 23.2235 9.77536 23.4339 9.79498C24.2741 9.87345 25.0786 9.97038 25.8348 10.0719C26.4021 10.1487 26.9427 10.2277 27.4501 10.3039C28.8042 10.5081 29.9239 10.717 30.7094 10.8543C30.9054 10.8907 31.0806 10.9224 31.2324 10.9507C31.3086 10.9645 31.379 10.9778 31.4434 10.9893C31.6369 11.0251 31.7776 11.0511 31.859 11.0661C31.9137 11.0759 31.9411 11.0811 31.9411 11.0811C31.9411 11.0811 31.9339 11.0799 31.9202 11.0782C31.8232 11.0644 31.3907 11.0038 30.699 10.9057C30.5016 10.8768 30.2827 10.8451 30.0444 10.8111C29.9252 10.7943 29.8014 10.777 29.6731 10.7591C29.1585 10.687 28.5697 10.6068 27.921 10.5197C27.7588 10.4978 27.5927 10.4752 27.4234 10.4533C26.576 10.3397 25.6381 10.2294 24.6376 10.1319C24.4376 10.1123 24.2351 10.0939 24.0299 10.0748C23.6202 10.0379 23.2014 10.0033 22.7754 9.97153C21.0722 9.8521 19.2419 9.79613 17.4286 9.91037C16.9779 9.93634 16.5258 9.97846 16.079 10.0396C15.8563 10.0702 15.6341 10.1048 15.414 10.1452C15.1945 10.185 14.9769 10.2306 14.7614 10.2808C14.5464 10.3316 14.3347 10.3875 14.1269 10.4493C13.7107 10.5728 13.3089 10.7205 12.9285 10.8941C12.7383 10.9807 12.5533 11.0747 12.3742 11.1746C12.1944 11.2732 12.0218 11.3788 11.8577 11.4896C11.6929 11.6004 11.5359 11.7169 11.3861 11.8375C11.0872 12.0787 10.8181 12.3383 10.5785 12.6078C10.3388 12.8773 10.1284 13.1565 9.94666 13.4381C9.85547 13.5789 9.77145 13.7202 9.69524 13.8604C9.61838 14.0024 9.54869 14.1426 9.48616 14.2816ZM24.2364 10.6432C25.0063 10.7251 25.8211 10.8595 26.6242 11.0378C27.4208 11.2403 28.2011 11.4856 28.9136 11.7573C29.0908 11.8277 29.2634 11.8993 29.4308 11.972C29.7662 12.1168 30.0808 12.2656 30.37 12.4139C30.5146 12.4878 30.6534 12.5616 30.7843 12.6343C31.0513 12.7728 31.2852 12.9153 31.4884 13.0463C31.5913 13.1098 31.687 13.1704 31.7743 13.2275C31.8616 13.2846 31.9411 13.3383 32.0107 13.3885C32.0804 13.4381 32.1436 13.4831 32.1983 13.5212C32.253 13.5598 32.2993 13.5933 32.3364 13.6198C32.4113 13.6735 32.4517 13.7018 32.4517 13.7018C32.4517 13.7018 32.4087 13.6775 32.3279 13.6308C32.2465 13.5846 32.128 13.5166 31.9769 13.4306C31.8297 13.3394 31.6427 13.2408 31.4265 13.13C31.3197 13.0729 31.2057 13.0134 31.0845 12.9517C30.9627 12.8905 30.8344 12.8276 30.699 12.7636C30.1675 12.4936 29.5116 12.2391 28.8114 11.9702C28.1047 11.7135 27.3322 11.4832 26.546 11.2957C25.9566 11.1549 25.3599 11.039 24.7789 10.9507C24.5855 10.9213 24.3933 10.8953 24.2045 10.8722C23.8254 10.8324 23.4587 10.7949 23.1096 10.7672C22.7604 10.7395 22.4296 10.721 22.1228 10.7193C21.816 10.7089 21.5353 10.7084 21.2858 10.7124C21.0363 10.7124 20.8181 10.7135 20.6397 10.7274C20.4599 10.7349 20.3192 10.7407 20.2228 10.7447C20.1746 10.747 20.1382 10.7482 20.1134 10.7493C20.0886 10.7499 20.0756 10.751 20.0756 10.751C20.0756 10.751 20.1264 10.7441 20.2222 10.7314C20.2697 10.7251 20.3283 10.717 20.3974 10.7078C20.4664 10.6985 20.5459 10.6876 20.6345 10.676C20.8123 10.6512 21.0298 10.631 21.2806 10.6126C21.5307 10.5895 21.8134 10.5704 22.1228 10.5687C22.7402 10.5514 23.4652 10.5728 24.2364 10.6432ZM38.3906 10.0385C38.4017 10.0696 38.4141 10.1037 38.4277 10.1412C38.4414 10.1787 38.4557 10.2191 38.4714 10.2618C38.502 10.3483 38.5346 10.4464 38.5645 10.5549C38.6238 10.7712 38.7006 11.0234 38.7547 11.2975C38.8081 11.5721 38.8596 11.8658 38.9045 12.1601C38.9351 12.4561 38.9599 12.7526 38.9775 13.0307C38.9944 13.3088 38.9846 13.5696 38.9814 13.7924C38.9801 13.9037 38.9736 14.0058 38.9657 14.0964C38.9579 14.187 38.9495 14.2661 38.9443 14.3301C38.928 14.4599 38.9188 14.5338 38.9188 14.5338C38.9188 14.5338 38.9117 14.4922 38.9 14.4172C38.896 14.3924 38.8908 14.363 38.8856 14.3313C38.8811 14.299 38.8759 14.2638 38.8706 14.2251C38.8654 14.1864 38.8596 14.1443 38.8531 14.0999C38.8407 14.0099 38.827 13.9089 38.8114 13.7993C38.7977 13.6897 38.7821 13.5708 38.7658 13.4444C38.7495 13.3187 38.7326 13.1859 38.715 13.0486C38.6844 12.774 38.6466 12.482 38.6029 12.1912C38.5717 11.8987 38.5339 11.6067 38.4935 11.3332C38.4505 11.0603 38.431 10.8024 38.3965 10.5831C38.3887 10.5283 38.3821 10.4752 38.3756 10.4256C38.3698 10.3754 38.3646 10.3275 38.36 10.2825C38.3509 10.1925 38.3431 10.1141 38.3339 10.0494C38.3248 9.95249 38.319 9.88614 38.3164 9.85902C38.3157 9.84979 38.3151 9.84517 38.3151 9.84517C38.3151 9.84517 38.3222 9.86306 38.3352 9.89595C38.3418 9.91211 38.3496 9.9323 38.3593 9.95653C38.3678 9.98077 38.3789 10.0079 38.3906 10.0385ZM34.7119 16.3052C34.7529 16.2596 34.7946 16.2076 34.8389 16.1494C34.8832 16.0911 34.9294 16.0276 34.9782 15.959C35.0792 15.8245 35.1893 15.6716 35.302 15.4997C35.5417 15.165 35.7625 14.745 35.9963 14.299C36.2197 13.8472 36.4164 13.351 36.5721 12.8444C36.7297 12.3383 36.8463 11.8225 36.914 11.3332C36.9551 10.9657 36.9954 10.6149 37.0072 10.2952C37.0111 10.1885 37.0117 10.0858 37.0085 9.98654C37.0111 9.78805 37.0046 9.6063 36.9948 9.44532C36.9922 9.36454 36.9889 9.28896 36.9844 9.21856C36.9798 9.14875 36.9739 9.0847 36.9648 9.027C36.9596 8.96873 36.9544 8.9168 36.9498 8.87179C36.9368 8.73678 36.9297 8.66177 36.9297 8.66177C36.9297 8.66177 36.9485 8.73505 36.9837 8.86775C36.9954 8.91218 37.0091 8.96296 37.0235 9.0195C37.0534 9.13375 37.0814 9.27338 37.1081 9.43493C37.1238 9.51571 37.1387 9.60111 37.1511 9.69227C37.1635 9.78344 37.1733 9.87922 37.1791 9.97961C37.2176 10.3806 37.2221 10.8532 37.1759 11.3563C37.1198 11.8594 37.013 12.3909 36.8645 12.9142C36.8209 13.0434 36.7753 13.1721 36.7271 13.299C36.6307 13.5535 36.5239 13.8033 36.4105 14.0428C36.3539 14.1628 36.2953 14.2805 36.2353 14.3947C35.9846 14.8483 35.7091 15.2527 35.4446 15.5805C35.3189 15.7484 35.1893 15.8926 35.0694 16.0172C34.9535 16.1442 34.8493 16.2521 34.7574 16.3369C34.7119 16.379 34.6715 16.4165 34.6356 16.4494C34.6005 16.4823 34.5699 16.51 34.5458 16.5331C34.4969 16.5786 34.4709 16.6023 34.4709 16.6023C34.4709 16.6023 34.4767 16.5954 34.4871 16.5821C34.5191 16.544 34.5972 16.4477 34.7119 16.3052ZM20.4384 3.10882C20.8944 3.03554 21.4128 2.97265 21.9834 2.93976C23.1219 2.87976 24.4735 2.90053 25.8843 3.16883C26.4118 3.27269 26.9453 3.40712 27.4774 3.57099C27.6546 3.6258 27.8318 3.6835 28.0083 3.74466C28.3587 3.87333 28.7065 4.01585 29.0478 4.17221C29.3891 4.32858 29.7252 4.49821 30.0515 4.68169C30.3707 4.87672 30.6788 5.08559 30.9738 5.30542C31.2689 5.52525 31.5503 5.75663 31.8147 5.99896C32.3319 6.49286 32.8028 7.01042 33.1864 7.55395C33.2841 7.68954 33.3753 7.82629 33.4626 7.96303C33.5492 8.10036 33.6306 8.23826 33.7068 8.37616C33.8599 8.65254 33.9928 8.92949 34.1081 9.20414C34.2233 9.47879 34.3204 9.75055 34.4025 10.016C34.4839 10.282 34.5503 10.541 34.6031 10.7909C34.6545 11.0424 34.6884 11.2848 34.7086 11.5156C34.7692 12.2085 34.7079 12.7994 34.6298 13.2333C34.5914 13.5258 34.508 13.7474 34.4715 13.9003C34.4292 14.0526 34.407 14.1334 34.407 14.1334C34.407 14.1334 34.4103 14.1126 34.4161 14.0728C34.422 14.0324 34.4311 13.973 34.4428 13.8951C34.4611 13.7393 34.5158 13.5143 34.5184 13.2223C34.5256 13.1502 34.5314 13.074 34.5347 12.9938C34.562 12.4335 34.5028 11.6881 34.2852 10.8474C34.254 10.7274 34.2188 10.6056 34.1791 10.4822C34.1393 10.3593 34.0963 10.2346 34.0488 10.1089C33.8117 9.48052 33.475 8.82333 33.0392 8.17883C32.9519 8.04958 32.8607 7.92149 32.7663 7.79398C32.5781 7.53722 32.369 7.28738 32.1443 7.04331C31.9196 6.79982 31.6799 6.56268 31.4291 6.33131C31.0435 5.99204 30.6254 5.67642 30.1831 5.38793C30.0352 5.29157 29.8854 5.19868 29.733 5.10867C29.5793 5.01923 29.4236 4.93268 29.266 4.8496C28.7925 4.59976 28.3014 4.37878 27.8018 4.18606C27.1296 3.94199 26.4477 3.74582 25.7722 3.60272C24.4201 3.32808 23.1154 3.21095 21.9958 3.22826C21.7157 3.23287 21.4473 3.24153 21.192 3.25364C20.426 3.28999 19.7773 3.3575 19.2921 3.43655C19.1286 3.45559 18.984 3.47867 18.8583 3.50002C18.7326 3.52194 18.6264 3.54214 18.5391 3.55599C18.4961 3.56349 18.4577 3.56983 18.4245 3.57618C18.3913 3.58195 18.3633 3.58714 18.3411 3.59061C18.2962 3.59811 18.2727 3.60272 18.2727 3.60272C18.2727 3.60272 18.3626 3.57791 18.5319 3.5306C18.7013 3.48617 18.9475 3.40828 19.2693 3.33846C19.5897 3.26518 19.9831 3.1821 20.4384 3.10882ZM45.4843 26.459C45.5176 26.4734 45.5469 26.4965 45.5742 26.5254C45.655 26.6125 45.711 26.755 45.7514 26.8975C45.8328 27.1929 45.8706 27.5414 45.8869 27.9165C45.8921 28.0411 45.8953 28.1692 45.8973 28.299C45.8999 28.5593 45.894 28.8287 45.883 29.1022C45.866 29.3728 45.8452 29.6405 45.8002 29.91C45.767 30.1212 45.726 30.3312 45.6778 30.5383C45.6296 30.7449 45.5755 30.9486 45.5163 31.1471C45.3984 31.544 45.2635 31.9202 45.1268 32.2618C45.0395 31.96 44.9672 31.656 44.9073 31.3502C44.9346 31.3109 44.9633 31.2671 44.9926 31.218C45.0219 31.169 45.0525 31.1153 45.0825 31.0559C45.104 31.0149 45.1241 30.9711 45.1437 30.9243C45.1632 30.8776 45.1821 30.8291 45.1991 30.7784C45.3033 30.4737 45.3593 30.0946 45.2922 29.7086C45.272 29.5811 45.2388 29.4513 45.1899 29.3255C45.1411 29.1991 45.0766 29.0768 44.9952 28.9631C44.9203 28.8558 44.8278 28.7606 44.7288 28.677C44.7379 28.5142 44.7509 28.3521 44.7672 28.1894C44.7998 27.8646 44.846 27.5414 44.9079 27.2195C44.9392 27.0585 44.9743 26.8981 45.0134 26.7389C45.0199 26.7112 45.0291 26.684 45.0362 26.6563C45.0584 26.6344 45.0773 26.6142 45.104 26.5911C45.1938 26.5127 45.3521 26.4002 45.4843 26.459ZM41.7098 48.4389C41.7124 48.6506 41.7066 48.9333 41.6597 49.264C41.644 49.3742 41.6232 49.4896 41.5971 49.6096C41.491 50.0873 41.3262 50.6412 41.0676 51.2061C40.8103 51.771 40.4866 52.3532 40.1408 52.9221C39.776 53.4783 39.4113 54.0345 39.0687 54.5555C38.9006 54.8163 38.7365 55.0673 38.5841 55.3068C38.5079 55.4262 38.4349 55.5433 38.3665 55.657C38.2975 55.7712 38.2323 55.882 38.1724 55.9893C38.1125 56.0967 38.0552 56.1999 38.0018 56.2986C37.9477 56.3973 37.8982 56.4913 37.852 56.5796C37.7595 56.7567 37.6833 56.9131 37.6266 57.0447C37.5354 57.2391 37.4787 57.3735 37.4566 57.4284C37.4488 57.4468 37.4455 57.4561 37.4455 57.4561C37.4455 57.4561 37.4475 57.4462 37.4527 57.4272C37.4625 57.3891 37.4813 57.3141 37.512 57.2079C37.5269 57.1549 37.5445 57.0937 37.5654 57.0256C37.6311 56.8219 37.7223 56.5531 37.8552 56.2426C37.8995 56.1394 37.9484 56.0315 38.0024 55.9201C38.1112 55.6974 38.2323 55.4574 38.3678 55.2069C38.5033 54.9565 38.6531 54.6952 38.8172 54.4303C38.982 54.1666 39.152 53.8949 39.3253 53.6179C39.4985 53.341 39.6744 53.0605 39.8496 52.779C40.2052 52.2228 40.5368 51.6556 40.8019 51.1074C40.9347 50.8334 41.0552 50.5662 41.1595 50.3089C41.2116 50.1802 41.2591 50.0544 41.3021 49.9315C41.3451 49.8086 41.3829 49.6892 41.4161 49.5732C41.5476 49.111 41.6232 48.7158 41.6467 48.4366C41.6675 48.2969 41.6688 48.1867 41.6747 48.1117C41.6799 48.0361 41.6825 47.9957 41.6825 47.9957C41.6825 47.9957 41.6831 48.0061 41.6844 48.0252C41.6857 48.0448 41.6883 48.0736 41.6916 48.1111C41.6955 48.1867 41.7105 48.2975 41.7098 48.4389ZM21.5626 57.6222C21.5757 57.6718 21.5815 57.6978 21.5815 57.6978C21.5815 57.6978 21.517 57.5166 21.3816 57.2074C21.2832 56.9743 21.1353 56.6737 20.9445 56.3251C20.8807 56.2092 20.8123 56.088 20.7393 55.9622C20.5947 55.7095 20.4247 55.4429 20.2372 55.1637C20.0502 54.8844 19.8464 54.593 19.6353 54.2918C19.5298 54.1412 19.4217 53.9883 19.3116 53.8331C18.9814 53.3681 18.6368 52.8863 18.3144 52.3895C17.8956 51.7225 17.5191 51.029 17.2573 50.3458C17.1915 50.175 17.1335 50.006 17.0834 49.8381C16.9323 49.3355 16.8482 48.8531 16.8118 48.4233C16.7994 48.2796 16.7935 48.1417 16.7929 48.0107C16.7903 47.6184 16.8339 47.2866 16.8776 47.0402C16.8958 46.9577 16.9114 46.885 16.9271 46.8216C16.9349 46.7898 16.9414 46.761 16.9492 46.7344C16.9564 46.7079 16.9629 46.6837 16.97 46.6623C16.9948 46.5758 17.0078 46.5302 17.0078 46.5302C17.0078 46.5302 17.0078 46.5331 17.0065 46.5388C17.0046 46.5504 17.0007 46.5735 16.9954 46.6069C16.9928 46.6236 16.9889 46.6433 16.9857 46.6652C16.9766 46.709 16.9687 46.7633 16.9609 46.8273C16.9531 46.8914 16.9453 46.9646 16.9362 47.0472C16.9023 47.3766 16.9043 47.8503 16.9805 48.4094C16.998 48.5496 17.0234 48.6945 17.0547 48.8433C17.1179 49.1416 17.2071 49.4561 17.3192 49.7792C17.3752 49.9408 17.4371 50.1046 17.5041 50.2702C17.7048 50.7664 17.9685 51.2701 18.2675 51.7664C18.3672 51.9319 18.4707 52.0964 18.5775 52.2591C18.9905 52.9186 19.4471 53.5596 19.86 54.1718C20.2756 54.7829 20.6234 55.3766 20.893 55.897C21.1653 56.4169 21.3308 56.8727 21.4389 57.1912C21.4519 57.2316 21.4636 57.2691 21.474 57.3055C21.4955 57.377 21.5138 57.4399 21.5288 57.493C21.5424 57.5455 21.5542 57.5893 21.5626 57.6222ZM15.8934 35.5103C15.8556 35.4399 15.8204 35.3712 15.7872 35.3054C15.6843 35.1092 15.6107 34.931 15.5534 34.7873C15.5345 34.7394 15.5169 34.6955 15.5013 34.6557C15.4433 34.4959 15.4101 34.4042 15.4101 34.4042C15.4101 34.4042 15.4628 34.4884 15.5547 34.635C15.6192 34.7463 15.7136 34.89 15.8237 35.059C15.8602 35.1156 15.8992 35.1744 15.939 35.2368C16.0933 35.4872 16.3044 35.763 16.5161 36.0636C16.733 36.3619 16.9798 36.6712 17.2403 36.97C17.4944 37.2741 17.7621 37.5689 18.0265 37.8355C18.2949 38.098 18.5365 38.3537 18.7658 38.5539C18.9911 38.7575 19.1761 38.9318 19.3142 39.046C19.3474 39.076 19.3774 39.1026 19.4034 39.1251C19.4295 39.1482 19.4516 39.1678 19.4699 39.1839C19.5057 39.2157 19.5246 39.233 19.5246 39.233C19.5246 39.233 19.4341 39.1799 19.2764 39.087C19.1996 39.038 19.1045 38.9797 18.9977 38.9099C18.8908 38.8401 18.7729 38.7593 18.6492 38.6652C18.4004 38.4789 18.1131 38.2556 17.8318 37.993C17.5523 37.7288 17.2684 37.4357 16.998 37.1322C16.7421 36.8189 16.5024 36.4963 16.292 36.1859C16.137 35.9516 16.0061 35.7214 15.8934 35.5103ZM15.1795 24.7194C15.2727 24.7119 15.371 24.705 15.4752 24.6969C15.7885 24.6755 16.152 24.6519 16.5603 24.6282C17.1042 24.5971 17.7269 24.5665 18.4141 24.5434C18.586 24.5376 18.7612 24.5324 18.941 24.5278C19.6588 24.5076 20.4378 24.4938 21.2591 24.4834C22.087 24.4822 22.9656 24.5163 23.8592 24.6669C24.7535 24.8106 25.6563 25.0765 26.5187 25.4245C26.8437 25.5508 27.1648 25.6841 27.4898 25.8001C27.5979 25.8387 27.7067 25.8757 27.8155 25.9103C28.033 25.9795 28.2577 26.0332 28.4785 26.0719C28.5899 26.0851 28.6954 26.1059 28.812 26.1146L29.1611 26.1301C29.619 26.1301 30.0704 26.0488 30.5062 25.9109C30.6156 25.8763 30.7244 25.8393 30.8325 25.8012C30.9406 25.7626 31.0487 25.7216 31.1562 25.6801C31.3718 25.5964 31.5867 25.5093 31.803 25.4251C32.0186 25.3385 32.2368 25.2566 32.4563 25.1804C32.6764 25.1042 32.8979 25.0338 33.1206 24.9698C33.3434 24.9058 33.5668 24.8486 33.7909 24.7979C34.0149 24.7477 34.239 24.7038 34.4624 24.668C35.3554 24.5169 36.2399 24.4834 37.0625 24.4846C37.6793 24.4926 38.2714 24.5019 38.8316 24.5151C39.0178 24.5192 39.2015 24.5238 39.3806 24.529C40.8162 24.5665 42.0107 24.6415 42.8458 24.698C43.2633 24.728 43.5909 24.7569 43.8137 24.7782C43.925 24.7892 44.0104 24.7979 44.0683 24.8042C44.1256 24.8106 44.1556 24.814 44.1556 24.814C44.1556 24.814 43.6782 24.7852 42.8419 24.758C42.1104 24.7304 41.1041 24.7154 39.903 24.7055C39.7317 24.7044 39.5559 24.7027 39.3767 24.7015C38.6603 24.6975 37.8832 24.7003 37.0619 24.7078C36.2412 24.7246 35.3886 24.7811 34.5184 24.9294C33.8658 25.0396 33.2157 25.2139 32.5735 25.4418C32.3592 25.5179 32.1462 25.5993 31.9345 25.687C31.7209 25.7718 31.5066 25.8613 31.2884 25.9472C31.0702 26.0332 30.8481 26.1169 30.6182 26.1907C30.1596 26.3402 29.662 26.4348 29.1611 26.4377L28.7938 26.4198C28.7332 26.4152 28.6707 26.4071 28.6069 26.3979C28.5437 26.3886 28.4798 26.3788 28.418 26.3702C28.2949 26.3482 28.1731 26.3223 28.0545 26.2923C27.9353 26.2623 27.8187 26.2288 27.7034 26.1913C27.4735 26.1174 27.2514 26.0338 27.0326 25.9478C26.8144 25.8618 26.6001 25.7724 26.3864 25.6876C26.1741 25.6005 25.9611 25.5185 25.7475 25.4424C25.1053 25.2144 24.4552 25.0402 23.8026 24.93C22.9337 24.7817 22.0746 24.7257 21.2598 24.709C20.4371 24.7009 19.662 24.698 18.9449 24.7021C18.7658 24.7032 18.5906 24.7044 18.4186 24.7061C17.9041 24.7102 17.4253 24.7154 16.9883 24.7223C16.406 24.7309 15.8979 24.743 15.4798 24.7586C15.2707 24.7656 15.0844 24.7719 14.9222 24.7788C14.5972 24.7921 14.3699 24.8036 14.2546 24.8094C14.1966 24.8123 14.1667 24.814 14.1667 24.814C14.1667 24.814 14.1738 24.8134 14.1888 24.8117C14.2181 24.8088 14.2761 24.8019 14.3614 24.7932C14.5295 24.7748 14.8076 24.7482 15.1795 24.7194ZM43.2125 42.8294C43.4235 42.8686 43.5902 42.894 43.7042 42.9096C43.8182 42.9246 43.8801 42.9303 43.8801 42.9303C43.8801 42.9303 43.6326 42.9309 43.202 42.8784C43.1486 42.8709 43.092 42.8628 43.0327 42.8536C42.9142 42.8363 42.7852 42.8149 42.6471 42.7872C42.5781 42.7734 42.5071 42.7584 42.4335 42.7405C42.3599 42.7238 42.2843 42.7053 42.2068 42.6857C42.0518 42.6453 41.8896 42.5968 41.7235 42.5363C41.6408 42.5057 41.5568 42.4728 41.4721 42.4359C41.2194 42.3262 40.953 42.1958 40.7029 42.021C40.6195 41.9627 40.5387 41.8993 40.4599 41.8306C40.3075 41.6915 40.1531 41.5415 40.0352 41.3632C39.9076 41.2023 39.8047 41.0153 39.6692 40.8578C39.5435 40.6962 39.3976 40.5387 39.2406 40.3841C39.1624 40.3068 39.081 40.2306 38.9983 40.1556C38.9156 40.08 38.8316 40.0056 38.7462 39.9317C38.573 39.7857 38.3861 39.649 38.2043 39.5082C38.1073 39.4442 38.0109 39.3778 37.9145 39.3132C37.8181 39.248 37.7204 39.1834 37.6201 39.1222C37.4162 39.0057 37.2208 38.8758 37.0104 38.7691C36.9303 38.7304 36.8528 38.69 36.774 38.6497C36.9772 38.7679 37.1733 38.892 37.3517 39.0201C37.5673 39.1857 37.7569 39.357 37.9158 39.5221C37.9685 39.5775 38.018 39.6317 38.0643 39.6848C38.162 39.7869 38.2369 39.8902 38.3027 39.9819C38.3704 40.0725 38.4238 40.1539 38.4655 40.2225C38.5456 40.3598 38.5919 40.4377 38.5919 40.4377C38.5919 40.4377 38.528 40.3702 38.416 40.2514C38.3652 40.1896 38.2955 40.1198 38.2121 40.0431C38.1314 39.9646 38.0415 39.8752 37.936 39.7846C37.8865 39.7361 37.8331 39.6882 37.7751 39.6409C37.6018 39.4972 37.3967 39.3542 37.1869 39.2018C36.8964 39.008 36.5727 38.8187 36.2262 38.6664C35.9702 38.5464 35.7051 38.4402 35.442 38.3554C35.3541 38.3271 35.2668 38.3011 35.1795 38.2781C34.8317 38.1904 34.5015 38.1073 34.2103 38.0779C34.138 38.0675 34.0683 38.0588 34.0019 38.0513C33.9355 38.0438 33.8723 38.0386 33.8124 38.034C33.6932 38.0219 33.5883 38.0121 33.5017 38.0138C33.3278 38.0069 33.2281 38.0023 33.2281 38.0023C33.2281 38.0023 33.3265 37.9878 33.4991 37.9619C33.5857 37.9492 33.6912 37.9405 33.8137 37.9336C33.9361 37.9232 34.0748 37.9186 34.226 37.9273C34.3764 37.9313 34.5399 37.9417 34.7119 37.9625C34.7978 37.9723 34.8858 37.985 34.975 37.9994C35.0642 38.0144 35.1554 38.0323 35.2472 38.0525C35.1893 38.0346 35.132 38.0161 35.074 38C34.8532 37.9503 34.6363 37.9019 34.424 37.854C34.2097 37.8147 33.996 37.7934 33.7902 37.7634C33.7388 37.7536 33.6873 37.7472 33.6358 37.7426C33.4821 37.7288 33.3304 37.7317 33.1832 37.7242C32.9865 37.7201 32.795 37.7022 32.6132 37.7253C32.3403 37.7467 32.0824 37.7594 31.8479 37.7928C31.7698 37.8038 31.6942 37.8171 31.6219 37.8338C31.4024 37.873 31.2018 37.9042 31.0311 37.948C30.9745 37.9625 30.9204 37.9786 30.8703 37.9965C30.6136 38.0709 30.426 38.1257 30.3212 38.1557C30.2587 38.1742 30.2254 38.1834 30.2254 38.1834C30.2254 38.1834 30.2398 38.1783 30.2671 38.1679C30.3362 38.1419 30.4886 38.0848 30.7107 38.0023C30.755 37.9855 30.8025 37.9676 30.852 37.9492C30.9999 37.8857 31.1809 37.8396 31.3855 37.7911C31.4539 37.7749 31.5249 37.7582 31.5978 37.7409C31.745 37.712 31.8974 37.6549 32.0681 37.6428C32.2374 37.6238 32.4152 37.6036 32.6009 37.5822C32.7865 37.5522 32.9825 37.5626 33.1845 37.5597C33.387 37.5626 33.5974 37.5464 33.8104 37.5776C34.0234 37.6013 34.2455 37.6151 34.4683 37.648C34.6884 37.6936 34.9138 37.7397 35.143 37.7871C35.3678 37.8476 35.5918 37.9209 35.8211 37.989C36.0484 38.0617 36.2672 38.1604 36.4939 38.2463C36.7193 38.3358 36.9303 38.4529 37.1511 38.5556C37.2599 38.6093 37.3654 38.6693 37.4703 38.7299C37.5751 38.7904 37.6787 38.8527 37.7842 38.9122C37.9887 39.0408 38.1815 39.1828 38.3795 39.3167C38.5652 39.4644 38.7547 39.6069 38.9312 39.7598C39.0159 39.8394 39.1038 39.9156 39.1892 39.9929C39.2745 40.0702 39.3572 40.1492 39.4334 40.2335C39.5116 40.316 39.5891 40.3974 39.6659 40.4781C39.7369 40.5653 39.8079 40.6524 39.8783 40.7384C39.9486 40.8237 40.0085 40.9114 40.0652 40.9986C40.1225 41.0851 40.1766 41.1717 40.2359 41.2559C40.3362 41.4227 40.4716 41.5652 40.6078 41.7002C40.8168 41.901 41.0591 42.0568 41.3014 42.1866C41.3822 42.2299 41.463 42.2703 41.5424 42.3078C42.1912 42.609 42.7937 42.7474 43.2125 42.8294ZM28.2369 56.5709C28.1737 56.7556 28.0995 56.9119 28.0376 57.036C28.0174 57.0775 27.9979 57.1156 27.9816 57.1497C27.9627 57.1831 27.9464 57.2131 27.9321 57.2391C27.9034 57.2916 27.8832 57.328 27.8728 57.347C27.8676 57.3562 27.865 57.3614 27.865 57.3614C27.865 57.3614 27.8852 57.2778 27.9197 57.1318C27.9301 57.0954 27.9399 57.0556 27.9503 57.0118C27.9816 56.8802 28.0141 56.7164 28.0545 56.5306C28.1001 56.3453 28.1281 56.1336 28.1607 55.9091C28.1718 55.8341 28.1828 55.7574 28.1952 55.6801C28.2375 55.3691 28.2623 55.0356 28.2669 54.7021C28.2818 54.3686 28.276 54.0345 28.2519 53.7218C28.2369 53.566 28.2252 53.4142 28.2121 53.2706C28.2056 53.199 28.1985 53.1286 28.19 53.0611C28.1815 52.9936 28.1724 52.9284 28.1607 52.8661C28.1314 52.6786 28.1079 52.5136 28.0845 52.3808C28.0767 52.3364 28.0688 52.296 28.0604 52.2597C28.0337 52.112 28.0187 52.0277 28.0187 52.0277C28.0187 52.0277 28.0565 52.1068 28.1229 52.2441C28.1372 52.2793 28.1542 52.3174 28.1724 52.3601C28.1906 52.4022 28.2102 52.4484 28.2291 52.4974C28.2688 52.5961 28.3092 52.7086 28.3444 52.8338C28.3626 52.8955 28.3815 52.9613 28.3997 53.0288C28.4544 53.2319 28.5059 53.4575 28.5391 53.6981C28.5587 53.8585 28.5743 54.0253 28.5841 54.1943C28.5945 54.364 28.599 54.5365 28.5997 54.7096C28.5795 55.0546 28.5385 55.3979 28.4805 55.717C28.4193 56.0349 28.3248 56.3257 28.2369 56.5709ZM18.9807 46.0172C19.1182 45.5603 19.2973 45.1148 19.505 44.7121C19.5591 44.6128 19.6151 44.5159 19.6724 44.4224C19.7871 44.2355 19.9069 44.0618 20.0268 43.9043C20.0867 43.8252 20.1466 43.7502 20.2059 43.6798C20.2619 43.6071 20.3199 43.5402 20.3765 43.4779C20.4339 43.4156 20.4905 43.3585 20.5452 43.306C20.5986 43.2523 20.6482 43.2021 20.6957 43.1577C20.7432 43.1127 20.7882 43.0723 20.8299 43.0371C20.9549 42.9321 21.0396 42.8605 21.0748 42.8317C21.0865 42.8219 21.0924 42.8167 21.0924 42.8167C21.0924 42.8167 21.0878 42.8224 21.078 42.834C21.05 42.868 20.981 42.9517 20.8794 43.0746C20.8064 43.1525 20.7296 43.2552 20.6442 43.374C20.555 43.49 20.4593 43.6227 20.3616 43.7716C20.3088 43.8437 20.258 43.921 20.2078 44.0024C20.1577 44.0837 20.1088 44.1691 20.06 44.2568C19.9629 44.4334 19.8672 44.6221 19.7682 44.8165C19.6744 45.0133 19.5878 45.2204 19.5103 45.4327C19.4321 45.6456 19.3631 45.8649 19.3044 46.0859C19.2439 46.3069 19.1937 46.5296 19.154 46.7506C19.1142 46.9716 19.0862 47.1908 19.0687 47.4037C19.0576 47.6166 19.0465 47.8238 19.0426 48.0194C19.0393 48.2161 19.0426 48.4019 19.0628 48.5727C19.068 48.6587 19.0752 48.7412 19.0836 48.8191C19.0914 48.897 19.1012 48.9714 19.111 49.0407C19.1266 49.1809 19.1416 49.3032 19.167 49.4013C19.1852 49.5017 19.1996 49.5807 19.21 49.6344C19.2198 49.688 19.225 49.7169 19.225 49.7169C19.225 49.7169 19.1813 49.6073 19.1038 49.4151C19.0647 49.3188 19.027 49.1999 18.9879 49.0609C18.9657 48.9922 18.9449 48.9183 18.9254 48.8399C18.9058 48.7614 18.8889 48.6789 18.8759 48.5912C18.8589 48.5046 18.8439 48.4135 18.8309 48.3194C18.8049 48.1307 18.7866 47.9276 18.7801 47.7153C18.7769 47.6091 18.7762 47.5001 18.7795 47.3899C18.8016 46.9491 18.87 46.4794 18.9807 46.0172ZM42.1339 29.558C42.0427 29.9602 41.9202 30.3929 41.7378 30.8378C41.6929 30.9491 41.6421 31.0605 41.5848 31.1719C41.5275 31.2832 41.4643 31.394 41.3959 31.5048C41.3594 31.5596 41.3171 31.6115 41.2773 31.6658C41.2396 31.7206 41.1946 31.7725 41.1406 31.8204C41.0845 31.8683 41.0513 31.922 40.9745 31.9652L40.7999 32.076C40.525 32.2081 40.2424 32.3039 39.9532 32.372C39.6633 32.4459 39.3657 32.4989 39.0654 32.5445C38.4636 32.6351 37.8474 32.6882 37.2299 32.7124C36.6125 32.7326 35.9937 32.7263 35.386 32.6882C35.2336 32.6772 35.0818 32.6657 34.932 32.6513C34.6317 32.6224 34.3367 32.5838 34.0436 32.5243C33.897 32.4943 33.7518 32.4597 33.6065 32.4176L33.4092 32.342L33.3108 32.3045C33.2789 32.2889 33.247 32.2687 33.2151 32.2508C33.1512 32.2145 33.0874 32.1781 33.0268 32.1401C32.9663 32.1014 32.9102 32.0604 32.8614 32.0143L32.7051 31.8844L32.5709 31.7408C32.5273 31.6923 32.4804 31.6473 32.4413 31.5977L32.3299 31.4471C32.257 31.3467 32.1905 31.2451 32.1293 31.1436C32.0068 30.9399 31.9065 30.7351 31.8206 30.5343C31.7776 30.4345 31.7378 30.3347 31.7014 30.2377C31.5561 29.8465 31.4701 29.4772 31.4011 29.1501C31.3412 28.8218 31.2982 28.5339 31.2786 28.2962C31.2598 28.1179 31.2545 27.9678 31.2526 27.8501C31.2519 27.8109 31.2513 27.7751 31.2506 27.7434C31.2513 27.6159 31.2519 27.5478 31.2519 27.5478C31.2519 27.5478 31.2558 27.6159 31.2637 27.7428C31.2702 27.838 31.2813 27.9667 31.3008 28.1248C31.3073 28.1773 31.3151 28.2333 31.3236 28.2921C31.3321 28.351 31.3412 28.4127 31.3516 28.4779C31.4044 28.8027 31.4903 29.2003 31.6304 29.6457C31.6864 29.824 31.7509 30.0092 31.8258 30.2008C31.9808 30.5804 32.1794 30.9849 32.4706 31.364L32.5813 31.5059C32.6204 31.5521 32.666 31.5936 32.7083 31.6387L32.8386 31.7714L32.9878 31.8879C33.1356 32.0085 33.2971 32.1008 33.4867 32.1787C33.5499 32.2047 33.6157 32.2295 33.6853 32.2531C33.815 32.2895 33.9498 32.3201 34.0885 32.3466C34.366 32.4003 34.6591 32.4372 34.9555 32.4637C35.104 32.477 35.2525 32.488 35.401 32.4966C35.9995 32.5295 36.6105 32.5307 37.2202 32.507C37.8298 32.4886 38.4388 32.4401 39.0302 32.3558C39.3253 32.3131 39.6171 32.2635 39.8978 32.1937C40.0398 32.162 40.1772 32.1227 40.3088 32.0783C40.4404 32.0339 40.5654 31.9843 40.682 31.9318C40.8592 31.8348 41.0025 31.709 41.1217 31.5665C41.321 31.3294 41.4558 31.0478 41.5809 30.7847C41.7724 30.3548 41.9052 29.9308 42.0075 29.5349C42.1794 28.8408 42.2719 28.2367 42.2999 27.7786C42.3039 27.7134 42.3065 27.6505 42.3078 27.5916C42.3097 27.5322 42.311 27.4762 42.3117 27.4232C42.3123 27.3707 42.3117 27.321 42.3104 27.2749C42.3084 27.1826 42.3039 27.1047 42.298 27.0406C42.2941 27.0089 42.2908 26.9806 42.2882 26.9564C42.2798 26.8843 42.2752 26.8456 42.2752 26.8456C42.2752 26.8456 42.2869 26.9131 42.3104 27.0389C42.3195 27.1018 42.3299 27.1803 42.3384 27.2726C42.3468 27.3655 42.3527 27.4716 42.3527 27.5911C42.3573 27.8894 42.3403 28.2685 42.2843 28.7075C42.2732 28.7952 42.2602 28.8858 42.2452 28.9782C42.2146 29.1628 42.1788 29.3567 42.1339 29.558ZM28.0226 36.7941C27.9959 36.7739 27.9672 36.7519 27.9353 36.7294C27.7699 36.6094 27.5367 36.4738 27.2951 36.3694C27.1133 36.288 26.929 36.228 26.7694 36.1847C26.5037 36.1126 26.307 36.0861 26.307 36.0861C26.307 36.0861 26.4105 36.1536 26.548 36.2638C26.6509 36.3463 26.774 36.4531 26.8873 36.5736C26.9251 36.614 26.9616 36.6556 26.9961 36.6983C27.0007 36.704 27.0046 36.7098 27.0098 36.715C26.7818 36.659 26.5792 36.6019 26.4073 36.55C26.3825 36.5431 26.3604 36.5373 26.3369 36.5309C26.279 36.4917 26.2217 36.4502 26.1676 36.4052C26.1135 36.3602 26.0627 36.3123 26.0178 36.2609C25.9188 36.1455 25.8582 36.0122 25.851 35.8743C25.8452 35.737 25.8804 35.598 25.9383 35.4872C25.9657 35.4312 25.9943 35.3804 26.0223 35.336C26.0503 35.2916 26.0771 35.2541 26.1012 35.2241C26.1246 35.1935 26.1428 35.1692 26.1552 35.1531C26.1676 35.1369 26.1741 35.1283 26.1741 35.1283C26.1741 35.1283 26.165 35.1352 26.1487 35.1485C26.1324 35.1618 26.1077 35.1814 26.0764 35.2062C26.0126 35.2552 25.9285 35.332 25.838 35.4364C25.7455 35.5391 25.6595 35.6822 25.6172 35.8576C25.5964 35.9453 25.5931 36.0411 25.6061 36.1374C25.6198 36.2338 25.6491 36.3302 25.6921 36.419C25.7371 36.509 25.7905 36.5933 25.8478 36.6712C25.9051 36.749 25.9676 36.8217 26.0308 36.8881C25.3925 36.8973 24.7705 36.9775 24.1758 37.1131C23.5805 37.2481 23.0119 37.438 22.4778 37.6665C22.0505 37.8488 21.6453 38.0554 21.2669 38.2775C21.078 38.3889 20.895 38.5042 20.7198 38.622C20.4795 38.4489 20.0659 38.1332 19.6913 37.7599C19.4751 37.5528 19.2771 37.3301 19.1136 37.1327C18.8413 36.8039 18.6661 36.5448 18.6661 36.5448C18.6661 36.5448 18.7423 36.7773 18.8824 37.1045C18.9136 37.1772 18.9482 37.2545 18.9853 37.3353C19.0413 37.4559 19.1045 37.584 19.1742 37.7138C19.2204 37.8003 19.2693 37.8874 19.3214 37.9746C19.1507 37.798 18.9892 37.6249 18.8361 37.4553C17.7673 36.2684 17.1264 35.2645 16.7466 34.5288C16.6379 34.3188 16.5512 34.1301 16.4815 33.9656C16.4464 33.8831 16.4158 33.8076 16.389 33.7372C16.3356 33.597 16.2979 33.4821 16.2712 33.3944C16.2314 33.2623 16.2177 33.1908 16.2171 33.1867L15.9259 31.3028C15.9937 31.4304 16.0718 31.5561 16.1624 31.6779C16.6613 32.3483 17.5562 32.9086 19.4256 33.118C19.9356 33.1752 20.5179 33.2063 21.1842 33.2063C21.3321 33.2063 21.476 33.2058 21.616 33.204C22.1768 33.1977 22.6771 33.1781 23.1258 33.144C23.2379 33.1354 23.3466 33.1261 23.4522 33.1163C24.6141 33.0032 25.3958 32.7805 25.9605 32.4274C26.0634 32.3628 26.1591 32.2947 26.2477 32.2214C26.4262 32.0754 26.5805 31.911 26.718 31.7287C26.8209 31.5913 26.914 31.4436 27.0013 31.2844C27.0593 31.1782 27.1146 31.0674 27.1687 30.9515C27.1961 30.8932 27.2221 30.8343 27.2482 30.7737C27.3003 30.6526 27.3511 30.5262 27.4019 30.3952C27.4273 30.3295 27.4527 30.2625 27.4781 30.1944C28.1197 28.4635 28.6707 27.6216 29.1618 27.6216C29.3018 27.6216 29.4477 27.6903 29.5982 27.8288C29.7487 27.9673 29.9056 28.1761 30.0678 28.4548C30.1759 28.6412 30.2873 28.8587 30.4019 29.108C30.4039 29.1132 30.4052 29.1184 30.4072 29.123C30.4482 29.2309 30.497 29.3365 30.5485 29.4409C30.6455 29.6705 30.7446 29.9198 30.8462 30.1939C30.923 30.401 30.9992 30.5955 31.078 30.7789C31.1021 30.8966 31.1217 31.0161 31.1341 31.1361C31.1471 31.2567 31.1523 31.3778 31.1471 31.4996C31.1438 31.6894 31.1145 31.8948 31.0911 32.121C31.0676 32.3478 31.0507 32.5953 31.0722 32.8711C31.1015 33.1446 31.205 33.444 31.3425 33.6916C31.4799 33.9443 31.6447 34.1664 31.803 34.3724C31.8427 34.4226 31.8818 34.4728 31.9202 34.5224C32.1501 34.819 32.3462 35.0948 32.44 35.3522C32.4556 35.3949 32.468 35.4375 32.4784 35.4791C32.4921 35.5212 32.5019 35.5604 32.509 35.598C32.5234 35.673 32.5266 35.741 32.5168 35.8086C32.5123 35.8426 32.5045 35.8761 32.4934 35.9107C32.4732 35.9753 32.4387 36.0411 32.4035 36.0855C32.3859 36.1063 32.3781 36.1172 32.3683 36.1259C32.3579 36.1351 32.3449 36.1421 32.3175 36.1553C32.3039 36.1617 32.285 36.1686 32.2628 36.1761C32.2179 36.1911 32.1567 36.2084 32.087 36.2292C32.0518 36.2396 32.0147 36.2511 31.9756 36.2632C31.8544 36.3036 31.7671 36.3365 31.6753 36.3705C31.6447 36.3815 31.6141 36.393 31.5809 36.4052C31.5542 36.415 31.5288 36.4242 31.5021 36.4334C31.7255 36.2165 31.9704 36.0353 32.1221 35.9291C32.2133 35.8657 32.2713 35.8299 32.2713 35.8299C32.2713 35.8299 31.6668 35.9643 31.1028 36.2494C30.8742 36.3578 30.6592 36.4888 30.484 36.6077C30.3524 36.6965 30.243 36.7785 30.1668 36.8379C30.1414 36.8581 30.1193 36.8754 30.1017 36.8898C30.0098 36.9112 29.9186 36.9302 29.8281 36.9464C29.7369 36.962 29.647 36.9747 29.5572 36.9833C29.1318 37.0248 28.7091 36.9995 28.319 36.9452C28.2727 36.9406 28.2291 36.9343 28.1841 36.9291C28.1594 36.9037 28.1027 36.8546 28.0226 36.7941ZM34.9274 29.8985C34.8564 29.9942 34.7881 30.0842 34.7242 30.1667C34.5985 30.3329 34.4839 30.4662 34.4083 30.562C34.3308 30.6566 34.2839 30.7091 34.2839 30.7091C34.2839 30.7091 34.2911 30.6935 34.3061 30.6647C34.3132 30.6503 34.3223 30.6324 34.3334 30.6122C34.3438 30.5914 34.3569 30.5678 34.3705 30.5418C34.3849 30.5158 34.4012 30.4864 34.4181 30.4547C34.4696 30.3595 34.5327 30.24 34.6109 30.1067C34.6623 30.0179 34.7184 29.9215 34.7796 29.8206C34.962 29.5176 35.1834 29.1691 35.4127 28.8252C35.4895 28.711 35.5677 28.5968 35.6452 28.4854C35.8002 28.2621 35.9546 28.048 36.0966 27.8565C36.1676 27.7607 36.2353 27.6707 36.2998 27.5882C36.4262 27.422 36.5402 27.2881 36.6151 27.1929C36.6541 27.1456 36.6848 27.1087 36.7069 27.0839C36.7284 27.0591 36.7401 27.0458 36.7401 27.0458C36.7401 27.0458 36.7323 27.0608 36.718 27.0897C36.7036 27.1185 36.6815 27.1606 36.6535 27.2131C36.6392 27.2391 36.6229 27.2685 36.6059 27.3003C36.589 27.332 36.5701 27.366 36.5506 27.403C36.5108 27.4762 36.4653 27.5588 36.4131 27.6476C36.3617 27.737 36.305 27.8328 36.2444 27.9344C36.0621 28.2373 35.8413 28.5858 35.6113 28.9297C35.3801 29.2724 35.1404 29.6111 34.9274 29.8985ZM36.8469 25.6397C36.9134 25.5554 36.9498 25.5081 36.9498 25.5081C36.9498 25.5081 36.8984 25.5987 36.8092 25.7568C36.7623 25.8347 36.7076 25.9305 36.6437 26.0401C36.6118 26.0949 36.5773 26.1526 36.5408 26.2138C36.5043 26.2744 36.4653 26.3384 36.4242 26.4048C36.3832 26.4711 36.3402 26.5398 36.2959 26.6119C36.2523 26.6835 36.2067 26.7573 36.1591 26.8335C36.1122 26.9096 36.064 26.9875 36.0139 27.0672C35.9637 27.1468 35.9123 27.2276 35.8595 27.3101C35.7546 27.4751 35.6446 27.6442 35.5319 27.8155C35.4192 27.9869 35.3033 28.1611 35.1886 28.3348C34.9542 28.6804 34.7203 29.0266 34.4943 29.3474C34.2702 29.6694 34.0501 29.9642 33.8671 30.2193C33.7752 30.3473 33.6886 30.4627 33.6104 30.5649C33.5714 30.6156 33.5349 30.6635 33.501 30.7074C33.4671 30.7518 33.4365 30.7922 33.4092 30.8291C33.3805 30.8655 33.3551 30.8978 33.333 30.9261C33.3108 30.9543 33.2919 30.978 33.277 30.9976C33.2463 31.0368 33.2301 31.0576 33.2301 31.0576C33.2301 31.0576 33.2815 30.9676 33.3707 30.8089C33.4645 30.6526 33.5902 30.4258 33.7557 30.161C33.9211 29.8961 34.1081 29.584 34.3197 29.2557C34.5295 28.9256 34.7607 28.5783 34.9913 28.2304C35.1085 28.0573 35.2258 27.8842 35.3417 27.7145C35.4576 27.5449 35.5729 27.3782 35.6863 27.2178C35.9103 26.8958 36.1305 26.601 36.3135 26.3454C36.4972 26.0903 36.662 25.8838 36.7714 25.736C36.7994 25.7003 36.8248 25.668 36.8469 25.6397ZM24.7047 32.417C24.5568 32.4603 24.4246 32.488 24.2807 32.522C24.1341 32.5468 23.9856 32.5745 23.8371 32.597C23.6892 32.6149 23.5401 32.6328 23.3903 32.6507C23.2405 32.6628 23.0894 32.6749 22.9376 32.687C22.3312 32.7251 21.7137 32.7309 21.0976 32.7113C20.4814 32.6876 19.8659 32.6345 19.2654 32.5428C18.6681 32.4459 18.0734 32.3351 17.5439 32.0737C17.2684 31.9289 17.0997 31.7189 16.9459 31.4961C16.8098 31.2757 16.6958 31.0524 16.6072 30.8297C16.4262 30.3854 16.3057 29.9533 16.2151 29.5523C16.1708 29.3509 16.135 29.1576 16.1057 28.973C16.0477 28.6037 16.0171 28.2702 16.0054 27.9834C15.9995 27.8398 15.9976 27.7076 15.9995 27.5888C16.0008 27.3505 16.0236 27.1641 16.0419 27.0377C16.053 26.9748 16.0621 26.9264 16.0679 26.8941C16.0738 26.8618 16.0771 26.8444 16.0771 26.8444C16.0771 26.8444 16.0692 26.912 16.0549 27.0389C16.0432 27.1652 16.0367 27.3516 16.0451 27.5888C16.0562 28.0625 16.1487 28.737 16.3428 29.5286C16.3936 29.7259 16.4516 29.9308 16.5213 30.1396C16.5903 30.3485 16.6711 30.562 16.7655 30.7766C16.8886 31.0386 17.0241 31.3207 17.2195 31.5579C17.2586 31.6058 17.3003 31.6508 17.3446 31.694C17.4331 31.7806 17.5334 31.8573 17.6474 31.9208C18.1281 32.1539 18.7169 32.2647 19.3012 32.3535C19.8906 32.4384 20.4983 32.4862 21.1067 32.5059C21.715 32.5301 22.3247 32.5289 22.922 32.4955C23.0711 32.4845 23.2196 32.4736 23.3675 32.4632C23.514 32.4464 23.6599 32.4303 23.8052 32.4141C23.9472 32.391 24.0879 32.3685 24.2279 32.346C24.3653 32.3155 24.5158 32.2837 24.6402 32.2474C25.0271 32.1268 25.3476 31.8977 25.6042 31.6323C25.6895 31.544 25.7683 31.4517 25.84 31.3571C25.9123 31.2625 25.9787 31.1661 26.0399 31.0686C26.163 30.8741 26.2659 30.6768 26.3552 30.4824C26.3995 30.3849 26.4412 30.2885 26.4796 30.1944C26.5167 30.0987 26.5512 30.0046 26.5831 29.9123C26.6476 29.7277 26.703 29.5494 26.7499 29.3792C26.774 29.2943 26.7955 29.2118 26.815 29.1311C26.8743 28.8899 26.9179 28.6689 26.9492 28.4744C26.9596 28.4098 26.9687 28.3481 26.9766 28.2892C26.985 28.2304 26.9928 28.175 26.9993 28.1225C27.0124 28.0175 27.0215 27.9257 27.028 27.8473C27.0313 27.8086 27.0339 27.7728 27.0365 27.7411C27.0436 27.6141 27.0482 27.5466 27.0482 27.5466C27.0482 27.5466 27.0489 27.6141 27.0495 27.7417C27.0482 27.8369 27.0476 27.9667 27.0365 28.1254C27.0326 28.1784 27.028 28.2344 27.0221 28.2938C27.0176 28.3533 27.0111 28.4156 27.0033 28.4814C26.9883 28.6123 26.9674 28.7549 26.942 28.9083C26.929 28.9851 26.9153 29.0647 26.9003 29.1466C26.8489 29.3913 26.7883 29.6602 26.7004 29.9435C26.6711 30.0381 26.6385 30.1344 26.6027 30.2314C26.4568 30.6203 26.2692 31.038 25.98 31.4396C25.9442 31.4892 25.9064 31.5388 25.8667 31.5879C25.5886 31.9329 25.2108 32.2578 24.7047 32.417ZM18.8127 30.6976C18.8198 30.6826 18.8348 30.6537 18.8557 30.6122C18.8667 30.5914 18.8791 30.5678 18.8934 30.5418C18.9371 30.4633 18.9918 30.3577 19.0608 30.2348C19.0836 30.1939 19.1077 30.1512 19.1338 30.1067C19.1852 30.0179 19.2419 29.9215 19.3025 29.8206C19.4849 29.5176 19.7057 29.1691 19.9356 28.8252C20.1662 28.4819 20.4059 28.1432 20.6188 27.8565C20.6898 27.7607 20.7582 27.6707 20.8221 27.5882C20.9484 27.422 21.0624 27.2881 21.138 27.1929C21.177 27.1456 21.2077 27.1087 21.2298 27.0839C21.2513 27.0591 21.263 27.0458 21.263 27.0458C21.263 27.0458 21.2467 27.0804 21.2142 27.1422C21.2037 27.1629 21.1907 27.1866 21.177 27.2131C21.1184 27.3182 21.0403 27.4705 20.936 27.6476C20.8846 27.737 20.8279 27.8328 20.7673 27.9344C20.7068 28.0354 20.6416 28.1415 20.5732 28.2506C20.4365 28.4692 20.288 28.7006 20.1342 28.9297C19.9805 29.1582 19.8229 29.3855 19.6718 29.5961C19.5207 29.8067 19.3761 30.0017 19.2484 30.1667C19.1221 30.3329 19.0081 30.4662 18.9325 30.562C18.913 30.5856 18.8954 30.6064 18.8804 30.6249C18.8342 30.6797 18.8081 30.7091 18.8081 30.7091C18.8081 30.7091 18.8088 30.7057 18.8127 30.6976ZM21.2943 25.7366C21.3229 25.7003 21.3483 25.668 21.3705 25.6397C21.4369 25.5554 21.4734 25.5081 21.4734 25.5081C21.4734 25.5081 21.4226 25.5987 21.3327 25.7568C21.3093 25.7961 21.2839 25.8393 21.2565 25.8866C21.2018 25.9813 21.138 26.0915 21.065 26.2138C21.0285 26.2744 20.9895 26.3384 20.9484 26.4048C20.9067 26.4711 20.8644 26.5398 20.8201 26.6119C20.7765 26.6835 20.7309 26.7573 20.684 26.8335C20.5902 26.9858 20.4905 27.1462 20.3844 27.3101C20.1753 27.6395 19.9441 27.9875 19.7135 28.3354C19.479 28.681 19.2452 29.0272 19.0192 29.348C18.7951 29.67 18.5749 29.9648 18.3919 30.2198C18.2089 30.4754 18.0434 30.682 17.934 30.8297C17.82 30.9751 17.7549 31.0582 17.7549 31.0582C17.7549 31.0582 17.8064 30.9682 17.8956 30.8095C17.919 30.7709 17.9444 30.727 17.9718 30.6797C18.0545 30.5378 18.1561 30.36 18.2805 30.1616C18.3633 30.0294 18.4512 29.8852 18.5456 29.7329C18.6394 29.5805 18.7391 29.4201 18.8452 29.2563C18.9501 29.0912 19.0602 28.9216 19.1729 28.7502C19.2855 28.5789 19.4008 28.4046 19.5161 28.231C19.6334 28.0579 19.7506 27.8848 19.8665 27.7151C19.9825 27.5455 20.0978 27.3787 20.2111 27.2183C20.4352 26.8964 20.6553 26.6015 20.8383 26.3459C20.8839 26.2825 20.9289 26.2213 20.9719 26.1636C21.0578 26.0488 21.1367 25.9461 21.2037 25.8578C21.2357 25.8139 21.2669 25.7736 21.2943 25.7366ZM23.3154 46.0017C23.1962 45.6341 23.1441 45.3029 23.1213 45.0364C23.1135 44.9475 23.1096 44.8656 23.1076 44.7923C23.0985 44.6451 23.1122 44.5292 23.1141 44.4507C23.118 44.3722 23.12 44.3301 23.12 44.3301C23.12 44.3301 23.1239 44.3722 23.1311 44.4507C23.1402 44.5286 23.1428 44.6434 23.1721 44.7877C23.2086 45.0773 23.3121 45.4841 23.4945 45.9532C23.5394 46.0709 23.5915 46.1915 23.6489 46.315C23.7642 46.5619 23.9029 46.8198 24.0573 47.0858C24.1348 47.2185 24.2162 47.353 24.3009 47.4891C24.5542 47.8976 24.846 48.3154 25.1495 48.736C25.2505 48.8762 25.3528 49.0164 25.4557 49.1566C25.7546 49.5842 26.0477 50.0181 26.3076 50.4491C26.3943 50.5928 26.4776 50.7364 26.5558 50.8789C26.873 51.4479 27.0827 52.0179 27.2117 52.513C27.2443 52.637 27.269 52.757 27.2879 52.8719C27.325 53.1015 27.338 53.3092 27.3393 53.4881C27.34 53.5775 27.3374 53.6589 27.3335 53.7327C27.3322 53.806 27.3257 53.8718 27.3185 53.9289C27.3107 53.9855 27.3029 54.0339 27.2983 54.0732C27.2879 54.1511 27.282 54.1932 27.282 54.1932C27.282 54.1932 27.282 54.1511 27.2814 54.0726C27.2788 53.9941 27.2866 53.8793 27.269 53.7339C27.2657 53.6612 27.2592 53.581 27.2482 53.4939C27.226 53.3196 27.1882 53.1194 27.1309 52.899C27.1023 52.7888 27.0684 52.674 27.03 52.5551C26.916 52.1968 26.7401 51.8085 26.5252 51.404C26.4535 51.269 26.3773 51.1322 26.2972 50.9943C26.2177 50.8564 26.1331 50.7174 26.0445 50.5778C25.78 50.1589 25.4811 49.7354 25.1743 49.3153C24.876 48.8883 24.5777 48.4591 24.3067 48.0338C24.2168 47.8924 24.1296 47.7511 24.0468 47.6109C23.7961 47.1903 23.5994 46.7714 23.4502 46.3819C23.3994 46.2503 23.3551 46.124 23.3154 46.0017ZM29.8437 42.2633C30.8162 42.2472 31.6278 42.2068 32.283 42.1601C32.9376 42.1127 33.4359 42.0597 33.7791 42.0158C33.886 42.021 33.9947 42.025 34.1061 42.0285C34.2181 42.032 34.3321 42.0348 34.4494 42.036C34.5256 42.0372 34.6031 42.0418 34.6819 42.0493C34.7614 42.0568 34.8415 42.0666 34.9235 42.0781C34.6187 42.2703 34.323 42.4439 34.0345 42.5997C33.8899 42.6776 33.7479 42.7515 33.6065 42.8207C33.4658 42.8899 33.3258 42.9546 33.1884 43.0152C32.8184 43.1779 32.453 43.2506 32.0029 43.2506C31.8284 43.2506 31.6512 43.239 31.4714 43.2229C31.3809 43.2142 31.2897 43.2044 31.1979 43.194C31.1054 43.1831 31.0123 43.1715 30.9178 43.16C30.7113 43.1346 30.5009 43.1086 30.2854 43.089C30.0704 43.0694 29.8496 43.0567 29.6229 43.0567C29.5024 43.0567 29.3846 43.0613 29.2693 43.07C28.9221 43.0959 28.5945 43.1536 28.2747 43.2102C27.9086 43.2748 27.5628 43.336 27.2397 43.336C26.9883 43.336 26.7727 43.2996 26.5617 43.2206C25.8615 42.9586 25.1228 42.5824 24.3256 42.0793C24.4865 42.055 24.6435 42.0377 24.7952 42.0354C25.1176 42.0308 25.4127 42.0181 25.6954 42.0014C26.3037 42.1122 27.6741 42.2997 29.8437 42.2633ZM29.4751 48.8416C29.5122 49.1087 29.5428 49.3765 29.5643 49.628C29.5747 49.7538 29.5773 49.8756 29.5773 49.9915C29.5773 50.1075 29.5741 50.2171 29.5728 50.3175C29.5728 50.3677 29.5702 50.4162 29.5676 50.4618C29.5585 50.5997 29.5415 50.7162 29.5331 50.8039C29.5155 50.9211 29.505 50.988 29.505 50.988C29.505 50.988 29.4914 50.9216 29.4686 50.8051C29.4634 50.7762 29.4582 50.7439 29.4523 50.7093C29.4341 50.6049 29.4113 50.4745 29.3859 50.3262C29.3611 50.1283 29.3083 49.8992 29.2771 49.6528C29.2419 49.407 29.1976 49.1457 29.1468 48.8854C29.1279 48.7545 29.1071 48.6235 29.0849 48.4948C29.0628 48.3662 29.04 48.2398 29.0152 48.1175C28.9716 47.8723 28.9306 47.6426 28.8947 47.4459C28.8615 47.2485 28.8335 47.0824 28.8133 46.9664C28.8094 46.937 28.8055 46.911 28.8023 46.8885C28.7925 46.8204 28.7873 46.7823 28.7873 46.7823C28.7873 46.7823 28.8192 46.8441 28.8752 46.9508C28.9247 47.0599 29.0061 47.2133 29.0758 47.4055C29.1455 47.597 29.2334 47.8203 29.2973 48.0661C29.3605 48.3125 29.421 48.5762 29.4751 48.8416ZM32.0544 53.5654C32.0772 53.3929 32.1026 53.1638 32.1501 52.8949C32.1658 52.8055 32.184 52.7115 32.2062 52.614C32.2263 52.5159 32.2485 52.4143 32.2726 52.3087C32.2967 52.2037 32.3221 52.0947 32.3507 51.9839C32.4068 51.7612 32.4719 51.5269 32.5494 51.2875C32.6282 51.0486 32.7155 50.8028 32.8093 50.5547C32.9031 50.3066 33.004 50.0556 33.1096 49.8069C33.3408 49.3159 33.5922 48.8324 33.8475 48.3881C33.9771 48.1671 34.1107 47.9571 34.2422 47.7609C34.308 47.6628 34.3732 47.5676 34.437 47.477C34.5008 47.3858 34.564 47.2981 34.6246 47.2145C34.8643 46.8781 35.0942 46.615 35.2499 46.4292C35.3306 46.338 35.3945 46.2665 35.4381 46.218C35.4811 46.169 35.5045 46.1436 35.5045 46.1436C35.5045 46.1436 35.5 46.1511 35.4909 46.1649C35.4641 46.2071 35.399 46.3098 35.3033 46.4615C35.2036 46.6104 35.0805 46.8117 34.9366 47.05C34.8884 47.1297 34.8382 47.2128 34.7855 47.2999C34.622 47.5578 34.4591 47.8578 34.2839 48.1775C34.226 48.2842 34.1667 48.3933 34.1055 48.5029C33.9863 48.725 33.8677 48.9564 33.7524 49.193C33.6371 49.4301 33.5251 49.6725 33.4183 49.9165C33.1962 50.4024 32.9943 50.8951 32.8243 51.3636C32.6621 51.8333 32.496 52.2695 32.3885 52.6526C32.3312 52.843 32.2778 53.0178 32.2316 53.1731C32.2081 53.2509 32.1873 53.3237 32.1677 53.3912C32.1488 53.4587 32.1312 53.521 32.1176 53.5775C32.0544 53.802 32.0179 53.9306 32.0179 53.9306C32.0179 53.9306 32.0316 53.7968 32.0544 53.5654ZM40.0958 34.7688C39.9278 35.0135 39.7324 35.2454 39.5305 35.4514C39.3285 35.6568 39.1208 35.8363 38.926 35.9759C38.7821 36.0826 38.6479 36.168 38.5372 36.2344C38.5 36.2563 38.4655 36.2759 38.4342 36.2938C38.3072 36.3619 38.2349 36.4011 38.2349 36.4011C38.2349 36.4011 38.2551 36.3959 38.2936 36.3855C38.3125 36.3803 38.3366 36.374 38.3639 36.3671C38.3919 36.3596 38.4232 36.3509 38.4597 36.3417C38.5665 36.3111 38.7072 36.2673 38.8706 36.2055C38.9254 36.1848 38.982 36.1622 39.0413 36.1374C39.1533 36.0924 39.2719 36.0382 39.395 35.9765C39.763 35.7907 40.1688 35.5333 40.54 35.2281C40.5081 35.8028 40.5003 36.3775 40.529 36.9533C40.2586 37.3809 39.944 37.8084 39.5826 38.2296C39.6952 38.0075 39.789 37.7911 39.8548 37.6307C39.9206 37.4703 39.9584 37.3658 39.9584 37.3658C39.9584 37.3658 39.9343 37.3912 39.8906 37.4345C39.8477 37.4778 39.7858 37.5395 39.7102 37.6116C39.6724 37.648 39.6314 37.6867 39.5878 37.727C39.4998 37.8084 39.4015 37.8967 39.2973 37.985C39.2452 38.0294 39.1918 38.0732 39.137 38.1165C39.0791 38.1644 39.0205 38.2106 38.9625 38.255C38.8465 38.3444 38.7326 38.4269 38.6316 38.4985C38.5808 38.5343 38.5333 38.5671 38.4896 38.5971C37.9907 38.2642 37.4344 37.9555 36.8333 37.6942C36.5076 37.4639 36.1969 37.2262 35.8966 36.9822C35.2108 36.1334 34.5243 35.2841 33.8384 34.4353C33.3675 33.8526 32.8933 33.2658 32.5637 32.6172C32.5462 32.5832 32.5325 32.5491 32.5162 32.5151C32.8464 32.6963 33.2457 32.8388 33.7407 32.9455C34.5666 33.1244 35.6582 33.2058 37.1407 33.2058C38.8804 33.2058 40.0457 32.994 40.8468 32.6588C40.7869 33.0003 40.7328 33.3425 40.6872 33.6847C40.6175 33.8543 40.5342 34.0349 40.4358 34.2189C40.3375 34.4013 40.2248 34.5882 40.0958 34.7688ZM41.4656 37.3162C41.4467 37.3849 41.4291 37.487 41.3816 37.6007C41.3347 37.7144 41.2839 37.8505 41.2024 37.9844C41.1614 38.0513 41.1178 38.1194 41.0715 38.1881C41.0253 38.2567 40.9771 38.326 40.9263 38.394C40.8136 38.5227 40.695 38.6468 40.5791 38.7581C40.4619 38.8695 40.3336 38.9572 40.2274 39.0334C40.1219 39.1107 40.0183 39.1586 39.9512 39.1966C39.916 39.2134 39.888 39.2266 39.8691 39.2353C39.8503 39.2445 39.8398 39.2491 39.8398 39.2491C39.8398 39.2491 39.8659 39.2157 39.9121 39.1574C39.959 39.1014 40.0274 39.0212 40.1069 38.926C40.1922 38.836 40.2756 38.7189 40.3791 38.6058C40.43 38.5487 40.4808 38.4887 40.5309 38.4269C40.5811 38.3652 40.6312 38.3017 40.6794 38.2371C40.7856 38.1148 40.8859 37.9878 40.9751 37.8661C41.0181 37.8044 41.0644 37.7467 41.1086 37.6918C41.1523 37.637 41.1946 37.5845 41.2285 37.5343C41.304 37.4368 41.3679 37.3532 41.4122 37.296C41.4356 37.2672 41.4539 37.2447 41.4669 37.2291C41.4799 37.2141 41.4864 37.2054 41.4864 37.2054C41.4864 37.2054 41.478 37.2458 41.4656 37.3162ZM40.2984 47.372C40.3264 47.8244 40.3101 48.2779 40.2515 48.6979C40.1824 49.118 40.0685 49.5011 39.9388 49.8179C39.8815 49.9788 39.8112 50.1202 39.7434 50.2431C39.7115 50.3054 39.6809 50.3631 39.651 50.4156C39.621 50.4681 39.5923 50.516 39.5643 50.5587C39.4536 50.7272 39.3898 50.8236 39.3898 50.8236C39.3898 50.8236 39.4314 50.7185 39.5051 50.5356C39.548 50.4468 39.5858 50.3337 39.6269 50.2044C39.6496 50.1404 39.6718 50.0723 39.6946 50.0002C39.7167 49.9281 39.7389 49.8513 39.7597 49.7717C39.8105 49.6136 39.8483 49.4388 39.8796 49.2536C39.8959 49.1607 39.9095 49.0655 39.9239 48.968C39.9375 48.8704 39.9512 48.7712 39.9649 48.6702C39.9864 48.4671 39.9975 48.2571 39.9975 48.043C39.9981 47.8296 39.9877 47.6126 39.9675 47.3962C39.9297 46.9641 39.8503 46.5342 39.735 46.1396C39.6718 45.9445 39.6106 45.7541 39.5454 45.5758C39.4803 45.397 39.4119 45.2302 39.3331 45.0814C39.2634 44.929 39.1918 44.7923 39.124 44.6723C39.0602 44.5505 39.0022 44.4438 38.9443 44.3624C38.9175 44.3197 38.8941 44.2816 38.8739 44.2488C38.8127 44.1495 38.7788 44.0947 38.7788 44.0947C38.7788 44.0947 38.799 44.1161 38.8361 44.1564C38.8739 44.1968 38.9286 44.2557 38.9983 44.3313C39.0335 44.3688 39.0706 44.412 39.1097 44.4599C39.1488 44.5078 39.1892 44.5603 39.2321 44.6169C39.3214 44.7288 39.4165 44.8586 39.5018 45.0092C39.6874 45.3035 39.8685 45.6664 40.0131 46.0703C40.146 46.4765 40.2437 46.9214 40.2984 47.372ZM13.7401 26.459C13.7629 26.4486 13.7863 26.4498 13.8097 26.4486L13.8586 26.4642C14.351 26.6217 14.7073 27.523 14.9958 28.4629C14.889 28.5177 14.7802 28.5881 14.6799 28.6718C14.579 28.756 14.4858 28.8535 14.4103 28.962C14.2474 29.1899 14.153 29.453 14.1126 29.708C14.0573 30.03 14.0866 30.3468 14.1582 30.6197C14.1725 30.6745 14.1888 30.727 14.2058 30.7778C14.2403 30.8793 14.28 30.9728 14.323 31.0547C14.3862 31.1794 14.4513 31.2832 14.508 31.3634C14.5269 31.39 14.5451 31.4142 14.562 31.4355C14.5953 31.4788 14.622 31.5117 14.6409 31.5342C14.6591 31.5567 14.6695 31.5683 14.6695 31.5683C14.6695 31.5683 14.6402 31.5146 14.5972 31.4194C14.5536 31.3248 14.5008 31.1846 14.4617 31.0155C14.3797 30.678 14.3849 30.2106 14.5653 29.8073C14.5868 29.7571 14.6102 29.708 14.6356 29.6613C14.7132 29.5205 14.8089 29.3976 14.9151 29.3059C14.96 29.2666 15.0063 29.2332 15.0525 29.2049C15.0987 29.1766 15.1456 29.1536 15.1919 29.1339C15.2069 29.187 15.2218 29.2401 15.2368 29.292C15.328 29.6157 15.414 29.9209 15.5032 30.1991L15.5273 30.2746C15.5794 30.4379 15.6328 30.6041 15.6934 30.7697C15.5951 31.2215 15.4179 31.6554 15.2271 32.0668L14.6128 32.8469C14.5523 32.923 14.4995 32.9975 14.45 33.0713C14.4083 32.9825 14.3647 32.889 14.3204 32.7903C14.2781 32.6951 14.2344 32.5959 14.1914 32.4932C14.0175 32.08 13.8404 31.6035 13.6925 31.0951C13.5818 30.7137 13.4873 30.3139 13.4242 29.91C13.3792 29.64 13.3584 29.3722 13.3414 29.1022C13.3297 28.8287 13.3245 28.5593 13.3271 28.299C13.3291 28.1692 13.3323 28.0417 13.3375 27.9165C13.3538 27.5414 13.3909 27.1929 13.473 26.8975C13.514 26.755 13.5694 26.6125 13.6502 26.5254C13.6775 26.4965 13.7075 26.4734 13.7401 26.459ZM16.021 42.8247C16.1259 42.8046 16.2418 42.7809 16.3676 42.752C16.7447 42.6655 17.2058 42.5328 17.6911 42.3083C18.0109 42.1577 18.3489 41.9702 18.629 41.7037C18.7658 41.5698 18.9026 41.4273 19.0022 41.2605C19.1208 41.0932 19.2198 40.9149 19.3598 40.7435C19.4269 40.6547 19.4985 40.5681 19.5728 40.4839C19.7213 40.3154 19.8815 40.155 20.0496 39.9975C20.1336 39.919 20.2196 39.8411 20.3068 39.7632C20.4827 39.6098 20.6729 39.4678 20.8585 39.3195C20.9575 39.252 21.0552 39.1834 21.1536 39.1153C21.2519 39.0466 21.3516 38.9791 21.4532 38.9145C21.6649 38.7951 21.8688 38.6652 22.0863 38.5568C22.3071 38.4535 22.5188 38.3369 22.7442 38.2469C22.8575 38.2036 22.9689 38.1575 23.0809 38.1131C23.1923 38.0686 23.3037 38.0253 23.4176 37.989C23.6476 37.9209 23.8716 37.8476 24.0963 37.7865C24.3256 37.7392 24.551 37.6924 24.7718 37.6474C24.8832 37.6307 24.9945 37.6191 25.1046 37.6088C25.2147 37.5978 25.3235 37.5886 25.4303 37.577C25.6433 37.5459 25.8543 37.562 26.0562 37.5586C26.2588 37.5615 26.4542 37.5511 26.6405 37.5811C26.8267 37.6024 27.0046 37.6226 27.1739 37.6417C27.3446 37.6538 27.497 37.7109 27.6448 37.7397C27.9379 37.8107 28.1946 37.8638 28.3913 37.9486C28.5906 38.023 28.7475 38.0819 28.8544 38.1217C28.9078 38.1419 28.9488 38.1575 28.9762 38.1673C29.0035 38.1777 29.0179 38.1829 29.0179 38.1829C29.0179 38.1829 28.9592 38.1661 28.8492 38.1338C28.7391 38.1021 28.5782 38.0548 28.373 37.9953C28.1731 37.9226 27.9138 37.8851 27.6207 37.8326C27.3309 37.7657 26.9928 37.753 26.6287 37.7242C26.447 37.7011 26.2555 37.719 26.0588 37.723C25.8621 37.7334 25.6576 37.7242 25.4518 37.7622C25.2453 37.7928 25.0317 37.8136 24.8174 37.8534C24.6044 37.9013 24.3875 37.9503 24.1667 37.9994C24.0579 38.0305 23.9498 38.064 23.841 38.0986C23.7322 38.1332 23.6228 38.169 23.5121 38.2031C23.4287 38.2313 23.3466 38.2648 23.2652 38.2977C23.4144 38.2625 23.5603 38.2348 23.7003 38.2129C23.841 38.1904 23.9758 38.1736 24.1028 38.1598C24.4481 38.1246 24.7379 38.1361 24.9392 38.1454C24.9893 38.1488 25.0343 38.1523 25.0733 38.1557C25.1899 38.1656 25.2538 38.1736 25.2538 38.1736C25.2538 38.1736 25.1391 38.1771 24.9405 38.1956C24.891 38.1984 24.8356 38.2031 24.7763 38.2088C24.5979 38.2273 24.3771 38.2596 24.1283 38.3023C23.7961 38.36 23.4189 38.4633 23.0281 38.5948C22.6367 38.7275 22.2374 38.9087 21.8681 39.1297C21.6805 39.2359 21.5008 39.3524 21.3301 39.4753C21.1601 39.5982 21.0005 39.728 20.854 39.8608C20.5628 40.1273 20.3055 40.3922 20.1147 40.6397C19.9245 40.8866 19.7727 41.1001 19.6816 41.2576C19.5845 41.4117 19.5344 41.504 19.5344 41.504C19.5344 41.504 19.5363 41.4977 19.5402 41.4861C19.5519 41.4504 19.5813 41.3644 19.6301 41.2374C19.6477 41.1959 19.6672 41.1497 19.6894 41.0995C19.7115 41.0494 19.7363 40.9951 19.7643 40.938C19.8203 40.8237 19.8893 40.6968 19.9766 40.5629C20.0769 40.4112 20.1955 40.2462 20.3322 40.0789C20.0509 40.3304 19.7838 40.5912 19.5721 40.8624C19.4367 41.0205 19.3337 41.2069 19.2054 41.3684C19.0869 41.5467 18.9319 41.6962 18.7782 41.8346C18.4642 42.1099 18.1014 42.2922 17.7634 42.437C17.424 42.5836 17.0938 42.673 16.8 42.7388C16.5063 42.8074 16.2451 42.8444 16.0308 42.8738C15.6003 42.9251 15.3521 42.924 15.3521 42.924C15.3521 42.924 15.599 42.9026 16.021 42.8247ZM44.9437 31.0161C44.9261 31.0934 44.9053 31.1626 44.8838 31.2261C44.7939 30.7385 44.736 30.2475 44.7145 29.7554C44.7119 29.6936 44.7151 29.6319 44.7132 29.5701C44.7607 29.644 44.8043 29.723 44.8402 29.8079C44.975 30.1102 45.0115 30.4489 44.9874 30.7414C44.9796 30.8389 44.9646 30.9313 44.9437 31.0161ZM13.7068 26.2721V26.3436C13.7023 26.3448 13.6971 26.3442 13.6925 26.3454C13.6625 26.3534 13.6345 26.365 13.6091 26.3788C13.5577 26.4065 13.514 26.4434 13.4756 26.4844C13.4567 26.5046 13.4385 26.5259 13.4215 26.5467C13.3877 26.59 13.3577 26.6362 13.3304 26.6835C13.303 26.7314 13.2783 26.781 13.2542 26.8317C13.1604 27.036 13.0861 27.2622 13.0229 27.5028C12.9917 27.6234 12.963 27.7474 12.9363 27.8744C12.9096 28.0013 12.8848 28.1317 12.8607 28.2638C12.8145 28.5287 12.7748 28.8027 12.7402 29.0814C12.7116 29.3642 12.6855 29.6584 12.6862 29.9492C12.6823 30.4472 12.7227 30.9405 12.7858 31.4107C12.7448 31.2521 12.709 31.0922 12.6784 30.9318C12.6478 30.7714 12.6224 30.6105 12.6015 30.4489C12.4765 29.4796 12.5142 28.4906 12.5852 27.5143C12.5924 27.4157 12.5996 27.3158 12.6106 27.2166C12.6308 27.0181 12.6621 26.8208 12.7207 26.6292C12.75 26.534 12.7865 26.44 12.8314 26.3488C12.8731 26.2657 12.9233 26.1844 12.9819 26.1082C13.0405 26.0315 13.107 25.9599 13.1812 25.8953C13.3291 25.7655 13.5069 25.6645 13.7062 25.6103L13.7068 26.2721ZM46.4164 31.6623C46.4092 31.6865 46.3988 31.7102 46.3917 31.7344C46.4145 31.5936 46.4353 31.45 46.4535 31.304C46.4718 31.1586 46.4881 31.0103 46.5011 30.8609C46.5271 30.5614 46.5408 30.2562 46.5382 29.9492C46.5382 29.6584 46.5128 29.3642 46.4841 29.0814C46.4496 28.8027 46.4099 28.5287 46.3636 28.2638C46.3395 28.1317 46.3148 28.0013 46.2881 27.8744C46.2614 27.7474 46.2327 27.6234 46.2015 27.5028C46.1383 27.2622 46.064 27.036 45.9709 26.8317C45.922 26.7296 45.8712 26.6333 45.8035 26.5461C45.7358 26.4619 45.653 26.3777 45.5325 26.3448C45.4107 26.3107 45.2961 26.3523 45.2258 26.4002C45.1587 26.4452 45.1092 26.4931 45.0688 26.5398C45.1613 26.2161 45.2753 25.8964 45.3651 25.5728C45.3925 25.5756 45.4205 25.5779 45.4453 25.5826C45.7866 25.6397 46.0718 25.837 46.2692 26.0857C46.335 26.1688 46.391 26.2576 46.4366 26.3488C46.4822 26.44 46.518 26.534 46.5473 26.6292C46.6353 26.9154 46.6607 27.2172 46.6828 27.5138C46.7838 28.9026 46.8228 30.3156 46.4164 31.6623Z" fill="#EACCB6"/>
<path d="M19.167 21.1876C19.167 21.1876 19.2491 21.1778 19.4028 21.1605C19.4412 21.1559 19.4842 21.1507 19.5317 21.1455C19.6731 21.1293 19.8542 21.108 20.0697 21.0831C20.1407 21.0745 20.2163 21.0647 20.2958 21.0549C20.6117 21.0151 20.9868 20.9701 21.4109 20.9262C21.7287 20.8939 22.0739 20.8627 22.4426 20.8368C23.4209 20.7543 24.5705 20.7075 25.7768 20.8327C26.0777 20.8587 26.3858 20.8979 26.7004 20.9395C27.015 20.9804 27.3374 21.0231 27.667 21.056C28.33 21.1224 29.0159 21.1241 29.6868 21.0814C31.0298 20.9706 32.3227 20.7121 33.5362 20.5835C34.7438 20.4283 35.8895 20.426 36.8652 20.5073C37.1094 20.5235 37.3432 20.5442 37.5654 20.5691C37.8982 20.606 38.2043 20.651 38.4798 20.6995C38.7547 20.7473 38.9983 20.7987 39.2067 20.8483C39.3468 20.8777 39.4712 20.9077 39.5793 20.9343C39.6874 20.9614 39.7786 20.9862 39.8522 21.007C40.0001 21.0485 40.0789 21.071 40.0789 21.071C40.0789 21.071 40.004 21.0399 39.8626 20.9816C39.7923 20.9527 39.705 20.9181 39.6014 20.8783C39.4972 20.8391 39.3774 20.7958 39.2412 20.7502C38.6961 20.5725 37.8949 20.3602 36.9042 20.2142C35.9136 20.0844 34.732 20.0307 33.4782 20.1317C33.1662 20.1594 32.8503 20.1946 32.5331 20.2338C31.5802 20.3504 30.6071 20.4975 29.6386 20.5598C28.9931 20.6117 28.3522 20.6216 27.7217 20.5702C27.0879 20.52 26.4542 20.4248 25.8224 20.381C24.5581 20.3106 23.387 20.4156 22.4015 20.546C22.1553 20.5835 21.9202 20.6221 21.6974 20.6608C21.3633 20.7191 21.0565 20.7779 20.7804 20.8327C20.5048 20.8875 20.2593 20.9395 20.0476 20.9833C19.9076 21.0156 19.7825 21.0445 19.6737 21.0699C19.565 21.0953 19.4718 21.1166 19.3969 21.1339C19.2471 21.1691 19.167 21.1876 19.167 21.1876Z" fill="#EACCB6"/>
<path d="M37.0905 22.5528C37.0442 22.5303 36.9856 22.5044 36.9159 22.4749C36.8462 22.4461 36.7655 22.4143 36.6736 22.3803C36.3043 22.2522 35.7513 22.1109 35.0687 22.0387C34.3855 21.9787 33.5824 21.9908 32.7363 22.0543C31.8928 22.1339 31.0063 22.2539 30.1277 22.3122C29.69 22.3526 29.2529 22.3757 28.8243 22.3734C28.3958 22.3688 27.9711 22.3376 27.5594 22.2966C26.7322 22.2303 25.9506 22.1293 25.2739 22.0803C24.5952 22.0428 24.0253 22.0572 23.6312 22.0912C23.5817 22.0958 23.5355 22.1016 23.4918 22.1062C23.3609 22.1218 23.2554 22.1385 23.1772 22.1524C23.1251 22.161 23.0854 22.1674 23.0587 22.1714C23.032 22.176 23.0183 22.1778 23.0183 22.1778C23.0183 22.1778 23.0216 22.1778 23.0287 22.1778C23.0424 22.1778 23.0698 22.1778 23.1102 22.1778C23.1303 22.1778 23.1538 22.1778 23.1798 22.1778C23.2847 22.1766 23.4391 22.1789 23.6345 22.1911C24.0246 22.2037 24.5783 22.2551 25.2335 22.3705C25.8927 22.4651 26.6547 22.6186 27.495 22.7455C27.9164 22.7992 28.3573 22.8436 28.812 22.8604C29.266 22.8748 29.7264 22.8627 30.1817 22.8327C31.0897 22.7484 31.9742 22.6042 32.7995 22.5049C33.6208 22.3855 34.3907 22.3209 35.0518 22.3324C35.7136 22.3232 36.2639 22.3953 36.6417 22.4767C36.8319 22.513 36.9817 22.5476 37.0814 22.5765C37.1068 22.5834 37.1289 22.5898 37.1484 22.5944C37.2058 22.6105 37.2364 22.6186 37.2364 22.6186C37.2364 22.6186 37.1836 22.5961 37.0905 22.5528Z" fill="#EACCB6"/>
</svg>
