<svg width="66" height="60" viewBox="0 0 66 60" fill="none" xmlns="http://www.w3.org/2000/svg">
<path d="M44.4291 54.5389C44.4291 53.9045 43.8085 53.3219 43.042 53.2493C36.2964 52.6994 29.5024 52.6994 22.7568 53.2493C21.9903 53.3219 21.3696 53.9045 21.3696 54.5389C21.3696 54.6252 21.3696 54.7109 21.3696 54.7972V55.6327L21.6734 59.8652C21.6973 60.0449 22.2958 60.0449 22.3197 59.8652L22.7478 56.4058C22.7699 56.2409 23.0007 56.2409 23.0228 56.4058L23.4509 59.8652C23.4749 60.0449 23.7254 60.0449 23.7493 59.8652L24.178 56.4058C24.2001 56.2409 24.4309 56.2409 24.453 56.4058L24.8817 59.8652C24.9056 60.0449 25.1562 60.0449 25.1801 59.8652L25.6082 56.4058C25.6303 56.2409 25.8617 56.2409 25.8832 56.4058L26.3119 59.8652C26.3358 60.0449 26.5864 60.0449 26.6103 59.8652L27.039 56.4058C27.0611 56.2409 27.2919 56.2409 27.314 56.4058L27.7427 59.8652C27.7666 60.0449 28.0172 60.0449 28.0411 59.8652L28.4698 56.4058C28.4919 56.2409 28.7227 56.2409 28.7448 56.4058L29.1735 59.8652C29.1974 60.0449 29.4479 60.0449 29.4719 59.8652L29.9006 56.4058C29.9227 56.2409 30.1535 56.2409 30.1756 56.4058L30.6043 59.8652C30.6282 60.0449 30.8787 60.0449 30.9027 59.8652L31.3314 56.4058C31.3535 56.2409 31.5843 56.2409 31.6064 56.4058L32.0345 59.8652C32.0584 60.0449 32.3089 60.0449 32.3329 59.8652L32.7615 56.4058C32.7837 56.2409 33.0145 56.2409 33.0366 56.4058L33.4653 59.8652C33.4892 60.0449 33.7397 60.0449 33.7636 59.8652L34.1923 56.4058C34.2145 56.2409 34.4453 56.2409 34.4674 56.4058L34.8961 59.8652C34.92 60.0449 35.1705 60.0449 35.1944 59.8652L35.6231 56.4058C35.6453 56.2409 35.876 56.2409 35.8982 56.4058L36.3269 59.8652C36.3508 60.0449 36.6013 60.0449 36.6252 59.8652L37.0539 56.4058C37.076 56.2409 37.3068 56.2409 37.329 56.4058L37.7577 59.8652C37.7816 60.0449 38.0321 60.0449 38.056 59.8652L38.4847 56.4058C38.5068 56.2409 38.7376 56.2409 38.7598 56.4058L39.1885 59.8652C39.2124 60.0449 39.4629 60.0449 39.4868 59.8652L39.9155 56.4058C39.9376 56.2409 40.169 56.2409 40.1905 56.4058L40.6192 59.8652C40.6432 60.0449 40.8937 60.0449 40.9176 59.8652L41.3463 56.4058C41.3684 56.2409 41.5998 56.2409 41.6213 56.4058L42.05 59.8652C42.074 60.0449 42.3245 60.0449 42.3484 59.8652L42.7771 56.4058C42.7992 56.2409 43.0306 56.2409 43.0521 56.4058L43.4808 59.8652C43.5047 60.0449 44.1032 60.0449 44.1272 59.8652L44.4309 55.6327V54.7972C44.4291 54.7109 44.4291 54.6252 44.4291 54.5389ZM41.4097 54.8781C41.1544 54.9097 40.8453 54.9478 40.4907 54.9918C40.1343 55.0263 39.7325 55.065 39.2937 55.1067C38.8554 55.1525 38.3783 55.1787 37.8737 55.212C37.6219 55.2269 37.363 55.2471 37.0976 55.2596C36.8327 55.2709 36.5618 55.281 36.2862 55.2929C35.7349 55.3167 35.1651 55.3334 34.5858 55.3394C34.0064 55.3524 33.418 55.3501 32.8297 55.3501C32.2414 55.3513 31.6536 55.331 31.0743 55.3227C30.4955 55.309 29.9263 55.284 29.375 55.2614C28.8243 55.2346 28.2922 55.2096 27.7882 55.1745C27.5358 55.1584 27.2913 55.1424 27.0539 55.1269C26.8172 55.1085 26.5882 55.0894 26.3687 55.0727C25.9293 55.0406 25.5275 54.999 25.1711 54.9656C24.8154 54.9281 24.5057 54.896 24.2497 54.8692C23.9944 54.8424 23.7941 54.8163 23.6578 54.799C23.5215 54.7817 23.4491 54.7722 23.4491 54.7722C23.4491 54.7722 23.7421 54.7895 24.2551 54.8204C24.7675 54.8525 25.5012 54.8865 26.3807 54.9269C26.8201 54.9448 27.2967 54.965 27.8007 54.9853C28.3042 55.0079 28.8363 55.0174 29.3858 55.0382C29.9352 55.0507 30.5039 55.0632 31.0808 55.0763C31.6584 55.0817 32.2444 55.0989 32.8315 55.0948C33.4175 55.0971 34.0046 55.1037 34.5816 55.093C34.8704 55.0906 35.1568 55.0876 35.4402 55.0852C35.723 55.0823 36.0016 55.0733 36.2767 55.068C36.5517 55.0614 36.8219 55.0561 37.0868 55.0495C37.3511 55.0436 37.6094 55.0305 37.8617 55.0216C38.3651 54.9995 38.8423 54.99 39.2805 54.9603C39.72 54.9371 40.1224 54.9162 40.4799 54.8972C40.8369 54.8704 41.1472 54.8472 41.4031 54.8287C41.9155 54.7924 42.2091 54.7722 42.2091 54.7722C42.2091 54.7722 41.9173 54.8103 41.4097 54.8781ZM27.3642 54.5151C27.3642 54.5151 27.537 54.527 27.839 54.5496C28.1415 54.5705 28.5738 54.5937 29.0922 54.6187C29.6112 54.646 30.2163 54.6633 30.865 54.6806C31.5137 54.6996 32.2061 54.7062 32.8985 54.702C33.2447 54.7068 33.5902 54.6984 33.9317 54.6972C34.2719 54.6954 34.6073 54.683 34.932 54.6758C35.256 54.6657 35.5693 54.6556 35.8671 54.646C36.1642 54.6383 36.4453 54.6228 36.7042 54.6092C36.9636 54.5967 37.2016 54.5847 37.4127 54.574C37.6237 54.5615 37.8067 54.5502 37.958 54.5401C38.2611 54.5241 38.4339 54.5139 38.4339 54.5139C38.4339 54.5139 38.2623 54.5342 37.9615 54.5693C37.8109 54.5859 37.6279 54.6068 37.4186 54.63C37.2082 54.6538 36.9714 54.6716 36.7119 54.6931C36.4524 54.7139 36.172 54.7383 35.8743 54.7544C35.5765 54.771 35.2632 54.7966 34.9379 54.8055C34.6127 54.8157 34.2772 54.8311 33.9352 54.8371C33.5932 54.8412 33.2465 54.8531 32.8991 54.8514C32.2049 54.8478 31.5101 54.8353 30.8602 54.8097C30.5349 54.8014 30.221 54.7776 29.9233 54.7621C29.6255 54.7413 29.3445 54.724 29.0856 54.7026C28.5672 54.6639 28.1373 54.6109 27.836 54.5776C27.5352 54.5419 27.3642 54.5151 27.3642 54.5151ZM42.8823 53.6778C42.682 53.6701 42.3873 53.6623 42.0136 53.6445C41.6393 53.632 41.1849 53.6159 40.6635 53.5975C40.1427 53.5844 39.5544 53.5689 38.9128 53.5528C38.2719 53.5403 37.5771 53.5266 36.8423 53.5124C36.1068 53.5034 35.3326 53.4987 34.5314 53.4951C33.7296 53.4915 32.9015 53.4993 32.0602 53.5058C31.219 53.5142 30.3645 53.5296 29.5101 53.5522C28.6557 53.5725 27.8019 53.5986 26.9613 53.6326C26.1212 53.6689 25.2937 53.701 24.4943 53.7445C24.0943 53.7623 23.7015 53.7909 23.3164 53.8105C23.2201 53.8159 23.1245 53.8206 23.0294 53.826C22.9858 53.829 22.9254 53.8302 22.8955 53.8343C22.8506 53.8403 22.7962 53.8427 22.7598 53.8504C22.6019 53.8748 22.4375 53.926 22.3065 54.0016C22.0339 54.1497 21.885 54.4122 21.8414 54.6829C21.8288 54.7502 21.8252 54.8198 21.8222 54.8877C21.8222 54.9609 21.8228 55.0335 21.8234 55.1055C21.824 55.2495 21.8246 55.3911 21.8252 55.5298C21.833 56.6373 21.8199 57.5609 21.8199 58.2072C21.8163 58.5303 21.8133 58.7845 21.8109 58.9576C21.8085 59.1308 21.8067 59.223 21.8067 59.223C21.8067 59.223 21.8001 59.1308 21.7882 58.9582C21.7762 58.785 21.7595 58.5315 21.7385 58.2084C21.7027 57.5627 21.6387 56.6397 21.5849 55.5328C21.5777 55.3947 21.5705 55.2531 21.5634 55.109C21.5598 55.037 21.5562 54.9644 21.552 54.8912C21.5514 54.8115 21.5526 54.7329 21.5634 54.6532C21.5837 54.4925 21.6339 54.3283 21.7272 54.1747C21.8187 54.0206 21.9592 53.8819 22.1302 53.7796C22.303 53.676 22.4937 53.61 22.706 53.5719C22.761 53.56 22.8022 53.5582 22.8506 53.551C22.9146 53.5421 22.9505 53.5421 23.0013 53.5374C23.0964 53.5296 23.1921 53.5225 23.2889 53.5147C23.674 53.4856 24.0674 53.454 24.4686 53.4297C25.2704 53.3767 26.0991 53.3243 26.9415 53.288C27.7846 53.2505 28.6414 53.219 29.4982 53.1964C30.3556 53.1779 31.213 53.166 32.0572 53.1624C32.9009 53.1577 33.732 53.1696 34.5355 53.1821C35.3397 53.1946 36.1158 53.2214 36.8518 53.2475C37.5873 53.2779 38.2826 53.3106 38.9242 53.3499C39.5657 53.382 40.1529 53.4314 40.6731 53.4671C41.1932 53.5094 41.6465 53.5469 42.0195 53.5772C42.3926 53.61 42.6844 53.6409 42.8841 53.66C43.0838 53.6796 43.1902 53.6903 43.1902 53.6903C43.1902 53.6903 43.0832 53.6849 42.8823 53.6778Z" fill="#EACCB6"/>
<path d="M26.4478 47.1542C27.9749 45.7705 30.119 43.7519 32.4 41.5786C32.2995 41.4833 32.1997 41.3875 32.0992 41.2917C31.9719 41.4167 31.8475 41.5405 31.716 41.6672C30.6876 42.6617 29.5838 43.715 28.4735 44.7624C27.6251 45.5307 26.7773 46.299 25.9587 47.0399C25.6861 47.2869 25.4164 47.5309 25.1516 47.7713C24.8855 48.0099 24.6224 48.2432 24.3635 48.4705C23.5874 49.1514 22.8508 49.7762 22.2033 50.3404C21.4469 50.9962 20.7844 51.5383 20.2888 51.9525C20.2182 52.012 20.1507 52.068 20.0873 52.1221C19.9581 52.2281 19.8421 52.3221 19.7417 52.4048C19.5408 52.5685 19.4003 52.6839 19.3285 52.7423C19.2927 52.772 19.2741 52.7869 19.2741 52.7869C19.2741 52.7869 19.426 52.6351 19.7022 52.3608C19.7943 52.2697 19.9001 52.1644 20.0185 52.0472C20.1387 51.9317 20.2708 51.8026 20.4149 51.6615C20.559 51.5211 20.7145 51.3681 20.8801 51.2057C21.2125 50.8807 21.5892 50.5153 22.0054 50.1232C22.6308 49.5358 23.325 48.8651 24.0753 48.1563C24.3258 47.9207 24.5818 47.6802 24.8442 47.4374C25.8882 46.4614 27.0021 45.4206 28.116 44.3803C28.6786 43.8662 29.2394 43.3502 29.7895 42.8402C30.3396 42.3314 30.8801 41.8279 31.4009 41.3393C31.5288 41.2191 31.6532 41.1037 31.78 40.9858C30.9046 40.1485 30.0281 39.3064 29.1773 38.4875C26.7653 40.7537 24.5291 42.8717 23.0613 44.3C22.8347 44.5208 22.6146 44.7338 22.3916 44.9505C22.168 45.1671 21.9408 45.3879 21.722 45.6009C21.4027 45.9104 21.093 46.2103 20.7928 46.5025C20.4861 46.8013 20.1889 47.0911 19.9025 47.372C19.478 47.7879 19.0768 48.1843 18.699 48.5616C18.3253 48.9353 17.9755 49.29 17.6496 49.6268C17.5366 49.7441 17.426 49.8595 17.3184 49.972C17.2143 50.0815 17.1127 50.188 17.0146 50.294C16.62 50.7153 16.2702 51.1045 15.9677 51.4646C15.5133 52.0037 15.1635 52.475 14.925 52.8845C14.7653 53.1576 14.6559 53.4028 14.5973 53.6218C14.5824 53.6766 14.571 53.7301 14.5626 53.7813C14.5214 54.0396 14.5608 54.2568 14.6846 54.4377C14.6942 54.4514 14.7043 54.4639 14.7157 54.4758C14.7354 54.4954 14.7587 54.5115 14.7839 54.5246C14.809 54.5365 14.8359 54.5454 14.864 54.5496C14.8765 54.5514 14.8891 54.5526 14.9016 54.5526C14.9178 54.5526 14.9327 54.5466 14.9489 54.5442C14.959 54.5419 14.9698 54.5419 14.9794 54.5383C15.0111 54.5282 15.0416 54.5145 15.0679 54.4931C15.1067 54.4609 15.7082 53.97 16.7121 53.1505C15.9103 54.0265 15.3901 54.5942 15.249 54.749C15.2287 54.771 15.2167 54.7853 15.212 54.7894C15.1641 54.8418 15.1396 54.9108 15.1438 54.9817C15.1456 55.0132 15.154 55.0441 15.1671 55.0727C15.1797 55.1013 15.1982 55.1275 15.2203 55.1495C15.2251 55.1542 15.2299 55.159 15.2353 55.1632C15.2753 55.1977 15.3178 55.2268 15.362 55.2524C15.3764 55.2608 15.3919 55.2667 15.4069 55.2744C15.4374 55.2899 15.4691 55.3054 15.5013 55.3173C15.5199 55.3244 15.5396 55.3292 15.5587 55.3346C15.5898 55.3441 15.6215 55.3518 15.6538 55.3584C15.6753 55.3619 15.6969 55.3649 15.7184 55.3679C15.7513 55.372 15.7853 55.3744 15.8194 55.3756C15.8326 55.3762 15.8445 55.3786 15.8571 55.3786C15.8643 55.3786 15.8726 55.3762 15.8798 55.3762C15.9605 55.375 16.0448 55.3667 16.1333 55.3506C16.1483 55.3476 16.165 55.3441 16.1806 55.3405C16.275 55.3209 16.3719 55.2965 16.4753 55.2608L16.4777 55.2596C16.5812 55.2239 16.6906 55.1786 16.803 55.128C16.8215 55.1197 16.8395 55.1126 16.858 55.1036C16.968 55.0525 17.0828 54.9935 17.2012 54.9287C17.2245 54.9162 17.2484 54.9019 17.2717 54.8888C17.3937 54.8204 17.5193 54.7466 17.6502 54.6633C17.6658 54.6532 17.6819 54.643 17.698 54.6323C17.8266 54.5502 17.9599 54.4615 18.0981 54.3663C18.1142 54.3544 18.1303 54.3449 18.1465 54.333C18.2894 54.233 18.4383 54.1253 18.5913 54.0122C18.6206 53.9902 18.6499 53.9688 18.6798 53.9462C18.8323 53.8325 18.9889 53.7117 19.151 53.5855C19.1791 53.5635 19.2078 53.5403 19.2359 53.5183C19.4069 53.3832 19.5809 53.2433 19.7626 53.0951C19.7632 53.094 19.7644 53.0934 19.7656 53.0928C19.9474 52.944 20.1357 52.7857 20.3282 52.6238C20.3605 52.5964 20.3922 52.5703 20.4245 52.5429C20.6105 52.3846 20.8024 52.2209 20.9985 52.0513C21.0368 52.0174 21.0762 51.9841 21.1151 51.9501C21.3154 51.7764 21.5193 51.5985 21.7297 51.4134C21.7572 51.3884 21.7865 51.3628 21.8146 51.3378C22.0197 51.1569 22.229 50.9712 22.4442 50.779C22.4711 50.7552 22.4969 50.732 22.5244 50.7076C22.748 50.5082 22.9776 50.3011 23.2119 50.0904C23.2628 50.044 23.3142 49.9982 23.3662 49.9512C23.5958 49.7435 23.8308 49.5316 24.0711 49.3132C24.1232 49.2662 24.1764 49.218 24.229 49.1704C24.4711 48.9508 24.7169 48.727 24.9698 48.4973C24.9782 48.489 24.9865 48.4824 24.9949 48.4747C25.4696 48.0421 25.9539 47.6011 26.4478 47.1542Z" fill="#EACCB6"/>
<path d="M46.317 29.0368C46.4629 28.9249 46.6088 28.813 46.7565 28.7023C46.7708 28.6916 46.7858 28.6809 46.7995 28.6696C46.9544 28.5548 47.1098 28.4411 47.2659 28.3286C47.2994 28.3048 47.3328 28.2804 47.3669 28.2566C47.523 28.1447 47.6796 28.0346 47.8381 27.9269C47.8614 27.9114 47.8847 27.896 47.9074 27.8805C48.0557 27.7799 48.2052 27.6811 48.3553 27.5847C48.3798 27.5693 48.4043 27.5532 48.4288 27.5371C48.5885 27.4353 48.7493 27.336 48.9107 27.2396C48.946 27.2187 48.9801 27.1979 49.0154 27.1771C49.1798 27.0801 49.3448 26.9854 49.511 26.8944C49.5254 26.8861 49.5409 26.8783 49.5559 26.8706C49.7131 26.7849 49.871 26.7034 50.0306 26.6242C50.0611 26.6087 50.0922 26.5933 50.1227 26.5778C50.2877 26.4969 50.4539 26.4201 50.6207 26.3469C50.6554 26.332 50.6889 26.3177 50.7236 26.3029C50.8952 26.2291 51.068 26.1582 51.242 26.0934C51.2432 26.0928 51.2444 26.0928 51.2456 26.0922C51.419 26.0279 51.5941 25.969 51.7693 25.9143C51.8046 25.9029 51.8393 25.8922 51.8746 25.8815C52.045 25.8303 52.2166 25.7833 52.3887 25.7423C52.4204 25.7345 52.4515 25.7286 52.4832 25.7208C52.6482 25.6827 52.8145 25.6494 52.9813 25.6215C52.9986 25.6185 53.0166 25.6149 53.0339 25.6119C53.2097 25.584 53.3867 25.5637 53.5636 25.5477C53.6013 25.5441 53.639 25.5405 53.6761 25.5381C53.8524 25.525 54.0294 25.5167 54.2076 25.5155C54.2375 25.5155 54.2674 25.5173 54.2967 25.5173C54.4318 25.5185 54.5663 25.5239 54.702 25.5328C54.7433 25.5358 54.7852 25.5381 54.8264 25.5417C54.9878 25.5554 55.1487 25.5732 55.3107 25.5982C55.3304 25.6012 55.3508 25.606 55.3711 25.6095C55.5158 25.6334 55.6605 25.6625 55.8058 25.6958C55.8488 25.706 55.8931 25.7161 55.9361 25.7268C56.1 25.7679 56.265 25.8131 56.43 25.8672H56.4306C56.4354 25.869 56.4402 25.8702 56.4449 25.8714C56.5448 25.9 56.6458 25.9267 56.7499 25.9505C56.9155 25.9892 57.0859 26.019 57.2569 26.0446C57.2994 26.0511 57.3424 26.0571 57.3861 26.0624C57.5565 26.0844 57.7281 26.1029 57.9021 26.1124C57.9032 26.113 57.905 26.113 57.9062 26.113C58.039 26.1202 58.1717 26.1237 58.3056 26.1237C58.3493 26.1237 58.3935 26.1213 58.4378 26.1202C58.482 26.1196 58.5257 26.1184 58.5705 26.1166C58.7481 26.11 58.9263 26.0999 59.1056 26.0815C59.1068 26.0809 59.108 26.0809 59.1092 26.0809C59.2898 26.0618 59.4704 26.0345 59.6515 26.0029C59.6964 25.9952 59.7406 25.9875 59.7861 25.9785C59.9672 25.944 60.1478 25.9059 60.3284 25.8583L60.3296 25.8577C60.5101 25.8107 60.6901 25.7553 60.8689 25.6964C60.9137 25.6816 60.958 25.6667 61.0028 25.6512C61.1822 25.5887 61.3603 25.5227 61.5367 25.4477L61.5373 25.4471C62.134 25.1954 62.6913 24.8841 63.1959 24.5241C64.0372 23.9248 64.7337 23.1898 65.227 22.3692C65.3855 22.1061 65.5194 21.8395 65.6294 21.5717C65.7023 21.3932 65.7651 21.2141 65.8172 21.0355C65.8429 20.9463 65.8656 20.8564 65.8859 20.7671C65.9678 20.4095 66.0055 20.053 65.9995 19.7019C65.9977 19.6049 65.9917 19.5091 65.984 19.4132C65.9475 18.9872 65.8446 18.5706 65.6742 18.1719C65.5732 17.935 65.45 17.7094 65.3053 17.497C65.1606 17.2845 64.9944 17.0846 64.8079 16.8983C64.6883 16.7793 64.5597 16.6656 64.4234 16.5591C64.2877 16.452 64.1442 16.352 63.9935 16.2592C63.8823 16.1901 63.7681 16.1259 63.6509 16.0658C63.6127 16.0461 63.5726 16.0289 63.5337 16.0098C63.4536 15.9711 63.3735 15.9325 63.2922 15.8973C63.2437 15.8765 63.1941 15.8593 63.1451 15.8396C63.0692 15.8099 62.9938 15.7801 62.9167 15.7533C62.8629 15.7355 62.8085 15.7194 62.7547 15.7027C62.6793 15.6789 62.604 15.6557 62.5275 15.6349C62.4701 15.62 62.4127 15.6069 62.3547 15.5932C62.2787 15.5754 62.2028 15.5569 62.1257 15.5421C62.0653 15.5302 62.0049 15.52 61.9439 15.5099C61.8674 15.4968 61.7902 15.4843 61.7125 15.4736C61.6503 15.4653 61.5869 15.4587 61.5242 15.4516C61.4458 15.4433 61.3681 15.4355 61.2898 15.4302C61.2258 15.4254 61.1606 15.4218 61.0961 15.4189C61.0177 15.4153 60.9388 15.4129 60.8593 15.4117C60.8258 15.4111 60.7941 15.4088 60.7607 15.4088C60.7242 15.4088 60.6859 15.4111 60.6494 15.4117C60.5873 15.4123 60.5257 15.4141 60.4635 15.4165C60.3876 15.4195 60.3116 15.4242 60.2357 15.429C60.1741 15.4332 60.1119 15.4373 60.0503 15.4433C59.9726 15.4504 59.8949 15.4593 59.8172 15.4689C59.7556 15.476 59.6946 15.4831 59.633 15.4927C59.5535 15.504 59.4745 15.5177 59.3956 15.5319C59.3352 15.5427 59.2754 15.5528 59.2145 15.5647C59.1331 15.5807 59.0518 15.5998 58.9705 15.6182C58.9119 15.6319 58.8545 15.6444 58.7959 15.6587C58.711 15.6801 58.6255 15.7045 58.54 15.7289C58.4856 15.7444 58.4312 15.7587 58.3774 15.7753C58.2835 15.8039 58.1902 15.836 58.097 15.8682C58.0515 15.8836 58.0061 15.8979 57.96 15.914C57.8225 15.9646 57.6844 16.0176 57.5481 16.0753L57.5469 16.0759C57.5451 16.0765 57.5439 16.0771 57.5427 16.0777C56.1107 16.6823 54.9179 17.6249 54.1173 18.7723C54.0031 18.936 53.8967 19.1044 53.7986 19.2764C53.7747 19.2984 53.7538 19.3258 53.7382 19.3573C53.5863 19.6745 53.4297 19.9923 53.2647 20.3077C52.9346 20.9379 52.5705 21.5574 52.1412 22.1424C51.9272 22.4352 51.6958 22.7191 51.4446 22.9911C50.4396 24.0789 49.111 24.9793 47.2061 25.4971C46.7116 25.6316 46.2524 25.7565 45.8255 25.872C45.8716 25.7256 45.9194 25.5721 45.9678 25.4179C46.1729 24.7639 46.3983 24.0432 46.6488 23.2458C46.8778 22.5179 47.1935 21.8621 47.5732 21.27C47.7 21.0724 47.8339 20.8826 47.9738 20.6993C48.2542 20.3321 48.5592 19.9929 48.8826 19.6781C49.2061 19.3633 49.5475 19.0729 49.9009 18.8045C51.3131 17.7327 52.9083 17.0161 54.2482 16.4972C54.2668 16.4913 54.2943 16.4823 54.3212 16.4734C54.3768 16.4556 54.4318 16.4377 54.4862 16.4163C54.5179 16.4038 54.549 16.3895 54.5801 16.3746C54.5974 16.3663 54.6147 16.3585 54.6327 16.3508L54.6698 16.3371L54.7607 16.3032C54.7756 16.2978 54.7869 16.2883 54.8001 16.2806C54.8127 16.2729 54.8276 16.2675 54.8384 16.258C54.9221 16.2193 55.0028 16.1729 55.0853 16.1306C55.9577 15.6795 56.7672 15.0273 57.444 14.2221C57.691 13.9287 57.9206 13.6157 58.1293 13.2854C58.5902 12.5582 58.9328 11.7839 59.1475 11.0008C59.3615 10.2182 59.4482 9.4261 59.3956 8.66317C59.3849 8.50665 59.3687 8.35252 59.3466 8.20136C59.2808 7.74789 59.1636 7.32059 58.9986 6.92484C58.8294 6.52076 58.6106 6.15477 58.3457 5.83222C58.2578 5.72451 58.1639 5.62156 58.0659 5.52396C57.9887 5.44779 57.9074 5.37518 57.8237 5.30615C57.7394 5.23712 57.6527 5.17106 57.5642 5.10797C57.5774 5.05858 57.5935 5.00383 57.6109 4.94432C57.7328 4.52655 57.9379 3.87193 58.1914 3.25956C58.3989 2.75788 58.5998 2.42581 58.7588 2.1949C58.839 2.07945 58.9077 1.98959 58.9621 1.9158C59.0171 1.84201 59.056 1.78488 59.0763 1.73548C59.0967 1.68609 59.1038 1.64027 59.0931 1.59563C59.0817 1.551 59.0542 1.50696 59.004 1.46173C58.9035 1.37127 58.717 1.27367 58.4091 1.14751C58.3307 1.11537 58.259 1.0874 58.1938 1.0636C58.1717 1.05526 58.1544 1.04991 58.1334 1.04336C58.0928 1.02908 58.0509 1.0148 58.0151 1.00409C57.9941 0.997544 57.9762 0.993968 57.957 0.989207C57.9272 0.981471 57.8961 0.973146 57.8698 0.968385C57.8518 0.964815 57.8363 0.964219 57.8201 0.961838C57.7974 0.958863 57.7747 0.955291 57.755 0.955291C57.752 0.955291 57.7472 0.954102 57.7442 0.954102C57.7299 0.954102 57.7179 0.957075 57.7053 0.95886C57.6928 0.96005 57.6802 0.960647 57.6695 0.963028C57.6545 0.966599 57.642 0.97255 57.6294 0.978501C57.6204 0.982072 57.6115 0.985046 57.6043 0.989807C57.5917 0.998138 57.581 1.00885 57.5702 1.02015C57.5654 1.02551 57.5594 1.02968 57.5553 1.03504C57.5415 1.05289 57.5295 1.07371 57.5194 1.09811C57.4375 1.29569 57.4859 1.79678 57.071 2.80073C57.0369 2.88285 57.0022 2.96498 56.9657 3.04651C56.894 3.20957 56.8198 3.37025 56.7451 3.52379C56.671 3.67792 56.5974 3.82492 56.5275 3.9606C56.4222 4.16473 56.3254 4.34385 56.2476 4.48371C56.1209 4.45038 55.9923 4.42478 55.862 4.40336C55.8327 4.3986 55.8034 4.39384 55.7741 4.38967C55.6461 4.37123 55.517 4.35694 55.3873 4.3498C55.3687 4.34921 55.3496 4.34921 55.3316 4.34802C55.2635 4.34505 55.1953 4.34206 55.126 4.34206C55.0865 4.34206 55.0453 4.34563 55.0052 4.34682C54.9526 4.34801 54.8994 4.3498 54.8462 4.35337C54.7535 4.35873 54.6608 4.36706 54.5681 4.37777C54.5179 4.38372 54.4689 4.38848 54.4186 4.39562C54.3086 4.4111 54.1986 4.43193 54.088 4.45455C54.0557 4.46109 54.024 4.46585 53.9917 4.47299C53.8494 4.50513 53.7071 4.54322 53.5654 4.58666C53.5295 4.59797 53.4931 4.61165 53.4572 4.62356C53.3508 4.65867 53.245 4.69557 53.1391 4.73663C53.0889 4.75627 53.0393 4.77769 52.989 4.79911C52.8976 4.8378 52.8055 4.87826 52.7146 4.92111C52.6614 4.94611 52.6094 4.97229 52.5568 4.99847C52.4671 5.04429 52.3774 5.0925 52.2889 5.14249C52.2387 5.17046 52.1891 5.19843 52.1394 5.22818C52.0414 5.28651 51.9445 5.34899 51.8482 5.41327C51.81 5.43826 51.7711 5.46207 51.734 5.48825C51.6007 5.5799 51.4692 5.6763 51.34 5.77866C51.3179 5.79592 51.2964 5.81556 51.2748 5.83341C51.1678 5.9197 51.0632 6.00838 50.9592 6.10122C50.9167 6.13931 50.8749 6.17977 50.833 6.21964C50.7511 6.29641 50.671 6.37438 50.5914 6.45531C50.546 6.50173 50.5018 6.54874 50.4569 6.59635C50.3816 6.67669 50.308 6.75881 50.2351 6.84332C50.1926 6.89271 50.1502 6.94211 50.1077 6.9927C50.0318 7.08494 49.9583 7.18015 49.8853 7.27656C49.8506 7.32238 49.816 7.36643 49.7819 7.41344C49.6772 7.55746 49.5762 7.70444 49.4793 7.85738C49.4793 7.85738 49.4781 7.85858 49.4775 7.85977C48.9998 8.61437 48.6518 9.41598 48.4414 10.2241C48.4115 10.3396 48.384 10.455 48.3601 10.5705C48.311 10.8014 48.274 11.0323 48.2482 11.2632C48.1705 11.9535 48.1968 12.6355 48.3331 13.283C48.3343 13.2908 48.3355 13.2985 48.3373 13.3056C48.3373 13.3068 48.3391 13.3134 48.3397 13.3169C48.9095 15.8652 48.0677 16.8305 47.0889 17.7422C47.0237 17.8029 46.9574 17.8636 46.8916 17.9243C46.7266 18.076 46.5598 18.229 46.3989 18.3891C46.0766 18.7104 45.7747 19.0621 45.5463 19.4954C45.4327 19.712 45.3364 19.9494 45.2653 20.2137C44.9849 21.2569 44.7469 21.933 44.4814 22.4567C44.4055 22.606 44.3272 22.7435 44.2453 22.8732C44.0599 23.1678 43.8542 23.4249 43.6109 23.7022C43.532 23.7915 43.4506 23.8831 43.3639 23.979C43.3048 24.0444 43.2432 24.1117 43.1792 24.1819C43.0925 24.2771 43.0004 24.3777 42.9047 24.4836C42.7876 24.6133 42.6417 24.774 42.4683 24.965C42.2955 25.1555 42.0952 25.3757 41.8704 25.6226C41.758 25.7464 41.6396 25.8762 41.5152 26.013C40.1472 27.5151 38.0695 29.7902 35.6707 32.4158C35.007 33.0336 34.3122 33.681 33.6013 34.344C33.7711 34.5029 33.9415 34.6618 34.1125 34.8219C34.2154 34.7023 34.3361 34.5564 34.4755 34.3898C34.5466 34.3047 34.6225 34.2143 34.7039 34.1202C34.7846 34.0256 34.8695 33.9262 34.9598 33.8233C35.0495 33.7209 35.1433 33.6132 35.2396 33.5025C35.3358 33.3906 35.4351 33.2758 35.5379 33.1579C35.743 32.9223 35.9595 32.6735 36.1867 32.4188C36.6387 31.9076 37.1272 31.3684 37.6163 30.8293C38.1089 30.2937 38.601 29.7575 39.0698 29.2612C39.303 29.0118 39.5308 28.7732 39.7472 28.5476C39.9642 28.3221 40.1699 28.1096 40.3577 27.912C40.7344 27.5163 41.0608 27.1985 41.2832 26.97C41.5098 26.7456 41.6396 26.6177 41.6396 26.6177C41.6396 26.6177 41.5236 26.7581 41.3209 27.0039C41.2695 27.0646 41.2127 27.1318 41.1511 27.2056C41.0279 27.3526 40.885 27.5246 40.7236 27.7139C40.6423 27.8085 40.5574 27.9079 40.4671 28.0108C40.198 28.3191 39.8979 28.6684 39.5732 29.0392C39.465 29.1624 39.3544 29.2885 39.2408 29.4159C38.7888 29.9271 38.2997 30.4657 37.8106 31.0048C37.5642 31.2726 37.3179 31.5404 37.074 31.8035C36.8312 32.0665 36.5908 32.3248 36.3571 32.5729C35.8907 33.0716 35.4453 33.5263 35.0686 33.9227C34.7858 34.219 34.5329 34.4719 34.3296 34.6767C34.2644 34.7421 34.2052 34.8022 34.1508 34.8576C35.0333 35.6824 35.929 36.5203 36.8091 37.3463C38.2291 35.977 39.5828 34.6665 40.7493 33.5352C41.1547 33.205 41.5415 32.8901 41.9068 32.5926C42.7595 31.8981 43.4961 31.2988 44.0832 30.8221C44.2506 30.6858 44.4061 30.5597 44.5484 30.4442C44.8336 30.2133 45.0662 30.0247 45.2402 29.8842C45.3879 29.7652 45.5373 29.6462 45.6868 29.5266C45.7191 29.5016 45.7502 29.476 45.7825 29.451C45.9308 29.3338 46.0796 29.2171 46.2297 29.1011C46.2614 29.079 46.2895 29.0576 46.317 29.0368ZM45.0883 29.1606L45.0716 29.1796C45.0494 29.2028 45.0548 29.1957 45.0453 29.2058L45.007 29.2403L44.8575 29.3778C44.7995 29.429 44.7433 29.4796 44.6859 29.5307C44.7164 29.4325 44.7583 29.2969 44.8133 29.1219L44.8593 29.0808L44.897 29.0469C44.8988 29.0457 44.9083 29.0368 44.9101 29.035L44.9239 29.0189L44.9914 28.9434C45.0494 28.8571 45.0931 28.7494 45.1038 28.6309C45.1116 28.5191 45.0979 28.4048 45.071 28.2923C45.1027 28.1906 45.1349 28.0858 45.1702 27.9739C45.2587 28.1769 45.3209 28.4024 45.3095 28.6476C45.3042 28.7214 45.2892 28.7964 45.2635 28.8702C45.2378 28.9434 45.2013 29.016 45.1529 29.0838L45.0883 29.1606ZM45.6701 20.6856C45.6958 20.5892 45.7221 20.4928 45.7484 20.3958C45.7819 20.2976 45.8154 20.1988 45.8494 20.0988C45.8632 20.0476 45.8811 19.9977 45.9015 19.9489C45.9421 19.8519 45.9923 19.7578 46.0426 19.6638C46.0677 19.6168 46.0928 19.5692 46.1161 19.5216C46.1687 19.4293 46.2351 19.3454 46.2949 19.2567C46.3553 19.1681 46.4169 19.0812 46.4892 19.0038C46.6255 18.8396 46.7738 18.6896 46.9245 18.5456C47.0758 18.4016 47.23 18.2641 47.3789 18.1254C47.6796 17.8529 47.9672 17.5809 48.2112 17.2911C48.271 17.2185 48.3272 17.1435 48.381 17.0679C48.4348 16.9929 48.4868 16.9174 48.5376 16.843C48.5819 16.7644 48.6249 16.6859 48.6686 16.6091L48.7331 16.4942C48.7505 16.4544 48.7648 16.4133 48.7804 16.3734C48.9185 16.0568 48.9849 15.7325 49.0315 15.4332C49.0542 15.1296 49.0859 14.8499 49.0638 14.6012C49.0596 14.4762 49.0554 14.3596 49.0512 14.2519C49.0488 14.1977 49.0423 14.1459 49.0351 14.0965C49.0279 14.0471 49.0201 14.0001 49.0148 13.9555C48.9974 13.821 48.9825 13.7079 48.9711 13.6198C48.952 13.4723 48.9412 13.3925 48.9412 13.3925C48.9412 13.3925 48.952 13.4425 48.9735 13.5371C48.9789 13.5609 48.9849 13.5871 48.9908 13.6163C49.0106 13.7032 49.0351 13.8144 49.065 13.9472C49.0817 14.0358 49.1098 14.1322 49.123 14.2405C49.1349 14.35 49.1469 14.4679 49.1606 14.594C49.169 14.7202 49.2001 14.8553 49.1917 14.9987C49.187 15.1415 49.1822 15.2921 49.178 15.4492C49.1433 15.7611 49.0901 16.1026 48.958 16.4442C48.943 16.4871 48.9299 16.5317 48.9131 16.5746L48.8509 16.699C48.8085 16.7829 48.7654 16.8674 48.7224 16.9537C48.6734 17.0358 48.6201 17.1167 48.5639 17.1971C48.5077 17.2774 48.4491 17.3571 48.3876 17.4345C48.1364 17.7428 47.8441 18.0266 47.5457 18.3046C47.3263 18.5152 47.0967 18.7217 46.8898 18.9437C46.821 19.0175 46.7541 19.0937 46.6913 19.1722C46.6219 19.2454 46.5616 19.3258 46.5053 19.4079C46.4485 19.49 46.3846 19.5674 46.3349 19.6525C46.2907 19.7406 46.2399 19.8263 46.1944 19.9132C46.1711 19.9566 46.1496 20.0006 46.1305 20.0459C46.1107 20.0905 46.094 20.1363 46.0802 20.1839L45.981 20.4601C45.9535 20.5571 45.926 20.6529 45.8985 20.7487C45.8459 20.9397 45.7843 21.1302 45.7275 21.3164C45.6689 21.5015 45.6067 21.6836 45.5403 21.8598C45.407 22.2121 45.2581 22.5424 45.0943 22.8387C45.0118 22.9869 44.9263 23.1262 44.8366 23.2565C44.4808 23.7778 44.0982 24.1337 43.8506 24.3961C43.5947 24.6532 43.4488 24.7996 43.4488 24.7996C43.4488 24.7996 43.5236 24.7103 43.6581 24.5479C43.703 24.4937 43.7544 24.4318 43.8124 24.3616C44.045 24.0849 44.3876 23.6939 44.7122 23.1761C44.8737 22.9167 45.0219 22.6197 45.1529 22.2954C45.2826 21.9698 45.3944 21.6158 45.5104 21.2492C45.5618 21.0647 45.6192 20.8796 45.6701 20.6856ZM39.2749 33.7751C38.885 34.3999 38.0593 34.5916 37.4315 34.203C37.1266 34.0149 36.9269 33.7245 36.845 33.4043C36.8175 33.2978 36.8037 33.1877 36.8031 33.077C36.8145 33.205 36.8384 33.3264 36.8814 33.4287C36.9346 33.5644 37.0064 33.6733 37.0817 33.7602C37.1194 33.803 37.1571 33.8405 37.1941 33.8721C37.2312 33.9042 37.2665 33.931 37.2994 33.9524C37.3681 33.997 37.4225 34.0232 37.4614 34.0375C37.4991 34.0536 37.52 34.0625 37.52 34.0625C37.52 34.0625 37.5051 34.0464 37.4764 34.0167C37.4614 34.003 37.4441 33.9834 37.4261 33.9601C37.4076 33.9375 37.3873 33.9114 37.3645 33.884C37.2778 33.7661 37.178 33.5823 37.1439 33.3537C37.1086 33.127 37.1445 32.8598 37.2838 32.6319C37.3012 32.6069 37.3203 32.5694 37.3364 32.5533C37.3604 32.5241 37.3897 32.4795 37.4094 32.4652C37.4489 32.4254 37.5009 32.376 37.5553 32.3355C37.6641 32.2534 37.792 32.1951 37.9266 32.1653C38.0605 32.1332 38.2016 32.129 38.3355 32.1546C38.4701 32.1837 38.5938 32.223 38.7152 32.3045C38.8192 32.3742 38.9185 32.4629 38.9932 32.5652C39.0297 32.6164 39.0614 32.6694 39.0889 32.7235C39.1164 32.7777 39.1391 32.8324 39.1565 32.8866C39.2264 33.1062 39.2192 33.315 39.1947 33.4591C39.178 33.5293 39.1684 33.5894 39.1541 33.6269C39.1421 33.6656 39.1355 33.687 39.1355 33.687C39.1355 33.687 39.1493 33.6709 39.1762 33.6394C39.1906 33.6245 39.2073 33.6043 39.2252 33.5793C39.2432 33.5549 39.2629 33.5257 39.2838 33.4918C39.343 33.3906 39.4076 33.2365 39.4255 33.0437C39.4321 32.9794 39.4327 32.9104 39.4261 32.8378C39.4196 32.7366 39.3968 32.6283 39.358 32.5206C39.535 32.9128 39.52 33.3823 39.2749 33.7751ZM47.9248 26.6641C47.9606 26.7629 47.9977 26.8581 48.0342 26.945C48.0521 26.9884 48.0701 27.0295 48.0868 27.0682C48.103 27.1063 48.1197 27.142 48.134 27.1741C48.1484 27.2062 48.1615 27.2342 48.1729 27.258C48.195 27.305 48.2088 27.333 48.2088 27.333C48.2088 27.333 48.0832 27.2991 47.9439 27.1747C47.8745 27.114 47.7998 27.0343 47.737 26.9367C47.6701 26.842 47.6216 26.7278 47.5762 26.6141C47.5589 26.5552 47.5427 26.4957 47.5308 26.4374C47.5176 26.3784 47.5092 26.3201 47.5045 26.263C47.4973 26.1493 47.4991 26.0428 47.5158 25.9529C47.5409 25.7726 47.5989 25.6601 47.5989 25.6601C47.5989 25.6601 47.6127 25.6893 47.6306 25.7387C47.6491 25.7887 47.6683 25.8589 47.6952 25.9404C47.7191 26.0226 47.7496 26.1148 47.7759 26.213C47.8088 26.31 47.8369 26.4129 47.8734 26.5135C47.8889 26.5647 47.9068 26.6153 47.9248 26.6641ZM58.2668 17.7594C58.268 17.7588 58.2692 17.7583 58.2704 17.7583C58.3852 17.7095 58.5006 17.6654 58.6166 17.6238C58.6548 17.6101 58.6937 17.5982 58.7319 17.5845C58.8109 17.5577 58.8904 17.5315 58.9693 17.5077C59.0142 17.494 59.059 17.4815 59.105 17.4696C59.178 17.4488 59.2509 17.4298 59.3245 17.4119C59.3705 17.4006 59.4166 17.3893 59.4638 17.3792C59.5373 17.3631 59.6109 17.3482 59.6838 17.3345C59.7275 17.3262 59.7711 17.3179 59.8153 17.3107C59.8973 17.2976 59.9786 17.2863 60.0593 17.2762C60.094 17.272 60.1281 17.2667 60.1627 17.2631C60.2769 17.2506 60.3905 17.2411 60.503 17.2357C60.5245 17.2346 60.546 17.2352 60.5681 17.234C60.6566 17.2304 60.7451 17.2286 60.8318 17.2286C60.937 17.2292 61.0405 17.234 61.1427 17.2405C61.166 17.2417 61.1893 17.2417 61.2127 17.2435C61.337 17.253 61.459 17.2673 61.5786 17.2851C61.6145 17.2905 61.6479 17.2982 61.6832 17.3048C61.7669 17.3191 61.85 17.3351 61.9313 17.3542C61.9744 17.3643 62.0169 17.3768 62.0593 17.3881C62.1299 17.4065 62.1992 17.4262 62.268 17.4488C62.3116 17.4631 62.3547 17.4785 62.3977 17.4946C62.4617 17.5184 62.5251 17.5434 62.5866 17.5702C62.6279 17.588 62.6692 17.6065 62.7092 17.6255C62.7702 17.6547 62.8294 17.6862 62.8874 17.719C62.9245 17.7392 62.9609 17.7594 62.9968 17.7815C63.0584 17.819 63.1164 17.86 63.1738 17.9017C63.2019 17.9219 63.2318 17.941 63.2593 17.9624C63.3418 18.0272 63.4207 18.0951 63.4943 18.1683C63.6007 18.2742 63.6952 18.3873 63.7777 18.5081C63.8596 18.6283 63.9296 18.7557 63.9864 18.889C64.2261 19.4519 64.2201 20.1018 63.9756 20.7665C63.9349 20.8778 63.8877 20.9891 63.8339 21.1004C63.7801 21.2123 63.7203 21.3236 63.6527 21.4348C63.1361 22.2948 62.3015 23.0369 61.2737 23.5582C61.1266 23.6332 60.9759 23.7028 60.8216 23.7683L60.821 23.7689C60.6841 23.8266 60.5454 23.8784 60.4073 23.9272C60.372 23.9397 60.3367 23.9516 60.3015 23.9635C60.1699 24.0075 60.0384 24.048 59.9062 24.0837C59.8985 24.0855 59.8913 24.0879 59.8835 24.0902C59.7448 24.1271 59.6061 24.1575 59.468 24.1843C59.4327 24.1914 59.398 24.1979 59.3627 24.2039C59.236 24.2265 59.1098 24.2462 58.9843 24.2604C58.9711 24.2616 58.9573 24.264 58.9442 24.2658C58.8073 24.2807 58.6721 24.2896 58.537 24.2949C58.5029 24.2961 58.4695 24.2967 58.4354 24.2973C58.3116 24.3003 58.1891 24.2997 58.0677 24.2944C58.0551 24.2938 58.0432 24.2938 58.0306 24.2932C57.8991 24.2866 57.7699 24.2735 57.642 24.2569C57.6109 24.2533 57.5804 24.2485 57.5505 24.2444C57.4213 24.2253 57.294 24.2033 57.1696 24.1741H57.169C57.0656 24.1503 56.9645 24.123 56.8665 24.092C56.7684 24.0617 56.6733 24.0277 56.5807 23.9908C56.3965 23.9176 56.2249 23.8314 56.0677 23.7338C55.8871 23.6219 55.7245 23.4945 55.5834 23.3541C55.5307 23.3017 55.4811 23.2476 55.4345 23.1916C55.3878 23.1357 55.3442 23.0779 55.3029 23.0184C55.2216 22.8994 55.1535 22.7738 55.0973 22.6429C54.9645 22.3329 54.9071 22.0032 54.9167 21.6663C54.9334 21.1052 55.1373 20.5225 55.4955 19.9703C56.0689 19.0871 57.0363 18.2808 58.2614 17.7636C58.2626 17.7612 58.265 17.76 58.2668 17.7594ZM58.3128 24.6431C58.5155 24.6437 58.7439 24.627 58.9908 24.605C59.114 24.5925 59.2425 24.5752 59.3747 24.5532C59.902 24.4646 60.4892 24.2949 61.0727 24.0432C61.3645 23.9176 61.6551 23.7713 61.9361 23.604C62.0766 23.5201 62.2154 23.432 62.3505 23.3374C62.7571 23.0601 63.1301 22.7352 63.4476 22.3846C63.5541 22.2674 63.6539 22.1478 63.7466 22.0264C63.8375 21.9068 63.9218 21.7812 64.0055 21.6538C64.082 21.533 64.1556 21.4057 64.2189 21.2813C64.3463 21.0314 64.4396 20.7814 64.5 20.5446C64.6207 20.0697 64.6171 19.6501 64.5627 19.3668C64.5376 19.224 64.5095 19.1139 64.4862 19.0389C64.4623 18.9645 64.4491 18.9247 64.4491 18.9247C64.4491 18.9247 64.4665 18.9628 64.4988 19.0342C64.5143 19.0699 64.534 19.1145 64.5538 19.1687C64.5729 19.2222 64.5938 19.2853 64.6124 19.3561C64.6309 19.4269 64.6488 19.5073 64.6638 19.5954C64.6781 19.6834 64.6895 19.7804 64.6949 19.8834C64.7056 20.0899 64.6949 20.3244 64.6428 20.5767C64.5938 20.8278 64.5101 21.0944 64.3917 21.3628C64.3313 21.4979 64.2644 21.6294 64.1872 21.7681C64.1137 21.8978 64.027 22.0294 63.9325 22.1627C63.7472 22.4239 63.5289 22.6745 63.2874 22.9077C63.0458 23.1416 62.7798 23.3576 62.5005 23.5522C62.2189 23.7451 61.923 23.9159 61.6222 24.064C61.471 24.139 61.3209 24.2051 61.1654 24.2682C61.0166 24.3277 60.8641 24.383 60.7104 24.4342C60.5585 24.4842 60.4079 24.527 60.259 24.5645C59.8118 24.6758 59.3831 24.7312 59.0022 24.7514C58.4928 24.7782 58.0701 24.7228 57.7807 24.6723C57.636 24.6443 57.523 24.6175 57.447 24.5955C57.3711 24.5747 57.331 24.5639 57.331 24.5639C57.331 24.5639 57.4961 24.5937 57.7878 24.6223C57.9331 24.6336 58.1101 24.6455 58.3128 24.6431ZM50.1532 10.9651C50.1753 10.8627 50.1998 10.7597 50.2279 10.6568C50.3941 10.0391 50.6656 9.41717 51.0357 8.83456L51.0369 8.83218C51.1164 8.7072 51.1995 8.5864 51.285 8.46916C51.3101 8.43405 51.3364 8.39954 51.3627 8.36502C51.4273 8.27933 51.4937 8.19541 51.5606 8.11448C51.5875 8.08175 51.6145 8.04961 51.6414 8.01748C51.7334 7.91036 51.8267 7.80621 51.9236 7.70742C51.9278 7.70385 51.9319 7.70028 51.9355 7.69671C52.0288 7.60149 52.1239 7.51163 52.2207 7.42415C52.2512 7.39677 52.2823 7.37058 52.3122 7.3444C52.387 7.27953 52.4629 7.21705 52.5394 7.15754C52.5699 7.13373 52.6004 7.10934 52.6303 7.08613C52.7343 7.00817 52.839 6.93318 52.9448 6.86415C52.952 6.85939 52.9592 6.85522 52.9663 6.85106C53.0662 6.78738 53.166 6.72787 53.2671 6.67252C53.3 6.65407 53.3322 6.63741 53.3657 6.62015C53.4459 6.57849 53.526 6.53921 53.6055 6.50291C53.6378 6.48863 53.6689 6.47316 53.7012 6.46007C53.8094 6.41365 53.9176 6.3714 54.0258 6.33569C54.036 6.33272 54.045 6.33033 54.0545 6.32735C54.1544 6.29522 54.2536 6.26785 54.3523 6.24464C54.3852 6.2369 54.4174 6.23035 54.4503 6.22381C54.5305 6.20714 54.6106 6.19406 54.6889 6.18334C54.7194 6.17918 54.7505 6.17441 54.7804 6.17144C54.8862 6.16013 54.9908 6.15358 55.0943 6.15418C55.1588 6.15418 55.2222 6.16132 55.2856 6.16608C55.3358 6.16965 55.3872 6.16965 55.4369 6.1762C55.5014 6.18453 55.5648 6.2006 55.6282 6.21369C55.6742 6.22381 55.7215 6.22916 55.7669 6.24166C55.8363 6.2607 55.9027 6.28749 55.9696 6.31248C56.0073 6.32617 56.0462 6.33629 56.0826 6.35235C56.1855 6.39699 56.2847 6.44935 56.3804 6.50946C56.5179 6.59634 56.647 6.6987 56.7642 6.81475C56.8808 6.93139 56.9861 7.06113 57.0787 7.20396C57.3568 7.63125 57.5236 8.17042 57.566 8.79052C57.5762 8.93335 57.5786 9.07796 57.5756 9.22376C57.5648 9.66117 57.4955 10.1099 57.3699 10.5574C57.2862 10.8556 57.178 11.1537 57.0452 11.4477C56.9795 11.5947 56.9077 11.7405 56.8294 11.8851C56.7517 12.0297 56.668 12.1725 56.5783 12.3142C56.5777 12.3154 56.5765 12.3166 56.5765 12.3166L56.5753 12.3189C56.0384 13.1646 55.3526 13.8549 54.5926 14.3256C54.3391 14.4828 54.0778 14.6149 53.8106 14.7202C53.694 14.7666 53.5768 14.8065 53.462 14.8404C53.4237 14.8523 53.3855 14.8595 53.3478 14.8696C53.2713 14.8898 53.1947 14.9101 53.1194 14.9249C53.0746 14.9339 53.0309 14.9386 52.9861 14.9458C52.9191 14.9565 52.8515 14.9672 52.7852 14.9731C52.7385 14.9773 52.6931 14.9785 52.647 14.9809C52.5855 14.9838 52.5251 14.9862 52.4647 14.9856C52.3995 14.985 52.3355 14.9791 52.2722 14.9737C52.2249 14.9696 52.1771 14.9672 52.1311 14.9612C52.0659 14.9517 52.0025 14.9368 51.9391 14.9231C51.8973 14.9136 51.8542 14.9071 51.8136 14.8952C51.7448 14.8761 51.6784 14.8505 51.6121 14.8249C51.5792 14.8125 51.5451 14.8023 51.5128 14.7886C51.416 14.7464 51.3227 14.6976 51.2324 14.6411C51.1971 14.619 51.1648 14.5929 51.1308 14.569C51.0297 14.497 50.9317 14.4197 50.8438 14.3316C50.7864 14.2751 50.7326 14.2156 50.6811 14.1525C50.5789 14.0269 50.4874 13.8888 50.4079 13.7389C50.3684 13.6639 50.3313 13.5859 50.2979 13.505C50.1974 13.2652 50.1257 13.0051 50.0826 12.7319C50.0683 12.6409 50.0569 12.548 50.0485 12.454C50.0402 12.36 50.0354 12.2648 50.033 12.1684C50.0246 11.7792 50.0653 11.3745 50.1532 10.9651ZM55.7382 13.7722C55.972 13.5532 56.1879 13.3163 56.387 13.067C56.5861 12.8182 56.7726 12.5594 56.9388 12.288L56.94 12.2862C57.0118 12.1672 57.0817 12.0464 57.1487 11.9244C57.2157 11.8024 57.2796 11.6786 57.3388 11.553C57.459 11.3025 57.5612 11.043 57.6503 10.7806C57.694 10.6491 57.7346 10.5163 57.7699 10.3818C57.8769 9.98015 57.9451 9.56773 57.9636 9.15294C57.9738 8.88038 57.9672 8.59473 57.9343 8.32396C57.8997 8.04902 57.8405 7.77705 57.7442 7.51758C57.6461 7.2587 57.5224 7.00817 57.3597 6.78083C57.1947 6.55529 56.9938 6.35592 56.763 6.1875C56.8886 6.25594 57.007 6.33688 57.1182 6.42733C57.2844 6.56361 57.4327 6.72251 57.5612 6.89748C57.6898 7.07244 57.798 7.26347 57.8817 7.46283C57.9971 7.72884 58.0748 8.00973 58.1263 8.29479C58.1514 8.4394 58.1699 8.58163 58.1813 8.72565C58.1932 8.86907 58.1968 9.0125 58.1944 9.15949C58.1902 9.44871 58.1627 9.73794 58.1107 10.0224C58.085 10.1646 58.0533 10.3057 58.018 10.4455C57.9822 10.5854 57.9415 10.724 57.8967 10.8615C57.8088 11.1364 57.6964 11.4037 57.5702 11.6625C57.4447 11.9184 57.3071 12.1684 57.1523 12.4064L57.1511 12.4088L57.1463 12.4159C56.9651 12.6909 56.769 12.9563 56.5514 13.2033C56.442 13.3259 56.3284 13.4455 56.2112 13.5603C56.094 13.6752 55.972 13.7859 55.8464 13.8918C55.7209 13.9977 55.5911 14.0989 55.4578 14.1941C55.3245 14.2905 55.184 14.3756 55.0429 14.4578C54.9006 14.5393 54.7547 14.6137 54.607 14.6827C54.4587 14.7518 54.305 14.8077 54.1514 14.8607C54.445 14.7214 54.7272 14.5613 54.9908 14.3768C55.2533 14.1917 55.5038 13.9906 55.7382 13.7722ZM56.8145 3.91239C56.8808 3.77076 56.9591 3.60473 57.0429 3.42679C57.1254 3.25004 57.2174 3.06377 57.2958 2.87512C57.337 2.78228 57.3777 2.68825 57.4064 2.5966C57.4351 2.50853 57.4674 2.4026 57.4919 2.31452C57.5403 2.12647 57.5858 1.95031 57.6252 1.79975C57.6438 1.72298 57.6617 1.65276 57.6772 1.59028C57.7239 1.40341 57.7526 1.28795 57.7526 1.28795C57.7526 1.28795 57.7609 1.34092 57.7681 1.43435C57.7753 1.52778 57.7801 1.66049 57.7741 1.82058C57.7717 1.90092 57.7657 1.98721 57.7574 2.07886C57.7478 2.16991 57.7352 2.26632 57.7179 2.3657C57.6964 2.46866 57.6838 2.56268 57.6491 2.67099C57.6186 2.77752 57.5792 2.87869 57.5379 2.97867C57.4949 3.07745 57.4476 3.17446 57.3986 3.26729C57.2515 3.547 57.0865 3.79635 56.9448 3.98857C56.8982 4.05284 56.8533 4.11057 56.8127 4.16115C56.6907 4.31231 56.6052 4.3986 56.6052 4.3986C56.6052 4.3986 56.6817 4.19805 56.8145 3.91239ZM39.0082 34.8183C38.5837 35.2182 38.1777 35.5812 37.8351 35.8978C37.7496 35.977 37.6665 36.052 37.5876 36.1228C37.4285 36.2644 37.285 36.39 37.1619 36.4989C37.0997 36.553 37.0435 36.603 36.9926 36.6483C36.7864 36.8262 36.6686 36.928 36.6686 36.928C36.6686 36.928 36.7738 36.8137 36.9574 36.6126C37.004 36.5632 37.0554 36.5078 37.1116 36.4483C37.1678 36.3882 37.2282 36.3233 37.2928 36.2543C37.4225 36.1162 37.5696 35.9603 37.7323 35.7943C38.0593 35.461 38.4348 35.0665 38.8468 34.6552C39.2581 34.2416 39.7024 33.8072 40.1472 33.3722C40.595 32.9413 41.0423 32.5099 41.4686 32.1117C41.8925 31.7112 42.2991 31.3488 42.6417 31.0322C42.8988 30.7948 43.1302 30.5936 43.3155 30.4311C43.3771 30.377 43.4333 30.327 43.4841 30.2818C43.5876 30.1931 43.6689 30.1229 43.7239 30.0753C43.7789 30.0277 43.8088 30.0021 43.8088 30.0021C43.8088 30.0021 43.8022 30.0092 43.7896 30.0235C43.7514 30.0651 43.6575 30.1675 43.52 30.3181C43.4728 30.3669 43.4213 30.4222 43.3651 30.4823C43.1977 30.6626 42.9896 30.8876 42.7445 31.1375C42.6626 31.2209 42.5783 31.3077 42.4904 31.3982C42.3158 31.5785 42.1287 31.7719 41.932 31.9719C41.8339 32.0719 41.7329 32.1736 41.6294 32.2766C41.2193 32.6908 40.7738 33.1246 40.3296 33.5596C39.8817 33.9887 39.4339 34.4202 39.0082 34.8183Z" fill="#EACCB6"/>
<path d="M37.3645 32.6996C37.1671 33.0151 37.4452 32.9978 37.7746 33.0799C37.8296 33.0936 37.8858 33.1103 37.9414 33.1311C37.997 33.1519 38.0526 33.1781 38.1047 33.2109C38.5274 33.4721 38.6308 34.0666 38.8933 33.6465C38.9585 33.5411 39.0003 33.4281 39.0183 33.3126C39.0727 32.9674 38.9208 32.6074 38.6039 32.4116C38.1824 32.1504 37.6269 32.2789 37.3645 32.6996Z" fill="#EACCB6"/>
<path d="M38.2807 33.9815C38.252 33.969 38.2143 33.9404 38.1695 33.919C38.1235 33.8999 38.0768 33.8612 38.0242 33.8368C37.971 33.8107 37.9172 33.7779 37.867 33.7422C37.8113 33.7143 37.7575 33.6821 37.7097 33.6482C37.6637 33.6119 37.6069 33.5893 37.5692 33.5583C37.5297 33.5286 37.4855 33.5089 37.461 33.4893C37.4317 33.4726 37.4155 33.4625 37.4155 33.4625C37.4155 33.4625 37.4179 33.4816 37.4215 33.5155C37.4257 33.531 37.4293 33.5518 37.4353 33.5744C37.4412 33.5976 37.4496 33.6226 37.4634 33.647C37.4765 33.6714 37.4909 33.6994 37.5076 33.7274C37.5244 33.7553 37.5453 33.7833 37.5698 33.8089C37.6194 33.8589 37.678 33.9077 37.7402 33.9523C37.8084 33.9862 37.8789 34.0142 37.9471 34.0356C37.9817 34.0457 38.0158 34.0499 38.0487 34.0517C38.0816 34.0541 38.1127 34.0535 38.1402 34.0535C38.197 34.0547 38.2448 34.0368 38.2765 34.0297C38.3082 34.0172 38.3261 34.01 38.3261 34.01C38.3261 34.01 38.322 34.0076 38.3142 34.0029C38.3064 33.9975 38.2951 33.9904 38.2807 33.9815Z" fill="#EACCB6"/>
<path d="M35.8918 37.6174C35.4559 37.2092 35.0176 36.798 34.5794 36.3879C34.4329 36.2511 34.287 36.1148 34.1411 35.9779C32.8269 34.7496 31.5241 33.535 30.3235 32.4168C29.4511 31.4616 28.6206 30.5535 27.8523 29.712C27.6604 29.5013 27.4721 29.2948 27.2879 29.0937C26.5513 28.2861 25.8798 27.5511 25.2933 26.9078C24.2667 25.7819 23.499 24.938 23.0894 24.4851C22.9931 24.3792 22.9022 24.2786 22.815 24.1834C22.2404 23.5538 21.8553 23.1312 21.5139 22.4582C21.4762 22.3832 21.4386 22.3052 21.4015 22.2237C21.3274 22.0606 21.255 21.8821 21.1821 21.6839C21.0362 21.2876 20.8897 20.8115 20.7301 20.2152C20.6942 20.0831 20.6529 19.9575 20.6057 19.8385C20.4174 19.3606 20.1423 18.9774 19.8338 18.6382C19.6024 18.3834 19.3513 18.1531 19.1038 17.9258C18.8395 17.683 18.5794 17.4432 18.3462 17.1783C18.2882 17.1123 18.2314 17.0438 18.177 16.9742C18.1023 16.8778 18.0335 16.7754 17.9671 16.6701C17.8894 16.5463 17.8171 16.4172 17.7555 16.2767C17.7172 16.1905 17.6819 16.1006 17.6508 16.0072C17.4314 15.3519 17.3895 14.5075 17.6556 13.3184C17.6562 13.3149 17.658 13.3083 17.658 13.3071C17.6592 13.2994 17.661 13.2923 17.6616 13.2845C17.7525 12.8531 17.7943 12.4061 17.789 11.9515C17.78 11.1558 17.6275 10.3369 17.3387 9.53533C17.1325 8.96283 16.8574 8.39986 16.516 7.86128C16.4186 7.70774 16.3169 7.56015 16.2123 7.41495C16.1782 7.36793 16.1429 7.3239 16.1082 7.27807C16.0353 7.18167 15.9623 7.08704 15.8864 6.9948C15.8446 6.94422 15.8015 6.89482 15.7591 6.84542C15.6861 6.76092 15.6126 6.67939 15.5378 6.59846C15.493 6.55085 15.4487 6.50324 15.4027 6.45682C15.3244 6.37648 15.2437 6.29912 15.1629 6.22294C15.1199 6.18307 15.078 6.14141 15.0344 6.10273C14.9327 6.01167 14.8293 5.92419 14.7247 5.83969C14.7008 5.82005 14.6774 5.79922 14.6535 5.78018C14.525 5.67842 14.3934 5.582 14.2613 5.49095C14.2218 5.46417 14.1818 5.43978 14.1423 5.41359C14.0473 5.35111 13.9522 5.28921 13.8559 5.23208C13.8051 5.20173 13.7537 5.17316 13.7023 5.1446C13.615 5.0952 13.5271 5.0476 13.4386 5.00296C13.3854 4.97559 13.3316 4.9494 13.2783 4.92381C13.1881 4.88096 13.0978 4.8411 13.0075 4.80301C12.9561 4.78158 12.9053 4.75896 12.8538 4.73933C12.7498 4.69886 12.6452 4.66256 12.5411 4.62804C12.5035 4.61614 12.4664 4.60126 12.4287 4.58996C12.287 4.54651 12.1453 4.50842 12.0036 4.47629C11.9707 4.46855 11.9384 4.46379 11.905 4.45724C11.7955 4.43463 11.6855 4.4144 11.5767 4.39833C11.5265 4.39119 11.4768 4.38643 11.4266 4.38048C11.3339 4.36976 11.2419 4.36143 11.1498 4.35608C11.0966 4.3531 11.0434 4.35131 10.9902 4.34953C10.9501 4.34893 10.9094 4.34477 10.8694 4.34477C10.8006 4.34477 10.7325 4.34774 10.6643 4.35072C10.6458 4.35131 10.6272 4.35132 10.6087 4.35251C10.4783 4.35965 10.3492 4.37393 10.2212 4.39238C10.192 4.39655 10.1632 4.4019 10.1339 4.40606C10.0042 4.42749 9.87506 4.45308 9.7483 4.4864C9.72259 4.43998 9.69449 4.38881 9.6646 4.33406C9.45653 3.95021 9.16295 3.37891 8.92499 2.80343C8.51004 1.79948 8.55847 1.2978 8.47656 1.10082C8.46639 1.07642 8.45503 1.05559 8.44128 1.03773C8.43709 1.03178 8.43051 1.02762 8.42573 1.02286C8.41557 1.01155 8.4054 1.00084 8.39225 0.992512C8.38507 0.987752 8.37551 0.985364 8.36714 0.981198C8.35458 0.975247 8.34203 0.969295 8.32708 0.965724C8.31632 0.963344 8.30315 0.962756 8.2912 0.961565C8.27864 0.960375 8.26729 0.957397 8.25234 0.957397C8.24935 0.957397 8.24516 0.958587 8.24158 0.958587C8.22244 0.958587 8.19912 0.962159 8.177 0.965134C8.16026 0.967515 8.14472 0.968111 8.12618 0.971681C8.10047 0.976442 8.07057 0.984776 8.04068 0.992512C8.02095 0.997868 8.00301 1.00144 7.98089 1.00799C7.94561 1.0187 7.90436 1.03297 7.8643 1.04666C7.84337 1.0538 7.82544 1.05916 7.80272 1.06749C7.73934 1.0907 7.66938 1.11749 7.59344 1.14903C7.59105 1.14962 7.58926 1.15022 7.58747 1.15141C7.35668 1.24603 7.19404 1.32399 7.08463 1.39599C6.90227 1.51561 6.86878 1.61618 6.9202 1.73937C6.96085 1.83816 7.07865 1.9679 7.23769 2.1988C7.39733 2.4297 7.59823 2.76118 7.8057 3.26345C7.87805 3.43842 7.94621 3.61694 8.01019 3.7925C8.07357 3.96806 8.13276 4.14064 8.18597 4.30311C8.29299 4.62863 8.3773 4.91548 8.43291 5.11246C8.34442 5.17554 8.25772 5.2416 8.17342 5.31064C8.08911 5.37967 8.00839 5.45227 7.93126 5.52845C7.83321 5.62664 7.73993 5.729 7.65144 5.83672C7.38717 6.15986 7.16833 6.52585 6.99912 6.92934C6.7785 7.45601 6.64457 8.04101 6.60152 8.66706C6.56206 9.23896 6.60092 9.82753 6.71333 10.4167C6.78806 10.8095 6.89568 11.2016 7.035 11.5903C7.17431 11.9783 7.34472 12.3615 7.54502 12.7358C7.64487 12.9227 7.75309 13.1078 7.86788 13.2893C8.13216 13.7065 8.43231 14.0927 8.75578 14.4504C9.45592 15.2252 10.2769 15.8512 11.1594 16.2619C11.1821 16.2803 11.2078 16.2964 11.2365 16.3071L11.3274 16.341L11.365 16.3547C11.3824 16.3624 11.4003 16.3702 11.4177 16.3785C11.4487 16.3934 11.4798 16.4077 11.5115 16.4202C11.5665 16.4422 11.6215 16.4594 11.6765 16.4773C11.7035 16.4862 11.731 16.4952 11.7495 16.5011C13.0183 16.9927 14.5154 17.6657 15.8715 18.6471C16.3038 18.9601 16.7235 19.3011 17.1151 19.682C17.2771 19.8397 17.4344 20.0027 17.5863 20.1729C17.8894 20.5133 18.1716 20.8793 18.4251 21.2739C18.8048 21.866 19.1211 22.5218 19.3495 23.2497C19.4505 23.5734 19.5474 23.8799 19.6413 24.1792C19.7399 24.4934 19.8338 24.7946 19.9241 25.0826C19.9606 25.1975 19.9958 25.3111 20.0305 25.4224C20.0789 25.5765 20.1268 25.7301 20.1728 25.8765C19.9594 25.8188 19.7381 25.7586 19.5079 25.6962C19.2783 25.6337 19.0398 25.5688 18.7928 25.5016C18.0783 25.3076 17.4452 25.0594 16.8795 24.7678C15.56 24.0876 14.6087 23.1705 13.8571 22.1469C13.4278 21.5619 13.0637 20.9424 12.7337 20.3122C12.5686 19.9968 12.412 19.6796 12.2601 19.3618C12.2452 19.3303 12.2242 19.3029 12.2003 19.2809C11.9952 18.9214 11.7519 18.5798 11.4774 18.2567C10.7014 17.345 9.66519 16.5927 8.45682 16.0821C8.45503 16.081 8.45323 16.0804 8.45144 16.0798C8.45024 16.0792 8.44905 16.0792 8.44785 16.078C8.31273 16.0209 8.1764 15.9679 8.03948 15.9185C7.99285 15.9018 7.94621 15.8869 7.89957 15.8709C7.80749 15.8393 7.71602 15.8078 7.62334 15.7792C7.56774 15.762 7.51153 15.7471 7.45533 15.7316C7.37222 15.7078 7.28911 15.684 7.2054 15.6626C7.14561 15.6477 7.08582 15.6346 7.02603 15.6209C6.94651 15.6025 6.86639 15.584 6.78627 15.5686C6.72468 15.5561 6.6631 15.546 6.60211 15.5352C6.52379 15.5221 6.44606 15.5085 6.36773 15.4972C6.30555 15.4876 6.24277 15.4805 6.18059 15.4728C6.10405 15.4632 6.02753 15.4543 5.951 15.4478C5.88822 15.4418 5.82543 15.437 5.76325 15.4329C5.68791 15.4281 5.61198 15.4234 5.53725 15.4204C5.47446 15.418 5.41228 15.4162 5.3501 15.4156C5.31303 15.415 5.27536 15.4126 5.23829 15.4126C5.20481 15.4126 5.17252 15.415 5.13963 15.4156C5.06071 15.4162 4.98179 15.4192 4.90347 15.4228C4.83829 15.4257 4.77371 15.4293 4.70914 15.4341C4.63141 15.4394 4.55428 15.4472 4.47715 15.4555C4.41317 15.4626 4.3498 15.4692 4.28642 15.4781C4.20989 15.4882 4.13455 15.5007 4.05862 15.5138C3.99643 15.5245 3.93485 15.5346 3.87327 15.5465C3.79733 15.562 3.72319 15.5793 3.64845 15.5971C3.58926 15.6114 3.53007 15.6245 3.47207 15.64C3.39673 15.6602 3.3226 15.6834 3.24846 15.7066C3.19285 15.7239 3.13665 15.74 3.08224 15.7584C3.00571 15.7846 2.93216 15.8143 2.85742 15.8435C2.8072 15.8631 2.75638 15.881 2.70735 15.9018C2.62604 15.9363 2.54711 15.975 2.46759 16.0137C2.42813 16.0328 2.38687 16.0506 2.34801 16.0702C2.23202 16.1304 2.11901 16.194 2.009 16.2619C2.009 16.2619 2.0072 16.2631 2.006 16.2637C1.85593 16.3565 1.71184 16.4571 1.57611 16.5636C1.44039 16.6701 1.31184 16.7838 1.19226 16.9028C0.819162 17.2748 0.527381 17.7032 0.325886 18.1763C0.187172 18.5019 0.092703 18.8393 0.0424788 19.1839C0.0173667 19.3564 0.0036105 19.5308 0.000620961 19.7064C-0.00236857 19.8819 0.00540933 20.0587 0.0245423 20.2366C0.052644 20.5032 0.105852 20.7716 0.18358 21.04C0.235 21.2191 0.297783 21.3983 0.370727 21.5762C0.480742 21.844 0.614676 22.1106 0.773121 22.3737C0.97043 22.7016 1.20002 23.0164 1.45832 23.3139C1.97551 23.909 2.60749 24.4363 3.32498 24.8713C3.68432 25.0886 4.064 25.2832 4.4616 25.451C4.63858 25.526 4.81736 25.592 4.99673 25.6545C5.04098 25.67 5.08582 25.6849 5.13066 25.6997C5.31004 25.7592 5.49001 25.8146 5.67057 25.861L5.67237 25.8616C5.85294 25.9086 6.0335 25.9467 6.21407 25.9812C6.25891 25.9901 6.30376 25.9979 6.3486 26.0056C6.52977 26.0372 6.71033 26.0651 6.8909 26.0836C6.8921 26.0836 6.89329 26.0836 6.89449 26.0842C7.07386 26.1026 7.25204 26.1127 7.42962 26.1193C7.47386 26.1205 7.51751 26.1217 7.56176 26.1229C7.60541 26.1235 7.65025 26.1264 7.69389 26.1264C7.82782 26.1264 7.96116 26.1229 8.0939 26.1157C8.09509 26.1151 8.09628 26.1151 8.09807 26.1151C8.27207 26.1056 8.44426 26.0872 8.61467 26.0651C8.65771 26.0592 8.70017 26.0532 8.74322 26.0473C8.91422 26.0211 9.08402 25.9919 9.25024 25.9533C9.35368 25.9289 9.45533 25.9027 9.55518 25.8741C9.55996 25.8723 9.56474 25.8717 9.56952 25.8699C9.73514 25.8158 9.89957 25.7706 10.0646 25.7295C10.1076 25.7188 10.1507 25.7087 10.1937 25.6985C10.3396 25.6646 10.4855 25.6355 10.6302 25.6117C10.6499 25.6087 10.6697 25.6039 10.6894 25.6009C10.8514 25.576 11.0135 25.5581 11.1749 25.5444C11.2162 25.5408 11.2574 25.5385 11.2981 25.5355C11.4338 25.5266 11.5689 25.5212 11.7035 25.52C11.7333 25.52 11.7632 25.5182 11.7931 25.5182C11.9707 25.5188 12.1477 25.5272 12.3241 25.5402C12.3618 25.5432 12.3994 25.5468 12.4371 25.5504C12.6141 25.5664 12.7904 25.5873 12.9662 25.6146C12.9842 25.6176 13.0021 25.6212 13.0201 25.6248C13.1857 25.6521 13.3513 25.6855 13.5157 25.7235C13.548 25.7307 13.5803 25.7372 13.6126 25.7456C13.7836 25.7866 13.9546 25.833 14.1244 25.8842C14.1609 25.8949 14.1973 25.9068 14.2338 25.9181C14.4078 25.9723 14.5812 26.03 14.7534 26.0943C14.757 26.0955 14.7606 26.0967 14.7635 26.0985C14.9345 26.1621 15.1049 26.2318 15.2742 26.3044C15.31 26.3198 15.3459 26.3347 15.3824 26.3508C15.5474 26.4228 15.7118 26.499 15.8757 26.5793C15.9091 26.5954 15.9414 26.6126 15.9749 26.6287C16.1304 26.7067 16.2858 26.787 16.4401 26.8703C16.4574 26.8798 16.4748 26.8888 16.4921 26.8977C16.6565 26.9876 16.8197 27.0816 16.983 27.178C17.0194 27.2 17.0565 27.2214 17.0936 27.2435C17.2532 27.3399 17.4123 27.4375 17.5707 27.5386C17.5976 27.5559 17.6239 27.5731 17.6508 27.5904C17.7979 27.685 17.9444 27.7814 18.0897 27.8796C18.1148 27.8969 18.1399 27.9135 18.1656 27.9308C18.3223 28.0379 18.4783 28.1468 18.6338 28.2575C18.6685 28.2825 18.7031 28.3075 18.7378 28.3325C18.8927 28.4438 19.047 28.5569 19.2 28.6705C19.2174 28.683 19.2341 28.6967 19.2514 28.7092C19.3967 28.8175 19.5408 28.927 19.6837 29.0371C19.7118 29.0591 19.7405 29.0806 19.7686 29.102C19.9187 29.218 20.0676 29.3347 20.2153 29.4513C20.2475 29.4769 20.2798 29.5025 20.3121 29.5281C20.4598 29.6459 20.6075 29.7632 20.7534 29.881C20.7546 29.8822 20.7564 29.8834 20.7582 29.8846C20.9764 30.0601 21.2855 30.3113 21.6736 30.6261C21.7513 30.6891 21.832 30.7546 21.9157 30.823C22.0831 30.9593 22.2631 31.1057 22.4544 31.2611C22.5501 31.3384 22.6487 31.4188 22.7498 31.5015C22.9525 31.6663 23.1659 31.8401 23.3901 32.0222C23.6138 32.2043 23.8481 32.3953 24.0915 32.5935C24.4568 32.8911 24.8437 33.2059 25.249 33.5362C26.6954 34.9388 28.4281 36.6165 30.2206 38.3405C30.3839 38.497 30.5471 38.6541 30.7109 38.8112C31.038 39.126 31.3674 39.442 31.6957 39.7569C32.3534 40.3877 33.0099 41.0155 33.6556 41.6309C33.9713 41.932 34.284 42.2295 34.5931 42.5223C36.4969 44.3303 38.2499 45.974 39.554 47.1553C40.0472 47.6022 40.5321 48.0432 41.0063 48.4752C41.2729 48.718 41.5324 48.9537 41.7877 49.1852C41.8326 49.2257 41.878 49.2673 41.9229 49.3078C42.1686 49.5304 42.4078 49.747 42.6427 49.9588C42.69 50.0011 42.7366 50.0439 42.7833 50.0856C43.0194 50.2981 43.2514 50.507 43.4768 50.7081C43.5043 50.7331 43.5312 50.7569 43.5587 50.7813C43.7728 50.9723 43.9821 51.158 44.1865 51.3377C44.2146 51.3627 44.2439 51.3889 44.272 51.4139C44.4831 51.5996 44.687 51.7775 44.8867 51.9507C44.925 51.9846 44.9644 52.0179 45.0027 52.0513C45.1994 52.2215 45.3907 52.3863 45.5779 52.5434C45.6102 52.5708 45.6413 52.597 45.6729 52.6238C45.8643 52.7856 46.0514 52.9415 46.232 53.0897C46.235 53.0921 46.238 53.0951 46.2415 53.0975C46.4221 53.245 46.5955 53.3843 46.7653 53.5182C46.7934 53.5408 46.8227 53.564 46.8508 53.5861C47.0123 53.7128 47.1689 53.833 47.3214 53.9467C47.3513 53.9693 47.3812 53.9907 47.4105 54.0127C47.5635 54.1258 47.7124 54.2335 47.8547 54.3335C47.8714 54.3442 47.887 54.3549 47.9031 54.3668C48.0407 54.462 48.174 54.5507 48.3031 54.6328C48.3187 54.643 48.3354 54.6537 48.351 54.6638C48.4825 54.7471 48.6075 54.8209 48.7294 54.8893C48.7528 54.9024 48.7767 54.9161 48.8 54.9286C48.9184 54.9941 49.0332 55.053 49.1426 55.1042C49.1611 55.1131 49.1797 55.1202 49.1982 55.1286C49.3112 55.1797 49.4206 55.225 49.5241 55.2607L49.5259 55.2613C49.6293 55.2964 49.7267 55.3208 49.8206 55.341C49.8362 55.3446 49.8523 55.3482 49.8679 55.3511C49.9563 55.3672 50.0407 55.3755 50.1214 55.3767C50.1285 55.3767 50.1363 55.3791 50.1441 55.3791C50.1566 55.3791 50.1692 55.3767 50.1824 55.3761C50.217 55.375 50.2499 55.3726 50.2834 55.3684C50.3049 55.366 50.3271 55.3624 50.3486 55.3589C50.3809 55.3523 50.4114 55.3446 50.4424 55.3351C50.4616 55.3297 50.4819 55.3244 50.5004 55.3178C50.5333 55.3053 50.5644 55.2904 50.5943 55.275C50.6093 55.2672 50.6254 55.2613 50.6398 55.253C50.6834 55.2268 50.7264 55.1976 50.7665 55.1637C50.7713 55.1589 50.7767 55.1542 50.7809 55.15C50.8257 55.1054 50.8532 55.0453 50.8574 54.9822C50.8622 54.9114 50.8377 54.8423 50.7898 54.79C50.7826 54.7828 50.7516 54.7489 50.7085 54.7019C50.6673 54.6567 50.6146 54.5989 50.5405 54.518C50.4909 54.4632 50.4335 54.4013 50.3695 54.3311C50.1136 54.0508 49.7477 53.6509 49.2891 53.151C50.293 53.9705 50.8945 54.4615 50.9333 54.4936C50.9596 54.515 50.9901 54.5287 51.0218 54.5388C51.032 54.5424 51.0416 54.5424 51.0523 54.5448C51.0679 54.5472 51.0834 54.5531 51.0995 54.5531C51.1121 54.5531 51.1241 54.5519 51.1372 54.5501C51.1653 54.546 51.1928 54.537 51.2173 54.5251C51.2425 54.512 51.2652 54.496 51.2855 54.4763C51.2969 54.4644 51.307 54.4525 51.3166 54.4382C51.5151 54.1496 51.4978 53.7652 51.2783 53.2742C51.2233 53.1516 51.1563 53.0219 51.0768 52.8856C50.9973 52.7499 50.9052 52.6059 50.8012 52.4553C50.6972 52.3048 50.5812 52.1471 50.4532 51.9822C50.3253 51.8174 50.1854 51.6454 50.0341 51.4657C49.8141 51.205 49.5689 50.9277 49.3004 50.6343C49.1988 50.5242 49.0948 50.4111 48.9865 50.2957C48.8879 50.1897 48.7868 50.0832 48.6828 49.9737C48.162 49.4268 47.5719 48.8299 46.9166 48.1795C46.6541 47.9188 46.3809 47.6504 46.0986 47.3737C45.533 46.8184 44.9256 46.2287 44.2792 45.6026C43.8415 45.1777 43.3937 44.7439 42.9399 44.3017C42.5046 43.878 42.0018 43.3942 41.4463 42.8627C41.1133 42.5444 40.7617 42.2087 40.394 41.86C40.1495 41.6267 39.8978 41.3881 39.6401 41.1447C39.3824 40.9007 39.1187 40.6513 38.8508 40.3978C38.7163 40.271 38.5812 40.1431 38.4443 40.0151C37.8984 39.5004 37.3351 38.9695 36.7623 38.4315C36.4712 38.1608 36.1818 37.89 35.8918 37.6174ZM39.212 46.2906C38.6553 45.7859 38.0897 45.2741 37.5247 44.7623C36.4144 43.7149 35.31 42.6616 34.2816 41.6672C34.0233 41.4184 33.7722 41.172 33.5289 40.9298C32.797 40.2008 32.1292 39.5057 31.5169 38.8945C31.319 38.6773 31.1402 38.4411 31.0386 38.1756C31.0105 38.1096 30.9901 38.0417 30.9752 37.9745C30.9465 37.8388 30.9417 37.7031 30.9513 37.5752C30.9561 37.5109 30.9644 37.4484 30.9752 37.3889C30.9872 37.327 31.0015 37.2687 31.0194 37.2116C31.0888 36.9848 31.1976 36.7956 31.3172 36.6355C31.3471 36.5956 31.3776 36.5575 31.4081 36.5212C31.4697 36.4492 31.5318 36.3838 31.591 36.3248C31.8422 36.0945 32.0682 35.9553 32.2242 35.866C32.342 35.8006 32.4215 35.7637 32.4538 35.7494C32.4652 35.7446 32.47 35.7422 32.47 35.7422C32.47 35.7422 32.4221 35.7672 32.336 35.8232C32.3079 35.841 32.275 35.863 32.2386 35.8886C32.1656 35.9398 32.0771 36.0053 31.9791 36.0886C31.881 36.1719 31.774 36.2731 31.6646 36.3957C31.4487 36.6361 31.2167 36.9807 31.1695 37.4181C31.1599 37.527 31.1582 37.6383 31.1719 37.7501C31.1857 37.8614 31.2156 37.9715 31.27 38.0786C31.3686 38.2947 31.5366 38.4958 31.7304 38.6922C32.5626 39.4623 33.5552 40.3639 34.5955 41.3398C34.8562 41.5838 35.1217 41.832 35.3901 42.0825C36.1973 42.8348 37.0374 43.6096 37.881 44.3809C38.9943 45.4211 40.1088 46.462 41.1528 47.438C42.2021 48.4086 43.1581 49.3405 43.9916 50.1237C44.7205 50.8099 45.3262 51.4139 45.7895 51.8638C45.8553 51.9281 45.9187 51.9894 45.9785 52.0477C46.0969 52.1649 46.2027 52.2703 46.2948 52.3613C46.4329 52.4982 46.5393 52.6047 46.6123 52.6767C46.6846 52.7487 46.7223 52.7874 46.7223 52.7874C46.7223 52.7874 46.7175 52.7832 46.7091 52.7755C46.6912 52.7612 46.6547 52.7315 46.6015 52.688C46.5752 52.666 46.5447 52.641 46.51 52.613C46.4412 52.5559 46.3552 52.4863 46.2547 52.4041C46.2045 52.3631 46.1507 52.3191 46.0933 52.2714C46.0359 52.2244 45.9749 52.1744 45.9097 52.1215C45.7824 52.0132 45.6407 51.8947 45.4858 51.7662C45.1761 51.5085 44.8155 51.2098 44.4173 50.8735C44.2182 50.7051 44.0096 50.5266 43.7937 50.3397C42.9309 49.5881 41.9091 48.727 40.8454 47.7712C40.5806 47.5308 40.3109 47.2868 40.0377 47.0398C39.7668 46.7929 39.4906 46.5429 39.212 46.2906ZM29.0051 36.648C28.9034 36.5575 28.7785 36.4486 28.6362 36.3231C28.4939 36.1981 28.3342 36.0559 28.162 35.8976C27.8194 35.581 27.4135 35.2173 26.9895 34.818C26.5632 34.4205 26.1154 33.9884 25.667 33.5582C25.2227 33.1237 24.7779 32.6893 24.3671 32.2751C24.2643 32.1722 24.1632 32.0704 24.0652 31.9704C23.9671 31.8704 23.8709 31.7722 23.7782 31.6758C23.5916 31.4842 23.4165 31.3021 23.2532 31.1361C23.0081 30.8861 22.8 30.6612 22.6326 30.4809C22.577 30.4208 22.525 30.366 22.4783 30.3166C22.3408 30.166 22.2469 30.0637 22.2087 30.022C22.1961 30.0083 22.1889 30.0006 22.1889 30.0006C22.1889 30.0006 22.3073 30.1024 22.5136 30.2803C22.6147 30.3714 22.7402 30.4797 22.8825 30.6046C23.0248 30.7296 23.1845 30.8718 23.3567 31.0301C23.4422 31.1093 23.5319 31.1914 23.6251 31.2759C23.8111 31.4455 24.0096 31.6259 24.2153 31.8163C24.3181 31.9115 24.4233 32.0091 24.5292 32.1097C24.742 32.3084 24.9608 32.5161 25.1815 32.7274C25.4027 32.9381 25.6269 33.1547 25.8505 33.3695C26.2948 33.8046 26.7396 34.239 27.1504 34.6526C27.5629 35.0638 27.9384 35.4584 28.2649 35.7916C28.5913 36.1249 28.852 36.4135 29.0398 36.6105C29.2239 36.8117 29.3286 36.9259 29.3286 36.9259C29.3286 36.9259 29.2114 36.8259 29.0051 36.648ZM17.7895 27.3327C17.7895 27.3327 17.844 27.2208 17.9115 27.0679C17.9456 26.9911 17.9821 26.903 18.0186 26.8084C18.055 26.7144 18.0921 26.6144 18.1262 26.5132C18.1626 26.4127 18.1901 26.3097 18.223 26.2127C18.2499 26.1145 18.2798 26.0217 18.3037 25.9402C18.3307 25.8586 18.3498 25.7884 18.3683 25.7384C18.3773 25.7134 18.3851 25.6938 18.3911 25.6807C18.3964 25.667 18.4 25.6599 18.4 25.6599C18.4 25.6599 18.4036 25.667 18.4096 25.6801C18.4269 25.72 18.4646 25.817 18.4831 25.9527C18.4993 26.0425 18.5017 26.149 18.4945 26.2627C18.4903 26.3198 18.4813 26.3782 18.4688 26.4371C18.4562 26.496 18.4407 26.5549 18.4227 26.6138C18.3779 26.7281 18.3295 26.8418 18.2619 26.9364C18.1997 27.034 18.125 27.1137 18.055 27.1744C18.0197 27.2054 17.9863 27.231 17.9546 27.2512C17.8601 27.3137 17.7895 27.3327 17.7895 27.3327ZM26.5417 33.3088C26.4933 33.041 26.5292 32.7655 26.6404 32.5209C26.6206 32.5751 26.6057 32.6292 26.5943 32.6822C26.5824 32.7351 26.5752 32.7875 26.5716 32.8381C26.5471 33.1279 26.6362 33.357 26.7139 33.4921C26.7552 33.5606 26.7928 33.6088 26.8215 33.6397C26.8484 33.6712 26.8628 33.6873 26.8628 33.6873C26.8628 33.6873 26.8562 33.6665 26.8443 33.6272C26.8299 33.5891 26.8197 33.5296 26.803 33.4594C26.7845 33.3511 26.7761 33.2071 26.8024 33.0494C26.8114 32.9964 26.8239 32.9422 26.8413 32.8875C26.8765 32.778 26.9315 32.6685 27.0045 32.5661C27.0786 32.4638 27.1785 32.3757 27.2825 32.3055C27.4039 32.2239 27.5271 32.1847 27.6622 32.1555C27.7961 32.1293 27.9372 32.1335 28.0712 32.1662C28.2057 32.196 28.3342 32.2543 28.4425 32.3364C28.4969 32.3763 28.5489 32.4257 28.5883 32.4661C28.6081 32.481 28.6368 32.5257 28.6607 32.5542C28.6768 32.5697 28.696 32.6078 28.7133 32.6328C28.8532 32.8607 28.8891 33.1279 28.8532 33.3546C28.8185 33.5832 28.7193 33.7665 28.6326 33.8849C28.6099 33.9123 28.5895 33.9384 28.571 33.9611C28.5525 33.9843 28.5357 34.0033 28.5202 34.0176C28.5064 34.0325 28.4951 34.0438 28.4879 34.0521C28.4807 34.0599 28.4771 34.064 28.4771 34.064C28.4771 34.064 28.4975 34.0551 28.5357 34.039C28.574 34.0247 28.6284 33.9986 28.6978 33.9539C28.7629 33.9111 28.8407 33.8474 28.9154 33.7617C28.9531 33.7189 28.9895 33.6701 29.0236 33.6147C29.0577 33.5594 29.0888 33.4987 29.1157 33.4302C29.1372 33.379 29.154 33.3231 29.1665 33.2642C29.1791 33.2047 29.1881 33.1428 29.1934 33.0791C29.1934 33.1345 29.1892 33.1898 29.1827 33.244C29.1546 33.4624 29.0727 33.6736 28.9417 33.8545C28.8431 33.9914 28.7169 34.1104 28.565 34.2045C27.9372 34.5931 27.1115 34.4014 26.7217 33.7766C26.6302 33.6278 26.571 33.4701 26.5417 33.3088ZM21.3112 29.5305C21.2538 29.4793 21.197 29.4293 21.1396 29.3775L20.9902 29.24L20.9525 29.2055C20.9477 29.2008 20.9465 29.2002 20.9441 29.1978C20.9411 29.1954 20.9369 29.1913 20.9262 29.1794L20.9094 29.1603L20.8431 29.0835C20.8191 29.0496 20.7982 29.0145 20.7797 28.9788C20.7611 28.9431 20.7456 28.9062 20.7325 28.8699C20.7067 28.7961 20.6918 28.7211 20.6864 28.6473C20.675 28.4021 20.7372 28.1766 20.8257 27.9737C20.861 28.0861 20.8933 28.1903 20.925 28.292C20.9118 28.3486 20.9017 28.4045 20.8957 28.4616C20.8903 28.5182 20.8885 28.5753 20.8921 28.6307C20.9029 28.7497 20.9471 28.8568 21.0045 28.9431L21.0721 29.0187L21.0864 29.0347C21.0882 29.0365 21.0978 29.0449 21.0996 29.0466L21.1372 29.0806L21.1839 29.1216C21.2108 29.2091 21.2353 29.2871 21.2568 29.3549C21.2783 29.4233 21.2963 29.4817 21.3112 29.5305ZM21.2867 23.1759C21.4487 23.4347 21.6162 23.6621 21.7716 23.8591C21.9271 24.056 22.0706 24.2227 22.1866 24.3613C22.302 24.5006 22.3934 24.6101 22.455 24.6845C22.5172 24.7589 22.5501 24.7987 22.5501 24.7987C22.5501 24.7987 22.5136 24.7624 22.4449 24.6934C22.3767 24.625 22.2762 24.5238 22.1483 24.3953C22.0861 24.3298 22.0162 24.2584 21.9396 24.1792C21.7872 24.0221 21.6108 23.8376 21.4314 23.6162C21.3417 23.5056 21.2508 23.3853 21.1623 23.2556C21.0727 23.1259 20.9872 22.986 20.9046 22.8378C20.7408 22.5415 20.5919 22.2112 20.4586 21.8589C20.3922 21.6827 20.3295 21.5012 20.2709 21.3156C20.2141 21.1287 20.1525 20.9389 20.0999 20.7478C20.0724 20.652 20.0449 20.5556 20.0174 20.4592L19.9181 20.1831C19.8649 19.9938 19.7519 19.8278 19.6634 19.6516C19.6138 19.5665 19.5492 19.4892 19.493 19.407C19.4368 19.3249 19.377 19.2446 19.307 19.1714C19.2443 19.0928 19.1779 19.0172 19.1091 18.9428C18.9023 18.7209 18.6733 18.5144 18.4532 18.3037C18.3043 18.1644 18.1561 18.024 18.0144 17.88C17.8727 17.7354 17.7369 17.5878 17.6114 17.4336C17.4888 17.2783 17.3752 17.1165 17.2771 16.9528C17.2341 16.8665 17.191 16.782 17.1486 16.6981L17.0858 16.5737C17.0691 16.5309 17.0559 16.4862 17.041 16.4434C17.0081 16.3583 16.98 16.2726 16.9555 16.1875C16.907 16.0179 16.8748 15.8501 16.8508 15.6876C16.8389 15.6061 16.8287 15.5263 16.8203 15.4484C16.8156 15.2912 16.8108 15.1407 16.8066 14.9979C16.7982 14.855 16.8293 14.7199 16.8377 14.5932C16.8508 14.467 16.8634 14.3492 16.8754 14.2397C16.8879 14.1314 16.9166 14.035 16.9334 13.9463C16.9435 13.9023 16.9525 13.86 16.9615 13.8213C17.023 13.5464 17.0577 13.3922 17.0577 13.3922C17.0577 13.3922 17.0308 13.597 16.9836 13.9552C16.9734 14.0445 16.9519 14.1433 16.9465 14.2516C16.9429 14.3599 16.9387 14.4759 16.9351 14.6009C16.913 14.8497 16.9441 15.1288 16.9674 15.4329C17.0141 15.7322 17.0798 16.0566 17.218 16.3732C17.2335 16.413 17.2479 16.4541 17.2658 16.494L17.3304 16.6088C17.3734 16.6856 17.4171 16.7641 17.4613 16.8427C17.5629 16.9921 17.6682 17.145 17.7878 17.2908C18.0311 17.5806 18.3187 17.8526 18.62 18.1252C18.6942 18.1948 18.7701 18.2638 18.846 18.3335C19.0739 18.5429 19.3046 18.7572 19.5085 19.0035C19.5809 19.0809 19.6431 19.1678 19.7029 19.2565C19.762 19.3451 19.829 19.4291 19.8816 19.5213C19.9289 19.6171 19.9815 19.7099 20.0293 19.8052C20.0532 19.8528 20.0765 19.9004 20.0963 19.9492C20.1166 19.998 20.1345 20.048 20.1483 20.0991C20.1824 20.1985 20.2159 20.2973 20.2493 20.3961C20.2756 20.4931 20.3014 20.5901 20.3277 20.6859C20.3779 20.8793 20.4353 21.065 20.4885 21.2495C20.6039 21.6161 20.7163 21.9696 20.846 22.2957C20.9776 22.62 21.1259 22.9164 21.2867 23.1759ZM27.6419 30.031C27.8852 30.294 28.131 30.5624 28.3773 30.8296C28.8658 31.3688 29.3549 31.9073 29.8069 32.4191C30.0335 32.6738 30.2505 32.9226 30.4556 33.1583C30.5579 33.2761 30.6577 33.3915 30.754 33.5028C30.8502 33.6135 30.9435 33.7212 31.0338 33.8236C31.1235 33.9266 31.2084 34.0259 31.2897 34.1206C31.5318 34.4044 31.7321 34.6484 31.8876 34.8299C31.9384 34.8918 31.9839 34.946 32.0233 34.9936C32.1411 35.137 32.2069 35.2162 32.2069 35.2162C32.2069 35.2162 32.1746 35.184 32.1142 35.1239C32.0837 35.0936 32.0466 35.0573 32.0018 35.0132C31.9582 34.9698 31.9073 34.9198 31.8505 34.8633C31.6837 34.6925 31.4589 34.4705 31.1976 34.2039C31.1103 34.1146 31.0194 34.0206 30.9256 33.9218C30.5489 33.526 30.1034 33.0708 29.6371 32.5721C29.1689 32.0758 28.6762 31.5402 28.1836 31.004C27.6951 30.4648 27.2054 29.9262 26.7534 29.415C26.4126 29.033 26.0951 28.6646 25.8063 28.3313C25.71 28.2206 25.6168 28.1129 25.5271 28.01C25.3471 27.8046 25.1857 27.6136 25.0428 27.4434C24.8999 27.2732 24.7767 27.1244 24.6733 27.0036C24.5722 26.8804 24.4921 26.784 24.4377 26.718C24.3833 26.6519 24.3546 26.6174 24.3546 26.6174C24.3546 26.6174 24.4843 26.7453 24.7109 26.9697C24.7665 27.0268 24.8287 27.0893 24.8963 27.1578C24.9638 27.2256 25.0374 27.2994 25.1157 27.3785C25.2724 27.5362 25.4481 27.7142 25.6365 27.9118C26.0132 28.3069 26.4592 28.7622 26.925 29.2609C27.1588 29.5102 27.3985 29.7679 27.6419 30.031ZM15.9492 12.4508C15.9331 12.6388 15.9038 12.8221 15.8625 12.9977C15.8212 13.1732 15.7668 13.3423 15.6999 13.5023C15.6658 13.5833 15.6293 13.6612 15.5898 13.7362C15.5504 13.8112 15.5073 13.8832 15.4619 13.9522C15.371 14.0903 15.2682 14.2165 15.1546 14.3289C15.0954 14.3879 15.0332 14.4432 14.968 14.495C14.9029 14.5468 14.8353 14.5944 14.7653 14.639C14.6756 14.6955 14.5818 14.7443 14.4849 14.7872C14.4532 14.8009 14.4197 14.8104 14.3869 14.8229C14.3205 14.8485 14.2535 14.8747 14.1848 14.8943C14.1441 14.9056 14.1011 14.9128 14.0592 14.9217C13.9958 14.936 13.9319 14.9508 13.8661 14.9598C13.82 14.9663 13.7722 14.9687 13.7256 14.9723C13.6616 14.9776 13.5982 14.9836 13.5325 14.9842C13.4727 14.9848 13.4111 14.9824 13.3501 14.9794C13.3041 14.977 13.2586 14.9764 13.212 14.9717C13.1456 14.9657 13.078 14.955 13.0105 14.9443C12.9662 14.9372 12.9226 14.9324 12.8777 14.9235C12.8018 14.9086 12.7259 14.8884 12.6487 14.8681C12.6111 14.858 12.5734 14.8509 12.5351 14.839C12.4203 14.805 12.3044 14.7652 12.1878 14.7193L12.186 14.7187C11.8278 14.5777 11.481 14.3837 11.1498 14.1516C11.0864 14.1076 11.023 14.0629 10.9615 14.0153C10.8048 13.8957 10.6529 13.7654 10.5059 13.6267C10.3325 13.4648 10.1638 13.2946 10.0054 13.109C9.79613 12.8638 9.60062 12.599 9.42184 12.3175C9.42065 12.3157 9.42005 12.3139 9.41885 12.3121C9.15039 11.8884 8.93335 11.448 8.77072 11.0023C8.6625 10.7053 8.5788 10.406 8.5202 10.1078C8.43231 9.6609 8.40122 9.21694 8.43111 8.78846C8.45921 8.37545 8.54292 7.99756 8.67804 7.66549C8.71153 7.58218 8.7486 7.50243 8.78866 7.42506C8.86878 7.27033 8.96146 7.12751 9.06669 6.99777C9.11931 6.9329 9.17491 6.87102 9.23291 6.8127C9.3202 6.72581 9.41646 6.64903 9.51632 6.57822C9.5498 6.55441 9.58148 6.52883 9.61616 6.50741C9.71242 6.4473 9.81168 6.39552 9.91392 6.35029C9.94561 6.3366 9.9791 6.32827 10.0114 6.31578C10.0837 6.2884 10.1549 6.25924 10.2296 6.23901C10.2709 6.2277 10.3139 6.22294 10.3558 6.21401C10.4239 6.19973 10.4909 6.18247 10.5603 6.17355C10.6075 6.16759 10.6571 6.1676 10.7049 6.16343C10.7707 6.15867 10.8359 6.15093 10.9029 6.15093C11.0063 6.15093 11.1115 6.15748 11.2174 6.16819C11.2467 6.17116 11.2772 6.17593 11.3065 6.18009C11.3866 6.1908 11.4673 6.2039 11.5486 6.22116C11.5803 6.2277 11.612 6.23365 11.6443 6.24139C11.7453 6.26519 11.8464 6.29257 11.9486 6.32589C11.9558 6.32827 11.9629 6.33006 11.9707 6.33244C12.0801 6.36874 12.1896 6.41159 12.2984 6.45801C12.3283 6.4705 12.3588 6.48479 12.3887 6.49907C12.4712 6.53656 12.5531 6.57584 12.635 6.61928C12.6661 6.63535 12.6978 6.65142 12.7289 6.66868C12.8323 6.72581 12.9357 6.78651 13.038 6.85257C13.0428 6.85555 13.0476 6.85792 13.0517 6.8609C13.1588 6.92993 13.264 7.00551 13.3686 7.08406C13.3985 7.10668 13.4278 7.12989 13.4565 7.1531C13.5342 7.2138 13.6108 7.27688 13.6873 7.34294C13.7172 7.36853 13.7471 7.39411 13.7764 7.42089C13.8745 7.50897 13.9713 7.60062 14.0652 7.69703C14.0676 7.69941 14.0706 7.70238 14.0736 7.70477C14.1704 7.80415 14.2637 7.9083 14.3564 8.01542C14.3839 8.04696 14.4102 8.07969 14.4371 8.11182C14.5047 8.19336 14.5704 8.27667 14.635 8.36296C14.6607 8.39748 14.6876 8.43199 14.7127 8.46711C14.7982 8.58494 14.8813 8.70515 14.9609 8.83012C14.9609 8.83012 14.9621 8.83131 14.9621 8.8325C15.3316 9.41512 15.603 10.037 15.7698 10.6547C15.7973 10.7577 15.8224 10.86 15.844 10.963C15.8882 11.1677 15.9205 11.3712 15.9402 11.5718C15.96 11.7724 15.9683 11.9699 15.9641 12.1627C15.9629 12.2609 15.9576 12.3568 15.9492 12.4508ZM8.65891 11.5522C8.7779 11.8039 8.91422 12.0467 9.05772 12.2853L9.05831 12.2871C9.14202 12.4228 9.22992 12.5555 9.322 12.6847C9.41407 12.8144 9.51033 12.9417 9.61019 13.0661C9.80929 13.3155 10.0251 13.5523 10.2589 13.7713C10.4927 13.9903 10.7438 14.1915 11.0069 14.3772C11.139 14.4694 11.2754 14.5551 11.4159 14.636C11.5564 14.7164 11.7005 14.7914 11.847 14.861C11.7698 14.8342 11.6933 14.8074 11.6174 14.7777C11.5414 14.7485 11.4655 14.7176 11.3919 14.683C11.2437 14.614 11.0978 14.5396 10.9561 14.4581C10.8144 14.376 10.6739 14.2903 10.5411 14.1945C10.4072 14.0992 10.278 13.9981 10.1525 13.8921C10.0269 13.7862 9.90496 13.6755 9.78717 13.5607C9.66998 13.4458 9.55638 13.3262 9.44696 13.2036C9.22932 12.9566 9.0332 12.6912 8.85204 12.4163L8.84726 12.4091L8.84606 12.4067C8.6906 12.1687 8.55368 11.9187 8.42812 11.6628C8.30196 11.4034 8.19016 11.1368 8.10167 10.8618C8.01198 10.5875 7.93964 10.3066 7.88762 10.0221C7.8356 9.73766 7.8081 9.44844 7.80391 9.15922C7.79853 8.86583 7.82125 8.58315 7.87207 8.29452C7.92289 8.00946 8.00062 7.72857 8.11601 7.46256C8.25712 7.12929 8.4628 6.82163 8.7199 6.57049C8.77132 6.5199 8.82453 6.47229 8.88014 6.42706C8.99075 6.3366 9.10914 6.25567 9.2347 6.18723C9.0045 6.35565 8.80301 6.55501 8.63798 6.78056C8.55667 6.89423 8.48492 7.01384 8.42154 7.13762C8.35757 7.26081 8.30256 7.38817 8.25354 7.5179C8.15668 7.77737 8.09748 8.04934 8.0634 8.32428C8.04665 8.45996 8.03709 8.59863 8.0323 8.73788C8.02812 8.87714 8.02872 9.01639 8.0335 9.15327C8.05861 9.70672 8.17102 10.2548 8.34741 10.7809C8.43649 11.0427 8.53873 11.3016 8.65891 11.5522ZM8.59075 2.59633C8.6051 2.64216 8.62245 2.68858 8.64158 2.73499C8.66011 2.78201 8.68104 2.82843 8.70136 2.87485C8.78029 3.0635 8.87236 3.24917 8.95487 3.42651C8.99673 3.51578 9.03679 3.60147 9.07506 3.68241C9.11332 3.76394 9.14979 3.84071 9.18328 3.91153C9.28313 4.12637 9.35129 4.2924 9.37939 4.36202C9.38896 4.38523 9.39374 4.39774 9.39374 4.39774C9.39374 4.39774 9.38417 4.38821 9.36743 4.36976C9.33275 4.33286 9.26818 4.26086 9.18686 4.16029C9.1462 4.1097 9.10137 4.05197 9.05473 3.9877C8.86579 3.73121 8.63559 3.37355 8.4616 2.9778C8.42035 2.87782 8.38089 2.77666 8.3504 2.67013C8.33306 2.61598 8.3211 2.56539 8.31093 2.5154C8.30077 2.466 8.2924 2.41602 8.28164 2.36484C8.24636 2.16667 8.23022 1.9804 8.22483 1.81972C8.21347 1.54001 8.23858 1.34184 8.24516 1.29721C8.24576 1.29066 8.24636 1.28709 8.24636 1.28709C8.24636 1.28709 8.27506 1.40254 8.3217 1.5894C8.33724 1.65189 8.35517 1.72212 8.37371 1.79889C8.41257 1.94945 8.45802 2.12501 8.50705 2.31366C8.53036 2.40293 8.56205 2.50885 8.59075 2.59633ZM3.64725 23.3371C4.72827 24.0894 6.01975 24.5059 7.0069 24.6047C7.25383 24.6273 7.48223 24.6434 7.68492 24.6428C7.88761 24.6446 8.0646 24.6327 8.20989 24.6214C8.42813 24.6 8.57581 24.578 8.6362 24.5684C8.65593 24.5655 8.66669 24.5631 8.66669 24.5631C8.66669 24.5631 8.65652 24.566 8.63679 24.5714C8.61706 24.5768 8.58837 24.5845 8.5501 24.5952C8.51183 24.6059 8.4652 24.6178 8.40959 24.6315C8.35398 24.644 8.28941 24.6583 8.21706 24.672C7.92767 24.7226 7.50436 24.7785 6.99554 24.7511C6.48791 24.7243 5.8942 24.6339 5.28732 24.4339C5.13366 24.3822 4.98119 24.3274 4.83231 24.2679C4.67686 24.2048 4.52678 24.1388 4.37611 24.0638C4.22603 23.9894 4.07655 23.9102 3.92947 23.8245C3.78238 23.7388 3.63829 23.6478 3.49778 23.5514C2.93754 23.1622 2.4359 22.6843 2.0652 22.1612C2.01796 22.0946 1.97312 22.0279 1.93007 21.9624C1.88762 21.897 1.84756 21.8315 1.81049 21.7666C1.77163 21.6976 1.73575 21.6298 1.70167 21.5631C1.66759 21.4959 1.6359 21.4292 1.606 21.362C1.48761 21.0936 1.40391 20.827 1.35488 20.5758C1.32917 20.4497 1.31303 20.3283 1.30526 20.2122C1.28911 19.9801 1.30466 19.7712 1.33396 19.5945C1.34831 19.5064 1.36624 19.4261 1.38478 19.3553C1.40331 19.2838 1.42365 19.2214 1.44338 19.1678C1.46311 19.1142 1.48283 19.069 1.49778 19.0333C1.51392 18.9976 1.52649 18.9702 1.53486 18.9518C1.54323 18.9333 1.54741 18.9238 1.54741 18.9238C1.54741 18.9238 1.53485 18.9637 1.51093 19.0381C1.48702 19.113 1.45952 19.2237 1.43441 19.366C1.39375 19.5784 1.38179 19.8676 1.42903 20.1991C1.44457 20.3098 1.46729 20.4247 1.49778 20.5437C1.55817 20.7805 1.65145 21.0305 1.7782 21.2804C1.80989 21.3423 1.84397 21.4054 1.87985 21.4679C1.91572 21.5304 1.95339 21.5923 1.99165 21.653C2.07536 21.7803 2.15966 21.9053 2.25055 22.0255C2.34322 22.1475 2.44307 22.2671 2.5495 22.3838C2.65533 22.5004 2.76774 22.6147 2.88493 22.7248C3.1199 22.9462 3.37581 23.1521 3.64725 23.3371ZM9.41765 23.9882C9.2335 24.062 9.03679 24.1233 8.82991 24.1715C8.70555 24.2006 8.5776 24.2227 8.44905 24.2417C8.41856 24.2465 8.38746 24.2506 8.35697 24.2542C8.22902 24.2709 8.09927 24.284 7.96833 24.2905C7.95578 24.2911 7.94382 24.2911 7.93126 24.2917C7.80989 24.2971 7.68731 24.2977 7.56355 24.2947C7.52947 24.2941 7.49598 24.2935 7.4619 24.2923C7.32678 24.2869 7.19165 24.278 7.05473 24.2631C7.04158 24.2619 7.02782 24.2596 7.01467 24.2578C6.88911 24.2435 6.76295 24.2239 6.6362 24.2012C6.60092 24.1953 6.56624 24.1887 6.53156 24.1816C6.39285 24.1548 6.25413 24.1239 6.11542 24.0876C6.10824 24.0858 6.10107 24.0834 6.0939 24.0816C5.96176 24.0459 5.82962 24.0055 5.69689 23.9608C5.66161 23.9489 5.62692 23.937 5.59165 23.9251C5.45293 23.8763 5.31482 23.8251 5.1773 23.7668C5.02304 23.702 4.87237 23.6317 4.72529 23.5567C3.69748 23.0354 2.8628 22.2939 2.34621 21.4334C2.27925 21.3221 2.21886 21.2108 2.16505 21.0989C2.05743 20.8764 1.97611 20.6538 1.9211 20.4342C1.86609 20.2146 1.83799 19.9986 1.8362 19.7879C1.835 19.5772 1.86011 19.3725 1.91273 19.1761C1.93963 19.0779 1.97252 18.9815 2.01258 18.8875C2.06938 18.7542 2.13934 18.6268 2.22125 18.5066C2.30316 18.3858 2.39764 18.2727 2.50406 18.1668C2.57761 18.0936 2.65652 18.0258 2.73904 17.9609C2.76594 17.9395 2.79524 17.921 2.82334 17.9008C2.88134 17.8591 2.93933 17.8181 3.00151 17.78C3.03619 17.7586 3.07327 17.7383 3.10914 17.7181C3.16774 17.6848 3.22752 17.6532 3.28911 17.6235C3.32857 17.6044 3.36924 17.586 3.40989 17.5687C3.47267 17.542 3.53664 17.5164 3.60122 17.4926C3.64307 17.4771 3.68552 17.4616 3.72857 17.4479C3.79733 17.4253 3.86789 17.4057 3.93904 17.386C3.98089 17.3747 4.02215 17.3628 4.0646 17.3527C4.14711 17.3331 4.23142 17.3176 4.31692 17.3021C4.3504 17.2962 4.38328 17.289 4.41736 17.2837C4.53754 17.2652 4.66011 17.2509 4.78448 17.2414C4.8066 17.2396 4.82991 17.2396 4.85204 17.2384C4.95488 17.2319 5.05892 17.2271 5.16475 17.2265C5.25264 17.2259 5.34113 17.2277 5.43081 17.2319C5.45234 17.2331 5.47267 17.2325 5.49419 17.2337C5.6066 17.2396 5.7208 17.2486 5.8356 17.2611C5.86848 17.2646 5.90137 17.27 5.93426 17.2742C6.01677 17.2843 6.09988 17.2956 6.18299 17.3093C6.22544 17.3164 6.26848 17.3247 6.31093 17.3331C6.38567 17.3468 6.46041 17.3616 6.53515 17.3783C6.58059 17.3884 6.62603 17.3991 6.67147 17.4104C6.74561 17.4283 6.81915 17.4479 6.89329 17.4682C6.93814 17.4807 6.98298 17.4926 7.02782 17.5062C7.10675 17.5301 7.18627 17.5562 7.26459 17.583C7.30286 17.5961 7.34172 17.608 7.38059 17.6217C7.49598 17.6634 7.61198 17.708 7.72678 17.7562C7.72798 17.7568 7.72917 17.7568 7.73037 17.7574C7.73156 17.758 7.73276 17.758 7.73395 17.7592L7.73575 17.7598C9.11452 18.3424 10.1662 19.2892 10.6978 20.3015C10.757 20.414 10.8096 20.527 10.8556 20.6407C10.9471 20.868 11.0123 21.0972 11.0488 21.3239C11.1211 21.778 11.0768 22.2255 10.9011 22.6391C10.8449 22.7706 10.7767 22.8962 10.6948 23.0146C10.6541 23.0741 10.6105 23.1318 10.5638 23.1878C10.5172 23.2437 10.4676 23.2979 10.415 23.3502C10.2745 23.4901 10.1118 23.618 9.93126 23.7299C9.85234 23.7787 9.76982 23.8245 9.68432 23.8674C9.59822 23.912 9.50973 23.9519 9.41765 23.9882Z" fill="#EACCB6"/>
<path d="M27.103 33.6464C27.3655 34.0666 27.469 33.4721 27.8911 33.2108C28.3138 32.9496 28.8956 33.121 28.6325 32.7002C28.3694 32.2795 27.8145 32.1509 27.3918 32.4128C27.286 32.4776 27.1987 32.5616 27.1311 32.6562C27.0636 32.7514 27.0163 32.8585 26.99 32.9698C26.9637 33.0817 26.9589 33.1983 26.9775 33.3132C26.9966 33.428 27.0373 33.5411 27.103 33.6464Z" fill="#EACCB6"/>
<path d="M28.2882 33.6482C28.2403 33.6827 28.1865 33.7142 28.1309 33.7422C28.0807 33.7785 28.0269 33.8106 27.9737 33.8368C27.9205 33.8612 27.8738 33.8993 27.8278 33.919C27.7829 33.9404 27.7453 33.9689 27.7166 33.9814C27.7022 33.9904 27.6909 33.9969 27.6831 34.0017C27.6753 34.0064 27.6711 34.0088 27.6711 34.0088C27.6711 34.0088 27.6891 34.016 27.7208 34.0285C27.7525 34.0356 27.8003 34.0534 27.8565 34.0523C27.9121 34.0517 27.9815 34.054 28.0496 34.0344C28.1172 34.0136 28.1877 33.985 28.2571 33.9511C28.3193 33.9065 28.3773 33.8577 28.4275 33.8077C28.4777 33.7571 28.5076 33.6952 28.5339 33.6464C28.5614 33.597 28.5674 33.5464 28.5758 33.5149C28.5794 33.481 28.5812 33.4619 28.5812 33.4619C28.5812 33.4619 28.5644 33.472 28.5357 33.4887C28.5112 33.5083 28.4675 33.528 28.4281 33.5577C28.3904 33.5893 28.3342 33.6119 28.2882 33.6482Z" fill="#EACCB6"/>
<path d="M43.2991 4.47998C38.5763 4.47998 37.948 0 35.1977 0C34.1794 0 33.4397 0.343984 32.955 0.896164C32.4687 0.343984 31.7298 0 30.7115 0C27.9604 0 27.3329 4.47998 22.6093 4.47998C19.1612 4.47998 16.4109 1.63021 16.4109 1.63021C16.4109 5.02805 19.5299 9.26691 25.3299 9.26691C29.542 9.26691 31.887 8.19794 32.955 6.52247C34.0214 8.19794 36.3671 9.26691 40.5793 9.26691C46.3792 9.26691 49.4983 5.02805 49.4983 1.63021C49.4983 1.63021 46.7479 4.47998 43.2991 4.47998Z" fill="#EACCB6"/>
</svg>
