<svg xmlns="http://www.w3.org/2000/svg" width="66" height="60" fill="none"><path fill="#EACCB6" d="M44.43 54.539c0-.635-.621-1.217-1.388-1.29-6.746-.55-13.54-.55-20.285 0-.767.073-1.387.655-1.387 1.29V55.633l.303 4.232c.024.18.623.18.647 0l.428-3.46c.022-.164.253-.164.275 0l.428 3.46a.15.15 0 0 0 .298 0l.429-3.46c.022-.164.253-.164.275 0l.429 3.46a.15.15 0 0 0 .298 0l.428-3.46c.022-.164.254-.164.275 0l.429 3.46a.15.15 0 0 0 .298 0l.429-3.46c.022-.164.253-.164.275 0l.429 3.46a.15.15 0 0 0 .298 0l.429-3.46c.022-.164.253-.164.275 0l.428 3.46a.15.15 0 0 0 .299 0l.429-3.46c.022-.164.253-.164.275 0l.428 3.46a.15.15 0 0 0 .299 0l.428-3.46c.023-.164.253-.164.275 0l.428 3.46a.15.15 0 0 0 .299 0l.428-3.46c.023-.164.253-.164.276 0l.428 3.46a.15.15 0 0 0 .299 0l.428-3.46c.023-.164.253-.164.275 0l.43 3.46a.15.15 0 0 0 .297 0l.43-3.46c.021-.164.252-.164.274 0l.429 3.46a.15.15 0 0 0 .298 0l.429-3.46c.022-.164.253-.164.275 0l.429 3.46a.15.15 0 0 0 .298 0l.429-3.46c.022-.164.253-.164.275 0l.428 3.46a.15.15 0 0 0 .299 0l.428-3.46c.023-.164.254-.164.276 0l.428 3.46a.15.15 0 0 0 .299 0l.428-3.46c.022-.164.254-.164.275 0l.429 3.46a.15.15 0 0 0 .298 0l.43-3.46c.021-.164.253-.164.274 0l.429 3.46c.024.18.622.18.646 0l.304-4.232v-.836c-.002-.086-.002-.172-.002-.258Zm-3.02.34c-.256.03-.565.069-.92.113l-1.196.115c-.439.046-.916.072-1.42.105-.252.015-.511.035-.776.048l-.812.033c-.551.024-1.12.04-1.7.046-.58.013-1.168.011-1.756.011-.589.001-1.176-.019-1.756-.027-.579-.014-1.148-.039-1.699-.062-.55-.026-1.083-.051-1.587-.087l-.734-.047c-.237-.019-.466-.038-.685-.054-.44-.032-.841-.074-1.198-.107l-.921-.097c-.256-.027-.456-.053-.592-.07a55.765 55.765 0 0 1-.209-.027l.806.048c.512.032 1.246.066 2.126.107l1.42.058c.503.023 1.035.032 1.585.053l1.695.038c.577.006 1.163.023 1.75.019.586.002 1.174.009 1.75-.002l.86-.008c.282-.003.56-.012.836-.017l.81-.018c.264-.006.522-.02.775-.028.503-.023.98-.032 1.419-.062l1.199-.063.923-.068.806-.057-.8.106Zm-14.046-.364.475.035a72.025 72.025 0 0 0 3.026.131c.649.019 1.341.025 2.034.021.346.005.691-.004 1.033-.005.34-.002.675-.014 1-.021l.935-.03a279.334 279.334 0 0 0 1.546-.072l.545-.034.476-.026-.472.055-.543.061c-.21.024-.448.042-.707.063-.26.02-.54.045-.838.061-.297.017-.61.043-.936.052-.325.01-.66.025-1.003.031-.342.004-.689.016-1.036.014a60.522 60.522 0 0 1-2.039-.041c-.325-.009-.639-.032-.937-.048-.297-.02-.578-.038-.837-.06-.519-.038-.949-.091-1.25-.124-.3-.036-.472-.063-.472-.063Zm15.518-.837c-.2-.008-.495-.016-.868-.033l-1.35-.048-1.751-.044-2.07-.04c-.736-.01-1.51-.014-2.312-.018-.801-.003-1.63.004-2.47.01-.842.01-1.697.025-2.55.047-.855.02-1.71.047-2.55.08-.84.037-1.667.069-2.467.113-.4.017-.793.046-1.178.066l-.287.015c-.043.003-.104.004-.134.008-.044.006-.099.009-.135.016a1.344 1.344 0 0 0-.454.152.926.926 0 0 0-.465.68 1.469 1.469 0 0 0-.019.206l.001.218.002.424c.008 1.107-.005 2.03-.005 2.677l-.01.75-.003.266-.019-.265-.05-.75c-.035-.645-.1-1.568-.153-2.675l-.022-.424-.011-.218c0-.08 0-.158.011-.238a1.163 1.163 0 0 1 .567-.874c.173-.103.364-.169.576-.207.055-.012.096-.014.145-.021.064-.009.1-.009.15-.014l.288-.022c.385-.03.778-.061 1.18-.085.801-.053 1.63-.106 2.473-.142.843-.037 1.7-.069 2.556-.092a116.857 116.857 0 0 1 7.354.051c.735.03 1.43.064 2.072.103.642.032 1.229.081 1.75.117l1.346.11c.373.033.664.064.864.083l.306.03-.308-.012ZM26.448 47.154c1.527-1.384 3.671-3.402 5.952-5.575l-.3-.287-.384.375a366.206 366.206 0 0 1-3.242 3.095l-2.515 2.278c-.273.247-.543.49-.807.731-.267.239-.53.472-.789.7-.776.68-1.512 1.305-2.16 1.87-.756.655-1.419 1.197-1.914 1.611l-.202.17-.345.283-.414.337-.054.045.428-.426.316-.314c.12-.115.253-.244.397-.386l.465-.455c.332-.325.71-.69 1.125-1.083.626-.587 1.32-1.258 2.07-1.967a9026.788 9026.788 0 0 1 4.04-3.776 316.488 316.488 0 0 0 3.286-3.04l.379-.354c-.875-.837-1.752-1.68-2.603-2.498a543.8 543.8 0 0 0-6.116 5.812l-.67.65-.669.65-.93.902a374.6 374.6 0 0 0-.89.87c-.424.416-.825.812-1.203 1.19a91.314 91.314 0 0 0-1.38 1.41c-.105.11-.206.216-.304.322-.395.421-.745.81-1.047 1.17-.455.54-.804 1.011-1.043 1.42-.16.274-.27.519-.328.738a1.59 1.59 0 0 0-.034.16c-.042.258-.002.475.122.656l.03.038a.278.278 0 0 0 .149.074.265.265 0 0 0 .038.003c.016 0 .03-.006.047-.009.01-.002.02-.002.03-.006a.265.265 0 0 0 .089-.045l1.644-1.343-1.463 1.599-.037.04a.261.261 0 0 0 .008.36l.015.014c.04.035.083.064.127.09.014.008.03.014.045.021.03.016.062.031.094.043.019.007.039.012.058.018.03.01.063.017.095.023l.064.01c.033.004.067.006.101.008.014 0 .025.003.038.003l.023-.003a1.543 1.543 0 0 0 .3-.035c.095-.02.192-.044.295-.08l.003-.001c.103-.036.213-.081.325-.132.018-.008.037-.015.055-.024.11-.051.225-.11.343-.175l.07-.04c.123-.069.248-.142.38-.226l.047-.03c.129-.083.262-.172.4-.267.016-.012.032-.021.049-.033.142-.1.291-.208.444-.32l.089-.067c.152-.113.309-.234.471-.36l.085-.068c.17-.135.345-.275.527-.423a55.68 55.68 0 0 0 .566-.471l.096-.081c.185-.158.377-.322.573-.492l.117-.1c.2-.175.404-.352.615-.538l.085-.075.63-.559.08-.071.687-.618.154-.139.705-.638.158-.143.74-.673.026-.022c.475-.433.959-.874 1.453-1.32ZM46.317 29.037c.146-.112.292-.224.44-.335l.043-.032c.154-.115.31-.229.466-.341l.1-.072c.157-.112.314-.222.472-.33l.07-.046c.148-.101.297-.2.447-.296l.074-.048c.16-.102.32-.201.482-.297l.104-.063c.165-.097.33-.192.496-.283l.045-.023c.157-.086.315-.168.475-.247l.092-.046a12.973 12.973 0 0 1 1.119-.485h.004a10.548 10.548 0 0 1 1.143-.35l.094-.022c.165-.038.332-.072.498-.1a7.946 7.946 0 0 1 1.226-.106l.09.002c.135.002.27.007.405.016.041.003.083.005.124.009.162.013.323.031.485.056l.06.012c.145.023.29.053.435.086l.13.03c.164.042.329.087.494.141l.015.004a5.806 5.806 0 0 0 .941.191 7.007 7.007 0 0 0 .92.062c.043 0 .088-.003.132-.004l.133-.003a8.22 8.22 0 0 0 .535-.036h.003a8.136 8.136 0 0 0 .677-.102c.181-.035.362-.073.542-.12l.002-.001a8.887 8.887 0 0 0 .673-.207 8.64 8.64 0 0 0 2.193-1.127c.841-.6 1.538-1.334 2.031-2.155.158-.263.292-.53.402-.797a4.869 4.869 0 0 0 .257-.805 4.427 4.427 0 0 0 .098-1.354 4.022 4.022 0 0 0-1.56-2.854 4.785 4.785 0 0 0-.773-.493c-.038-.02-.078-.037-.117-.056a6.431 6.431 0 0 0-.242-.113c-.048-.02-.098-.038-.147-.057-.076-.03-.151-.06-.228-.087-.054-.018-.108-.034-.162-.05a5.876 5.876 0 0 0-.227-.068l-.173-.042c-.076-.018-.152-.036-.23-.05a7.153 7.153 0 0 0-.413-.069c-.062-.009-.125-.015-.188-.022a6.2 6.2 0 0 0-.665-.04c-.033 0-.065-.003-.098-.003l-.112.003a6.416 6.416 0 0 0-.413.017 7.377 7.377 0 0 0-.84.103c-.06.01-.12.02-.181.033-.082.016-.163.035-.245.053l-.174.04c-.085.022-.17.046-.256.07-.054.016-.109.03-.163.047-.094.029-.187.061-.28.093l-.137.046c-.138.05-.276.104-.412.161h-.001l-.004.003c-1.432.604-2.625 1.547-3.426 2.694-.114.164-.22.332-.318.504a.278.278 0 0 0-.06.081 30 30 0 0 1-.474.95c-.33.63-.694 1.25-1.124 1.835a9.587 9.587 0 0 1-.696.85c-1.005 1.087-2.334 1.987-4.239 2.505l-1.38.375.142-.454.68-2.172a8.207 8.207 0 0 1 1.326-2.547c.28-.367.585-.706.909-1.02.323-.316.664-.606 1.018-.874 1.412-1.072 3.007-1.789 4.347-2.308a6.979 6.979 0 0 0 .238-.08c.032-.013.063-.027.094-.042a1.33 1.33 0 0 1 .053-.024l.037-.014.09-.034c.016-.005.027-.015.04-.022.013-.008.028-.014.038-.023.084-.039.165-.085.247-.127a7.776 7.776 0 0 0 2.359-1.909 8.53 8.53 0 0 0 .685-.937 8.466 8.466 0 0 0 1.019-2.284 7.05 7.05 0 0 0 .248-2.338 6.042 6.042 0 0 0-.05-.462A5.282 5.282 0 0 0 59 6.925a4.379 4.379 0 0 0-.933-1.401 3.665 3.665 0 0 0-.242-.218 4.89 4.89 0 0 0-.26-.198c.013-.05.03-.104.047-.164.122-.417.327-1.072.58-1.684.208-.502.409-.834.568-1.065.08-.116.149-.205.203-.28a.92.92 0 0 0 .114-.18.223.223 0 0 0 .017-.14.273.273 0 0 0-.089-.133c-.1-.09-.287-.188-.595-.314a5.964 5.964 0 0 0-.215-.084c-.022-.009-.04-.014-.06-.02a2.758 2.758 0 0 0-.119-.04L57.957.99c-.03-.008-.06-.016-.087-.02-.018-.004-.034-.005-.05-.007-.023-.003-.045-.007-.065-.007h-.01c-.015 0-.027.002-.04.004l-.035.004c-.016.004-.028.01-.04.016-.01.003-.019.006-.026.01a.204.204 0 0 0-.034.031l-.015.015a.273.273 0 0 0-.036.063c-.081.198-.033.699-.448 1.703a13.718 13.718 0 0 1-.326.723 17.756 17.756 0 0 1-.497.96 4.175 4.175 0 0 0-.474-.094 4.418 4.418 0 0 0-.387-.04c-.018 0-.037 0-.055-.002-.069-.003-.137-.006-.206-.006-.04 0-.08.004-.12.005a4.875 4.875 0 0 0-.437.03c-.051.007-.1.011-.15.019a5.43 5.43 0 0 0-.331.059c-.032.006-.064.01-.096.018-.143.032-.285.07-.427.114l-.108.037a6.58 6.58 0 0 0-.318.113 7.507 7.507 0 0 0-.425.184l-.157.077a7.272 7.272 0 0 0-.709.415l-.114.075a7.226 7.226 0 0 0-.394.29l-.065.055a8.236 8.236 0 0 0-.316.268c-.042.038-.084.079-.126.119a8.284 8.284 0 0 0-.242.235l-.134.141a8.035 8.035 0 0 0-.572.68c-.034.046-.069.09-.103.137a8.391 8.391 0 0 0-.303.444s0 .002-.002.003a8.388 8.388 0 0 0-1.117 2.71 7.14 7.14 0 0 0-.112.693 6.358 6.358 0 0 0 .09 2.043l.002.01c.57 2.55-.272 3.514-1.251 4.426l-.197.182c-.165.152-.332.305-.493.465-.322.321-.624.673-.853 1.106a3.49 3.49 0 0 0-.28.719c-.281 1.043-.52 1.719-.785 2.243-.075.149-.154.287-.236.416a6.439 6.439 0 0 1-.634.83l-.247.276-.185.203-.274.302-.437.481-.598.658-.355.39a6330.22 6330.22 0 0 1-5.844 6.403l-2.07 1.928.511.478c.103-.12.224-.266.363-.432l.229-.27.256-.297a125.34 125.34 0 0 0 .578-.665c.205-.236.422-.485.649-.74.452-.51.94-1.05 1.43-1.589.492-.535.984-1.072 1.453-1.568.233-.25.46-.488.677-.713.217-.226.423-.438.61-.636.377-.396.704-.713.926-.942l.357-.352-.32.386-.169.202c-.123.147-.266.319-.427.508l-.257.297c-.269.308-.57.657-.894 1.028l-.332.377c-.452.511-.941 1.05-1.43 1.589l-.737.799c-.243.262-.483.52-.717.769-.466.499-.912.953-1.288 1.35-.283.296-.536.549-.74.754l-.178.18c.882.825 1.778 1.663 2.658 2.49 1.42-1.37 2.774-2.68 3.94-3.812l1.158-.942 2.176-1.77.465-.379c.286-.23.518-.42.692-.56l.447-.357.096-.076c.148-.117.297-.234.447-.35l.087-.064Zm-1.229.124-.016.019-.027.026-.038.034-.15.138-.171.153.127-.41.046-.04.038-.034a.235.235 0 0 0 .013-.012l.014-.016.067-.076a.673.673 0 0 0 .113-.312 1.125 1.125 0 0 0-.033-.339l.1-.318c.088.203.15.428.139.674a.866.866 0 0 1-.157.436l-.065.077Zm.582-8.475.078-.29.101-.297c.014-.051.032-.101.053-.15.04-.097.09-.191.14-.285.026-.047.05-.095.074-.142.053-.093.12-.177.179-.265.06-.089.122-.176.194-.253.137-.164.285-.314.436-.458.15-.144.305-.282.454-.42.3-.273.588-.545.832-.835.06-.073.116-.148.17-.223.054-.075.106-.15.157-.225l.13-.234.065-.115c.018-.04.032-.08.047-.12.139-.317.205-.641.252-.94.022-.304.054-.584.032-.833a65.209 65.209 0 0 0-.013-.35 1.544 1.544 0 0 0-.016-.154c-.007-.05-.015-.097-.02-.141l-.044-.336-.03-.227.032.144.018.08.074.33c.017.089.045.185.058.294l.038.353c.008.126.04.261.03.405l-.013.45a3.914 3.914 0 0 1-.22.995c-.015.043-.028.088-.045.13l-.062.125-.129.255a4.872 4.872 0 0 1-.335.48 8.896 8.896 0 0 1-.841.87c-.22.211-.45.418-.656.64-.069.073-.136.15-.199.228-.07.073-.13.154-.186.236-.056.082-.12.16-.17.244-.044.089-.095.174-.14.261a1.57 1.57 0 0 0-.115.27l-.099.277-.083.289c-.052.19-.114.381-.17.567-.06.186-.121.368-.188.544a7.571 7.571 0 0 1-.446.979 5.175 5.175 0 0 1-.257.418c-.356.52-.739.877-.986 1.14l-.402.403.21-.252.153-.186c.233-.277.576-.668.9-1.186.162-.26.31-.556.44-.88.13-.326.242-.68.358-1.047.052-.184.11-.37.16-.563Zm-6.395 13.09a1.342 1.342 0 0 1-1.843.427 1.317 1.317 0 0 1-.629-1.126 1.137 1.137 0 0 0 .496.875.84.84 0 0 0 .162.085l.059.026-.044-.046a.46.46 0 0 1-.05-.057l-.062-.076a1.21 1.21 0 0 1-.22-.53c-.035-.227 0-.494.14-.722.017-.025.036-.063.052-.079.024-.029.054-.073.073-.088.04-.04.092-.089.146-.13a.965.965 0 0 1 .372-.17.978.978 0 0 1 .409-.01 1.046 1.046 0 0 1 .753.569c.027.054.05.108.068.163.07.22.062.428.038.572-.017.07-.027.13-.04.168l-.02.06.041-.048a1.28 1.28 0 0 0 .108-.148 1.096 1.096 0 0 0 .142-.653 1.166 1.166 0 0 0-.068-.317 1.33 1.33 0 0 1-.083 1.254Zm8.65-7.112c.036.099.073.194.11.281.017.043.035.084.052.123l.047.106a3.686 3.686 0 0 0 .075.159s-.126-.034-.265-.158c-.07-.061-.144-.14-.207-.238a1.567 1.567 0 0 1-.16-.323 2.184 2.184 0 0 1-.046-.177 1.278 1.278 0 0 1-.015-.484.995.995 0 0 1 .083-.293 1 1 0 0 0 .032.079c.018.05.037.12.064.201.024.083.055.175.08.273.034.097.062.2.098.3.016.052.034.102.052.151Zm10.342-8.905a6.436 6.436 0 0 1 .35-.136c.038-.013.077-.025.115-.039a7.35 7.35 0 0 1 .373-.114 5.807 5.807 0 0 1 .579-.136l.131-.023a7.26 7.26 0 0 1 .244-.035c.035-.004.07-.01.104-.013.114-.012.228-.022.34-.027.022-.001.043 0 .065-.002a5.37 5.37 0 0 1 .575.006l.07.004c.124.009.246.023.366.041l.104.02c.084.014.167.03.248.05.043.01.086.022.128.033a3.473 3.473 0 0 1 .938.393c.061.038.12.079.177.12.028.02.058.04.085.061a2.344 2.344 0 0 1 .518.546c.083.12.153.248.21.381.24.563.233 1.213-.011 1.878a3.87 3.87 0 0 1-.323.668c-.517.86-1.352 1.602-2.38 2.123a7.114 7.114 0 0 1-.451.21h-.001c-.137.059-.276.11-.414.16l-.105.035a7.013 7.013 0 0 1-.396.12l-.023.007a6.227 6.227 0 0 1-.52.114 6.002 6.002 0 0 1-.379.056l-.04.006a5.882 5.882 0 0 1-.876.028h-.037a4.936 4.936 0 0 1-.389-.037l-.092-.013a4.63 4.63 0 0 1-.38-.07h-.001a3.917 3.917 0 0 1-.588-.183 3.242 3.242 0 0 1-.513-.257 2.705 2.705 0 0 1-.633-.542 2.208 2.208 0 0 1-.337-.549c-.133-.31-.19-.64-.181-.977.016-.56.22-1.143.578-1.696.574-.883 1.541-1.69 2.766-2.206a.009.009 0 0 1 .006-.005Zm.046 6.884c.203 0 .43-.016.678-.038a6.09 6.09 0 0 0 .384-.052 7.495 7.495 0 0 0 1.698-.51 7.443 7.443 0 0 0 1.277-.706 6.207 6.207 0 0 0 1.397-1.31c.09-.12.175-.246.258-.373.077-.121.15-.248.214-.373.127-.25.22-.5.281-.736.12-.475.117-.895.063-1.178a2.71 2.71 0 0 0-.114-.442l.05.11c.015.035.035.08.055.134a2.27 2.27 0 0 1 .11.426 2.673 2.673 0 0 1-.021.982 3.738 3.738 0 0 1-.251.786c-.06.135-.128.266-.205.405a5.334 5.334 0 0 1-.9 1.14 6.362 6.362 0 0 1-1.665 1.156 6.616 6.616 0 0 1-.912.37 6.584 6.584 0 0 1-1.708.317 5.39 5.39 0 0 1-1.221-.079 3.998 3.998 0 0 1-.334-.076l-.116-.032s.165.03.457.058c.145.012.322.023.525.021Zm-8.16-13.678a6.636 6.636 0 0 1 .883-2.13v-.003c.08-.125.163-.246.249-.363a7.146 7.146 0 0 1 .276-.355l.08-.097a6.349 6.349 0 0 1 .58-.593l.091-.08c.075-.064.15-.127.227-.186l.091-.072c.104-.078.209-.153.315-.222l.021-.013a5.246 5.246 0 0 1 .64-.348c.032-.014.063-.03.095-.043a4.03 4.03 0 0 1 .325-.124l.028-.009a3.85 3.85 0 0 1 .635-.144l.091-.012c.106-.01.21-.017.314-.017.065 0 .128.007.192.012.05.004.101.004.15.01.065.009.129.025.192.038.046.01.093.015.139.028.07.019.136.045.203.07.037.014.076.024.113.04a2.22 2.22 0 0 1 .996.852c.278.427.445.966.487 1.587.01.142.013.287.01.433-.011.437-.08.886-.206 1.333a6.302 6.302 0 0 1-.325.89 6.972 6.972 0 0 1-.467.867l-.002.003v.002c-.538.846-1.223 1.536-1.983 2.007a4.88 4.88 0 0 1-.782.394 4.037 4.037 0 0 1-.349.12c-.038.012-.077.02-.114.03-.077.02-.153.04-.229.055-.044.009-.088.014-.133.02a2.94 2.94 0 0 1-.2.028c-.047.004-.093.005-.139.008a3.195 3.195 0 0 1-.182.005c-.066-.001-.13-.007-.193-.012-.047-.004-.095-.007-.14-.013-.066-.01-.13-.024-.193-.038-.042-.01-.085-.016-.125-.028a2.182 2.182 0 0 1-.202-.07c-.033-.012-.067-.023-.1-.036a2.137 2.137 0 0 1-.28-.148c-.035-.022-.067-.048-.101-.072a2.225 2.225 0 0 1-.45-.417 2.539 2.539 0 0 1-.383-.647c-.1-.24-.172-.5-.215-.773a4.201 4.201 0 0 1-.05-.564c-.008-.389.032-.793.12-1.203Zm5.585 2.807a7.619 7.619 0 0 0 1.2-1.484l.002-.002c.072-.119.142-.24.209-.362a6.762 6.762 0 0 0 .501-1.143c.044-.132.085-.265.12-.4.107-.4.175-.813.194-1.228.01-.273.003-.558-.03-.829a3.61 3.61 0 0 0-.19-.806 3.217 3.217 0 0 0-.384-.737 2.732 2.732 0 0 0-.597-.593c.126.068.244.149.355.24.166.136.315.295.443.47.129.174.237.365.32.565.116.266.194.547.245.832a4.656 4.656 0 0 1 .068.864 5.225 5.225 0 0 1-.176 1.286 6.011 6.011 0 0 1-.448 1.217 7.079 7.079 0 0 1-.418.744v.003l-.006.007c-.18.275-.377.54-.595.787a7.353 7.353 0 0 1-.705.689 4.986 4.986 0 0 1-.803.566 4.715 4.715 0 0 1-.892.403c.294-.14.576-.3.84-.484a7.08 7.08 0 0 0 .747-.605Zm1.077-9.86.228-.485c.082-.177.174-.363.253-.552a2.68 2.68 0 0 0 .11-.278 7.2 7.2 0 0 0 .086-.282l.133-.515.052-.21.076-.302s.008.053.015.146a4.325 4.325 0 0 1-.01.645c-.01.09-.023.187-.04.287-.022.103-.034.197-.069.305-.03.107-.07.208-.111.308a5.742 5.742 0 0 1-.725 1.182c-.122.151-.208.238-.208.238s.077-.2.21-.487ZM39.008 34.818c-.424.4-.83.763-1.173 1.08-.085.079-.169.154-.247.225l-.426.376a19.3 19.3 0 0 0-.17.15l-.323.279.288-.315.155-.165.18-.194c.13-.138.278-.294.44-.46.327-.333.703-.727 1.115-1.139.411-.413.855-.848 1.3-1.283.448-.43.895-.862 1.322-1.26.423-.4.83-.763 1.173-1.08.257-.237.488-.438.673-.6l.17-.15a64.741 64.741 0 0 0 .324-.28l-.02.021-.269.295-.155.164c-.167.18-.375.406-.62.655l-.255.261c-.174.18-.361.374-.558.574l-.303.305c-.41.414-.855.848-1.3 1.283-.447.429-.895.86-1.32 1.258Z"/><path fill="#EACCB6" d="M37.364 32.7c-.197.315.081.298.41.38.056.014.112.03.167.051.056.02.112.047.164.08.422.261.526.856.788.436a.896.896 0 0 0-.29-1.235.902.902 0 0 0-1.239.288ZM38.28 33.981c-.028-.012-.066-.04-.11-.062-.047-.02-.093-.058-.146-.082a1.15 1.15 0 0 1-.157-.095 1.218 1.218 0 0 1-.157-.094c-.046-.036-.103-.059-.14-.09-.04-.03-.084-.05-.109-.069-.03-.016-.045-.026-.045-.026l.006.053c.004.015.007.036.013.058a.292.292 0 0 0 .028.073c.014.024.028.052.045.08a.467.467 0 0 0 .062.082c.05.05.108.099.17.143.068.034.139.062.207.084.035.01.069.014.102.016.033.002.064.002.091.002.057 0 .105-.017.136-.024l.05-.02-.012-.007a.856.856 0 0 0-.033-.022ZM35.892 37.617l-1.313-1.23-.438-.41a3004.81 3004.81 0 0 0-3.817-3.56l-2.472-2.705-.564-.618-1.995-2.186a966.962 966.962 0 0 1-2.204-2.423l-.274-.302c-.575-.63-.96-1.052-1.301-1.725a6.727 6.727 0 0 1-.332-.774 17.063 17.063 0 0 1-.452-1.469 3.537 3.537 0 0 0-.124-.377 3.885 3.885 0 0 0-.772-1.2c-.232-.255-.483-.485-.73-.712a10.055 10.055 0 0 1-.758-.748 3.831 3.831 0 0 1-.59-.902 2.992 2.992 0 0 1-.105-.269c-.22-.655-.261-1.5.005-2.689l.002-.01.004-.024c.09-.43.132-.878.127-1.333a7.398 7.398 0 0 0-.45-2.416 8.533 8.533 0 0 0-1.127-2.12c-.034-.047-.07-.091-.104-.137a8.758 8.758 0 0 0-.222-.283c-.041-.05-.084-.1-.127-.15a9.846 9.846 0 0 0-.221-.247l-.135-.141a7.919 7.919 0 0 0-.24-.234c-.043-.04-.085-.082-.129-.12a8.004 8.004 0 0 0-.31-.263l-.07-.06a7.361 7.361 0 0 0-.393-.29l-.119-.076a7.35 7.35 0 0 0-.44-.27 6.274 6.274 0 0 0-.694-.341c-.052-.021-.103-.044-.154-.064a6.513 6.513 0 0 0-.313-.111c-.037-.012-.075-.027-.112-.038a5.904 5.904 0 0 0-.425-.114l-.099-.019a5.875 5.875 0 0 0-.328-.059l-.15-.018a4.86 4.86 0 0 0-.437-.03c-.04-.001-.08-.005-.12-.005-.07 0-.137.003-.206.006-.018 0-.037 0-.055.002-.13.007-.26.02-.388.04l-.087.013c-.13.021-.259.047-.386.08a16.957 16.957 0 0 1-.823-1.683C8.51 1.8 8.558 1.298 8.477 1.101a.276.276 0 0 0-.036-.063c-.004-.006-.01-.01-.015-.015a.162.162 0 0 0-.034-.03C8.385.988 8.376.985 8.367.98 8.355.975 8.342.97 8.327.966c-.01-.003-.024-.003-.036-.004C8.28.96 8.267.957 8.252.957l-.01.002c-.02 0-.043.003-.065.006-.017.003-.032.003-.05.007-.027.004-.056.013-.086.02l-.06.016c-.035.01-.077.025-.117.039l-.061.02a5.24 5.24 0 0 0-.216.084c-.23.095-.393.173-.502.245-.183.12-.216.22-.165.343.04.1.159.229.318.46.16.23.36.562.568 1.064a13.373 13.373 0 0 1 .38 1.04c.107.326.191.612.247.81-.089.063-.175.129-.26.198a3.497 3.497 0 0 0-.522.526c-.264.323-.483.689-.652 1.092a5.458 5.458 0 0 0-.397 1.738c-.04.572-.001 1.16.111 1.75a7.8 7.8 0 0 0 .322 1.173 8.562 8.562 0 0 0 1.72 2.86c.7.775 1.522 1.401 2.404 1.812a.277.277 0 0 0 .077.045l.091.034.038.014.053.023c.03.015.062.03.094.042a8.965 8.965 0 0 0 .238.08c1.268.493 2.765 1.166 4.121 2.147.433.313.853.654 1.244 1.035a8.846 8.846 0 0 1 1.31 1.592c.38.592.696 1.248.925 1.976.1.323.197.63.291.93l.283.903.107.34.142.454-.665-.18-.715-.195a9.706 9.706 0 0 1-1.913-.734c-1.32-.68-2.271-1.598-3.023-2.621a14.266 14.266 0 0 1-1.123-1.835 29.172 29.172 0 0 1-.474-.95.264.264 0 0 0-.06-.081 6.757 6.757 0 0 0-.723-1.024c-.776-.912-1.812-1.664-3.02-2.175l-.006-.002s-.002 0-.003-.002a8.187 8.187 0 0 0-.409-.16l-.14-.047c-.092-.032-.183-.063-.276-.092-.055-.017-.111-.032-.168-.047-.083-.024-.166-.048-.25-.07l-.179-.041a6.563 6.563 0 0 0-.24-.052c-.061-.013-.123-.023-.184-.034-.078-.013-.156-.027-.234-.038-.062-.01-.125-.017-.187-.024a5.772 5.772 0 0 0-.418-.04 9.684 9.684 0 0 0-.413-.017l-.112-.003c-.033 0-.065.002-.098.003a6.168 6.168 0 0 0-.43.018 5.947 5.947 0 0 0-.233.022c-.064.007-.127.013-.19.022-.077.01-.152.023-.228.036-.063.01-.124.02-.186.033a7.06 7.06 0 0 0-.225.05c-.059.014-.118.027-.176.043-.075.02-.15.043-.224.067-.055.017-.111.033-.166.051-.076.027-.15.056-.225.086-.05.02-.1.037-.15.058-.081.034-.16.073-.24.112l-.119.056c-.116.06-.229.124-.339.192l-.003.002a4.714 4.714 0 0 0-.814.639 4.016 4.016 0 0 0-1.191 2.803 4.635 4.635 0 0 0 .183 1.334c.051.18.114.358.187.536.11.268.244.535.402.798.197.328.427.642.685.94a7.886 7.886 0 0 0 1.867 1.557 8.838 8.838 0 0 0 2.346.99h.001a8.406 8.406 0 0 0 .677.145 7.77 7.77 0 0 0 .545.078c.18.019.358.029.536.035l.132.004.132.003c.134 0 .267-.003.4-.01h.004a6.97 6.97 0 0 0 .517-.05l.128-.019c.171-.026.341-.055.507-.094.104-.024.205-.05.305-.079l.015-.004c.165-.054.33-.1.495-.14l.129-.032c.146-.033.291-.063.436-.086l.06-.011c.161-.025.324-.043.485-.057l.123-.009a7.17 7.17 0 0 1 .405-.015l.09-.002c.178 0 .355.01.531.022l.113.01c.177.016.353.037.53.065l.053.01c.166.027.331.06.496.099.032.007.064.013.097.022.17.04.342.087.511.138.037.01.073.023.11.034.174.054.347.112.52.176l.01.005c.17.063.34.133.51.205.036.016.072.03.108.047.165.072.33.148.494.228.033.016.065.034.099.05a17.426 17.426 0 0 1 1.008.549l.11.066c.16.096.32.194.478.295l.08.051c.147.095.293.191.439.29l.076.05c.156.108.312.217.468.328.035.024.07.05.104.075.155.11.309.224.462.338l.051.038c.146.108.29.218.433.328l.085.065a54.937 54.937 0 0 1 .543.426c.148.118.296.235.441.353a.033.033 0 0 0 .005.004c.218.175.527.426.916.741l.242.197a614.419 614.419 0 0 0 .834.678c.203.165.416.34.64.521l.701.572 1.158.942c1.446 1.403 3.18 3.08 4.972 4.804l.49.471a818.653 818.653 0 0 0 3.882 3.711 312.474 312.474 0 0 0 6.413 5.953c.267.243.526.479.782.71l.135.123.72.65.14.128c.236.212.468.421.694.622l.082.073c.214.191.423.377.628.557l.085.076c.211.186.415.364.615.537l.116.1c.196.17.388.335.575.492l.095.08c.191.163.378.319.559.467l.01.007a39.162 39.162 0 0 0 1.08.85l.088.066a22.967 22.967 0 0 0 .493.354c.138.095.271.184.4.266l.048.03c.132.084.257.158.378.226l.071.04c.118.065.233.124.343.175.018.01.037.016.055.025.113.05.223.096.326.132h.002a2.61 2.61 0 0 0 .342.09c.088.016.173.025.253.026l.023.002c.013 0 .025-.002.038-.003a1.078 1.078 0 0 0 .26-.04l.058-.018a.915.915 0 0 0 .094-.043l.046-.022a.965.965 0 0 0 .127-.09l.014-.013a.258.258 0 0 0 .009-.36l-.081-.088a95.642 95.642 0 0 0-.169-.184l-.17-.187-1.08-1.18c1.003.82 1.605 1.31 1.643 1.343a.265.265 0 0 0 .089.045l.03.006c.016.002.031.008.047.008a.272.272 0 0 0 .187-.077.277.277 0 0 0 .03-.038c.2-.288.182-.673-.038-1.164a4.132 4.132 0 0 0-.201-.388 6.903 6.903 0 0 0-.276-.43c-.104-.151-.22-.309-.348-.474a16.779 16.779 0 0 0-.419-.516 27.79 27.79 0 0 0-.734-.832 42.765 42.765 0 0 0-.618-.66 90.68 90.68 0 0 0-1.765-1.794 381.424 381.424 0 0 0-2.637-2.577l-1.34-1.301a247.85 247.85 0 0 0-2.546-2.442c-.244-.233-.496-.472-.754-.715l-.79-.747-.406-.383a1205.663 1205.663 0 0 0-2.552-2.398Zm3.32 8.674-1.687-1.529a367.93 367.93 0 0 1-3.243-3.095c-.259-.249-.51-.495-.753-.737-.732-.73-1.4-1.424-2.012-2.035-.198-.218-.377-.454-.478-.72a1.147 1.147 0 0 1-.064-.2 1.419 1.419 0 0 1-.024-.4 1.793 1.793 0 0 1 .068-.363c.07-.227.179-.416.298-.577a2.623 2.623 0 0 1 .274-.31 3.424 3.424 0 0 1 .879-.583s-.048.025-.134.081a3.494 3.494 0 0 0-.357.265 3.177 3.177 0 0 0-.314.308c-.216.24-.448.585-.495 1.022-.01.109-.012.22.002.332a.984.984 0 0 0 .098.329c.099.216.267.417.46.613.833.77 1.825 1.672 2.866 2.648l.794.742c.807.753 1.647 1.528 2.491 2.299l3.272 3.057c1.05.97 2.005 1.902 2.839 2.686.729.686 1.334 1.29 1.797 1.74l.19.184.316.313.317.316.11.11-.013-.011a15.697 15.697 0 0 1-.199-.163l-.255-.209-.162-.133-.183-.15a45.262 45.262 0 0 0-.424-.355c-.31-.258-.67-.556-1.069-.892-.199-.169-.407-.347-.623-.534-.863-.752-1.885-1.613-2.949-2.569l-.807-.731-.826-.75Zm-10.207-9.643-.369-.325a28.018 28.018 0 0 1-.474-.425c-.343-.317-.748-.68-1.172-1.08-.427-.398-.875-.83-1.323-1.26-.444-.434-.89-.869-1.3-1.283a44.807 44.807 0 0 1-.589-.6c-.186-.19-.361-.373-.525-.539-.245-.25-.453-.475-.62-.655l-.155-.164-.27-.295-.02-.021s.12.101.326.28c.1.09.226.199.369.324.142.125.302.267.474.425.085.08.175.161.268.246.186.17.385.35.59.54.103.096.208.193.314.294.213.198.432.406.652.617.222.211.446.428.67.643.444.435.889.869 1.3 1.283.412.41.787.805 1.114 1.139.326.333.587.621.775.819l.289.315-.324-.278ZM17.79 27.333s.054-.112.122-.265a7.112 7.112 0 0 0 .215-.555c.036-.1.063-.203.096-.3.027-.099.057-.191.08-.273.028-.081.047-.152.065-.202a.793.793 0 0 1 .023-.057l.009-.021.01.02a1.323 1.323 0 0 1 .06.757 2.128 2.128 0 0 1-.047.177 1.489 1.489 0 0 1-.161.322 1.104 1.104 0 0 1-.307.315.632.632 0 0 1-.165.082Zm8.752 5.976a1.334 1.334 0 0 1 .098-.788 1.212 1.212 0 0 0-.068.317c-.025.29.064.519.142.654a.91.91 0 0 0 .108.148l.04.047-.018-.06c-.014-.038-.024-.097-.041-.168a1.247 1.247 0 0 1 .038-.572c.035-.109.09-.218.163-.32a1.043 1.043 0 0 1 .658-.41.959.959 0 0 1 .41.01c.134.029.262.087.37.17.055.04.107.089.146.13.02.014.049.059.073.087.016.016.035.054.052.079.14.228.176.495.14.722a1.22 1.22 0 0 1-.22.53l-.062.076a.514.514 0 0 1-.05.057c-.015.014-.026.026-.033.034l-.01.012.058-.025a.873.873 0 0 0 .162-.085 1.085 1.085 0 0 0 .326-.34 1.15 1.15 0 0 0 .17-.535 1.332 1.332 0 0 1-.628 1.125 1.342 1.342 0 0 1-2.024-.895Zm-5.23-3.778-.172-.153-.15-.138-.037-.034-.009-.008a.174.174 0 0 1-.018-.019l-.017-.019-.066-.076a.887.887 0 0 1-.157-.437c-.011-.245.051-.47.14-.673l.099.318a1.064 1.064 0 0 0-.033.339c.01.119.055.226.113.312l.067.076.014.016.014.012.037.034.047.04a27.5 27.5 0 0 0 .127.41Zm-.025-6.355c.162.259.33.486.485.683.155.197.299.364.415.502.115.14.206.25.268.323l.095.115-.105-.106-.297-.298-.208-.216a8.29 8.29 0 0 1-.509-.563 5.448 5.448 0 0 1-.526-.778 7.571 7.571 0 0 1-.446-.98c-.067-.175-.13-.357-.188-.542-.057-.187-.119-.377-.171-.568l-.083-.289-.099-.276c-.053-.19-.166-.355-.255-.531-.05-.085-.114-.163-.17-.245a1.84 1.84 0 0 0-.186-.236 4.141 4.141 0 0 0-.198-.228c-.207-.222-.436-.429-.656-.64-.149-.139-.297-.279-.439-.423a4.593 4.593 0 0 1-.737-.927l-.128-.255-.063-.124c-.017-.043-.03-.088-.045-.13a3.047 3.047 0 0 1-.085-.256 3.863 3.863 0 0 1-.105-.5 6.425 6.425 0 0 1-.03-.24l-.014-.45c-.009-.143.022-.278.03-.405l.038-.353c.013-.109.042-.205.058-.294l.029-.125.096-.429-.074.563c-.01.09-.032.188-.038.297l-.01.349c-.023.249.008.528.031.832.047.3.113.624.251.94.015.04.03.081.048.121l.064.115.131.234c.102.15.207.302.327.448.243.29.53.562.832.834.074.07.15.139.226.209.228.209.459.423.663.67.072.077.134.164.194.252.059.09.126.173.179.265.047.096.1.189.147.284.024.048.047.095.067.144a69.86 69.86 0 0 1 .153.447l.079.29c.05.193.107.379.16.564.116.366.228.72.358 1.046.132.324.28.62.44.88Zm6.355 6.855.735.799c.489.539.978 1.077 1.43 1.59.227.254.444.503.649.738l.298.345.28.32.256.298c.242.283.442.527.598.709l.135.164.184.222-.093-.092-.112-.11-.152-.15c-.166-.171-.391-.393-.652-.66a26.72 26.72 0 0 1-.272-.282c-.377-.396-.823-.851-1.289-1.35-.468-.496-.96-1.032-1.453-1.568-.489-.54-.979-1.078-1.43-1.589-.341-.382-.659-.75-.948-1.084l-.279-.321a34.65 34.65 0 0 1-.484-.567c-.143-.17-.266-.319-.37-.44-.1-.123-.18-.219-.235-.285l-.083-.1s.13.127.356.352l.185.188.22.22c.156.158.332.336.52.534.377.395.823.85 1.289 1.349l.717.77Zm-11.693-17.58a3.814 3.814 0 0 1-.086.547 3.222 3.222 0 0 1-.273.738 2.334 2.334 0 0 1-.825.903c-.09.056-.183.105-.28.148-.032.014-.065.023-.098.036-.067.025-.133.052-.202.071-.04.012-.084.019-.126.028-.063.014-.127.029-.193.038-.046.006-.094.009-.14.012-.064.006-.128.012-.194.012-.06 0-.12-.002-.182-.005-.046-.002-.091-.003-.138-.007a3.058 3.058 0 0 1-.201-.028c-.045-.007-.088-.012-.133-.02-.076-.015-.152-.036-.23-.056-.037-.01-.075-.017-.113-.029a4.22 4.22 0 0 1-.347-.12h-.002a5.024 5.024 0 0 1-1.036-.567 5.743 5.743 0 0 1-.644-.525 6.346 6.346 0 0 1-1.084-1.31l-.003-.005a6.823 6.823 0 0 1-.648-1.31 5.988 5.988 0 0 1-.25-.894 5.034 5.034 0 0 1-.09-1.32c.028-.413.112-.79.247-1.123a2.504 2.504 0 0 1 .555-.853c.087-.086.183-.163.283-.234.034-.024.065-.05.1-.07.096-.06.196-.112.298-.158.032-.013.065-.022.097-.034.073-.028.144-.057.219-.077.04-.011.084-.016.126-.025.068-.014.135-.032.204-.04.047-.006.097-.006.145-.01.066-.005.13-.013.198-.013.103 0 .208.006.314.017l.09.012c.08.01.16.024.242.041l.095.02c.101.024.202.052.305.085l.022.006a4.25 4.25 0 0 1 .664.287c.031.016.063.032.094.05.103.057.207.118.309.184l.014.008a5.43 5.43 0 0 1 .635.482l.09.078a5.966 5.966 0 0 1 .58.594l.08.097c.068.081.133.165.198.251l.078.104a7.244 7.244 0 0 1 .25.365 6.672 6.672 0 0 1 .881 2.131 5.379 5.379 0 0 1 .12 1.2 3.746 3.746 0 0 1-.015.288Zm-7.29-.899c.119.252.255.495.399.733v.002a7.181 7.181 0 0 0 .552.78 6.645 6.645 0 0 0 1.397 1.31 5.564 5.564 0 0 0 .84.484 6.274 6.274 0 0 1-.23-.083 3.376 3.376 0 0 1-.225-.095 5.693 5.693 0 0 1-.85-.489 6.852 6.852 0 0 1-1.094-.99 7.076 7.076 0 0 1-.596-.788l-.005-.007v-.002a6.973 6.973 0 0 1-.745-1.545 6.422 6.422 0 0 1-.214-.84 5.22 5.22 0 0 1-.084-.863 4.457 4.457 0 0 1 .068-.864c.05-.286.129-.566.244-.832a2.749 2.749 0 0 1 .764-1.036 2.3 2.3 0 0 1 .355-.24c-.23.169-.432.368-.597.594a2.828 2.828 0 0 0-.216.357c-.064.123-.12.25-.168.38a3.55 3.55 0 0 0-.19.806 4.705 4.705 0 0 0-.032.414c-.004.14-.003.278.002.415.025.554.137 1.102.313 1.628.09.262.192.52.312.771ZM8.59 2.596c.014.046.031.093.05.139l.06.14c.08.188.171.374.254.552l.12.255.108.23a9.66 9.66 0 0 1 .21.486l-.026-.028a3.898 3.898 0 0 1-.312-.382 5.469 5.469 0 0 1-.593-1.01 2.892 2.892 0 0 1-.151-.463l-.03-.15a3.868 3.868 0 0 1-.036-1.068l.001-.01.076.302.052.21.133.515c.023.089.055.195.084.282ZM3.647 23.337c1.081.752 2.373 1.169 3.36 1.268.247.022.475.038.678.038a5.928 5.928 0 0 0 .982-.08l-.03.008-.087.024a4.86 4.86 0 0 1-.333.077c-.29.05-.713.107-1.221.08a6.62 6.62 0 0 1-2.164-.484 7.524 7.524 0 0 1-1.335-.716 5.865 5.865 0 0 1-1.432-1.39 4.052 4.052 0 0 1-.46-.8 3.74 3.74 0 0 1-.25-.786 2.735 2.735 0 0 1-.021-.982 2.586 2.586 0 0 1 .11-.426c.02-.054.039-.099.054-.135l.037-.081.012-.028-.036.114a2.616 2.616 0 0 0-.082 1.161c.016.11.038.226.069.345a3.618 3.618 0 0 0 .382.924 5.237 5.237 0 0 0 .67.916 6.232 6.232 0 0 0 1.098.953Zm5.77.651a4.053 4.053 0 0 1-.968.254 4.87 4.87 0 0 1-.48.049H7.93a5.355 5.355 0 0 1-.47.001 5.944 5.944 0 0 1-.406-.029l-.04-.005a6.004 6.004 0 0 1-.483-.076 6.549 6.549 0 0 1-.417-.094l-.021-.006a6.804 6.804 0 0 1-.397-.121l-.105-.036a7.051 7.051 0 0 1-.867-.368c-1.028-.522-1.862-1.263-2.379-2.124a4.073 4.073 0 0 1-.181-.334 3.46 3.46 0 0 1-.244-.665 2.753 2.753 0 0 1-.085-.646 2.254 2.254 0 0 1 .385-1.281 2.302 2.302 0 0 1 .518-.546c.027-.021.056-.04.084-.06.058-.042.116-.083.179-.121a3.01 3.01 0 0 1 .6-.287 2.898 2.898 0 0 1 .337-.107c.042-.011.083-.023.126-.033.082-.02.166-.035.252-.05l.1-.02c.12-.018.243-.032.367-.042.023-.001.046-.001.068-.003a5.433 5.433 0 0 1 .579-.006c.021.001.042 0 .063.002.113.006.227.015.342.027l.098.013a6.043 6.043 0 0 1 .96.194l.134.038c.079.024.158.05.237.077l.116.039c.115.041.231.086.346.134l.003.001.004.002h.002c1.379.583 2.43 1.53 2.962 2.543.059.112.112.225.158.339.091.227.156.456.193.683.072.454.028.901-.148 1.315a2.128 2.128 0 0 1-.337.549 2.705 2.705 0 0 1-.88.68 2.85 2.85 0 0 1-.266.12Z"/><path fill="#EACCB6" d="M27.103 33.646c.262.42.366-.174.788-.435.423-.261 1.005-.09.742-.51a.903.903 0 0 0-1.655.612c.019.115.06.228.125.333ZM28.288 33.648a1.176 1.176 0 0 1-.157.094c-.05.037-.104.069-.157.095-.053.024-.1.062-.146.082-.045.021-.083.05-.111.062-.015.01-.026.016-.034.02l-.012.008.05.02c.032.007.08.024.136.023.055 0 .125.002.193-.018.067-.02.138-.049.207-.083.062-.044.12-.093.17-.143.05-.05.08-.113.107-.162.027-.049.033-.1.042-.131l.005-.053-.045.027c-.025.02-.069.039-.108.069-.038.031-.094.054-.14.09ZM43.3 4.48C38.575 4.48 37.947 0 35.197 0c-1.019 0-1.758.344-2.243.896C32.469.344 31.73 0 30.712 0c-2.752 0-3.38 4.48-8.103 4.48-3.448 0-6.198-2.85-6.198-2.85 0 3.398 3.119 7.637 8.919 7.637 4.212 0 6.557-1.07 7.625-2.745 1.066 1.676 3.412 2.745 7.624 2.745 5.8 0 8.92-4.239 8.92-7.637 0 0-2.751 2.85-6.2 2.85Z"/></svg>